M48
; DRILL file {KiCad 9.0.6} date 2026-03-19T17:59:06-0400
; FORMAT={-:-/ absolute / metric / decimal}
; #@! TF.CreationDate,2026-03-19T17:59:06-04:00
; #@! TF.GenerationSoftware,Kicad,Pcbnew,9.0.6
; #@! TF.FileFunction,Plated,1,4,PTH
FMAT,2
METRIC
; #@! TA.AperFunction,Plated,PTH,ComponentDrill
T1C0.200
; #@! TA.AperFunction,Plated,PTH,ViaDrill
T2C0.300
; #@! TA.AperFunction,Plated,PTH,ComponentDrill
T3C0.600
; #@! TA.AperFunction,Plated,PTH,ComponentDrill
T4C1.000
; #@! TA.AperFunction,Plated,PTH,ComponentDrill
T5C1.050
; #@! TA.AperFunction,Plated,PTH,ComponentDrill
T6C1.470
%
G90
G05
T1
X142.354Y-91.102
X142.354Y-92.202
X142.904Y-90.552
X142.904Y-91.652
X142.904Y-92.752
X143.454Y-91.102
X143.454Y-92.202
X144.004Y-90.552
X144.004Y-91.652
X144.004Y-92.752
X144.554Y-91.102
X144.554Y-92.202
T2
X104.445Y-94.64
X105.512Y-94.64
X119.685Y-94.539
X120.752Y-94.539
X127.993Y-98.783
X128.016Y-91.44
X128.978Y-94.742
X129.032Y-98.806
X130.302Y-105.41
X130.81Y-89.916
X131.572Y-101.854
X131.826Y-86.868
X131.826Y-88.392
X141.224Y-100.584
X141.275Y-104.8
X142.291Y-100.584
X142.342Y-104.8
X143.408Y-100.584
X143.459Y-104.8
X148.082Y-89.916
X151.0Y-104.597
X151.0Y-105.664
X151.0Y-106.75
X151.13Y-101.092
X153.416Y-94.488
X153.43Y-97.02
X153.446Y-97.82
X155.042Y-92.304
X155.683Y-100.5
X155.956Y-92.304
X156.0Y-102.75
X156.0Y-106.75
X156.75Y-100.5
X156.82Y-92.304
X158.14Y-96.723
X158.75Y-97.333
X158.801Y-94.336
X160.172Y-95.606
X160.558Y-100.614
X161.29Y-106.375
X161.29Y-107.442
T4
X166.573Y-107.544
X166.573Y-110.084
X166.573Y-112.624
T5
X108.966Y-81.28
X111.506Y-81.28
X114.046Y-81.28
X116.586Y-81.28
T6
X102.296Y-113.032
X106.426Y-110.282
X119.06Y-113.032
X123.19Y-110.282
X135.824Y-113.032
X139.954Y-110.282
T3
G00X162.359Y-92.81
M15
G01X163.459Y-92.81
M16
G05
G00X162.359Y-101.45
M15
G01X163.459Y-101.45
M16
G05
G00X166.689Y-92.81
M15
G01X167.489Y-92.81
M16
G05
G00X166.689Y-101.45
M15
G01X167.489Y-101.45
M16
G05
M30
