%TF.GenerationSoftware,KiCad,Pcbnew,9.0.6*%
%TF.CreationDate,2026-03-20T21:22:46-04:00*%
%TF.ProjectId,spotifyPlayerPcb,73706f74-6966-4795-906c-617965725063,rev?*%
%TF.SameCoordinates,Original*%
%TF.FileFunction,Copper,L3,Inr*%
%TF.FilePolarity,Positive*%
%FSLAX46Y46*%
G04 Gerber Fmt 4.6, Leading zero omitted, Abs format (unit mm)*
G04 Created by KiCad (PCBNEW 9.0.6) date 2026-03-20 21:22:46*
%MOMM*%
%LPD*%
G01*
G04 APERTURE LIST*
%TA.AperFunction,ComponentPad*%
%ADD10C,2.250000*%
%TD*%
%TA.AperFunction,HeatsinkPad*%
%ADD11O,2.100000X1.000000*%
%TD*%
%TA.AperFunction,HeatsinkPad*%
%ADD12O,1.800000X1.000000*%
%TD*%
%TA.AperFunction,ComponentPad*%
%ADD13R,1.700000X1.700000*%
%TD*%
%TA.AperFunction,ComponentPad*%
%ADD14C,1.700000*%
%TD*%
%TA.AperFunction,ComponentPad*%
%ADD15C,1.800000*%
%TD*%
%TA.AperFunction,HeatsinkPad*%
%ADD16C,0.600000*%
%TD*%
%TA.AperFunction,ViaPad*%
%ADD17C,0.600000*%
%TD*%
G04 APERTURE END LIST*
D10*
%TO.N,PREV_BTN*%
%TO.C,SW1*%
X106426000Y-110282000D03*
%TO.N,GND*%
X102296000Y-113032000D03*
%TD*%
%TO.N,NEXT_BTN*%
%TO.C,SW5*%
X139954000Y-110282000D03*
%TO.N,GND*%
X135824000Y-113032000D03*
%TD*%
%TO.N,STATE_BTN*%
%TO.C,SW3*%
X123190000Y-110282000D03*
%TO.N,GND*%
X119060000Y-113032000D03*
%TD*%
D11*
%TO.N,GND*%
%TO.C,J1*%
X162909400Y-101449600D03*
D12*
X167089400Y-101449600D03*
D11*
X162909400Y-92809600D03*
D12*
X167089400Y-92809600D03*
%TD*%
D13*
%TO.N,RX*%
%TO.C,J2*%
X166573200Y-107543600D03*
D14*
%TO.N,TX*%
X166573200Y-110083600D03*
%TO.N,GND*%
X166573200Y-112623600D03*
%TD*%
D15*
%TO.N,+3V3*%
%TO.C,U4*%
X108966000Y-81280000D03*
%TO.N,GND*%
X111506000Y-81280000D03*
%TO.N,SCL*%
X114046000Y-81280000D03*
%TO.N,SDA*%
X116586000Y-81280000D03*
%TD*%
D16*
%TO.N,GND*%
%TO.C,U3*%
X142354000Y-91102000D03*
X142354000Y-92202000D03*
X142904000Y-90552000D03*
X142904000Y-91652000D03*
X142904000Y-92752000D03*
X143454000Y-91102000D03*
X143454000Y-92202000D03*
X144004000Y-90552000D03*
X144004000Y-91652000D03*
X144004000Y-92752000D03*
X144554000Y-91102000D03*
X144554000Y-92202000D03*
%TD*%
D17*
%TO.N,GND*%
X161290000Y-106375200D03*
X156750000Y-100500000D03*
X151000000Y-104597200D03*
X158750000Y-97332800D03*
X158800800Y-94335600D03*
X119684800Y-94538800D03*
X142290800Y-100584000D03*
X155956000Y-92303600D03*
X155683200Y-100500000D03*
X143408400Y-100584000D03*
X105511600Y-94640400D03*
X155041600Y-92303600D03*
X161290000Y-107442000D03*
X120751600Y-94538800D03*
X160172400Y-95605600D03*
X156000000Y-102750000D03*
X143459200Y-104800400D03*
X158140400Y-96723200D03*
X142341600Y-104800400D03*
X141274800Y-104800400D03*
X156819600Y-92303600D03*
X156000000Y-106750000D03*
X151000000Y-106750000D03*
X151000000Y-105664000D03*
X104444800Y-94640400D03*
X141224000Y-100584000D03*
%TO.N,+3V3*%
X109000000Y-83750000D03*
X163779200Y-82702400D03*
X152500000Y-100500000D03*
X131826000Y-85660000D03*
X153250000Y-100500000D03*
X128978000Y-94742000D03*
X154000000Y-100500000D03*
X131572000Y-101854000D03*
X128016000Y-91440000D03*
%TO.N,ESP_EN*%
X131826000Y-86868000D03*
X151130000Y-101092000D03*
%TO.N,PREV_BTN*%
X130810000Y-89916000D03*
X127993000Y-98783000D03*
%TO.N,STATE_BTN*%
X129032000Y-98806000D03*
X131826000Y-88392000D03*
%TO.N,NEXT_BTN*%
X130302000Y-105410000D03*
X148082000Y-89916000D03*
%TO.N,+5V*%
X153416000Y-94488000D03*
X160557500Y-100613500D03*
%TO.N,TX*%
X153446017Y-97819929D03*
%TO.N,RX*%
X153429955Y-97020088D03*
%TD*%
%TA.AperFunction,Conductor*%
%TO.N,+3V3*%
G36*
X127872626Y-78934024D02*
G01*
X127936155Y-78944086D01*
X127973045Y-78956073D01*
X128021542Y-78980783D01*
X128023450Y-78982169D01*
X128024675Y-78982436D01*
X128052929Y-79003587D01*
X128091411Y-79042069D01*
X128114215Y-79073455D01*
X128138925Y-79121951D01*
X128150913Y-79158846D01*
X128160967Y-79222319D01*
X128162494Y-79241719D01*
X128162494Y-82741825D01*
X128162492Y-82741834D01*
X128162492Y-82761027D01*
X128162492Y-82769378D01*
X128162465Y-82769469D01*
X128162465Y-82820761D01*
X128162465Y-82942326D01*
X128181774Y-83076661D01*
X128197056Y-83182978D01*
X128265528Y-83416264D01*
X128265529Y-83416267D01*
X128265530Y-83416269D01*
X128274221Y-83435308D01*
X128366488Y-83637440D01*
X128366490Y-83637443D01*
X128366491Y-83637445D01*
X128445309Y-83760155D01*
X128474332Y-83805339D01*
X128494000Y-83872353D01*
X128494000Y-84352000D01*
X129095526Y-84352000D01*
X129147097Y-84363233D01*
X129266300Y-84417748D01*
X129266312Y-84417752D01*
X129499539Y-84486385D01*
X129499541Y-84486385D01*
X129499543Y-84486386D01*
X129740174Y-84521149D01*
X129861738Y-84521235D01*
X129940666Y-84521293D01*
X129940666Y-84521292D01*
X154988373Y-84539726D01*
X154988481Y-84539758D01*
X155039738Y-84539793D01*
X155039738Y-84539794D01*
X155161420Y-84539880D01*
X155402330Y-84505407D01*
X155635877Y-84436984D01*
X155797596Y-84363233D01*
X155797717Y-84363178D01*
X155849168Y-84352000D01*
X156494000Y-84352000D01*
X156494000Y-83760155D01*
X156513685Y-83693116D01*
X156513702Y-83693089D01*
X156537128Y-83656658D01*
X156638264Y-83435305D01*
X156706852Y-83201806D01*
X156706852Y-83201799D01*
X156706854Y-83201796D01*
X156741493Y-82960925D01*
X156741494Y-82960922D01*
X156741494Y-79241757D01*
X156743019Y-79222370D01*
X156753082Y-79158836D01*
X156765066Y-79121954D01*
X156789780Y-79073449D01*
X156812580Y-79042069D01*
X156851069Y-79003579D01*
X156882447Y-78980781D01*
X156930950Y-78956067D01*
X156967842Y-78944080D01*
X157015479Y-78936535D01*
X157031320Y-78934027D01*
X157050717Y-78932500D01*
X168559071Y-78932500D01*
X168628243Y-78932500D01*
X168647626Y-78934024D01*
X168711155Y-78944086D01*
X168748045Y-78956073D01*
X168796542Y-78980783D01*
X168827929Y-79003587D01*
X168866411Y-79042069D01*
X168889215Y-79073455D01*
X168913925Y-79121951D01*
X168925913Y-79158846D01*
X168935967Y-79222319D01*
X168937494Y-79241719D01*
X168937494Y-124809244D01*
X168935967Y-124828642D01*
X168925908Y-124892150D01*
X168913919Y-124929049D01*
X168889211Y-124977539D01*
X168866409Y-125008922D01*
X168827925Y-125047407D01*
X168796536Y-125070213D01*
X168748042Y-125094921D01*
X168711148Y-125106908D01*
X168670835Y-125113293D01*
X168647599Y-125116973D01*
X168628204Y-125118500D01*
X97822756Y-125118500D01*
X97803357Y-125116973D01*
X97739846Y-125106913D01*
X97702950Y-125094925D01*
X97654456Y-125070216D01*
X97623069Y-125047411D01*
X97584585Y-125008926D01*
X97561782Y-124977541D01*
X97537073Y-124929047D01*
X97525086Y-124892156D01*
X97515019Y-124828591D01*
X97513494Y-124809206D01*
X97513494Y-116169123D01*
X103110500Y-116169123D01*
X103110500Y-116494876D01*
X103142429Y-116819061D01*
X103142432Y-116819078D01*
X103205977Y-117138551D01*
X103205980Y-117138562D01*
X103300546Y-117450306D01*
X103425210Y-117751270D01*
X103425212Y-117751275D01*
X103578765Y-118038551D01*
X103578782Y-118038579D01*
X103759741Y-118309405D01*
X103759758Y-118309428D01*
X103966418Y-118561244D01*
X104196755Y-118791581D01*
X104196760Y-118791585D01*
X104196761Y-118791586D01*
X104448577Y-118998246D01*
X104448584Y-118998251D01*
X104448594Y-118998258D01*
X104719420Y-119179217D01*
X104719425Y-119179220D01*
X104719437Y-119179228D01*
X104719446Y-119179232D01*
X104719448Y-119179234D01*
X105006724Y-119332787D01*
X105006726Y-119332787D01*
X105006732Y-119332791D01*
X105307695Y-119457454D01*
X105619428Y-119552017D01*
X105619434Y-119552018D01*
X105619437Y-119552019D01*
X105619448Y-119552022D01*
X105819785Y-119591870D01*
X105938928Y-119615569D01*
X106263120Y-119647500D01*
X106263123Y-119647500D01*
X106588877Y-119647500D01*
X106588880Y-119647500D01*
X106913072Y-119615569D01*
X107071212Y-119584113D01*
X107232551Y-119552022D01*
X107232562Y-119552019D01*
X107232562Y-119552018D01*
X107232572Y-119552017D01*
X107544305Y-119457454D01*
X107845268Y-119332791D01*
X108132563Y-119179228D01*
X108403423Y-118998246D01*
X108655239Y-118791586D01*
X108885586Y-118561239D01*
X109092246Y-118309423D01*
X109273228Y-118038563D01*
X109426791Y-117751268D01*
X109551454Y-117450305D01*
X109646017Y-117138572D01*
X109646019Y-117138562D01*
X109646022Y-117138551D01*
X109678113Y-116977212D01*
X109709569Y-116819072D01*
X109741500Y-116494880D01*
X109741500Y-116169123D01*
X119874500Y-116169123D01*
X119874500Y-116494876D01*
X119906429Y-116819061D01*
X119906432Y-116819078D01*
X119969977Y-117138551D01*
X119969980Y-117138562D01*
X120064546Y-117450306D01*
X120189210Y-117751270D01*
X120189212Y-117751275D01*
X120342765Y-118038551D01*
X120342782Y-118038579D01*
X120523741Y-118309405D01*
X120523758Y-118309428D01*
X120730418Y-118561244D01*
X120960755Y-118791581D01*
X120960760Y-118791585D01*
X120960761Y-118791586D01*
X121212577Y-118998246D01*
X121212584Y-118998251D01*
X121212594Y-118998258D01*
X121483420Y-119179217D01*
X121483425Y-119179220D01*
X121483437Y-119179228D01*
X121483446Y-119179232D01*
X121483448Y-119179234D01*
X121770724Y-119332787D01*
X121770726Y-119332787D01*
X121770732Y-119332791D01*
X122071695Y-119457454D01*
X122383428Y-119552017D01*
X122383434Y-119552018D01*
X122383437Y-119552019D01*
X122383448Y-119552022D01*
X122583785Y-119591870D01*
X122702928Y-119615569D01*
X123027120Y-119647500D01*
X123027123Y-119647500D01*
X123352877Y-119647500D01*
X123352880Y-119647500D01*
X123677072Y-119615569D01*
X123835212Y-119584113D01*
X123996551Y-119552022D01*
X123996562Y-119552019D01*
X123996562Y-119552018D01*
X123996572Y-119552017D01*
X124308305Y-119457454D01*
X124609268Y-119332791D01*
X124896563Y-119179228D01*
X125167423Y-118998246D01*
X125419239Y-118791586D01*
X125649586Y-118561239D01*
X125856246Y-118309423D01*
X126037228Y-118038563D01*
X126190791Y-117751268D01*
X126315454Y-117450305D01*
X126410017Y-117138572D01*
X126410019Y-117138562D01*
X126410022Y-117138551D01*
X126442113Y-116977212D01*
X126473569Y-116819072D01*
X126505500Y-116494880D01*
X126505500Y-116169123D01*
X136638500Y-116169123D01*
X136638500Y-116494876D01*
X136670429Y-116819061D01*
X136670432Y-116819078D01*
X136733977Y-117138551D01*
X136733980Y-117138562D01*
X136828546Y-117450306D01*
X136953210Y-117751270D01*
X136953212Y-117751275D01*
X137106765Y-118038551D01*
X137106782Y-118038579D01*
X137287741Y-118309405D01*
X137287758Y-118309428D01*
X137494418Y-118561244D01*
X137724755Y-118791581D01*
X137724760Y-118791585D01*
X137724761Y-118791586D01*
X137976577Y-118998246D01*
X137976584Y-118998251D01*
X137976594Y-118998258D01*
X138247420Y-119179217D01*
X138247425Y-119179220D01*
X138247437Y-119179228D01*
X138247446Y-119179232D01*
X138247448Y-119179234D01*
X138534724Y-119332787D01*
X138534726Y-119332787D01*
X138534732Y-119332791D01*
X138835695Y-119457454D01*
X139147428Y-119552017D01*
X139147434Y-119552018D01*
X139147437Y-119552019D01*
X139147448Y-119552022D01*
X139347785Y-119591870D01*
X139466928Y-119615569D01*
X139791120Y-119647500D01*
X139791123Y-119647500D01*
X140116877Y-119647500D01*
X140116880Y-119647500D01*
X140441072Y-119615569D01*
X140599212Y-119584113D01*
X140760551Y-119552022D01*
X140760562Y-119552019D01*
X140760562Y-119552018D01*
X140760572Y-119552017D01*
X141072305Y-119457454D01*
X141373268Y-119332791D01*
X141660563Y-119179228D01*
X141931423Y-118998246D01*
X142183239Y-118791586D01*
X142413586Y-118561239D01*
X142620246Y-118309423D01*
X142801228Y-118038563D01*
X142954791Y-117751268D01*
X143079454Y-117450305D01*
X143174017Y-117138572D01*
X143174019Y-117138562D01*
X143174022Y-117138551D01*
X143206113Y-116977212D01*
X143237569Y-116819072D01*
X143269500Y-116494880D01*
X143269500Y-116169120D01*
X143237569Y-115844928D01*
X143213870Y-115725785D01*
X143174022Y-115525448D01*
X143174019Y-115525437D01*
X143174018Y-115525434D01*
X143174017Y-115525428D01*
X143079454Y-115213695D01*
X142954791Y-114912732D01*
X142801228Y-114625437D01*
X142801217Y-114625420D01*
X142620258Y-114354594D01*
X142620251Y-114354584D01*
X142620246Y-114354577D01*
X142413586Y-114102761D01*
X142413585Y-114102760D01*
X142413581Y-114102755D01*
X142183244Y-113872418D01*
X141931428Y-113665758D01*
X141931405Y-113665741D01*
X141660579Y-113484782D01*
X141660551Y-113484765D01*
X141373276Y-113331213D01*
X141373273Y-113331212D01*
X141373268Y-113331209D01*
X141270305Y-113288560D01*
X141215902Y-113244718D01*
X141193838Y-113178424D01*
X141199826Y-113135687D01*
X141261492Y-112945901D01*
X141294500Y-112737500D01*
X141294500Y-112526500D01*
X141261492Y-112318099D01*
X141261491Y-112318095D01*
X141261491Y-112318094D01*
X141196291Y-112117429D01*
X141122733Y-111973064D01*
X141100498Y-111929425D01*
X140976476Y-111758723D01*
X140957294Y-111739541D01*
X140923809Y-111678218D01*
X140928793Y-111608526D01*
X140970665Y-111552593D01*
X140972090Y-111551542D01*
X141012942Y-111521862D01*
X141193862Y-111340942D01*
X141344252Y-111133947D01*
X141460410Y-110905975D01*
X141539474Y-110662639D01*
X141579500Y-110409930D01*
X141579500Y-110154070D01*
X141539474Y-109901361D01*
X141460410Y-109658025D01*
X141460410Y-109658024D01*
X141413105Y-109565185D01*
X141344252Y-109430053D01*
X141325038Y-109403607D01*
X141193867Y-109223064D01*
X141193863Y-109223059D01*
X141012940Y-109042136D01*
X141012935Y-109042132D01*
X140805950Y-108891750D01*
X140805949Y-108891749D01*
X140805947Y-108891748D01*
X140699270Y-108837393D01*
X140577975Y-108775589D01*
X140577972Y-108775588D01*
X140334640Y-108696526D01*
X140208284Y-108676513D01*
X140081930Y-108656500D01*
X139826070Y-108656500D01*
X139741833Y-108669842D01*
X139573359Y-108696526D01*
X139330027Y-108775588D01*
X139330024Y-108775589D01*
X139102049Y-108891750D01*
X138895064Y-109042132D01*
X138895059Y-109042136D01*
X138714136Y-109223059D01*
X138714132Y-109223064D01*
X138563750Y-109430049D01*
X138447589Y-109658024D01*
X138447588Y-109658027D01*
X138368526Y-109901359D01*
X138328500Y-110154070D01*
X138328500Y-110409929D01*
X138368526Y-110662640D01*
X138447588Y-110905972D01*
X138447589Y-110905975D01*
X138526533Y-111060910D01*
X138553436Y-111113709D01*
X138563750Y-111133950D01*
X138714132Y-111340935D01*
X138714136Y-111340940D01*
X138895063Y-111521867D01*
X138935908Y-111551542D01*
X138978574Y-111606871D01*
X138984553Y-111676485D01*
X138951948Y-111738280D01*
X138950706Y-111739539D01*
X138931526Y-111758719D01*
X138931520Y-111758726D01*
X138807504Y-111929421D01*
X138711708Y-112117429D01*
X138646508Y-112318094D01*
X138646508Y-112318097D01*
X138613500Y-112526500D01*
X138613500Y-112737499D01*
X138646508Y-112945902D01*
X138646508Y-112945905D01*
X138708170Y-113135681D01*
X138710165Y-113205522D01*
X138674084Y-113265355D01*
X138637693Y-113288559D01*
X138534740Y-113331205D01*
X138534724Y-113331212D01*
X138247448Y-113484765D01*
X138247420Y-113484782D01*
X137976594Y-113665741D01*
X137976571Y-113665758D01*
X137724755Y-113872418D01*
X137494418Y-114102755D01*
X137287758Y-114354571D01*
X137287741Y-114354594D01*
X137106782Y-114625420D01*
X137106765Y-114625448D01*
X136953212Y-114912724D01*
X136953210Y-114912729D01*
X136828546Y-115213693D01*
X136733980Y-115525437D01*
X136733977Y-115525448D01*
X136670432Y-115844921D01*
X136670429Y-115844938D01*
X136638500Y-116169123D01*
X126505500Y-116169123D01*
X126505500Y-116169120D01*
X126473569Y-115844928D01*
X126449870Y-115725785D01*
X126410022Y-115525448D01*
X126410019Y-115525437D01*
X126410018Y-115525434D01*
X126410017Y-115525428D01*
X126315454Y-115213695D01*
X126190791Y-114912732D01*
X126037228Y-114625437D01*
X126037217Y-114625420D01*
X125856258Y-114354594D01*
X125856251Y-114354584D01*
X125856246Y-114354577D01*
X125649586Y-114102761D01*
X125649585Y-114102760D01*
X125649581Y-114102755D01*
X125419244Y-113872418D01*
X125167428Y-113665758D01*
X125167405Y-113665741D01*
X124896579Y-113484782D01*
X124896551Y-113484765D01*
X124609276Y-113331213D01*
X124609273Y-113331212D01*
X124609268Y-113331209D01*
X124506305Y-113288560D01*
X124451902Y-113244718D01*
X124429838Y-113178424D01*
X124435826Y-113135687D01*
X124497492Y-112945901D01*
X124504117Y-112904070D01*
X134198500Y-112904070D01*
X134198500Y-113159929D01*
X134238526Y-113412640D01*
X134317588Y-113655972D01*
X134317589Y-113655975D01*
X134380095Y-113778648D01*
X134429269Y-113875157D01*
X134433750Y-113883950D01*
X134584132Y-114090935D01*
X134584136Y-114090940D01*
X134765059Y-114271863D01*
X134765064Y-114271867D01*
X134878906Y-114354577D01*
X134972053Y-114422252D01*
X135121080Y-114498185D01*
X135200024Y-114538410D01*
X135200027Y-114538411D01*
X135321693Y-114577942D01*
X135443361Y-114617474D01*
X135696070Y-114657500D01*
X135696071Y-114657500D01*
X135951929Y-114657500D01*
X135951930Y-114657500D01*
X136204639Y-114617474D01*
X136447975Y-114538410D01*
X136675947Y-114422252D01*
X136882942Y-114271862D01*
X137063862Y-114090942D01*
X137214252Y-113883947D01*
X137330410Y-113655975D01*
X137409474Y-113412639D01*
X137449500Y-113159930D01*
X137449500Y-112904070D01*
X137409474Y-112651361D01*
X137330410Y-112408025D01*
X137330410Y-112408024D01*
X137279117Y-112307357D01*
X137214252Y-112180053D01*
X137159860Y-112105188D01*
X137063867Y-111973064D01*
X137063863Y-111973059D01*
X136882940Y-111792136D01*
X136882935Y-111792132D01*
X136675950Y-111641750D01*
X136675949Y-111641749D01*
X136675947Y-111641748D01*
X136602910Y-111604533D01*
X136447975Y-111525589D01*
X136447972Y-111525588D01*
X136204640Y-111446526D01*
X136069029Y-111425047D01*
X135951930Y-111406500D01*
X135696070Y-111406500D01*
X135611833Y-111419842D01*
X135443359Y-111446526D01*
X135200027Y-111525588D01*
X135200024Y-111525589D01*
X134972049Y-111641750D01*
X134765064Y-111792132D01*
X134765059Y-111792136D01*
X134584136Y-111973059D01*
X134584132Y-111973064D01*
X134433750Y-112180049D01*
X134317589Y-112408024D01*
X134317588Y-112408027D01*
X134238526Y-112651359D01*
X134198500Y-112904070D01*
X124504117Y-112904070D01*
X124530500Y-112737500D01*
X124530500Y-112526500D01*
X124497492Y-112318099D01*
X124497491Y-112318095D01*
X124497491Y-112318094D01*
X124432291Y-112117429D01*
X124358733Y-111973064D01*
X124336498Y-111929425D01*
X124212476Y-111758723D01*
X124193294Y-111739541D01*
X124159809Y-111678218D01*
X124164793Y-111608526D01*
X124206665Y-111552593D01*
X124208090Y-111551542D01*
X124248942Y-111521862D01*
X124429862Y-111340942D01*
X124580252Y-111133947D01*
X124696410Y-110905975D01*
X124775474Y-110662639D01*
X124815500Y-110409930D01*
X124815500Y-110154070D01*
X124775474Y-109901361D01*
X124696410Y-109658025D01*
X124696410Y-109658024D01*
X124649105Y-109565185D01*
X124580252Y-109430053D01*
X124561038Y-109403607D01*
X124429867Y-109223064D01*
X124429863Y-109223059D01*
X124248940Y-109042136D01*
X124248935Y-109042132D01*
X124041950Y-108891750D01*
X124041949Y-108891749D01*
X124041947Y-108891748D01*
X123935270Y-108837393D01*
X123813975Y-108775589D01*
X123813972Y-108775588D01*
X123570640Y-108696526D01*
X123444284Y-108676513D01*
X123317930Y-108656500D01*
X123062070Y-108656500D01*
X122977833Y-108669842D01*
X122809359Y-108696526D01*
X122566027Y-108775588D01*
X122566024Y-108775589D01*
X122338049Y-108891750D01*
X122131064Y-109042132D01*
X122131059Y-109042136D01*
X121950136Y-109223059D01*
X121950132Y-109223064D01*
X121799750Y-109430049D01*
X121683589Y-109658024D01*
X121683588Y-109658027D01*
X121604526Y-109901359D01*
X121564500Y-110154070D01*
X121564500Y-110409929D01*
X121604526Y-110662640D01*
X121683588Y-110905972D01*
X121683589Y-110905975D01*
X121762533Y-111060910D01*
X121789436Y-111113709D01*
X121799750Y-111133950D01*
X121950132Y-111340935D01*
X121950136Y-111340940D01*
X122131063Y-111521867D01*
X122171908Y-111551542D01*
X122214574Y-111606871D01*
X122220553Y-111676485D01*
X122187948Y-111738280D01*
X122186706Y-111739539D01*
X122167526Y-111758719D01*
X122167520Y-111758726D01*
X122043504Y-111929421D01*
X121947708Y-112117429D01*
X121882508Y-112318094D01*
X121882508Y-112318097D01*
X121849500Y-112526500D01*
X121849500Y-112737499D01*
X121882508Y-112945902D01*
X121882508Y-112945905D01*
X121944170Y-113135681D01*
X121946165Y-113205522D01*
X121910084Y-113265355D01*
X121873693Y-113288559D01*
X121770740Y-113331205D01*
X121770724Y-113331212D01*
X121483448Y-113484765D01*
X121483420Y-113484782D01*
X121212594Y-113665741D01*
X121212571Y-113665758D01*
X120960755Y-113872418D01*
X120730418Y-114102755D01*
X120523758Y-114354571D01*
X120523741Y-114354594D01*
X120342782Y-114625420D01*
X120342765Y-114625448D01*
X120189212Y-114912724D01*
X120189210Y-114912729D01*
X120064546Y-115213693D01*
X119969980Y-115525437D01*
X119969977Y-115525448D01*
X119906432Y-115844921D01*
X119906429Y-115844938D01*
X119874500Y-116169123D01*
X109741500Y-116169123D01*
X109741500Y-116169120D01*
X109709569Y-115844928D01*
X109685870Y-115725785D01*
X109646022Y-115525448D01*
X109646019Y-115525437D01*
X109646018Y-115525434D01*
X109646017Y-115525428D01*
X109551454Y-115213695D01*
X109426791Y-114912732D01*
X109273228Y-114625437D01*
X109273217Y-114625420D01*
X109092258Y-114354594D01*
X109092251Y-114354584D01*
X109092246Y-114354577D01*
X108885586Y-114102761D01*
X108885585Y-114102760D01*
X108885581Y-114102755D01*
X108655244Y-113872418D01*
X108403428Y-113665758D01*
X108403405Y-113665741D01*
X108132579Y-113484782D01*
X108132551Y-113484765D01*
X107845276Y-113331213D01*
X107845273Y-113331212D01*
X107845268Y-113331209D01*
X107742305Y-113288560D01*
X107687902Y-113244718D01*
X107665838Y-113178424D01*
X107671826Y-113135687D01*
X107733492Y-112945901D01*
X107740117Y-112904070D01*
X117434500Y-112904070D01*
X117434500Y-113159929D01*
X117474526Y-113412640D01*
X117553588Y-113655972D01*
X117553589Y-113655975D01*
X117616095Y-113778648D01*
X117665269Y-113875157D01*
X117669750Y-113883950D01*
X117820132Y-114090935D01*
X117820136Y-114090940D01*
X118001059Y-114271863D01*
X118001064Y-114271867D01*
X118114906Y-114354577D01*
X118208053Y-114422252D01*
X118357080Y-114498185D01*
X118436024Y-114538410D01*
X118436027Y-114538411D01*
X118557693Y-114577942D01*
X118679361Y-114617474D01*
X118932070Y-114657500D01*
X118932071Y-114657500D01*
X119187929Y-114657500D01*
X119187930Y-114657500D01*
X119440639Y-114617474D01*
X119683975Y-114538410D01*
X119911947Y-114422252D01*
X120118942Y-114271862D01*
X120299862Y-114090942D01*
X120450252Y-113883947D01*
X120566410Y-113655975D01*
X120645474Y-113412639D01*
X120685500Y-113159930D01*
X120685500Y-112904070D01*
X120645474Y-112651361D01*
X120566410Y-112408025D01*
X120566410Y-112408024D01*
X120515117Y-112307357D01*
X120450252Y-112180053D01*
X120395860Y-112105188D01*
X120299867Y-111973064D01*
X120299863Y-111973059D01*
X120118940Y-111792136D01*
X120118935Y-111792132D01*
X119911950Y-111641750D01*
X119911949Y-111641749D01*
X119911947Y-111641748D01*
X119838910Y-111604533D01*
X119683975Y-111525589D01*
X119683972Y-111525588D01*
X119440640Y-111446526D01*
X119305029Y-111425047D01*
X119187930Y-111406500D01*
X118932070Y-111406500D01*
X118847833Y-111419842D01*
X118679359Y-111446526D01*
X118436027Y-111525588D01*
X118436024Y-111525589D01*
X118208049Y-111641750D01*
X118001064Y-111792132D01*
X118001059Y-111792136D01*
X117820136Y-111973059D01*
X117820132Y-111973064D01*
X117669750Y-112180049D01*
X117553589Y-112408024D01*
X117553588Y-112408027D01*
X117474526Y-112651359D01*
X117434500Y-112904070D01*
X107740117Y-112904070D01*
X107766500Y-112737500D01*
X107766500Y-112526500D01*
X107733492Y-112318099D01*
X107733491Y-112318095D01*
X107733491Y-112318094D01*
X107668291Y-112117429D01*
X107594733Y-111973064D01*
X107572498Y-111929425D01*
X107448476Y-111758723D01*
X107429294Y-111739541D01*
X107395809Y-111678218D01*
X107400793Y-111608526D01*
X107442665Y-111552593D01*
X107444090Y-111551542D01*
X107484942Y-111521862D01*
X107665862Y-111340942D01*
X107816252Y-111133947D01*
X107932410Y-110905975D01*
X108011474Y-110662639D01*
X108051500Y-110409930D01*
X108051500Y-110154070D01*
X108011474Y-109901361D01*
X107932410Y-109658025D01*
X107932410Y-109658024D01*
X107885105Y-109565185D01*
X107816252Y-109430053D01*
X107797038Y-109403607D01*
X107665867Y-109223064D01*
X107665863Y-109223059D01*
X107484940Y-109042136D01*
X107484935Y-109042132D01*
X107277950Y-108891750D01*
X107277949Y-108891749D01*
X107277947Y-108891748D01*
X107171270Y-108837393D01*
X107049975Y-108775589D01*
X107049972Y-108775588D01*
X106806640Y-108696526D01*
X106680284Y-108676513D01*
X106553930Y-108656500D01*
X106298070Y-108656500D01*
X106213833Y-108669842D01*
X106045359Y-108696526D01*
X105802027Y-108775588D01*
X105802024Y-108775589D01*
X105574049Y-108891750D01*
X105367064Y-109042132D01*
X105367059Y-109042136D01*
X105186136Y-109223059D01*
X105186132Y-109223064D01*
X105035750Y-109430049D01*
X104919589Y-109658024D01*
X104919588Y-109658027D01*
X104840526Y-109901359D01*
X104800500Y-110154070D01*
X104800500Y-110409929D01*
X104840526Y-110662640D01*
X104919588Y-110905972D01*
X104919589Y-110905975D01*
X104998533Y-111060910D01*
X105025436Y-111113709D01*
X105035750Y-111133950D01*
X105186132Y-111340935D01*
X105186136Y-111340940D01*
X105367063Y-111521867D01*
X105407908Y-111551542D01*
X105450574Y-111606871D01*
X105456553Y-111676485D01*
X105423948Y-111738280D01*
X105422706Y-111739539D01*
X105403526Y-111758719D01*
X105403520Y-111758726D01*
X105279504Y-111929421D01*
X105183708Y-112117429D01*
X105118508Y-112318094D01*
X105118508Y-112318097D01*
X105085500Y-112526500D01*
X105085500Y-112737499D01*
X105118508Y-112945902D01*
X105118508Y-112945905D01*
X105180170Y-113135681D01*
X105182165Y-113205522D01*
X105146084Y-113265355D01*
X105109693Y-113288559D01*
X105006740Y-113331205D01*
X105006724Y-113331212D01*
X104719448Y-113484765D01*
X104719420Y-113484782D01*
X104448594Y-113665741D01*
X104448571Y-113665758D01*
X104196755Y-113872418D01*
X103966418Y-114102755D01*
X103759758Y-114354571D01*
X103759741Y-114354594D01*
X103578782Y-114625420D01*
X103578765Y-114625448D01*
X103425212Y-114912724D01*
X103425210Y-114912729D01*
X103300546Y-115213693D01*
X103205980Y-115525437D01*
X103205977Y-115525448D01*
X103142432Y-115844921D01*
X103142429Y-115844938D01*
X103110500Y-116169123D01*
X97513494Y-116169123D01*
X97513494Y-112904070D01*
X100670500Y-112904070D01*
X100670500Y-113159929D01*
X100710526Y-113412640D01*
X100789588Y-113655972D01*
X100789589Y-113655975D01*
X100852095Y-113778648D01*
X100901269Y-113875157D01*
X100905750Y-113883950D01*
X101056132Y-114090935D01*
X101056136Y-114090940D01*
X101237059Y-114271863D01*
X101237064Y-114271867D01*
X101350906Y-114354577D01*
X101444053Y-114422252D01*
X101593080Y-114498185D01*
X101672024Y-114538410D01*
X101672027Y-114538411D01*
X101793693Y-114577942D01*
X101915361Y-114617474D01*
X102168070Y-114657500D01*
X102168071Y-114657500D01*
X102423929Y-114657500D01*
X102423930Y-114657500D01*
X102676639Y-114617474D01*
X102919975Y-114538410D01*
X103147947Y-114422252D01*
X103354942Y-114271862D01*
X103535862Y-114090942D01*
X103686252Y-113883947D01*
X103802410Y-113655975D01*
X103881474Y-113412639D01*
X103921500Y-113159930D01*
X103921500Y-112904070D01*
X103881474Y-112651361D01*
X103802410Y-112408025D01*
X103802410Y-112408024D01*
X103751117Y-112307357D01*
X103686252Y-112180053D01*
X103631860Y-112105188D01*
X103535867Y-111973064D01*
X103535863Y-111973059D01*
X103354940Y-111792136D01*
X103354935Y-111792132D01*
X103147950Y-111641750D01*
X103147949Y-111641749D01*
X103147947Y-111641748D01*
X103074910Y-111604533D01*
X102919975Y-111525589D01*
X102919972Y-111525588D01*
X102676640Y-111446526D01*
X102541029Y-111425047D01*
X102423930Y-111406500D01*
X102168070Y-111406500D01*
X102083833Y-111419842D01*
X101915359Y-111446526D01*
X101672027Y-111525588D01*
X101672024Y-111525589D01*
X101444049Y-111641750D01*
X101237064Y-111792132D01*
X101237059Y-111792136D01*
X101056136Y-111973059D01*
X101056132Y-111973064D01*
X100905750Y-112180049D01*
X100789589Y-112408024D01*
X100789588Y-112408027D01*
X100710526Y-112651359D01*
X100670500Y-112904070D01*
X97513494Y-112904070D01*
X97513494Y-105331153D01*
X129501500Y-105331153D01*
X129501500Y-105488846D01*
X129532261Y-105643489D01*
X129532264Y-105643501D01*
X129592602Y-105789172D01*
X129592609Y-105789185D01*
X129680210Y-105920288D01*
X129680213Y-105920292D01*
X129791707Y-106031786D01*
X129791711Y-106031789D01*
X129922814Y-106119390D01*
X129922827Y-106119397D01*
X130055350Y-106174289D01*
X130068503Y-106179737D01*
X130216693Y-106209214D01*
X130223153Y-106210499D01*
X130223156Y-106210500D01*
X130223158Y-106210500D01*
X130380844Y-106210500D01*
X130380845Y-106210499D01*
X130535497Y-106179737D01*
X130681179Y-106119394D01*
X130812289Y-106031789D01*
X130923789Y-105920289D01*
X131011394Y-105789179D01*
X131071737Y-105643497D01*
X131102500Y-105488842D01*
X131102500Y-105331158D01*
X131102500Y-105331155D01*
X131102499Y-105331153D01*
X131093282Y-105284815D01*
X131071737Y-105176503D01*
X131053641Y-105132814D01*
X131011397Y-105030827D01*
X131011390Y-105030814D01*
X130923789Y-104899711D01*
X130923786Y-104899707D01*
X130812292Y-104788213D01*
X130812288Y-104788210D01*
X130712530Y-104721553D01*
X140474300Y-104721553D01*
X140474300Y-104879246D01*
X140505061Y-105033889D01*
X140505064Y-105033901D01*
X140565402Y-105179572D01*
X140565409Y-105179585D01*
X140653010Y-105310688D01*
X140653013Y-105310692D01*
X140764507Y-105422186D01*
X140764511Y-105422189D01*
X140895614Y-105509790D01*
X140895627Y-105509797D01*
X141041298Y-105570135D01*
X141041303Y-105570137D01*
X141195953Y-105600899D01*
X141195956Y-105600900D01*
X141195958Y-105600900D01*
X141353644Y-105600900D01*
X141353645Y-105600899D01*
X141508297Y-105570137D01*
X141653979Y-105509794D01*
X141739309Y-105452777D01*
X141805986Y-105431900D01*
X141873366Y-105450384D01*
X141877081Y-105452771D01*
X141962421Y-105509794D01*
X141962423Y-105509795D01*
X141962427Y-105509797D01*
X142108098Y-105570135D01*
X142108103Y-105570137D01*
X142262753Y-105600899D01*
X142262756Y-105600900D01*
X142262758Y-105600900D01*
X142420444Y-105600900D01*
X142420445Y-105600899D01*
X142575097Y-105570137D01*
X142720779Y-105509794D01*
X142831510Y-105435805D01*
X142898186Y-105414928D01*
X142965566Y-105433412D01*
X142969271Y-105435793D01*
X143080021Y-105509794D01*
X143080023Y-105509795D01*
X143080027Y-105509797D01*
X143225698Y-105570135D01*
X143225703Y-105570137D01*
X143380353Y-105600899D01*
X143380356Y-105600900D01*
X143380358Y-105600900D01*
X143538044Y-105600900D01*
X143538045Y-105600899D01*
X143692697Y-105570137D01*
X143838379Y-105509794D01*
X143969489Y-105422189D01*
X144080989Y-105310689D01*
X144168594Y-105179579D01*
X144228937Y-105033897D01*
X144259700Y-104879242D01*
X144259700Y-104721558D01*
X144259700Y-104721555D01*
X144259699Y-104721553D01*
X144250646Y-104676042D01*
X144228937Y-104566903D01*
X144208827Y-104518353D01*
X150199500Y-104518353D01*
X150199500Y-104676046D01*
X150230261Y-104830689D01*
X150230264Y-104830701D01*
X150290602Y-104976372D01*
X150290609Y-104976385D01*
X150347621Y-105061709D01*
X150368499Y-105128387D01*
X150350014Y-105195767D01*
X150347621Y-105199491D01*
X150290609Y-105284814D01*
X150290602Y-105284827D01*
X150230264Y-105430498D01*
X150230261Y-105430510D01*
X150199500Y-105585153D01*
X150199500Y-105742846D01*
X150230261Y-105897489D01*
X150230264Y-105897501D01*
X150290602Y-106043172D01*
X150290612Y-106043190D01*
X150354035Y-106138110D01*
X150374913Y-106204787D01*
X150356428Y-106272167D01*
X150354035Y-106275890D01*
X150290612Y-106370809D01*
X150290602Y-106370827D01*
X150230264Y-106516498D01*
X150230261Y-106516510D01*
X150199500Y-106671153D01*
X150199500Y-106828846D01*
X150230261Y-106983489D01*
X150230264Y-106983501D01*
X150290602Y-107129172D01*
X150290609Y-107129185D01*
X150378210Y-107260288D01*
X150378213Y-107260292D01*
X150489707Y-107371786D01*
X150489711Y-107371789D01*
X150620814Y-107459390D01*
X150620827Y-107459397D01*
X150766498Y-107519735D01*
X150766503Y-107519737D01*
X150921153Y-107550499D01*
X150921156Y-107550500D01*
X150921158Y-107550500D01*
X151078844Y-107550500D01*
X151078845Y-107550499D01*
X151233497Y-107519737D01*
X151379179Y-107459394D01*
X151510289Y-107371789D01*
X151621789Y-107260289D01*
X151709394Y-107129179D01*
X151769737Y-106983497D01*
X151800500Y-106828842D01*
X151800500Y-106671158D01*
X151800500Y-106671155D01*
X151800499Y-106671153D01*
X155199500Y-106671153D01*
X155199500Y-106828846D01*
X155230261Y-106983489D01*
X155230264Y-106983501D01*
X155290602Y-107129172D01*
X155290609Y-107129185D01*
X155378210Y-107260288D01*
X155378213Y-107260292D01*
X155489707Y-107371786D01*
X155489711Y-107371789D01*
X155620814Y-107459390D01*
X155620827Y-107459397D01*
X155766498Y-107519735D01*
X155766503Y-107519737D01*
X155921153Y-107550499D01*
X155921156Y-107550500D01*
X155921158Y-107550500D01*
X156078844Y-107550500D01*
X156078845Y-107550499D01*
X156233497Y-107519737D01*
X156379179Y-107459394D01*
X156510289Y-107371789D01*
X156621789Y-107260289D01*
X156709394Y-107129179D01*
X156769737Y-106983497D01*
X156800500Y-106828842D01*
X156800500Y-106671158D01*
X156800500Y-106671155D01*
X156800499Y-106671153D01*
X156788076Y-106608701D01*
X156769737Y-106516503D01*
X156742717Y-106451271D01*
X156709397Y-106370827D01*
X156709390Y-106370814D01*
X156701601Y-106359157D01*
X156659636Y-106296353D01*
X160489500Y-106296353D01*
X160489500Y-106454046D01*
X160520261Y-106608689D01*
X160520264Y-106608701D01*
X160580602Y-106754372D01*
X160580609Y-106754385D01*
X160637621Y-106839709D01*
X160658499Y-106906387D01*
X160640014Y-106973767D01*
X160637621Y-106977491D01*
X160580609Y-107062814D01*
X160580602Y-107062827D01*
X160520264Y-107208498D01*
X160520261Y-107208510D01*
X160489500Y-107363153D01*
X160489500Y-107520846D01*
X160520261Y-107675489D01*
X160520264Y-107675501D01*
X160580602Y-107821172D01*
X160580609Y-107821185D01*
X160668210Y-107952288D01*
X160668213Y-107952292D01*
X160779707Y-108063786D01*
X160779711Y-108063789D01*
X160910814Y-108151390D01*
X160910827Y-108151397D01*
X161056498Y-108211735D01*
X161056503Y-108211737D01*
X161211153Y-108242499D01*
X161211156Y-108242500D01*
X161211158Y-108242500D01*
X161368844Y-108242500D01*
X161368845Y-108242499D01*
X161523497Y-108211737D01*
X161669179Y-108151394D01*
X161800289Y-108063789D01*
X161911789Y-107952289D01*
X161999394Y-107821179D01*
X162059737Y-107675497D01*
X162090500Y-107520842D01*
X162090500Y-107363158D01*
X162090500Y-107363155D01*
X162090499Y-107363153D01*
X162059737Y-107208503D01*
X162026880Y-107129179D01*
X161999397Y-107062827D01*
X161999395Y-107062823D01*
X161999394Y-107062821D01*
X161942377Y-106977490D01*
X161921500Y-106910814D01*
X161939984Y-106843434D01*
X161942378Y-106839709D01*
X161999394Y-106754379D01*
X162044396Y-106645735D01*
X165222700Y-106645735D01*
X165222700Y-108441470D01*
X165222701Y-108441476D01*
X165229108Y-108501083D01*
X165279402Y-108635928D01*
X165279406Y-108635935D01*
X165365652Y-108751144D01*
X165365655Y-108751147D01*
X165480864Y-108837393D01*
X165480871Y-108837397D01*
X165612282Y-108886410D01*
X165668216Y-108928281D01*
X165692633Y-108993745D01*
X165677782Y-109062018D01*
X165656631Y-109090273D01*
X165543089Y-109203815D01*
X165418151Y-109375779D01*
X165321644Y-109565185D01*
X165255953Y-109767360D01*
X165234730Y-109901359D01*
X165222700Y-109977313D01*
X165222700Y-110189887D01*
X165255954Y-110399843D01*
X165259231Y-110409930D01*
X165321644Y-110602014D01*
X165418151Y-110791420D01*
X165543090Y-110963386D01*
X165693413Y-111113709D01*
X165865382Y-111238650D01*
X165874146Y-111243116D01*
X165924942Y-111291091D01*
X165941736Y-111358912D01*
X165919198Y-111425047D01*
X165874146Y-111464084D01*
X165865382Y-111468549D01*
X165693413Y-111593490D01*
X165543090Y-111743813D01*
X165418151Y-111915779D01*
X165321644Y-112105185D01*
X165255953Y-112307360D01*
X165240009Y-112408027D01*
X165222700Y-112517313D01*
X165222700Y-112729887D01*
X165255954Y-112939843D01*
X165257922Y-112945901D01*
X165321644Y-113142014D01*
X165418151Y-113331420D01*
X165543090Y-113503386D01*
X165693413Y-113653709D01*
X165865379Y-113778648D01*
X165865381Y-113778649D01*
X165865384Y-113778651D01*
X166054788Y-113875157D01*
X166256957Y-113940846D01*
X166466913Y-113974100D01*
X166466914Y-113974100D01*
X166679486Y-113974100D01*
X166679487Y-113974100D01*
X166889443Y-113940846D01*
X167091612Y-113875157D01*
X167281016Y-113778651D01*
X167302989Y-113762686D01*
X167452986Y-113653709D01*
X167452988Y-113653706D01*
X167452992Y-113653704D01*
X167603304Y-113503392D01*
X167603306Y-113503388D01*
X167603309Y-113503386D01*
X167728248Y-113331420D01*
X167728247Y-113331420D01*
X167728251Y-113331416D01*
X167824757Y-113142012D01*
X167890446Y-112939843D01*
X167923700Y-112729887D01*
X167923700Y-112517313D01*
X167890446Y-112307357D01*
X167824757Y-112105188D01*
X167728251Y-111915784D01*
X167728249Y-111915781D01*
X167728248Y-111915779D01*
X167603309Y-111743813D01*
X167452986Y-111593490D01*
X167281020Y-111468551D01*
X167280315Y-111468191D01*
X167272254Y-111464085D01*
X167221459Y-111416112D01*
X167204663Y-111348292D01*
X167227199Y-111282156D01*
X167272254Y-111243115D01*
X167281016Y-111238651D01*
X167425130Y-111133947D01*
X167452986Y-111113709D01*
X167452988Y-111113706D01*
X167452992Y-111113704D01*
X167603304Y-110963392D01*
X167603306Y-110963388D01*
X167603309Y-110963386D01*
X167728248Y-110791420D01*
X167728247Y-110791420D01*
X167728251Y-110791416D01*
X167824757Y-110602012D01*
X167890446Y-110399843D01*
X167923700Y-110189887D01*
X167923700Y-109977313D01*
X167890446Y-109767357D01*
X167824757Y-109565188D01*
X167728251Y-109375784D01*
X167728249Y-109375781D01*
X167728248Y-109375779D01*
X167603309Y-109203813D01*
X167489769Y-109090273D01*
X167456284Y-109028950D01*
X167461268Y-108959258D01*
X167503140Y-108903325D01*
X167534115Y-108886410D01*
X167665531Y-108837396D01*
X167780746Y-108751146D01*
X167866996Y-108635931D01*
X167917291Y-108501083D01*
X167923700Y-108441473D01*
X167923699Y-106645728D01*
X167917291Y-106586117D01*
X167891329Y-106516510D01*
X167866997Y-106451271D01*
X167866993Y-106451264D01*
X167780747Y-106336055D01*
X167780744Y-106336052D01*
X167665535Y-106249806D01*
X167665528Y-106249802D01*
X167530682Y-106199508D01*
X167530683Y-106199508D01*
X167471083Y-106193101D01*
X167471081Y-106193100D01*
X167471073Y-106193100D01*
X167471064Y-106193100D01*
X165675329Y-106193100D01*
X165675323Y-106193101D01*
X165615716Y-106199508D01*
X165480871Y-106249802D01*
X165480864Y-106249806D01*
X165365655Y-106336052D01*
X165365652Y-106336055D01*
X165279406Y-106451264D01*
X165279402Y-106451271D01*
X165229108Y-106586117D01*
X165222701Y-106645716D01*
X165222701Y-106645723D01*
X165222700Y-106645735D01*
X162044396Y-106645735D01*
X162059737Y-106608697D01*
X162059738Y-106608694D01*
X162090499Y-106454046D01*
X162090500Y-106454044D01*
X162090500Y-106296355D01*
X162090499Y-106296353D01*
X162079231Y-106239707D01*
X162059737Y-106141703D01*
X162054149Y-106128213D01*
X161999397Y-105996027D01*
X161999390Y-105996014D01*
X161911789Y-105864911D01*
X161911786Y-105864907D01*
X161800292Y-105753413D01*
X161800288Y-105753410D01*
X161669185Y-105665809D01*
X161669172Y-105665802D01*
X161523501Y-105605464D01*
X161523489Y-105605461D01*
X161368845Y-105574700D01*
X161368842Y-105574700D01*
X161211158Y-105574700D01*
X161211155Y-105574700D01*
X161056510Y-105605461D01*
X161056498Y-105605464D01*
X160910827Y-105665802D01*
X160910814Y-105665809D01*
X160779711Y-105753410D01*
X160779707Y-105753413D01*
X160668213Y-105864907D01*
X160668210Y-105864911D01*
X160580609Y-105996014D01*
X160580602Y-105996027D01*
X160520264Y-106141698D01*
X160520261Y-106141710D01*
X160489500Y-106296353D01*
X156659636Y-106296353D01*
X156621789Y-106239711D01*
X156621786Y-106239707D01*
X156510292Y-106128213D01*
X156510288Y-106128210D01*
X156379185Y-106040609D01*
X156379172Y-106040602D01*
X156233501Y-105980264D01*
X156233489Y-105980261D01*
X156078845Y-105949500D01*
X156078842Y-105949500D01*
X155921158Y-105949500D01*
X155921155Y-105949500D01*
X155766510Y-105980261D01*
X155766498Y-105980264D01*
X155620827Y-106040602D01*
X155620814Y-106040609D01*
X155489711Y-106128210D01*
X155489707Y-106128213D01*
X155378213Y-106239707D01*
X155378210Y-106239711D01*
X155290609Y-106370814D01*
X155290602Y-106370827D01*
X155230264Y-106516498D01*
X155230261Y-106516510D01*
X155199500Y-106671153D01*
X151800499Y-106671153D01*
X151788076Y-106608701D01*
X151769737Y-106516503D01*
X151742717Y-106451271D01*
X151709397Y-106370827D01*
X151709390Y-106370814D01*
X151645964Y-106275891D01*
X151625086Y-106209214D01*
X151643570Y-106141833D01*
X151645964Y-106138109D01*
X151709390Y-106043185D01*
X151709390Y-106043184D01*
X151709394Y-106043179D01*
X151710462Y-106040602D01*
X151760296Y-105920289D01*
X151769737Y-105897497D01*
X151800500Y-105742842D01*
X151800500Y-105585158D01*
X151800500Y-105585155D01*
X151800499Y-105585153D01*
X151797512Y-105570135D01*
X151769737Y-105430503D01*
X151763286Y-105414928D01*
X151709397Y-105284827D01*
X151709395Y-105284823D01*
X151709394Y-105284821D01*
X151652377Y-105199490D01*
X151631500Y-105132814D01*
X151649984Y-105065434D01*
X151652378Y-105061709D01*
X151670959Y-105033901D01*
X151709394Y-104976379D01*
X151769737Y-104830697D01*
X151800500Y-104676042D01*
X151800500Y-104518358D01*
X151800500Y-104518355D01*
X151800499Y-104518353D01*
X151781178Y-104421221D01*
X151769737Y-104363703D01*
X151769735Y-104363698D01*
X151709397Y-104218027D01*
X151709390Y-104218014D01*
X151621789Y-104086911D01*
X151621786Y-104086907D01*
X151510292Y-103975413D01*
X151510288Y-103975410D01*
X151379185Y-103887809D01*
X151379172Y-103887802D01*
X151233501Y-103827464D01*
X151233489Y-103827461D01*
X151078845Y-103796700D01*
X151078842Y-103796700D01*
X150921158Y-103796700D01*
X150921155Y-103796700D01*
X150766510Y-103827461D01*
X150766498Y-103827464D01*
X150620827Y-103887802D01*
X150620814Y-103887809D01*
X150489711Y-103975410D01*
X150489707Y-103975413D01*
X150378213Y-104086907D01*
X150378210Y-104086911D01*
X150290609Y-104218014D01*
X150290602Y-104218027D01*
X150230264Y-104363698D01*
X150230261Y-104363710D01*
X150199500Y-104518353D01*
X144208827Y-104518353D01*
X144198160Y-104492600D01*
X144168597Y-104421227D01*
X144168590Y-104421214D01*
X144080989Y-104290111D01*
X144080986Y-104290107D01*
X143969492Y-104178613D01*
X143969488Y-104178610D01*
X143838385Y-104091009D01*
X143838372Y-104091002D01*
X143692701Y-104030664D01*
X143692689Y-104030661D01*
X143538045Y-103999900D01*
X143538042Y-103999900D01*
X143380358Y-103999900D01*
X143380355Y-103999900D01*
X143225710Y-104030661D01*
X143225698Y-104030664D01*
X143080027Y-104091002D01*
X143080014Y-104091009D01*
X142969291Y-104164993D01*
X142902613Y-104185871D01*
X142835233Y-104167387D01*
X142831509Y-104164993D01*
X142720785Y-104091009D01*
X142720772Y-104091002D01*
X142575101Y-104030664D01*
X142575089Y-104030661D01*
X142420445Y-103999900D01*
X142420442Y-103999900D01*
X142262758Y-103999900D01*
X142262755Y-103999900D01*
X142108110Y-104030661D01*
X142108098Y-104030664D01*
X141962427Y-104091002D01*
X141962414Y-104091009D01*
X141877091Y-104148021D01*
X141810413Y-104168899D01*
X141743033Y-104150414D01*
X141739309Y-104148021D01*
X141653985Y-104091009D01*
X141653972Y-104091002D01*
X141508301Y-104030664D01*
X141508289Y-104030661D01*
X141353645Y-103999900D01*
X141353642Y-103999900D01*
X141195958Y-103999900D01*
X141195955Y-103999900D01*
X141041310Y-104030661D01*
X141041298Y-104030664D01*
X140895627Y-104091002D01*
X140895614Y-104091009D01*
X140764511Y-104178610D01*
X140764507Y-104178613D01*
X140653013Y-104290107D01*
X140653010Y-104290111D01*
X140565409Y-104421214D01*
X140565402Y-104421227D01*
X140505064Y-104566898D01*
X140505061Y-104566910D01*
X140474300Y-104721553D01*
X130712530Y-104721553D01*
X130681185Y-104700609D01*
X130681172Y-104700602D01*
X130535501Y-104640264D01*
X130535489Y-104640261D01*
X130380845Y-104609500D01*
X130380842Y-104609500D01*
X130223158Y-104609500D01*
X130223155Y-104609500D01*
X130068510Y-104640261D01*
X130068498Y-104640264D01*
X129922827Y-104700602D01*
X129922814Y-104700609D01*
X129791711Y-104788210D01*
X129791707Y-104788213D01*
X129680213Y-104899707D01*
X129680210Y-104899711D01*
X129592609Y-105030814D01*
X129592602Y-105030827D01*
X129532264Y-105176498D01*
X129532261Y-105176510D01*
X129501500Y-105331153D01*
X97513494Y-105331153D01*
X97513494Y-102671153D01*
X155199500Y-102671153D01*
X155199500Y-102828846D01*
X155230261Y-102983489D01*
X155230264Y-102983501D01*
X155290602Y-103129172D01*
X155290609Y-103129185D01*
X155378210Y-103260288D01*
X155378213Y-103260292D01*
X155489707Y-103371786D01*
X155489711Y-103371789D01*
X155620814Y-103459390D01*
X155620827Y-103459397D01*
X155766498Y-103519735D01*
X155766503Y-103519737D01*
X155921153Y-103550499D01*
X155921156Y-103550500D01*
X155921158Y-103550500D01*
X156078844Y-103550500D01*
X156078845Y-103550499D01*
X156233497Y-103519737D01*
X156379179Y-103459394D01*
X156510289Y-103371789D01*
X156621789Y-103260289D01*
X156709394Y-103129179D01*
X156769737Y-102983497D01*
X156800500Y-102828842D01*
X156800500Y-102671158D01*
X156800500Y-102671155D01*
X156800499Y-102671153D01*
X156769738Y-102516510D01*
X156769737Y-102516503D01*
X156726307Y-102411652D01*
X156709397Y-102370827D01*
X156709390Y-102370814D01*
X156621789Y-102239711D01*
X156621786Y-102239707D01*
X156510292Y-102128213D01*
X156510288Y-102128210D01*
X156379185Y-102040609D01*
X156379172Y-102040602D01*
X156233501Y-101980264D01*
X156233489Y-101980261D01*
X156078845Y-101949500D01*
X156078842Y-101949500D01*
X155921158Y-101949500D01*
X155921155Y-101949500D01*
X155766510Y-101980261D01*
X155766498Y-101980264D01*
X155620827Y-102040602D01*
X155620814Y-102040609D01*
X155489711Y-102128210D01*
X155489707Y-102128213D01*
X155378213Y-102239707D01*
X155378210Y-102239711D01*
X155290609Y-102370814D01*
X155290602Y-102370827D01*
X155230264Y-102516498D01*
X155230261Y-102516510D01*
X155199500Y-102671153D01*
X97513494Y-102671153D01*
X97513494Y-100505153D01*
X140423500Y-100505153D01*
X140423500Y-100662846D01*
X140454261Y-100817489D01*
X140454264Y-100817501D01*
X140514602Y-100963172D01*
X140514609Y-100963185D01*
X140602210Y-101094288D01*
X140602213Y-101094292D01*
X140713707Y-101205786D01*
X140713711Y-101205789D01*
X140844814Y-101293390D01*
X140844827Y-101293397D01*
X140990498Y-101353735D01*
X140990503Y-101353737D01*
X141138809Y-101383237D01*
X141145153Y-101384499D01*
X141145156Y-101384500D01*
X141145158Y-101384500D01*
X141302844Y-101384500D01*
X141302845Y-101384499D01*
X141457497Y-101353737D01*
X141570166Y-101307067D01*
X141603172Y-101293397D01*
X141603172Y-101293396D01*
X141603179Y-101293394D01*
X141688509Y-101236377D01*
X141755186Y-101215500D01*
X141822566Y-101233984D01*
X141826281Y-101236371D01*
X141911621Y-101293394D01*
X141911623Y-101293395D01*
X141911627Y-101293397D01*
X142057298Y-101353735D01*
X142057303Y-101353737D01*
X142205609Y-101383237D01*
X142211953Y-101384499D01*
X142211956Y-101384500D01*
X142211958Y-101384500D01*
X142369644Y-101384500D01*
X142369645Y-101384499D01*
X142524297Y-101353737D01*
X142636966Y-101307067D01*
X142669972Y-101293397D01*
X142669972Y-101293396D01*
X142669979Y-101293394D01*
X142780710Y-101219405D01*
X142847386Y-101198528D01*
X142914766Y-101217012D01*
X142918471Y-101219393D01*
X143029221Y-101293394D01*
X143029223Y-101293395D01*
X143029227Y-101293397D01*
X143174898Y-101353735D01*
X143174903Y-101353737D01*
X143323209Y-101383237D01*
X143329553Y-101384499D01*
X143329556Y-101384500D01*
X143329558Y-101384500D01*
X143487244Y-101384500D01*
X143487245Y-101384499D01*
X143641897Y-101353737D01*
X143754566Y-101307067D01*
X143787572Y-101293397D01*
X143787572Y-101293396D01*
X143787579Y-101293394D01*
X143918689Y-101205789D01*
X144030189Y-101094289D01*
X144084402Y-101013153D01*
X150329500Y-101013153D01*
X150329500Y-101170846D01*
X150360261Y-101325489D01*
X150360264Y-101325501D01*
X150420602Y-101471172D01*
X150420609Y-101471185D01*
X150508210Y-101602288D01*
X150508213Y-101602292D01*
X150619707Y-101713786D01*
X150619711Y-101713789D01*
X150750814Y-101801390D01*
X150750827Y-101801397D01*
X150896498Y-101861735D01*
X150896503Y-101861737D01*
X151051153Y-101892499D01*
X151051156Y-101892500D01*
X151051158Y-101892500D01*
X151208844Y-101892500D01*
X151208845Y-101892499D01*
X151363497Y-101861737D01*
X151509179Y-101801394D01*
X151640289Y-101713789D01*
X151751789Y-101602289D01*
X151839394Y-101471179D01*
X151899737Y-101325497D01*
X151930500Y-101170842D01*
X151930500Y-101013158D01*
X151930500Y-101013155D01*
X151930499Y-101013153D01*
X151919850Y-100959616D01*
X151899737Y-100858503D01*
X151894301Y-100845380D01*
X151839397Y-100712827D01*
X151839390Y-100712814D01*
X151751789Y-100581711D01*
X151751786Y-100581707D01*
X151640292Y-100470213D01*
X151640288Y-100470210D01*
X151566870Y-100421153D01*
X154882700Y-100421153D01*
X154882700Y-100578846D01*
X154913461Y-100733489D01*
X154913464Y-100733501D01*
X154973802Y-100879172D01*
X154973809Y-100879185D01*
X155061410Y-101010288D01*
X155061413Y-101010292D01*
X155172907Y-101121786D01*
X155172911Y-101121789D01*
X155304014Y-101209390D01*
X155304027Y-101209397D01*
X155449698Y-101269735D01*
X155449703Y-101269737D01*
X155604353Y-101300499D01*
X155604356Y-101300500D01*
X155604358Y-101300500D01*
X155762044Y-101300500D01*
X155762045Y-101300499D01*
X155916697Y-101269737D01*
X156062379Y-101209394D01*
X156147709Y-101152377D01*
X156214386Y-101131500D01*
X156281766Y-101149984D01*
X156285481Y-101152371D01*
X156370821Y-101209394D01*
X156370823Y-101209395D01*
X156370827Y-101209397D01*
X156516498Y-101269735D01*
X156516503Y-101269737D01*
X156671153Y-101300499D01*
X156671156Y-101300500D01*
X156671158Y-101300500D01*
X156828844Y-101300500D01*
X156828845Y-101300499D01*
X156983497Y-101269737D01*
X157129179Y-101209394D01*
X157260289Y-101121789D01*
X157371789Y-101010289D01*
X157459394Y-100879179D01*
X157519737Y-100733497D01*
X157550500Y-100578842D01*
X157550500Y-100534653D01*
X159757000Y-100534653D01*
X159757000Y-100692346D01*
X159787761Y-100846989D01*
X159787764Y-100847001D01*
X159848102Y-100992672D01*
X159848109Y-100992685D01*
X159935710Y-101123788D01*
X159935713Y-101123792D01*
X160047207Y-101235286D01*
X160047211Y-101235289D01*
X160178314Y-101322890D01*
X160178327Y-101322897D01*
X160323998Y-101383235D01*
X160324003Y-101383237D01*
X160478653Y-101413999D01*
X160478656Y-101414000D01*
X160478658Y-101414000D01*
X160636344Y-101414000D01*
X160636345Y-101413999D01*
X160790997Y-101383237D01*
X160936679Y-101322894D01*
X161067789Y-101235289D01*
X161170884Y-101132193D01*
X161232205Y-101098710D01*
X161301897Y-101103694D01*
X161357831Y-101145565D01*
X161382248Y-101211029D01*
X161380181Y-101244067D01*
X161358900Y-101351054D01*
X161358900Y-101351059D01*
X161358900Y-101548141D01*
X161358900Y-101548143D01*
X161358899Y-101548143D01*
X161397347Y-101741429D01*
X161397350Y-101741439D01*
X161472764Y-101923507D01*
X161472771Y-101923520D01*
X161582260Y-102087381D01*
X161582263Y-102087385D01*
X161721614Y-102226736D01*
X161721618Y-102226739D01*
X161885479Y-102336228D01*
X161885492Y-102336235D01*
X161969006Y-102370827D01*
X162067565Y-102411651D01*
X162067569Y-102411651D01*
X162067570Y-102411652D01*
X162260856Y-102450100D01*
X162260859Y-102450100D01*
X163557943Y-102450100D01*
X163687982Y-102424232D01*
X163751235Y-102411651D01*
X163933314Y-102336232D01*
X164097182Y-102226739D01*
X164236539Y-102087382D01*
X164346032Y-101923514D01*
X164421451Y-101741435D01*
X164449129Y-101602289D01*
X164459900Y-101548143D01*
X165688899Y-101548143D01*
X165727347Y-101741429D01*
X165727350Y-101741439D01*
X165802764Y-101923507D01*
X165802771Y-101923520D01*
X165912260Y-102087381D01*
X165912263Y-102087385D01*
X166051614Y-102226736D01*
X166051618Y-102226739D01*
X166215479Y-102336228D01*
X166215492Y-102336235D01*
X166299006Y-102370827D01*
X166397565Y-102411651D01*
X166397569Y-102411651D01*
X166397570Y-102411652D01*
X166590856Y-102450100D01*
X166590859Y-102450100D01*
X167587943Y-102450100D01*
X167717982Y-102424232D01*
X167781235Y-102411651D01*
X167963314Y-102336232D01*
X168127182Y-102226739D01*
X168266539Y-102087382D01*
X168376032Y-101923514D01*
X168451451Y-101741435D01*
X168479129Y-101602289D01*
X168489900Y-101548143D01*
X168489900Y-101351056D01*
X168451452Y-101157770D01*
X168451451Y-101157769D01*
X168451451Y-101157765D01*
X168437378Y-101123789D01*
X168376035Y-100975692D01*
X168376028Y-100975679D01*
X168266539Y-100811818D01*
X168266536Y-100811814D01*
X168127185Y-100672463D01*
X168127181Y-100672460D01*
X167963320Y-100562971D01*
X167963307Y-100562964D01*
X167781239Y-100487550D01*
X167781229Y-100487547D01*
X167587943Y-100449100D01*
X167587941Y-100449100D01*
X166590859Y-100449100D01*
X166590857Y-100449100D01*
X166397570Y-100487547D01*
X166397560Y-100487550D01*
X166215492Y-100562964D01*
X166215479Y-100562971D01*
X166051618Y-100672460D01*
X166051614Y-100672463D01*
X165912263Y-100811814D01*
X165912260Y-100811818D01*
X165802771Y-100975679D01*
X165802764Y-100975692D01*
X165727350Y-101157760D01*
X165727347Y-101157770D01*
X165688900Y-101351056D01*
X165688900Y-101351059D01*
X165688900Y-101548141D01*
X165688900Y-101548143D01*
X165688899Y-101548143D01*
X164459900Y-101548143D01*
X164459900Y-101351056D01*
X164421452Y-101157770D01*
X164421451Y-101157769D01*
X164421451Y-101157765D01*
X164407378Y-101123789D01*
X164346035Y-100975692D01*
X164346028Y-100975679D01*
X164236539Y-100811818D01*
X164236536Y-100811814D01*
X164097185Y-100672463D01*
X164097181Y-100672460D01*
X163933320Y-100562971D01*
X163933308Y-100562964D01*
X163865583Y-100534913D01*
X163811179Y-100491073D01*
X163789114Y-100424779D01*
X163806393Y-100357079D01*
X163817400Y-100342912D01*
X163816955Y-100342570D01*
X163821897Y-100336128D01*
X163821902Y-100336124D01*
X163889769Y-100218575D01*
X163924900Y-100087467D01*
X163924900Y-99951733D01*
X163889769Y-99820625D01*
X163886096Y-99814264D01*
X163821904Y-99703079D01*
X163821899Y-99703073D01*
X163725926Y-99607100D01*
X163725920Y-99607095D01*
X163608378Y-99539232D01*
X163608379Y-99539232D01*
X163592884Y-99535080D01*
X163477267Y-99504100D01*
X163341533Y-99504100D01*
X163225915Y-99535080D01*
X163210421Y-99539232D01*
X163092879Y-99607095D01*
X163092873Y-99607100D01*
X162996900Y-99703073D01*
X162996895Y-99703079D01*
X162929032Y-99820621D01*
X162929031Y-99820625D01*
X162893900Y-99951733D01*
X162893900Y-100087467D01*
X162902839Y-100120827D01*
X162929032Y-100218578D01*
X162954737Y-100263100D01*
X162971210Y-100331000D01*
X162948358Y-100397027D01*
X162893436Y-100440218D01*
X162847350Y-100449100D01*
X162260857Y-100449100D01*
X162067570Y-100487547D01*
X162067560Y-100487550D01*
X161885492Y-100562964D01*
X161885479Y-100562971D01*
X161721618Y-100672460D01*
X161721614Y-100672463D01*
X161582263Y-100811814D01*
X161582254Y-100811825D01*
X161575434Y-100822032D01*
X161521820Y-100866835D01*
X161452494Y-100875538D01*
X161389468Y-100845380D01*
X161352752Y-100785935D01*
X161350719Y-100728945D01*
X161358000Y-100692342D01*
X161358000Y-100534658D01*
X161358000Y-100534655D01*
X161357999Y-100534653D01*
X161349330Y-100491073D01*
X161327237Y-100380003D01*
X161309060Y-100336120D01*
X161266897Y-100234327D01*
X161266890Y-100234314D01*
X161179289Y-100103211D01*
X161179286Y-100103207D01*
X161067792Y-99991713D01*
X161067788Y-99991710D01*
X160936685Y-99904109D01*
X160936672Y-99904102D01*
X160791001Y-99843764D01*
X160790989Y-99843761D01*
X160636345Y-99813000D01*
X160636342Y-99813000D01*
X160478658Y-99813000D01*
X160478655Y-99813000D01*
X160324010Y-99843761D01*
X160323998Y-99843764D01*
X160178327Y-99904102D01*
X160178314Y-99904109D01*
X160047211Y-99991710D01*
X160047207Y-99991713D01*
X159935713Y-100103207D01*
X159935710Y-100103211D01*
X159848109Y-100234314D01*
X159848102Y-100234327D01*
X159787764Y-100379998D01*
X159787761Y-100380010D01*
X159757000Y-100534653D01*
X157550500Y-100534653D01*
X157550500Y-100421158D01*
X157550500Y-100421155D01*
X157550499Y-100421153D01*
X157534868Y-100342570D01*
X157519737Y-100266503D01*
X157519735Y-100266498D01*
X157459397Y-100120827D01*
X157459390Y-100120814D01*
X157371789Y-99989711D01*
X157371786Y-99989707D01*
X157260292Y-99878213D01*
X157260288Y-99878210D01*
X157129185Y-99790609D01*
X157129172Y-99790602D01*
X156983501Y-99730264D01*
X156983489Y-99730261D01*
X156828845Y-99699500D01*
X156828842Y-99699500D01*
X156671158Y-99699500D01*
X156671155Y-99699500D01*
X156516510Y-99730261D01*
X156516498Y-99730264D01*
X156370827Y-99790602D01*
X156370814Y-99790609D01*
X156285491Y-99847621D01*
X156218813Y-99868499D01*
X156151433Y-99850014D01*
X156147709Y-99847621D01*
X156062385Y-99790609D01*
X156062372Y-99790602D01*
X155916701Y-99730264D01*
X155916689Y-99730261D01*
X155762045Y-99699500D01*
X155762042Y-99699500D01*
X155604358Y-99699500D01*
X155604355Y-99699500D01*
X155449710Y-99730261D01*
X155449698Y-99730264D01*
X155304027Y-99790602D01*
X155304014Y-99790609D01*
X155172911Y-99878210D01*
X155172907Y-99878213D01*
X155061413Y-99989707D01*
X155061410Y-99989711D01*
X154973809Y-100120814D01*
X154973802Y-100120827D01*
X154913464Y-100266498D01*
X154913461Y-100266510D01*
X154882700Y-100421153D01*
X151566870Y-100421153D01*
X151509185Y-100382609D01*
X151509172Y-100382602D01*
X151363501Y-100322264D01*
X151363489Y-100322261D01*
X151208845Y-100291500D01*
X151208842Y-100291500D01*
X151051158Y-100291500D01*
X151051155Y-100291500D01*
X150896510Y-100322261D01*
X150896498Y-100322264D01*
X150750827Y-100382602D01*
X150750814Y-100382609D01*
X150619711Y-100470210D01*
X150619707Y-100470213D01*
X150508213Y-100581707D01*
X150508210Y-100581711D01*
X150420609Y-100712814D01*
X150420602Y-100712827D01*
X150360264Y-100858498D01*
X150360261Y-100858510D01*
X150329500Y-101013153D01*
X144084402Y-101013153D01*
X144117794Y-100963179D01*
X144178137Y-100817497D01*
X144208900Y-100662842D01*
X144208900Y-100505158D01*
X144208900Y-100505155D01*
X144208899Y-100505153D01*
X144206098Y-100491073D01*
X144178137Y-100350503D01*
X144172181Y-100336124D01*
X144117797Y-100204827D01*
X144117790Y-100204814D01*
X144030189Y-100073711D01*
X144030186Y-100073707D01*
X143918692Y-99962213D01*
X143918688Y-99962210D01*
X143787585Y-99874609D01*
X143787572Y-99874602D01*
X143641901Y-99814264D01*
X143641889Y-99814261D01*
X143487245Y-99783500D01*
X143487242Y-99783500D01*
X143329558Y-99783500D01*
X143329555Y-99783500D01*
X143174910Y-99814261D01*
X143174898Y-99814264D01*
X143029227Y-99874602D01*
X143029214Y-99874609D01*
X142918491Y-99948593D01*
X142851813Y-99969471D01*
X142784433Y-99950987D01*
X142780709Y-99948593D01*
X142669985Y-99874609D01*
X142669972Y-99874602D01*
X142524301Y-99814264D01*
X142524289Y-99814261D01*
X142369645Y-99783500D01*
X142369642Y-99783500D01*
X142211958Y-99783500D01*
X142211955Y-99783500D01*
X142057310Y-99814261D01*
X142057298Y-99814264D01*
X141911627Y-99874602D01*
X141911614Y-99874609D01*
X141826291Y-99931621D01*
X141759613Y-99952499D01*
X141692233Y-99934014D01*
X141688509Y-99931621D01*
X141603185Y-99874609D01*
X141603172Y-99874602D01*
X141457501Y-99814264D01*
X141457489Y-99814261D01*
X141302845Y-99783500D01*
X141302842Y-99783500D01*
X141145158Y-99783500D01*
X141145155Y-99783500D01*
X140990510Y-99814261D01*
X140990498Y-99814264D01*
X140844827Y-99874602D01*
X140844814Y-99874609D01*
X140713711Y-99962210D01*
X140713707Y-99962213D01*
X140602213Y-100073707D01*
X140602210Y-100073711D01*
X140514609Y-100204814D01*
X140514602Y-100204827D01*
X140454264Y-100350498D01*
X140454261Y-100350510D01*
X140423500Y-100505153D01*
X97513494Y-100505153D01*
X97513494Y-98704153D01*
X127192500Y-98704153D01*
X127192500Y-98861846D01*
X127223261Y-99016489D01*
X127223264Y-99016501D01*
X127283602Y-99162172D01*
X127283609Y-99162185D01*
X127371210Y-99293288D01*
X127371213Y-99293292D01*
X127482707Y-99404786D01*
X127482711Y-99404789D01*
X127613814Y-99492390D01*
X127613827Y-99492397D01*
X127759498Y-99552735D01*
X127759503Y-99552737D01*
X127914153Y-99583499D01*
X127914156Y-99583500D01*
X127914158Y-99583500D01*
X128071844Y-99583500D01*
X128071845Y-99583499D01*
X128226497Y-99552737D01*
X128372179Y-99492394D01*
X128426398Y-99456165D01*
X128493073Y-99435287D01*
X128560453Y-99453771D01*
X128564169Y-99456158D01*
X128652821Y-99515394D01*
X128652823Y-99515395D01*
X128652827Y-99515397D01*
X128798498Y-99575735D01*
X128798503Y-99575737D01*
X128953153Y-99606499D01*
X128953156Y-99606500D01*
X128953158Y-99606500D01*
X129110844Y-99606500D01*
X129110845Y-99606499D01*
X129265497Y-99575737D01*
X129411179Y-99515394D01*
X129542289Y-99427789D01*
X129653789Y-99316289D01*
X129741394Y-99185179D01*
X129801737Y-99039497D01*
X129832500Y-98884842D01*
X129832500Y-98727158D01*
X129832500Y-98727155D01*
X129832499Y-98727153D01*
X129805151Y-98589666D01*
X129801737Y-98572503D01*
X129783853Y-98529326D01*
X129741397Y-98426827D01*
X129741390Y-98426814D01*
X129653789Y-98295711D01*
X129653786Y-98295707D01*
X129542292Y-98184213D01*
X129542288Y-98184210D01*
X129411185Y-98096609D01*
X129411172Y-98096602D01*
X129265501Y-98036264D01*
X129265489Y-98036261D01*
X129110845Y-98005500D01*
X129110842Y-98005500D01*
X128953158Y-98005500D01*
X128953155Y-98005500D01*
X128798510Y-98036261D01*
X128798498Y-98036264D01*
X128652828Y-98096602D01*
X128652817Y-98096608D01*
X128598601Y-98132834D01*
X128531923Y-98153711D01*
X128464543Y-98135226D01*
X128460821Y-98132833D01*
X128372190Y-98073612D01*
X128372172Y-98073602D01*
X128226501Y-98013264D01*
X128226489Y-98013261D01*
X128071845Y-97982500D01*
X128071842Y-97982500D01*
X127914158Y-97982500D01*
X127914155Y-97982500D01*
X127759510Y-98013261D01*
X127759498Y-98013264D01*
X127613827Y-98073602D01*
X127613814Y-98073609D01*
X127482711Y-98161210D01*
X127482707Y-98161213D01*
X127371213Y-98272707D01*
X127371210Y-98272711D01*
X127283609Y-98403814D01*
X127283602Y-98403827D01*
X127223264Y-98549498D01*
X127223261Y-98549510D01*
X127192500Y-98704153D01*
X97513494Y-98704153D01*
X97513494Y-96941241D01*
X152629455Y-96941241D01*
X152629455Y-97098934D01*
X152660216Y-97253577D01*
X152660219Y-97253589D01*
X152717527Y-97391945D01*
X152724996Y-97461415D01*
X152717528Y-97486848D01*
X152676280Y-97586432D01*
X152676278Y-97586439D01*
X152645517Y-97741082D01*
X152645517Y-97898775D01*
X152676278Y-98053418D01*
X152676281Y-98053430D01*
X152736619Y-98199101D01*
X152736626Y-98199114D01*
X152824227Y-98330217D01*
X152824230Y-98330221D01*
X152935724Y-98441715D01*
X152935728Y-98441718D01*
X153066831Y-98529319D01*
X153066844Y-98529326D01*
X153171101Y-98572510D01*
X153212520Y-98589666D01*
X153367170Y-98620428D01*
X153367173Y-98620429D01*
X153367175Y-98620429D01*
X153524861Y-98620429D01*
X153524862Y-98620428D01*
X153679514Y-98589666D01*
X153825196Y-98529323D01*
X153956306Y-98441718D01*
X154067806Y-98330218D01*
X154155411Y-98199108D01*
X154161582Y-98184211D01*
X154169084Y-98166095D01*
X154215754Y-98053426D01*
X154246517Y-97898771D01*
X154246517Y-97741087D01*
X154246517Y-97741084D01*
X154246516Y-97741082D01*
X154215755Y-97586439D01*
X154215754Y-97586432D01*
X154205582Y-97561875D01*
X154158444Y-97448071D01*
X154150975Y-97378602D01*
X154158442Y-97353170D01*
X154199692Y-97253585D01*
X154230455Y-97098930D01*
X154230455Y-96941246D01*
X154230455Y-96941243D01*
X154230454Y-96941241D01*
X154199693Y-96786598D01*
X154199692Y-96786591D01*
X154168386Y-96711010D01*
X154157910Y-96685718D01*
X154140776Y-96644353D01*
X157339900Y-96644353D01*
X157339900Y-96802046D01*
X157370661Y-96956689D01*
X157370664Y-96956701D01*
X157431002Y-97102372D01*
X157431009Y-97102385D01*
X157518610Y-97233488D01*
X157518613Y-97233492D01*
X157630107Y-97344986D01*
X157630111Y-97344989D01*
X157761214Y-97432590D01*
X157761226Y-97432597D01*
X157866479Y-97476193D01*
X157906903Y-97492937D01*
X157906904Y-97492937D01*
X157911322Y-97494767D01*
X157965726Y-97538607D01*
X157978431Y-97561875D01*
X158040604Y-97711976D01*
X158040609Y-97711985D01*
X158128210Y-97843088D01*
X158128213Y-97843092D01*
X158239707Y-97954586D01*
X158239711Y-97954589D01*
X158370814Y-98042190D01*
X158370827Y-98042197D01*
X158502184Y-98096606D01*
X158516503Y-98102537D01*
X158668810Y-98132833D01*
X158671153Y-98133299D01*
X158671156Y-98133300D01*
X158671158Y-98133300D01*
X158828844Y-98133300D01*
X158828845Y-98133299D01*
X158983497Y-98102537D01*
X159129179Y-98042194D01*
X159260289Y-97954589D01*
X159371789Y-97843089D01*
X159459394Y-97711979D01*
X159519737Y-97566297D01*
X159550500Y-97411642D01*
X159550500Y-97253958D01*
X159550500Y-97253955D01*
X159550499Y-97253953D01*
X159520350Y-97102385D01*
X159519737Y-97099303D01*
X159519583Y-97098932D01*
X159459397Y-96953627D01*
X159459390Y-96953614D01*
X159371789Y-96822511D01*
X159371786Y-96822507D01*
X159260292Y-96711013D01*
X159260288Y-96711010D01*
X159129185Y-96623409D01*
X159129176Y-96623404D01*
X158979075Y-96561231D01*
X158924672Y-96517390D01*
X158911967Y-96494122D01*
X158849797Y-96344026D01*
X158849790Y-96344014D01*
X158762189Y-96212911D01*
X158762186Y-96212907D01*
X158650692Y-96101413D01*
X158650688Y-96101410D01*
X158519585Y-96013809D01*
X158519572Y-96013802D01*
X158373901Y-95953464D01*
X158373889Y-95953461D01*
X158219245Y-95922700D01*
X158219242Y-95922700D01*
X158061558Y-95922700D01*
X158061555Y-95922700D01*
X157906910Y-95953461D01*
X157906898Y-95953464D01*
X157761227Y-96013802D01*
X157761214Y-96013809D01*
X157630111Y-96101410D01*
X157630107Y-96101413D01*
X157518613Y-96212907D01*
X157518610Y-96212911D01*
X157431009Y-96344014D01*
X157431002Y-96344027D01*
X157370664Y-96489698D01*
X157370661Y-96489710D01*
X157339900Y-96644353D01*
X154140776Y-96644353D01*
X154139350Y-96640911D01*
X154139345Y-96640902D01*
X154051744Y-96509799D01*
X154051741Y-96509795D01*
X153940247Y-96398301D01*
X153940243Y-96398298D01*
X153809140Y-96310697D01*
X153809127Y-96310690D01*
X153663456Y-96250352D01*
X153663444Y-96250349D01*
X153508800Y-96219588D01*
X153508797Y-96219588D01*
X153351113Y-96219588D01*
X153351110Y-96219588D01*
X153196465Y-96250349D01*
X153196453Y-96250352D01*
X153050782Y-96310690D01*
X153050769Y-96310697D01*
X152919666Y-96398298D01*
X152919662Y-96398301D01*
X152808168Y-96509795D01*
X152808165Y-96509799D01*
X152720564Y-96640902D01*
X152720557Y-96640915D01*
X152660219Y-96786586D01*
X152660216Y-96786598D01*
X152629455Y-96941241D01*
X97513494Y-96941241D01*
X97513494Y-95526753D01*
X159371900Y-95526753D01*
X159371900Y-95684446D01*
X159402661Y-95839089D01*
X159402664Y-95839101D01*
X159463002Y-95984772D01*
X159463009Y-95984785D01*
X159550610Y-96115888D01*
X159550613Y-96115892D01*
X159662107Y-96227386D01*
X159662111Y-96227389D01*
X159793214Y-96314990D01*
X159793227Y-96314997D01*
X159863313Y-96344027D01*
X159938903Y-96375337D01*
X160093553Y-96406099D01*
X160093556Y-96406100D01*
X160093558Y-96406100D01*
X160251244Y-96406100D01*
X160251245Y-96406099D01*
X160405897Y-96375337D01*
X160551579Y-96314994D01*
X160682689Y-96227389D01*
X160794189Y-96115889D01*
X160881794Y-95984779D01*
X160942137Y-95839097D01*
X160972900Y-95684442D01*
X160972900Y-95526758D01*
X160972900Y-95526755D01*
X160972899Y-95526753D01*
X160942137Y-95372103D01*
X160932898Y-95349797D01*
X160881797Y-95226427D01*
X160881790Y-95226414D01*
X160794189Y-95095311D01*
X160794186Y-95095307D01*
X160682692Y-94983813D01*
X160682688Y-94983810D01*
X160551585Y-94896209D01*
X160551572Y-94896202D01*
X160405901Y-94835864D01*
X160405889Y-94835861D01*
X160251245Y-94805100D01*
X160251242Y-94805100D01*
X160093558Y-94805100D01*
X160093555Y-94805100D01*
X159938910Y-94835861D01*
X159938898Y-94835864D01*
X159793227Y-94896202D01*
X159793214Y-94896209D01*
X159662111Y-94983810D01*
X159662107Y-94983813D01*
X159550613Y-95095307D01*
X159550610Y-95095311D01*
X159463009Y-95226414D01*
X159463002Y-95226427D01*
X159402664Y-95372098D01*
X159402661Y-95372110D01*
X159371900Y-95526753D01*
X97513494Y-95526753D01*
X97513494Y-94561553D01*
X103644300Y-94561553D01*
X103644300Y-94719246D01*
X103675061Y-94873889D01*
X103675064Y-94873901D01*
X103735402Y-95019572D01*
X103735409Y-95019585D01*
X103823010Y-95150688D01*
X103823013Y-95150692D01*
X103934507Y-95262186D01*
X103934511Y-95262189D01*
X104065614Y-95349790D01*
X104065627Y-95349797D01*
X104201569Y-95406105D01*
X104211303Y-95410137D01*
X104365953Y-95440899D01*
X104365956Y-95440900D01*
X104365958Y-95440900D01*
X104523644Y-95440900D01*
X104523645Y-95440899D01*
X104678297Y-95410137D01*
X104823979Y-95349794D01*
X104909309Y-95292777D01*
X104975986Y-95271900D01*
X105043366Y-95290384D01*
X105047081Y-95292771D01*
X105132421Y-95349794D01*
X105132423Y-95349795D01*
X105132427Y-95349797D01*
X105268369Y-95406105D01*
X105278103Y-95410137D01*
X105432753Y-95440899D01*
X105432756Y-95440900D01*
X105432758Y-95440900D01*
X105590444Y-95440900D01*
X105590445Y-95440899D01*
X105745097Y-95410137D01*
X105750001Y-95408105D01*
X105754832Y-95406105D01*
X105890772Y-95349797D01*
X105890772Y-95349796D01*
X105890779Y-95349794D01*
X106021889Y-95262189D01*
X106133389Y-95150689D01*
X106220994Y-95019579D01*
X106281337Y-94873897D01*
X106312100Y-94719242D01*
X106312100Y-94561558D01*
X106312100Y-94561555D01*
X106295491Y-94478058D01*
X106295491Y-94478057D01*
X106291890Y-94459953D01*
X118884300Y-94459953D01*
X118884300Y-94617646D01*
X118915061Y-94772289D01*
X118915064Y-94772301D01*
X118975402Y-94917972D01*
X118975409Y-94917985D01*
X119063010Y-95049088D01*
X119063013Y-95049092D01*
X119174507Y-95160586D01*
X119174511Y-95160589D01*
X119305614Y-95248190D01*
X119305627Y-95248197D01*
X119402929Y-95288500D01*
X119451303Y-95308537D01*
X119605953Y-95339299D01*
X119605956Y-95339300D01*
X119605958Y-95339300D01*
X119763644Y-95339300D01*
X119763645Y-95339299D01*
X119918297Y-95308537D01*
X120063979Y-95248194D01*
X120149309Y-95191177D01*
X120215986Y-95170300D01*
X120283366Y-95188784D01*
X120287081Y-95191171D01*
X120372421Y-95248194D01*
X120372423Y-95248195D01*
X120372427Y-95248197D01*
X120469729Y-95288500D01*
X120518103Y-95308537D01*
X120672753Y-95339299D01*
X120672756Y-95339300D01*
X120672758Y-95339300D01*
X120830444Y-95339300D01*
X120830445Y-95339299D01*
X120985097Y-95308537D01*
X121130779Y-95248194D01*
X121261889Y-95160589D01*
X121373389Y-95049089D01*
X121460994Y-94917979D01*
X121521337Y-94772297D01*
X121552100Y-94617642D01*
X121552100Y-94459958D01*
X121552100Y-94459955D01*
X121552099Y-94459953D01*
X121545596Y-94427257D01*
X121541995Y-94409153D01*
X152615500Y-94409153D01*
X152615500Y-94566846D01*
X152646261Y-94721489D01*
X152646264Y-94721501D01*
X152706602Y-94867172D01*
X152706609Y-94867185D01*
X152794210Y-94998288D01*
X152794213Y-94998292D01*
X152905707Y-95109786D01*
X152905711Y-95109789D01*
X153036814Y-95197390D01*
X153036827Y-95197397D01*
X153159454Y-95248190D01*
X153182503Y-95257737D01*
X153337153Y-95288499D01*
X153337156Y-95288500D01*
X153337158Y-95288500D01*
X153494844Y-95288500D01*
X153494845Y-95288499D01*
X153649497Y-95257737D01*
X153795179Y-95197394D01*
X153926289Y-95109789D01*
X154037789Y-94998289D01*
X154125394Y-94867179D01*
X154185737Y-94721497D01*
X154216500Y-94566842D01*
X154216500Y-94409158D01*
X154216500Y-94409155D01*
X154189786Y-94274858D01*
X154189785Y-94274856D01*
X154187073Y-94261221D01*
X154186184Y-94256753D01*
X158000300Y-94256753D01*
X158000300Y-94414446D01*
X158031061Y-94569089D01*
X158031064Y-94569101D01*
X158091402Y-94714772D01*
X158091409Y-94714785D01*
X158179010Y-94845888D01*
X158179013Y-94845892D01*
X158290507Y-94957386D01*
X158290511Y-94957389D01*
X158421614Y-95044990D01*
X158421627Y-95044997D01*
X158543088Y-95095307D01*
X158567303Y-95105337D01*
X158721953Y-95136099D01*
X158721956Y-95136100D01*
X158721958Y-95136100D01*
X158879644Y-95136100D01*
X158879645Y-95136099D01*
X159034297Y-95105337D01*
X159146966Y-95058667D01*
X159179972Y-95044997D01*
X159179972Y-95044996D01*
X159179979Y-95044994D01*
X159311089Y-94957389D01*
X159422589Y-94845889D01*
X159510194Y-94714779D01*
X159570537Y-94569097D01*
X159601300Y-94414442D01*
X159601300Y-94256758D01*
X159601300Y-94256755D01*
X159601299Y-94256753D01*
X159600850Y-94254498D01*
X159570537Y-94102103D01*
X159545071Y-94040621D01*
X159510197Y-93956427D01*
X159510190Y-93956414D01*
X159422589Y-93825311D01*
X159422586Y-93825307D01*
X159311092Y-93713813D01*
X159311088Y-93713810D01*
X159179985Y-93626209D01*
X159179972Y-93626202D01*
X159034301Y-93565864D01*
X159034289Y-93565861D01*
X158879645Y-93535100D01*
X158879642Y-93535100D01*
X158721958Y-93535100D01*
X158721955Y-93535100D01*
X158567310Y-93565861D01*
X158567298Y-93565864D01*
X158421627Y-93626202D01*
X158421614Y-93626209D01*
X158290511Y-93713810D01*
X158290507Y-93713813D01*
X158179013Y-93825307D01*
X158179010Y-93825311D01*
X158091409Y-93956414D01*
X158091402Y-93956427D01*
X158031064Y-94102098D01*
X158031061Y-94102110D01*
X158000300Y-94256753D01*
X154186184Y-94256753D01*
X154185737Y-94254503D01*
X154185735Y-94254498D01*
X154125397Y-94108827D01*
X154125390Y-94108814D01*
X154037789Y-93977711D01*
X154037786Y-93977707D01*
X153926292Y-93866213D01*
X153926288Y-93866210D01*
X153795185Y-93778609D01*
X153795172Y-93778602D01*
X153649501Y-93718264D01*
X153649489Y-93718261D01*
X153494845Y-93687500D01*
X153494842Y-93687500D01*
X153337158Y-93687500D01*
X153337155Y-93687500D01*
X153182510Y-93718261D01*
X153182498Y-93718264D01*
X153036827Y-93778602D01*
X153036814Y-93778609D01*
X152905711Y-93866210D01*
X152905707Y-93866213D01*
X152794213Y-93977707D01*
X152794210Y-93977711D01*
X152706609Y-94108814D01*
X152706602Y-94108827D01*
X152646264Y-94254498D01*
X152646261Y-94254510D01*
X152615500Y-94409153D01*
X121541995Y-94409153D01*
X121521338Y-94305308D01*
X121521337Y-94305307D01*
X121521337Y-94305303D01*
X121521335Y-94305298D01*
X121460997Y-94159627D01*
X121460990Y-94159614D01*
X121373389Y-94028511D01*
X121373386Y-94028507D01*
X121261892Y-93917013D01*
X121261888Y-93917010D01*
X121130785Y-93829409D01*
X121130772Y-93829402D01*
X120985101Y-93769064D01*
X120985089Y-93769061D01*
X120830445Y-93738300D01*
X120830442Y-93738300D01*
X120672758Y-93738300D01*
X120672755Y-93738300D01*
X120518110Y-93769061D01*
X120518098Y-93769064D01*
X120372427Y-93829402D01*
X120372414Y-93829409D01*
X120287091Y-93886421D01*
X120220413Y-93907299D01*
X120153033Y-93888814D01*
X120149309Y-93886421D01*
X120063985Y-93829409D01*
X120063972Y-93829402D01*
X119918301Y-93769064D01*
X119918289Y-93769061D01*
X119763645Y-93738300D01*
X119763642Y-93738300D01*
X119605958Y-93738300D01*
X119605955Y-93738300D01*
X119451310Y-93769061D01*
X119451298Y-93769064D01*
X119305627Y-93829402D01*
X119305614Y-93829409D01*
X119174511Y-93917010D01*
X119174507Y-93917013D01*
X119063013Y-94028507D01*
X119063010Y-94028511D01*
X118975409Y-94159614D01*
X118975402Y-94159627D01*
X118915064Y-94305298D01*
X118915061Y-94305310D01*
X118884300Y-94459953D01*
X106291890Y-94459953D01*
X106282837Y-94414444D01*
X106281337Y-94406903D01*
X106240149Y-94307465D01*
X106220997Y-94261227D01*
X106220990Y-94261214D01*
X106133389Y-94130111D01*
X106133386Y-94130107D01*
X106021892Y-94018613D01*
X106021888Y-94018610D01*
X105890785Y-93931009D01*
X105890772Y-93931002D01*
X105745101Y-93870664D01*
X105745089Y-93870661D01*
X105590445Y-93839900D01*
X105590442Y-93839900D01*
X105432758Y-93839900D01*
X105432755Y-93839900D01*
X105278110Y-93870661D01*
X105278098Y-93870664D01*
X105132427Y-93931002D01*
X105132414Y-93931009D01*
X105047091Y-93988021D01*
X104980413Y-94008899D01*
X104913033Y-93990414D01*
X104909309Y-93988021D01*
X104823985Y-93931009D01*
X104823972Y-93931002D01*
X104678301Y-93870664D01*
X104678289Y-93870661D01*
X104523645Y-93839900D01*
X104523642Y-93839900D01*
X104365958Y-93839900D01*
X104365955Y-93839900D01*
X104211310Y-93870661D01*
X104211298Y-93870664D01*
X104065627Y-93931002D01*
X104065614Y-93931009D01*
X103934511Y-94018610D01*
X103934507Y-94018613D01*
X103823013Y-94130107D01*
X103823010Y-94130111D01*
X103735409Y-94261214D01*
X103735402Y-94261227D01*
X103675064Y-94406898D01*
X103675061Y-94406910D01*
X103644300Y-94561553D01*
X97513494Y-94561553D01*
X97513494Y-91023153D01*
X141553500Y-91023153D01*
X141553500Y-91180846D01*
X141584261Y-91335489D01*
X141584264Y-91335501D01*
X141644602Y-91481172D01*
X141644609Y-91481185D01*
X141712713Y-91583109D01*
X141733591Y-91649787D01*
X141715107Y-91717167D01*
X141712713Y-91720891D01*
X141644609Y-91822814D01*
X141644602Y-91822827D01*
X141584264Y-91968498D01*
X141584261Y-91968510D01*
X141553500Y-92123153D01*
X141553500Y-92280846D01*
X141584261Y-92435489D01*
X141584264Y-92435501D01*
X141644602Y-92581172D01*
X141644609Y-92581185D01*
X141732210Y-92712288D01*
X141732213Y-92712292D01*
X141843707Y-92823786D01*
X141843711Y-92823789D01*
X141974814Y-92911390D01*
X141974818Y-92911392D01*
X141974821Y-92911394D01*
X142082782Y-92956112D01*
X142137182Y-92999951D01*
X142149888Y-93023220D01*
X142194602Y-93131172D01*
X142194609Y-93131185D01*
X142282210Y-93262288D01*
X142282213Y-93262292D01*
X142393707Y-93373786D01*
X142393711Y-93373789D01*
X142524814Y-93461390D01*
X142524827Y-93461397D01*
X142670498Y-93521735D01*
X142670503Y-93521737D01*
X142825153Y-93552499D01*
X142825156Y-93552500D01*
X142825158Y-93552500D01*
X142982844Y-93552500D01*
X142982845Y-93552499D01*
X143137497Y-93521737D01*
X143283179Y-93461394D01*
X143385111Y-93393284D01*
X143451786Y-93372408D01*
X143519166Y-93390892D01*
X143522847Y-93393257D01*
X143624821Y-93461394D01*
X143624823Y-93461395D01*
X143624827Y-93461397D01*
X143770498Y-93521735D01*
X143770503Y-93521737D01*
X143925153Y-93552499D01*
X143925156Y-93552500D01*
X143925158Y-93552500D01*
X144082844Y-93552500D01*
X144082845Y-93552499D01*
X144237497Y-93521737D01*
X144383179Y-93461394D01*
X144514289Y-93373789D01*
X144625789Y-93262289D01*
X144713394Y-93131179D01*
X144758112Y-93023217D01*
X144801951Y-92968817D01*
X144825210Y-92956115D01*
X144933179Y-92911394D01*
X145064289Y-92823789D01*
X145175789Y-92712289D01*
X145263394Y-92581179D01*
X145323737Y-92435497D01*
X145354500Y-92280842D01*
X145354500Y-92224753D01*
X154241100Y-92224753D01*
X154241100Y-92382446D01*
X154271861Y-92537089D01*
X154271864Y-92537101D01*
X154332202Y-92682772D01*
X154332209Y-92682785D01*
X154419810Y-92813888D01*
X154419813Y-92813892D01*
X154531307Y-92925386D01*
X154531311Y-92925389D01*
X154662414Y-93012990D01*
X154662427Y-93012997D01*
X154808098Y-93073335D01*
X154808103Y-93073337D01*
X154962753Y-93104099D01*
X154962756Y-93104100D01*
X154962758Y-93104100D01*
X155120444Y-93104100D01*
X155120445Y-93104099D01*
X155275097Y-93073337D01*
X155420779Y-93012994D01*
X155429911Y-93006892D01*
X155496585Y-92986015D01*
X155563966Y-93004499D01*
X155567650Y-93006866D01*
X155576821Y-93012994D01*
X155576824Y-93012995D01*
X155576827Y-93012997D01*
X155722498Y-93073335D01*
X155722503Y-93073337D01*
X155877153Y-93104099D01*
X155877156Y-93104100D01*
X155877158Y-93104100D01*
X156034844Y-93104100D01*
X156034845Y-93104099D01*
X156189497Y-93073337D01*
X156335179Y-93012994D01*
X156335180Y-93012992D01*
X156340347Y-93010853D01*
X156409817Y-93003384D01*
X156435253Y-93010853D01*
X156440419Y-93012993D01*
X156440421Y-93012994D01*
X156586103Y-93073337D01*
X156740753Y-93104099D01*
X156740756Y-93104100D01*
X156740758Y-93104100D01*
X156898444Y-93104100D01*
X156898445Y-93104099D01*
X157053097Y-93073337D01*
X157198779Y-93012994D01*
X157329889Y-92925389D01*
X157347135Y-92908143D01*
X161358899Y-92908143D01*
X161397347Y-93101429D01*
X161397350Y-93101439D01*
X161472764Y-93283507D01*
X161472771Y-93283520D01*
X161582260Y-93447381D01*
X161582263Y-93447385D01*
X161721614Y-93586736D01*
X161721618Y-93586739D01*
X161885479Y-93696228D01*
X161885492Y-93696235D01*
X161990138Y-93739580D01*
X162067565Y-93771651D01*
X162067569Y-93771651D01*
X162067570Y-93771652D01*
X162260856Y-93810100D01*
X162260859Y-93810100D01*
X162847350Y-93810100D01*
X162914389Y-93829785D01*
X162960144Y-93882589D01*
X162970088Y-93951747D01*
X162954737Y-93996100D01*
X162929032Y-94040621D01*
X162929031Y-94040625D01*
X162893900Y-94171733D01*
X162893900Y-94307467D01*
X162929031Y-94438575D01*
X162929032Y-94438578D01*
X162996895Y-94556120D01*
X162996897Y-94556122D01*
X162996898Y-94556124D01*
X163092876Y-94652102D01*
X163092877Y-94652103D01*
X163092879Y-94652104D01*
X163210421Y-94719967D01*
X163210422Y-94719967D01*
X163210425Y-94719969D01*
X163341533Y-94755100D01*
X163341535Y-94755100D01*
X163477265Y-94755100D01*
X163477267Y-94755100D01*
X163608375Y-94719969D01*
X163725924Y-94652102D01*
X163821902Y-94556124D01*
X163889769Y-94438575D01*
X163924900Y-94307467D01*
X163924900Y-94171733D01*
X163889769Y-94040625D01*
X163877060Y-94018613D01*
X163821904Y-93923079D01*
X163816955Y-93916630D01*
X163819065Y-93915010D01*
X163791869Y-93865205D01*
X163796853Y-93795513D01*
X163838725Y-93739580D01*
X163865578Y-93724288D01*
X163933314Y-93696232D01*
X164097182Y-93586739D01*
X164236539Y-93447382D01*
X164346032Y-93283514D01*
X164421451Y-93101435D01*
X164449413Y-92960861D01*
X164459900Y-92908143D01*
X165688899Y-92908143D01*
X165727347Y-93101429D01*
X165727350Y-93101439D01*
X165802764Y-93283507D01*
X165802771Y-93283520D01*
X165912260Y-93447381D01*
X165912263Y-93447385D01*
X166051614Y-93586736D01*
X166051618Y-93586739D01*
X166215479Y-93696228D01*
X166215492Y-93696235D01*
X166320138Y-93739580D01*
X166397565Y-93771651D01*
X166397569Y-93771651D01*
X166397570Y-93771652D01*
X166590856Y-93810100D01*
X166590859Y-93810100D01*
X167587943Y-93810100D01*
X167746290Y-93778602D01*
X167781235Y-93771651D01*
X167963314Y-93696232D01*
X168127182Y-93586739D01*
X168266539Y-93447382D01*
X168376032Y-93283514D01*
X168451451Y-93101435D01*
X168479413Y-92960861D01*
X168489900Y-92908143D01*
X168489900Y-92711056D01*
X168451452Y-92517770D01*
X168451451Y-92517769D01*
X168451451Y-92517765D01*
X168451449Y-92517760D01*
X168376035Y-92335692D01*
X168376028Y-92335679D01*
X168266539Y-92171818D01*
X168266536Y-92171814D01*
X168127185Y-92032463D01*
X168127181Y-92032460D01*
X167963320Y-91922971D01*
X167963307Y-91922964D01*
X167781239Y-91847550D01*
X167781229Y-91847547D01*
X167587943Y-91809100D01*
X167587941Y-91809100D01*
X166590859Y-91809100D01*
X166590857Y-91809100D01*
X166397570Y-91847547D01*
X166397560Y-91847550D01*
X166215492Y-91922964D01*
X166215479Y-91922971D01*
X166051618Y-92032460D01*
X166051614Y-92032463D01*
X165912263Y-92171814D01*
X165912260Y-92171818D01*
X165802771Y-92335679D01*
X165802764Y-92335692D01*
X165727350Y-92517760D01*
X165727347Y-92517770D01*
X165688900Y-92711056D01*
X165688900Y-92711059D01*
X165688900Y-92908141D01*
X165688900Y-92908143D01*
X165688899Y-92908143D01*
X164459900Y-92908143D01*
X164459900Y-92711056D01*
X164421452Y-92517770D01*
X164421451Y-92517769D01*
X164421451Y-92517765D01*
X164421449Y-92517760D01*
X164346035Y-92335692D01*
X164346028Y-92335679D01*
X164236539Y-92171818D01*
X164236536Y-92171814D01*
X164097185Y-92032463D01*
X164097181Y-92032460D01*
X163933320Y-91922971D01*
X163933307Y-91922964D01*
X163751239Y-91847550D01*
X163751229Y-91847547D01*
X163557943Y-91809100D01*
X163557941Y-91809100D01*
X162260859Y-91809100D01*
X162260857Y-91809100D01*
X162067570Y-91847547D01*
X162067560Y-91847550D01*
X161885492Y-91922964D01*
X161885479Y-91922971D01*
X161721618Y-92032460D01*
X161721614Y-92032463D01*
X161582263Y-92171814D01*
X161582260Y-92171818D01*
X161472771Y-92335679D01*
X161472764Y-92335692D01*
X161397350Y-92517760D01*
X161397347Y-92517770D01*
X161358900Y-92711056D01*
X161358900Y-92711059D01*
X161358900Y-92908141D01*
X161358900Y-92908143D01*
X161358899Y-92908143D01*
X157347135Y-92908143D01*
X157441389Y-92813889D01*
X157528994Y-92682779D01*
X157528995Y-92682776D01*
X157528997Y-92682773D01*
X157539459Y-92657515D01*
X157589335Y-92537101D01*
X157589337Y-92537097D01*
X157620100Y-92382442D01*
X157620100Y-92224758D01*
X157620100Y-92224755D01*
X157620099Y-92224753D01*
X157589337Y-92070103D01*
X157573745Y-92032460D01*
X157528997Y-91924427D01*
X157528990Y-91924414D01*
X157441389Y-91793311D01*
X157441386Y-91793307D01*
X157329892Y-91681813D01*
X157329888Y-91681810D01*
X157198785Y-91594209D01*
X157198772Y-91594202D01*
X157053101Y-91533864D01*
X157053089Y-91533861D01*
X156898445Y-91503100D01*
X156898442Y-91503100D01*
X156740758Y-91503100D01*
X156740755Y-91503100D01*
X156586110Y-91533861D01*
X156586098Y-91533864D01*
X156435252Y-91596346D01*
X156365783Y-91603815D01*
X156340348Y-91596346D01*
X156189501Y-91533864D01*
X156189489Y-91533861D01*
X156034845Y-91503100D01*
X156034842Y-91503100D01*
X155877158Y-91503100D01*
X155877155Y-91503100D01*
X155722510Y-91533861D01*
X155722498Y-91533864D01*
X155576827Y-91594202D01*
X155576815Y-91594209D01*
X155567687Y-91600308D01*
X155501008Y-91621183D01*
X155433629Y-91602696D01*
X155429913Y-91600308D01*
X155420784Y-91594209D01*
X155420772Y-91594202D01*
X155275101Y-91533864D01*
X155275089Y-91533861D01*
X155120445Y-91503100D01*
X155120442Y-91503100D01*
X154962758Y-91503100D01*
X154962755Y-91503100D01*
X154808110Y-91533861D01*
X154808098Y-91533864D01*
X154662427Y-91594202D01*
X154662414Y-91594209D01*
X154531311Y-91681810D01*
X154531307Y-91681813D01*
X154419813Y-91793307D01*
X154419810Y-91793311D01*
X154332209Y-91924414D01*
X154332202Y-91924427D01*
X154271864Y-92070098D01*
X154271861Y-92070110D01*
X154241100Y-92224753D01*
X145354500Y-92224753D01*
X145354500Y-92123158D01*
X145354500Y-92123155D01*
X145354499Y-92123153D01*
X145343948Y-92070110D01*
X145323737Y-91968503D01*
X145273636Y-91847547D01*
X145263397Y-91822827D01*
X145263393Y-91822820D01*
X145263389Y-91822814D01*
X145195284Y-91720888D01*
X145174408Y-91654214D01*
X145192892Y-91586834D01*
X145195257Y-91583152D01*
X145263394Y-91481179D01*
X145323737Y-91335497D01*
X145354500Y-91180842D01*
X145354500Y-91023158D01*
X145354500Y-91023155D01*
X145354499Y-91023153D01*
X145323738Y-90868510D01*
X145323737Y-90868503D01*
X145323735Y-90868498D01*
X145263397Y-90722827D01*
X145263390Y-90722814D01*
X145175789Y-90591711D01*
X145175786Y-90591707D01*
X145064292Y-90480213D01*
X145064288Y-90480210D01*
X144933185Y-90392609D01*
X144933172Y-90392602D01*
X144825220Y-90347888D01*
X144770816Y-90304048D01*
X144758115Y-90280789D01*
X144713394Y-90172821D01*
X144713392Y-90172818D01*
X144713390Y-90172814D01*
X144625789Y-90041711D01*
X144625786Y-90041707D01*
X144514294Y-89930215D01*
X144514287Y-89930209D01*
X144383185Y-89842609D01*
X144383172Y-89842602D01*
X144370017Y-89837153D01*
X147281500Y-89837153D01*
X147281500Y-89994846D01*
X147312261Y-90149489D01*
X147312264Y-90149501D01*
X147372602Y-90295172D01*
X147372609Y-90295185D01*
X147460210Y-90426288D01*
X147460213Y-90426292D01*
X147571707Y-90537786D01*
X147571711Y-90537789D01*
X147702814Y-90625390D01*
X147702827Y-90625397D01*
X147848498Y-90685735D01*
X147848503Y-90685737D01*
X148003153Y-90716499D01*
X148003156Y-90716500D01*
X148003158Y-90716500D01*
X148160844Y-90716500D01*
X148160845Y-90716499D01*
X148315497Y-90685737D01*
X148461179Y-90625394D01*
X148592289Y-90537789D01*
X148703789Y-90426289D01*
X148791394Y-90295179D01*
X148851737Y-90149497D01*
X148882500Y-89994842D01*
X148882500Y-89837158D01*
X148882500Y-89837155D01*
X148882499Y-89837153D01*
X148871581Y-89782264D01*
X148851737Y-89682503D01*
X148851735Y-89682498D01*
X148791397Y-89536827D01*
X148791390Y-89536814D01*
X148703789Y-89405711D01*
X148703786Y-89405707D01*
X148592292Y-89294213D01*
X148592288Y-89294210D01*
X148461185Y-89206609D01*
X148461172Y-89206602D01*
X148315501Y-89146264D01*
X148315489Y-89146261D01*
X148160845Y-89115500D01*
X148160842Y-89115500D01*
X148003158Y-89115500D01*
X148003155Y-89115500D01*
X147848510Y-89146261D01*
X147848498Y-89146264D01*
X147702827Y-89206602D01*
X147702814Y-89206609D01*
X147571711Y-89294210D01*
X147571707Y-89294213D01*
X147460213Y-89405707D01*
X147460210Y-89405711D01*
X147372609Y-89536814D01*
X147372602Y-89536827D01*
X147312264Y-89682498D01*
X147312261Y-89682510D01*
X147281500Y-89837153D01*
X144370017Y-89837153D01*
X144237501Y-89782264D01*
X144237489Y-89782261D01*
X144082845Y-89751500D01*
X144082842Y-89751500D01*
X143925158Y-89751500D01*
X143925155Y-89751500D01*
X143770510Y-89782261D01*
X143770498Y-89782264D01*
X143624827Y-89842602D01*
X143624814Y-89842609D01*
X143522891Y-89910713D01*
X143456213Y-89931591D01*
X143388833Y-89913107D01*
X143385109Y-89910713D01*
X143283185Y-89842609D01*
X143283172Y-89842602D01*
X143137501Y-89782264D01*
X143137489Y-89782261D01*
X142982845Y-89751500D01*
X142982842Y-89751500D01*
X142825158Y-89751500D01*
X142825155Y-89751500D01*
X142670510Y-89782261D01*
X142670498Y-89782264D01*
X142524827Y-89842602D01*
X142524814Y-89842609D01*
X142393711Y-89930210D01*
X142393707Y-89930213D01*
X142282213Y-90041707D01*
X142282210Y-90041711D01*
X142194609Y-90172814D01*
X142194604Y-90172823D01*
X142149888Y-90280780D01*
X142106047Y-90335183D01*
X142082780Y-90347888D01*
X141974823Y-90392604D01*
X141974814Y-90392609D01*
X141843711Y-90480210D01*
X141843707Y-90480213D01*
X141732213Y-90591707D01*
X141732210Y-90591711D01*
X141644609Y-90722814D01*
X141644602Y-90722827D01*
X141584264Y-90868498D01*
X141584261Y-90868510D01*
X141553500Y-91023153D01*
X97513494Y-91023153D01*
X97513494Y-89837153D01*
X130009500Y-89837153D01*
X130009500Y-89994846D01*
X130040261Y-90149489D01*
X130040264Y-90149501D01*
X130100602Y-90295172D01*
X130100609Y-90295185D01*
X130188210Y-90426288D01*
X130188213Y-90426292D01*
X130299707Y-90537786D01*
X130299711Y-90537789D01*
X130430814Y-90625390D01*
X130430827Y-90625397D01*
X130576498Y-90685735D01*
X130576503Y-90685737D01*
X130731153Y-90716499D01*
X130731156Y-90716500D01*
X130731158Y-90716500D01*
X130888844Y-90716500D01*
X130888845Y-90716499D01*
X131043497Y-90685737D01*
X131189179Y-90625394D01*
X131320289Y-90537789D01*
X131431789Y-90426289D01*
X131519394Y-90295179D01*
X131579737Y-90149497D01*
X131610500Y-89994842D01*
X131610500Y-89837158D01*
X131610500Y-89837155D01*
X131610499Y-89837153D01*
X131599581Y-89782264D01*
X131579737Y-89682503D01*
X131579735Y-89682498D01*
X131519397Y-89536827D01*
X131519390Y-89536814D01*
X131431789Y-89405711D01*
X131431786Y-89405707D01*
X131342462Y-89316383D01*
X131308977Y-89255060D01*
X131313961Y-89185368D01*
X131355833Y-89129435D01*
X131421297Y-89105018D01*
X131477594Y-89114140D01*
X131592503Y-89161737D01*
X131747153Y-89192499D01*
X131747156Y-89192500D01*
X131747158Y-89192500D01*
X131904844Y-89192500D01*
X131904845Y-89192499D01*
X132059497Y-89161737D01*
X132205179Y-89101394D01*
X132336289Y-89013789D01*
X132447789Y-88902289D01*
X132535394Y-88771179D01*
X132595737Y-88625497D01*
X132626500Y-88470842D01*
X132626500Y-88313158D01*
X132626500Y-88313155D01*
X132626499Y-88313153D01*
X132595738Y-88158510D01*
X132595737Y-88158503D01*
X132595735Y-88158498D01*
X132535397Y-88012827D01*
X132535390Y-88012814D01*
X132447789Y-87881711D01*
X132447786Y-87881707D01*
X132336292Y-87770213D01*
X132336288Y-87770210D01*
X132280752Y-87733102D01*
X132235947Y-87679490D01*
X132227240Y-87610165D01*
X132257394Y-87547137D01*
X132280752Y-87526898D01*
X132298779Y-87514852D01*
X132336289Y-87489789D01*
X132447789Y-87378289D01*
X132535394Y-87247179D01*
X132595737Y-87101497D01*
X132626500Y-86946842D01*
X132626500Y-86789158D01*
X132626500Y-86789155D01*
X132626499Y-86789153D01*
X132595738Y-86634510D01*
X132595737Y-86634503D01*
X132595735Y-86634498D01*
X132535397Y-86488827D01*
X132535390Y-86488814D01*
X132447789Y-86357711D01*
X132447786Y-86357707D01*
X132336292Y-86246213D01*
X132336288Y-86246210D01*
X132205185Y-86158609D01*
X132205172Y-86158602D01*
X132059501Y-86098264D01*
X132059489Y-86098261D01*
X131904845Y-86067500D01*
X131904842Y-86067500D01*
X131747158Y-86067500D01*
X131747155Y-86067500D01*
X131592510Y-86098261D01*
X131592498Y-86098264D01*
X131446827Y-86158602D01*
X131446814Y-86158609D01*
X131315711Y-86246210D01*
X131315707Y-86246213D01*
X131204213Y-86357707D01*
X131204210Y-86357711D01*
X131116609Y-86488814D01*
X131116602Y-86488827D01*
X131056264Y-86634498D01*
X131056261Y-86634510D01*
X131025500Y-86789153D01*
X131025500Y-86946846D01*
X131056261Y-87101489D01*
X131056264Y-87101501D01*
X131116602Y-87247172D01*
X131116609Y-87247185D01*
X131204210Y-87378288D01*
X131204213Y-87378292D01*
X131315707Y-87489786D01*
X131371248Y-87526898D01*
X131416052Y-87580511D01*
X131424759Y-87649836D01*
X131394604Y-87712863D01*
X131371248Y-87733102D01*
X131315707Y-87770213D01*
X131204213Y-87881707D01*
X131204210Y-87881711D01*
X131116609Y-88012814D01*
X131116602Y-88012827D01*
X131056264Y-88158498D01*
X131056261Y-88158510D01*
X131025500Y-88313153D01*
X131025500Y-88470846D01*
X131056261Y-88625489D01*
X131056264Y-88625501D01*
X131116602Y-88771172D01*
X131116609Y-88771185D01*
X131204210Y-88902288D01*
X131204213Y-88902292D01*
X131293537Y-88991616D01*
X131327022Y-89052939D01*
X131322038Y-89122631D01*
X131280166Y-89178564D01*
X131214702Y-89202981D01*
X131158404Y-89193858D01*
X131043501Y-89146264D01*
X131043489Y-89146261D01*
X130888845Y-89115500D01*
X130888842Y-89115500D01*
X130731158Y-89115500D01*
X130731155Y-89115500D01*
X130576510Y-89146261D01*
X130576498Y-89146264D01*
X130430827Y-89206602D01*
X130430814Y-89206609D01*
X130299711Y-89294210D01*
X130299707Y-89294213D01*
X130188213Y-89405707D01*
X130188210Y-89405711D01*
X130100609Y-89536814D01*
X130100602Y-89536827D01*
X130040264Y-89682498D01*
X130040261Y-89682510D01*
X130009500Y-89837153D01*
X97513494Y-89837153D01*
X97513494Y-81169818D01*
X107566000Y-81169818D01*
X107566000Y-81390181D01*
X107600473Y-81607835D01*
X107668567Y-81817410D01*
X107768611Y-82013756D01*
X107814932Y-82077513D01*
X108462630Y-81429815D01*
X108476785Y-81482640D01*
X108545901Y-81602353D01*
X108643647Y-81700099D01*
X108763360Y-81769215D01*
X108816183Y-81783369D01*
X108168485Y-82431065D01*
X108168485Y-82431066D01*
X108232243Y-82477388D01*
X108428589Y-82577432D01*
X108638164Y-82645526D01*
X108855819Y-82680000D01*
X109076181Y-82680000D01*
X109293835Y-82645526D01*
X109503410Y-82577432D01*
X109699760Y-82477386D01*
X109763513Y-82431066D01*
X109763514Y-82431066D01*
X109115816Y-81783369D01*
X109168640Y-81769215D01*
X109288353Y-81700099D01*
X109386099Y-81602353D01*
X109455215Y-81482640D01*
X109469369Y-81429817D01*
X110117066Y-82077514D01*
X110117066Y-82077513D01*
X110135372Y-82052319D01*
X110190701Y-82009653D01*
X110260315Y-82003674D01*
X110322110Y-82036279D01*
X110336008Y-82052319D01*
X110437752Y-82192358D01*
X110437756Y-82192363D01*
X110593636Y-82348243D01*
X110593641Y-82348247D01*
X110707632Y-82431065D01*
X110771978Y-82477815D01*
X110900375Y-82543237D01*
X110968393Y-82577895D01*
X110968396Y-82577896D01*
X111073221Y-82611955D01*
X111178049Y-82646015D01*
X111395778Y-82680500D01*
X111395779Y-82680500D01*
X111616221Y-82680500D01*
X111616222Y-82680500D01*
X111833951Y-82646015D01*
X112043606Y-82577895D01*
X112240022Y-82477815D01*
X112418365Y-82348242D01*
X112574242Y-82192365D01*
X112657686Y-82077514D01*
X112675682Y-82052745D01*
X112731011Y-82010079D01*
X112800625Y-82004100D01*
X112862420Y-82036705D01*
X112876318Y-82052745D01*
X112977752Y-82192358D01*
X112977756Y-82192363D01*
X113133636Y-82348243D01*
X113133641Y-82348247D01*
X113247632Y-82431065D01*
X113311978Y-82477815D01*
X113440375Y-82543237D01*
X113508393Y-82577895D01*
X113508396Y-82577896D01*
X113613221Y-82611955D01*
X113718049Y-82646015D01*
X113935778Y-82680500D01*
X113935779Y-82680500D01*
X114156221Y-82680500D01*
X114156222Y-82680500D01*
X114373951Y-82646015D01*
X114583606Y-82577895D01*
X114780022Y-82477815D01*
X114958365Y-82348242D01*
X115114242Y-82192365D01*
X115197686Y-82077514D01*
X115215682Y-82052745D01*
X115271011Y-82010079D01*
X115340625Y-82004100D01*
X115402420Y-82036705D01*
X115416318Y-82052745D01*
X115517752Y-82192358D01*
X115517756Y-82192363D01*
X115673636Y-82348243D01*
X115673641Y-82348247D01*
X115787632Y-82431065D01*
X115851978Y-82477815D01*
X115980375Y-82543237D01*
X116048393Y-82577895D01*
X116048396Y-82577896D01*
X116153221Y-82611955D01*
X116258049Y-82646015D01*
X116475778Y-82680500D01*
X116475779Y-82680500D01*
X116696221Y-82680500D01*
X116696222Y-82680500D01*
X116913951Y-82646015D01*
X117123606Y-82577895D01*
X117320022Y-82477815D01*
X117498365Y-82348242D01*
X117654242Y-82192365D01*
X117783815Y-82014022D01*
X117883895Y-81817606D01*
X117952015Y-81607951D01*
X117986500Y-81390222D01*
X117986500Y-81169778D01*
X117952015Y-80952049D01*
X117887993Y-80755007D01*
X117883896Y-80742396D01*
X117883895Y-80742393D01*
X117849237Y-80674375D01*
X117783815Y-80545978D01*
X117737685Y-80482485D01*
X117654247Y-80367641D01*
X117654243Y-80367636D01*
X117498363Y-80211756D01*
X117498358Y-80211752D01*
X117320025Y-80082187D01*
X117320024Y-80082186D01*
X117320022Y-80082185D01*
X117257096Y-80050122D01*
X117123606Y-79982104D01*
X117123603Y-79982103D01*
X116913952Y-79913985D01*
X116805086Y-79896742D01*
X116696222Y-79879500D01*
X116475778Y-79879500D01*
X116403201Y-79890995D01*
X116258047Y-79913985D01*
X116048396Y-79982103D01*
X116048393Y-79982104D01*
X115851974Y-80082187D01*
X115673641Y-80211752D01*
X115673636Y-80211756D01*
X115517756Y-80367636D01*
X115517752Y-80367641D01*
X115416318Y-80507254D01*
X115360988Y-80549920D01*
X115291375Y-80555899D01*
X115229580Y-80523293D01*
X115215682Y-80507254D01*
X115114247Y-80367641D01*
X115114243Y-80367636D01*
X114958363Y-80211756D01*
X114958358Y-80211752D01*
X114780025Y-80082187D01*
X114780024Y-80082186D01*
X114780022Y-80082185D01*
X114717096Y-80050122D01*
X114583606Y-79982104D01*
X114583603Y-79982103D01*
X114373952Y-79913985D01*
X114265086Y-79896742D01*
X114156222Y-79879500D01*
X113935778Y-79879500D01*
X113863201Y-79890995D01*
X113718047Y-79913985D01*
X113508396Y-79982103D01*
X113508393Y-79982104D01*
X113311974Y-80082187D01*
X113133641Y-80211752D01*
X113133636Y-80211756D01*
X112977756Y-80367636D01*
X112977752Y-80367641D01*
X112876318Y-80507254D01*
X112820988Y-80549920D01*
X112751375Y-80555899D01*
X112689580Y-80523293D01*
X112675682Y-80507254D01*
X112574247Y-80367641D01*
X112574243Y-80367636D01*
X112418363Y-80211756D01*
X112418358Y-80211752D01*
X112240025Y-80082187D01*
X112240024Y-80082186D01*
X112240022Y-80082185D01*
X112177096Y-80050122D01*
X112043606Y-79982104D01*
X112043603Y-79982103D01*
X111833952Y-79913985D01*
X111725086Y-79896742D01*
X111616222Y-79879500D01*
X111395778Y-79879500D01*
X111323201Y-79890995D01*
X111178047Y-79913985D01*
X110968396Y-79982103D01*
X110968393Y-79982104D01*
X110771974Y-80082187D01*
X110593641Y-80211752D01*
X110593636Y-80211756D01*
X110437756Y-80367636D01*
X110336008Y-80507681D01*
X110280678Y-80550346D01*
X110211065Y-80556325D01*
X110149270Y-80523719D01*
X110135371Y-80507680D01*
X110117066Y-80482485D01*
X110117065Y-80482485D01*
X109469369Y-81130182D01*
X109455215Y-81077360D01*
X109386099Y-80957647D01*
X109288353Y-80859901D01*
X109168640Y-80790785D01*
X109115814Y-80776630D01*
X109763513Y-80128932D01*
X109699756Y-80082611D01*
X109503410Y-79982567D01*
X109293835Y-79914473D01*
X109076181Y-79880000D01*
X108855819Y-79880000D01*
X108638164Y-79914473D01*
X108428589Y-79982567D01*
X108232233Y-80082616D01*
X108168485Y-80128931D01*
X108168485Y-80128932D01*
X108816183Y-80776630D01*
X108763360Y-80790785D01*
X108643647Y-80859901D01*
X108545901Y-80957647D01*
X108476785Y-81077360D01*
X108462630Y-81130183D01*
X107814932Y-80482485D01*
X107814931Y-80482485D01*
X107768616Y-80546233D01*
X107668567Y-80742589D01*
X107600473Y-80952164D01*
X107566000Y-81169818D01*
X97513494Y-81169818D01*
X97513494Y-79241757D01*
X97515019Y-79222370D01*
X97525082Y-79158836D01*
X97537066Y-79121954D01*
X97561780Y-79073449D01*
X97584580Y-79042069D01*
X97623069Y-79003579D01*
X97654447Y-78980781D01*
X97702950Y-78956067D01*
X97739842Y-78944080D01*
X97787479Y-78936535D01*
X97803320Y-78934027D01*
X97822717Y-78932500D01*
X127784071Y-78932500D01*
X127853243Y-78932500D01*
X127872626Y-78934024D01*
G37*
%TD.AperFunction*%
%TD*%
M02*
