%TF.GenerationSoftware,KiCad,Pcbnew,9.0.6*%
%TF.CreationDate,2026-03-20T21:22:46-04:00*%
%TF.ProjectId,spotifyPlayerPcb,73706f74-6966-4795-906c-617965725063,rev?*%
%TF.SameCoordinates,Original*%
%TF.FileFunction,Copper,L4,Bot*%
%TF.FilePolarity,Positive*%
%FSLAX46Y46*%
G04 Gerber Fmt 4.6, Leading zero omitted, Abs format (unit mm)*
G04 Created by KiCad (PCBNEW 9.0.6) date 2026-03-20 21:22:46*
%MOMM*%
%LPD*%
G01*
G04 APERTURE LIST*
%TA.AperFunction,ComponentPad*%
%ADD10C,2.250000*%
%TD*%
%TA.AperFunction,HeatsinkPad*%
%ADD11O,2.100000X1.000000*%
%TD*%
%TA.AperFunction,HeatsinkPad*%
%ADD12O,1.800000X1.000000*%
%TD*%
%TA.AperFunction,ComponentPad*%
%ADD13R,1.700000X1.700000*%
%TD*%
%TA.AperFunction,ComponentPad*%
%ADD14C,1.700000*%
%TD*%
%TA.AperFunction,ComponentPad*%
%ADD15C,1.800000*%
%TD*%
%TA.AperFunction,HeatsinkPad*%
%ADD16C,0.600000*%
%TD*%
%TA.AperFunction,SMDPad,CuDef*%
%ADD17C,1.500000*%
%TD*%
%TA.AperFunction,ViaPad*%
%ADD18C,0.600000*%
%TD*%
%TA.AperFunction,Conductor*%
%ADD19C,0.500000*%
%TD*%
%TA.AperFunction,Conductor*%
%ADD20C,0.200000*%
%TD*%
%TA.AperFunction,Conductor*%
%ADD21C,0.250000*%
%TD*%
G04 APERTURE END LIST*
D10*
%TO.P,SW1,1,1*%
%TO.N,PREV_BTN*%
X106426000Y-110282000D03*
%TO.P,SW1,2,2*%
%TO.N,GND*%
X102296000Y-113032000D03*
%TD*%
%TO.P,SW5,1,1*%
%TO.N,NEXT_BTN*%
X139954000Y-110282000D03*
%TO.P,SW5,2,2*%
%TO.N,GND*%
X135824000Y-113032000D03*
%TD*%
%TO.P,SW3,1,1*%
%TO.N,STATE_BTN*%
X123190000Y-110282000D03*
%TO.P,SW3,2,2*%
%TO.N,GND*%
X119060000Y-113032000D03*
%TD*%
D11*
%TO.P,J1,S1,SHIELD*%
%TO.N,GND*%
X162909400Y-101449600D03*
D12*
X167089400Y-101449600D03*
D11*
X162909400Y-92809600D03*
D12*
X167089400Y-92809600D03*
%TD*%
D13*
%TO.P,J2,1,Pin_1*%
%TO.N,RX*%
X166573200Y-107543600D03*
D14*
%TO.P,J2,2,Pin_2*%
%TO.N,TX*%
X166573200Y-110083600D03*
%TO.P,J2,3,Pin_3*%
%TO.N,GND*%
X166573200Y-112623600D03*
%TD*%
D15*
%TO.P,U4,1,VCC*%
%TO.N,+3V3*%
X108966000Y-81280000D03*
%TO.P,U4,2,GND*%
%TO.N,GND*%
X111506000Y-81280000D03*
%TO.P,U4,3,SCL*%
%TO.N,SCL*%
X114046000Y-81280000D03*
%TO.P,U4,4,SDA*%
%TO.N,SDA*%
X116586000Y-81280000D03*
%TD*%
D16*
%TO.P,U3,19,GND*%
%TO.N,GND*%
X142354000Y-91102000D03*
X142354000Y-92202000D03*
X142904000Y-90552000D03*
X142904000Y-91652000D03*
X142904000Y-92752000D03*
X143454000Y-91102000D03*
X143454000Y-92202000D03*
X144004000Y-90552000D03*
X144004000Y-91652000D03*
X144004000Y-92752000D03*
X144554000Y-91102000D03*
X144554000Y-92202000D03*
%TD*%
D17*
%TO.P,TP3,1,1*%
%TO.N,STATE_BTN*%
X128000000Y-112500000D03*
%TD*%
%TO.P,TP2,1,1*%
%TO.N,+3V3*%
X156360946Y-116250000D03*
%TD*%
%TO.P,TP1,1,1*%
%TO.N,GND*%
X161733139Y-116194927D03*
%TD*%
D18*
%TO.N,GND*%
X161290000Y-106375200D03*
X156750000Y-100500000D03*
X151000000Y-104597200D03*
X158750000Y-97332800D03*
X158800800Y-94335600D03*
X119684800Y-94538800D03*
X142290800Y-100584000D03*
X155956000Y-92303600D03*
X155683200Y-100500000D03*
X143408400Y-100584000D03*
X105511600Y-94640400D03*
X155041600Y-92303600D03*
X161290000Y-107442000D03*
X120751600Y-94538800D03*
X160172400Y-95605600D03*
X156000000Y-102750000D03*
X143459200Y-104800400D03*
X158140400Y-96723200D03*
X142341600Y-104800400D03*
X141274800Y-104800400D03*
X156819600Y-92303600D03*
X156000000Y-106750000D03*
X151000000Y-106750000D03*
X151000000Y-105664000D03*
X104444800Y-94640400D03*
X141224000Y-100584000D03*
%TO.N,+3V3*%
X109000000Y-83750000D03*
X163779200Y-82702400D03*
X152500000Y-100500000D03*
X131826000Y-85660000D03*
X153250000Y-100500000D03*
X128978000Y-94742000D03*
X154000000Y-100500000D03*
X131572000Y-101854000D03*
X128016000Y-91440000D03*
%TO.N,ESP_EN*%
X131826000Y-86868000D03*
X151130000Y-101092000D03*
%TO.N,PREV_BTN*%
X130810000Y-89916000D03*
X127993000Y-98783000D03*
%TO.N,STATE_BTN*%
X129032000Y-98806000D03*
X131826000Y-88392000D03*
%TO.N,NEXT_BTN*%
X130302000Y-105410000D03*
X148082000Y-89916000D03*
%TO.N,+5V*%
X153416000Y-94488000D03*
X160557500Y-100613500D03*
%TO.N,TX*%
X153446017Y-97819929D03*
%TO.N,RX*%
X153429955Y-97020088D03*
%TD*%
D19*
%TO.N,+3V3*%
X128978000Y-92402000D02*
X128016000Y-91440000D01*
D20*
X153250000Y-110250000D02*
X153250000Y-100500000D01*
X156360946Y-113360946D02*
X153250000Y-110250000D01*
D19*
X128978000Y-94742000D02*
X128978000Y-92402000D01*
D20*
X156360946Y-116250000D02*
X156360946Y-113360946D01*
%TO.N,ESP_EN*%
X131826000Y-86868000D02*
X145883943Y-86868000D01*
X148844000Y-89828057D02*
X148844000Y-98806000D01*
X148844000Y-98806000D02*
X151130000Y-101092000D01*
X145883943Y-86868000D02*
X148844000Y-89828057D01*
%TO.N,PREV_BTN*%
X130810000Y-95966000D02*
X130810000Y-89916000D01*
X127993000Y-98783000D02*
X130810000Y-95966000D01*
%TO.N,STATE_BTN*%
X129286000Y-98806000D02*
X131826000Y-96266000D01*
X131826000Y-96266000D02*
X131826000Y-88392000D01*
D21*
X123190000Y-110282000D02*
X125782000Y-110282000D01*
X125782000Y-110282000D02*
X128000000Y-112500000D01*
D20*
X129032000Y-98806000D02*
X129286000Y-98806000D01*
%TO.N,NEXT_BTN*%
X136652000Y-101346000D02*
X148082000Y-89916000D01*
X136652000Y-103632000D02*
X136652000Y-101346000D01*
X130302000Y-105410000D02*
X134874000Y-105410000D01*
X134874000Y-105410000D02*
X136652000Y-103632000D01*
%TO.N,+5V*%
X153416000Y-94488000D02*
X155448000Y-94488000D01*
X155956000Y-97028000D02*
X159541500Y-100613500D01*
X155448000Y-94488000D02*
X155956000Y-94996000D01*
X155956000Y-94996000D02*
X155956000Y-97028000D01*
X159541500Y-100613500D02*
X160557500Y-100613500D01*
%TO.N,TX*%
X164541200Y-107293257D02*
X164541200Y-108051600D01*
X153446017Y-97819929D02*
X153475946Y-97790000D01*
X153475946Y-97790000D02*
X155037943Y-97790000D01*
X155037943Y-97790000D02*
X164541200Y-107293257D01*
X164541200Y-108051600D02*
X166573200Y-110083600D01*
%TO.N,RX*%
X165582600Y-107543600D02*
X166573200Y-107543600D01*
X155059088Y-97020088D02*
X165582600Y-107543600D01*
X153429955Y-97020088D02*
X155059088Y-97020088D01*
%TD*%
%TA.AperFunction,Conductor*%
%TO.N,GND*%
G36*
X127872626Y-78934024D02*
G01*
X127936155Y-78944086D01*
X127973045Y-78956073D01*
X128021542Y-78980783D01*
X128023450Y-78982169D01*
X128024675Y-78982436D01*
X128052929Y-79003587D01*
X128091411Y-79042069D01*
X128114215Y-79073455D01*
X128138925Y-79121951D01*
X128150913Y-79158846D01*
X128160967Y-79222319D01*
X128162494Y-79241719D01*
X128162494Y-82741825D01*
X128162492Y-82741834D01*
X128162492Y-82761027D01*
X128162492Y-82769378D01*
X128162465Y-82769469D01*
X128162465Y-82820761D01*
X128162465Y-82942326D01*
X128176591Y-83040602D01*
X128197056Y-83182978D01*
X128265528Y-83416264D01*
X128265529Y-83416267D01*
X128265530Y-83416269D01*
X128274221Y-83435308D01*
X128366488Y-83637440D01*
X128366490Y-83637443D01*
X128366491Y-83637445D01*
X128445309Y-83760155D01*
X128474332Y-83805339D01*
X128494000Y-83872353D01*
X128494000Y-84352000D01*
X129095526Y-84352000D01*
X129147097Y-84363233D01*
X129266300Y-84417748D01*
X129266312Y-84417752D01*
X129499539Y-84486385D01*
X129499541Y-84486385D01*
X129499543Y-84486386D01*
X129740174Y-84521149D01*
X129861738Y-84521235D01*
X129940666Y-84521293D01*
X129940666Y-84521292D01*
X154988373Y-84539726D01*
X154988481Y-84539758D01*
X155039738Y-84539793D01*
X155039738Y-84539794D01*
X155161420Y-84539880D01*
X155402330Y-84505407D01*
X155635877Y-84436984D01*
X155768850Y-84376342D01*
X155797717Y-84363178D01*
X155849168Y-84352000D01*
X156494000Y-84352000D01*
X156494000Y-83760155D01*
X156513685Y-83693116D01*
X156513702Y-83693089D01*
X156527806Y-83671155D01*
X156537128Y-83656658D01*
X156621435Y-83472138D01*
X156638262Y-83435310D01*
X156638262Y-83435309D01*
X156638264Y-83435305D01*
X156706852Y-83201806D01*
X156706852Y-83201799D01*
X156706854Y-83201796D01*
X156738712Y-82980263D01*
X156741494Y-82960921D01*
X156741494Y-82839239D01*
X156741494Y-82623553D01*
X162978700Y-82623553D01*
X162978700Y-82781246D01*
X163009461Y-82935889D01*
X163009464Y-82935901D01*
X163069802Y-83081572D01*
X163069809Y-83081585D01*
X163157410Y-83212688D01*
X163157413Y-83212692D01*
X163268907Y-83324186D01*
X163268911Y-83324189D01*
X163400014Y-83411790D01*
X163400027Y-83411797D01*
X163545698Y-83472135D01*
X163545703Y-83472137D01*
X163700353Y-83502899D01*
X163700356Y-83502900D01*
X163700358Y-83502900D01*
X163858044Y-83502900D01*
X163858045Y-83502899D01*
X164012697Y-83472137D01*
X164147575Y-83416269D01*
X164158372Y-83411797D01*
X164158372Y-83411796D01*
X164158379Y-83411794D01*
X164289489Y-83324189D01*
X164400989Y-83212689D01*
X164488594Y-83081579D01*
X164548937Y-82935897D01*
X164579700Y-82781242D01*
X164579700Y-82623558D01*
X164579700Y-82623555D01*
X164579699Y-82623553D01*
X164570525Y-82577432D01*
X164548937Y-82468903D01*
X164498960Y-82348247D01*
X164488597Y-82323227D01*
X164488590Y-82323214D01*
X164400989Y-82192111D01*
X164400986Y-82192107D01*
X164289492Y-82080613D01*
X164289488Y-82080610D01*
X164158385Y-81993009D01*
X164158372Y-81993002D01*
X164012701Y-81932664D01*
X164012689Y-81932661D01*
X163858045Y-81901900D01*
X163858042Y-81901900D01*
X163700358Y-81901900D01*
X163700355Y-81901900D01*
X163545710Y-81932661D01*
X163545698Y-81932664D01*
X163400027Y-81993002D01*
X163400014Y-81993009D01*
X163268911Y-82080610D01*
X163268907Y-82080613D01*
X163157413Y-82192107D01*
X163157410Y-82192111D01*
X163069809Y-82323214D01*
X163069802Y-82323227D01*
X163009464Y-82468898D01*
X163009461Y-82468910D01*
X162978700Y-82623553D01*
X156741494Y-82623553D01*
X156741494Y-79241757D01*
X156743019Y-79222370D01*
X156753082Y-79158836D01*
X156765066Y-79121954D01*
X156789780Y-79073449D01*
X156812580Y-79042069D01*
X156851069Y-79003579D01*
X156882447Y-78980781D01*
X156930950Y-78956067D01*
X156967842Y-78944080D01*
X157015479Y-78936535D01*
X157031320Y-78934027D01*
X157050717Y-78932500D01*
X168559071Y-78932500D01*
X168628243Y-78932500D01*
X168647626Y-78934024D01*
X168711155Y-78944086D01*
X168748045Y-78956073D01*
X168796542Y-78980783D01*
X168827929Y-79003587D01*
X168866411Y-79042069D01*
X168889215Y-79073455D01*
X168913925Y-79121951D01*
X168925913Y-79158846D01*
X168935967Y-79222319D01*
X168937494Y-79241719D01*
X168937494Y-124809244D01*
X168935967Y-124828642D01*
X168925908Y-124892150D01*
X168913919Y-124929049D01*
X168889211Y-124977539D01*
X168866409Y-125008922D01*
X168827925Y-125047407D01*
X168796536Y-125070213D01*
X168748042Y-125094921D01*
X168711148Y-125106908D01*
X168670835Y-125113293D01*
X168647599Y-125116973D01*
X168628204Y-125118500D01*
X97822756Y-125118500D01*
X97803357Y-125116973D01*
X97739846Y-125106913D01*
X97702950Y-125094925D01*
X97654456Y-125070216D01*
X97623069Y-125047411D01*
X97584585Y-125008926D01*
X97561782Y-124977541D01*
X97537073Y-124929047D01*
X97525086Y-124892156D01*
X97515019Y-124828591D01*
X97513494Y-124809206D01*
X97513494Y-116169120D01*
X103110500Y-116169120D01*
X103110500Y-116494880D01*
X103115779Y-116548480D01*
X103142429Y-116819061D01*
X103142432Y-116819078D01*
X103205977Y-117138551D01*
X103205980Y-117138562D01*
X103300546Y-117450306D01*
X103425210Y-117751270D01*
X103425212Y-117751275D01*
X103578765Y-118038551D01*
X103578782Y-118038579D01*
X103759741Y-118309405D01*
X103759758Y-118309428D01*
X103966418Y-118561244D01*
X104196755Y-118791581D01*
X104196760Y-118791585D01*
X104196761Y-118791586D01*
X104448577Y-118998246D01*
X104448584Y-118998251D01*
X104448594Y-118998258D01*
X104719420Y-119179217D01*
X104719425Y-119179220D01*
X104719437Y-119179228D01*
X104719446Y-119179232D01*
X104719448Y-119179234D01*
X105006724Y-119332787D01*
X105006726Y-119332787D01*
X105006732Y-119332791D01*
X105307695Y-119457454D01*
X105619428Y-119552017D01*
X105619434Y-119552018D01*
X105619437Y-119552019D01*
X105619448Y-119552022D01*
X105819785Y-119591870D01*
X105938928Y-119615569D01*
X106263120Y-119647500D01*
X106263123Y-119647500D01*
X106588877Y-119647500D01*
X106588880Y-119647500D01*
X106913072Y-119615569D01*
X107071212Y-119584113D01*
X107232551Y-119552022D01*
X107232562Y-119552019D01*
X107232562Y-119552018D01*
X107232572Y-119552017D01*
X107544305Y-119457454D01*
X107845268Y-119332791D01*
X108132563Y-119179228D01*
X108403423Y-118998246D01*
X108655239Y-118791586D01*
X108885586Y-118561239D01*
X109092246Y-118309423D01*
X109273228Y-118038563D01*
X109426791Y-117751268D01*
X109551454Y-117450305D01*
X109646017Y-117138572D01*
X109646019Y-117138562D01*
X109646022Y-117138551D01*
X109692396Y-116905405D01*
X109709569Y-116819072D01*
X109741500Y-116494880D01*
X109741500Y-116169120D01*
X119874500Y-116169120D01*
X119874500Y-116494880D01*
X119879779Y-116548480D01*
X119906429Y-116819061D01*
X119906432Y-116819078D01*
X119969977Y-117138551D01*
X119969980Y-117138562D01*
X120064546Y-117450306D01*
X120189210Y-117751270D01*
X120189212Y-117751275D01*
X120342765Y-118038551D01*
X120342782Y-118038579D01*
X120523741Y-118309405D01*
X120523758Y-118309428D01*
X120730418Y-118561244D01*
X120960755Y-118791581D01*
X120960760Y-118791585D01*
X120960761Y-118791586D01*
X121212577Y-118998246D01*
X121212584Y-118998251D01*
X121212594Y-118998258D01*
X121483420Y-119179217D01*
X121483425Y-119179220D01*
X121483437Y-119179228D01*
X121483446Y-119179232D01*
X121483448Y-119179234D01*
X121770724Y-119332787D01*
X121770726Y-119332787D01*
X121770732Y-119332791D01*
X122071695Y-119457454D01*
X122383428Y-119552017D01*
X122383434Y-119552018D01*
X122383437Y-119552019D01*
X122383448Y-119552022D01*
X122583785Y-119591870D01*
X122702928Y-119615569D01*
X123027120Y-119647500D01*
X123027123Y-119647500D01*
X123352877Y-119647500D01*
X123352880Y-119647500D01*
X123677072Y-119615569D01*
X123835212Y-119584113D01*
X123996551Y-119552022D01*
X123996562Y-119552019D01*
X123996562Y-119552018D01*
X123996572Y-119552017D01*
X124308305Y-119457454D01*
X124609268Y-119332791D01*
X124896563Y-119179228D01*
X125167423Y-118998246D01*
X125419239Y-118791586D01*
X125649586Y-118561239D01*
X125856246Y-118309423D01*
X126037228Y-118038563D01*
X126190791Y-117751268D01*
X126315454Y-117450305D01*
X126410017Y-117138572D01*
X126410019Y-117138562D01*
X126410022Y-117138551D01*
X126456396Y-116905405D01*
X126473569Y-116819072D01*
X126505500Y-116494880D01*
X126505500Y-116169120D01*
X136638500Y-116169120D01*
X136638500Y-116494880D01*
X136643779Y-116548480D01*
X136670429Y-116819061D01*
X136670432Y-116819078D01*
X136733977Y-117138551D01*
X136733980Y-117138562D01*
X136828546Y-117450306D01*
X136953210Y-117751270D01*
X136953212Y-117751275D01*
X137106765Y-118038551D01*
X137106782Y-118038579D01*
X137287741Y-118309405D01*
X137287758Y-118309428D01*
X137494418Y-118561244D01*
X137724755Y-118791581D01*
X137724760Y-118791585D01*
X137724761Y-118791586D01*
X137976577Y-118998246D01*
X137976584Y-118998251D01*
X137976594Y-118998258D01*
X138247420Y-119179217D01*
X138247425Y-119179220D01*
X138247437Y-119179228D01*
X138247446Y-119179232D01*
X138247448Y-119179234D01*
X138534724Y-119332787D01*
X138534726Y-119332787D01*
X138534732Y-119332791D01*
X138835695Y-119457454D01*
X139147428Y-119552017D01*
X139147434Y-119552018D01*
X139147437Y-119552019D01*
X139147448Y-119552022D01*
X139347785Y-119591870D01*
X139466928Y-119615569D01*
X139791120Y-119647500D01*
X139791123Y-119647500D01*
X140116877Y-119647500D01*
X140116880Y-119647500D01*
X140441072Y-119615569D01*
X140599212Y-119584113D01*
X140760551Y-119552022D01*
X140760562Y-119552019D01*
X140760562Y-119552018D01*
X140760572Y-119552017D01*
X141072305Y-119457454D01*
X141373268Y-119332791D01*
X141660563Y-119179228D01*
X141931423Y-118998246D01*
X142183239Y-118791586D01*
X142413586Y-118561239D01*
X142620246Y-118309423D01*
X142801228Y-118038563D01*
X142954791Y-117751268D01*
X143079454Y-117450305D01*
X143174017Y-117138572D01*
X143174019Y-117138562D01*
X143174022Y-117138551D01*
X143220396Y-116905405D01*
X143237569Y-116819072D01*
X143269500Y-116494880D01*
X143269500Y-116169120D01*
X143237569Y-115844928D01*
X143211742Y-115715088D01*
X143174022Y-115525448D01*
X143174019Y-115525437D01*
X143174018Y-115525434D01*
X143174017Y-115525428D01*
X143079454Y-115213695D01*
X142954791Y-114912732D01*
X142801228Y-114625437D01*
X142795582Y-114616987D01*
X142620258Y-114354594D01*
X142620251Y-114354584D01*
X142620246Y-114354577D01*
X142413586Y-114102761D01*
X142413585Y-114102760D01*
X142413581Y-114102755D01*
X142183244Y-113872418D01*
X141931428Y-113665758D01*
X141931405Y-113665741D01*
X141660579Y-113484782D01*
X141660551Y-113484765D01*
X141373276Y-113331213D01*
X141373273Y-113331212D01*
X141373268Y-113331209D01*
X141270305Y-113288560D01*
X141215902Y-113244718D01*
X141193838Y-113178424D01*
X141199826Y-113135687D01*
X141261492Y-112945901D01*
X141294500Y-112737500D01*
X141294500Y-112526500D01*
X141261492Y-112318099D01*
X141261491Y-112318095D01*
X141261491Y-112318094D01*
X141196291Y-112117429D01*
X141190153Y-112105382D01*
X141100498Y-111929425D01*
X140976476Y-111758723D01*
X140957294Y-111739541D01*
X140923809Y-111678218D01*
X140928793Y-111608526D01*
X140970665Y-111552593D01*
X140972090Y-111551542D01*
X141012942Y-111521862D01*
X141193862Y-111340942D01*
X141344252Y-111133947D01*
X141460410Y-110905975D01*
X141539474Y-110662639D01*
X141579500Y-110409930D01*
X141579500Y-110154070D01*
X141539474Y-109901361D01*
X141467725Y-109680537D01*
X141460411Y-109658027D01*
X141460410Y-109658024D01*
X141413105Y-109565185D01*
X141344252Y-109430053D01*
X141325038Y-109403607D01*
X141193867Y-109223064D01*
X141193863Y-109223059D01*
X141012940Y-109042136D01*
X141012935Y-109042132D01*
X140805950Y-108891750D01*
X140805949Y-108891749D01*
X140805947Y-108891748D01*
X140699270Y-108837393D01*
X140577975Y-108775589D01*
X140577972Y-108775588D01*
X140334640Y-108696526D01*
X140208284Y-108676513D01*
X140081930Y-108656500D01*
X139826070Y-108656500D01*
X139741833Y-108669842D01*
X139573359Y-108696526D01*
X139330027Y-108775588D01*
X139330024Y-108775589D01*
X139102049Y-108891750D01*
X138895064Y-109042132D01*
X138895059Y-109042136D01*
X138714136Y-109223059D01*
X138714132Y-109223064D01*
X138563750Y-109430049D01*
X138447589Y-109658024D01*
X138447588Y-109658027D01*
X138368526Y-109901359D01*
X138328500Y-110154070D01*
X138328500Y-110409929D01*
X138368526Y-110662640D01*
X138447588Y-110905972D01*
X138447589Y-110905975D01*
X138526533Y-111060910D01*
X138553436Y-111113709D01*
X138563750Y-111133950D01*
X138714132Y-111340935D01*
X138714136Y-111340940D01*
X138895063Y-111521867D01*
X138935908Y-111551542D01*
X138978574Y-111606871D01*
X138984553Y-111676485D01*
X138951948Y-111738280D01*
X138950706Y-111739539D01*
X138931526Y-111758719D01*
X138931520Y-111758726D01*
X138807504Y-111929421D01*
X138711708Y-112117429D01*
X138646508Y-112318094D01*
X138646508Y-112318097D01*
X138646508Y-112318099D01*
X138613500Y-112526500D01*
X138613500Y-112737500D01*
X138622263Y-112792826D01*
X138646508Y-112945902D01*
X138646508Y-112945905D01*
X138708170Y-113135681D01*
X138710165Y-113205522D01*
X138674084Y-113265355D01*
X138637693Y-113288559D01*
X138534740Y-113331205D01*
X138534724Y-113331212D01*
X138247448Y-113484765D01*
X138247420Y-113484782D01*
X137976594Y-113665741D01*
X137976571Y-113665758D01*
X137724755Y-113872418D01*
X137494418Y-114102755D01*
X137287758Y-114354571D01*
X137287741Y-114354594D01*
X137106782Y-114625420D01*
X137106765Y-114625448D01*
X136953212Y-114912724D01*
X136953210Y-114912729D01*
X136828546Y-115213693D01*
X136733980Y-115525437D01*
X136733977Y-115525448D01*
X136670432Y-115844921D01*
X136670429Y-115844938D01*
X136659375Y-115957174D01*
X136638500Y-116169120D01*
X126505500Y-116169120D01*
X126473569Y-115844928D01*
X126447742Y-115715088D01*
X126410022Y-115525448D01*
X126410019Y-115525437D01*
X126410018Y-115525434D01*
X126410017Y-115525428D01*
X126315454Y-115213695D01*
X126190791Y-114912732D01*
X126037228Y-114625437D01*
X126031582Y-114616987D01*
X125856258Y-114354594D01*
X125856251Y-114354584D01*
X125856246Y-114354577D01*
X125649586Y-114102761D01*
X125649585Y-114102760D01*
X125649581Y-114102755D01*
X125419244Y-113872418D01*
X125167428Y-113665758D01*
X125167405Y-113665741D01*
X124896579Y-113484782D01*
X124896551Y-113484765D01*
X124609276Y-113331213D01*
X124609273Y-113331212D01*
X124609268Y-113331209D01*
X124506305Y-113288560D01*
X124451902Y-113244718D01*
X124429838Y-113178424D01*
X124435826Y-113135687D01*
X124497492Y-112945901D01*
X124530500Y-112737500D01*
X124530500Y-112526500D01*
X124497492Y-112318099D01*
X124497491Y-112318095D01*
X124497491Y-112318094D01*
X124432291Y-112117429D01*
X124426153Y-112105382D01*
X124336498Y-111929425D01*
X124212476Y-111758723D01*
X124193294Y-111739541D01*
X124159809Y-111678218D01*
X124164793Y-111608526D01*
X124206665Y-111552593D01*
X124208090Y-111551542D01*
X124248942Y-111521862D01*
X124429862Y-111340942D01*
X124580252Y-111133947D01*
X124661135Y-110975204D01*
X124709110Y-110924409D01*
X124771620Y-110907500D01*
X125471548Y-110907500D01*
X125538587Y-110927185D01*
X125559229Y-110943819D01*
X126741397Y-112125988D01*
X126774882Y-112187311D01*
X126776189Y-112233067D01*
X126749500Y-112401577D01*
X126749500Y-112598422D01*
X126780290Y-112792826D01*
X126841117Y-112980029D01*
X126917104Y-113129161D01*
X126930476Y-113155405D01*
X127046172Y-113314646D01*
X127185354Y-113453828D01*
X127344595Y-113569524D01*
X127352128Y-113573362D01*
X127519970Y-113658882D01*
X127519972Y-113658882D01*
X127519975Y-113658884D01*
X127595267Y-113683348D01*
X127707173Y-113719709D01*
X127901578Y-113750500D01*
X127901583Y-113750500D01*
X128098422Y-113750500D01*
X128292826Y-113719709D01*
X128480025Y-113658884D01*
X128655405Y-113569524D01*
X128814646Y-113453828D01*
X128953828Y-113314646D01*
X129041006Y-113194657D01*
X134204505Y-113194657D01*
X134239013Y-113412523D01*
X134318051Y-113655781D01*
X134318052Y-113655784D01*
X134434175Y-113883686D01*
X134584521Y-114090619D01*
X134765380Y-114271478D01*
X134972313Y-114421824D01*
X135200215Y-114537947D01*
X135200218Y-114537948D01*
X135443474Y-114616986D01*
X135443478Y-114616987D01*
X135487416Y-114623946D01*
X135536984Y-113708672D01*
X135609609Y-113738754D01*
X135751609Y-113767000D01*
X135896391Y-113767000D01*
X136036064Y-113739216D01*
X135986657Y-114651492D01*
X135986657Y-114651493D01*
X136204523Y-114616986D01*
X136447781Y-114537948D01*
X136447784Y-114537947D01*
X136675686Y-114421824D01*
X136882619Y-114271478D01*
X137063478Y-114090619D01*
X137213824Y-113883686D01*
X137329947Y-113655784D01*
X137329948Y-113655781D01*
X137408984Y-113412529D01*
X137415945Y-113368581D01*
X136500672Y-113319013D01*
X136530754Y-113246391D01*
X136559000Y-113104391D01*
X136559000Y-112959609D01*
X136531216Y-112819932D01*
X137443492Y-112869341D01*
X137443493Y-112869341D01*
X137408986Y-112651476D01*
X137329948Y-112408218D01*
X137329947Y-112408215D01*
X137213824Y-112180313D01*
X137063478Y-111973380D01*
X136882619Y-111792521D01*
X136675686Y-111642175D01*
X136447784Y-111526052D01*
X136447781Y-111526051D01*
X136204518Y-111447012D01*
X136160582Y-111440053D01*
X136111013Y-112355327D01*
X136038391Y-112325246D01*
X135896391Y-112297000D01*
X135751609Y-112297000D01*
X135611932Y-112324783D01*
X135661341Y-111412505D01*
X135443476Y-111447013D01*
X135200218Y-111526051D01*
X135200215Y-111526052D01*
X134972313Y-111642175D01*
X134765380Y-111792521D01*
X134584521Y-111973380D01*
X134434175Y-112180313D01*
X134318052Y-112408215D01*
X134318051Y-112408218D01*
X134239012Y-112651481D01*
X134232053Y-112695416D01*
X135147327Y-112744984D01*
X135117246Y-112817609D01*
X135089000Y-112959609D01*
X135089000Y-113104391D01*
X135116783Y-113244065D01*
X134204505Y-113194657D01*
X129041006Y-113194657D01*
X129069524Y-113155405D01*
X129158884Y-112980025D01*
X129219709Y-112792826D01*
X129232656Y-112711084D01*
X129250500Y-112598422D01*
X129250500Y-112401577D01*
X129219709Y-112207173D01*
X129158882Y-112019970D01*
X129069523Y-111844594D01*
X128953828Y-111685354D01*
X128814646Y-111546172D01*
X128655405Y-111430476D01*
X128620135Y-111412505D01*
X128480029Y-111341117D01*
X128292826Y-111280290D01*
X128098422Y-111249500D01*
X128098417Y-111249500D01*
X127901583Y-111249500D01*
X127901578Y-111249500D01*
X127733067Y-111276189D01*
X127663773Y-111267234D01*
X127625988Y-111241397D01*
X126277822Y-109893232D01*
X126267859Y-109883269D01*
X126267858Y-109883267D01*
X126180733Y-109796142D01*
X126129509Y-109761915D01*
X126078286Y-109727688D01*
X126078283Y-109727686D01*
X126078280Y-109727685D01*
X126004603Y-109697168D01*
X126004601Y-109697167D01*
X125997792Y-109694347D01*
X125964452Y-109680537D01*
X125904029Y-109668518D01*
X125899306Y-109667578D01*
X125899304Y-109667578D01*
X125843610Y-109656500D01*
X125843607Y-109656500D01*
X125843606Y-109656500D01*
X124771620Y-109656500D01*
X124704581Y-109636815D01*
X124661135Y-109588795D01*
X124649105Y-109565185D01*
X124580252Y-109430053D01*
X124561038Y-109403607D01*
X124429867Y-109223064D01*
X124429863Y-109223059D01*
X124248940Y-109042136D01*
X124248935Y-109042132D01*
X124041950Y-108891750D01*
X124041949Y-108891749D01*
X124041947Y-108891748D01*
X123935270Y-108837393D01*
X123813975Y-108775589D01*
X123813972Y-108775588D01*
X123570640Y-108696526D01*
X123444284Y-108676513D01*
X123317930Y-108656500D01*
X123062070Y-108656500D01*
X122977833Y-108669842D01*
X122809359Y-108696526D01*
X122566027Y-108775588D01*
X122566024Y-108775589D01*
X122338049Y-108891750D01*
X122131064Y-109042132D01*
X122131059Y-109042136D01*
X121950136Y-109223059D01*
X121950132Y-109223064D01*
X121799750Y-109430049D01*
X121683589Y-109658024D01*
X121683588Y-109658027D01*
X121604526Y-109901359D01*
X121564500Y-110154070D01*
X121564500Y-110409929D01*
X121604526Y-110662640D01*
X121683588Y-110905972D01*
X121683589Y-110905975D01*
X121762533Y-111060910D01*
X121789436Y-111113709D01*
X121799750Y-111133950D01*
X121950132Y-111340935D01*
X121950136Y-111340940D01*
X122131063Y-111521867D01*
X122171908Y-111551542D01*
X122214574Y-111606871D01*
X122220553Y-111676485D01*
X122187948Y-111738280D01*
X122186706Y-111739539D01*
X122167526Y-111758719D01*
X122167520Y-111758726D01*
X122043504Y-111929421D01*
X121947708Y-112117429D01*
X121882508Y-112318094D01*
X121882508Y-112318097D01*
X121882508Y-112318099D01*
X121849500Y-112526500D01*
X121849500Y-112737500D01*
X121858263Y-112792826D01*
X121882508Y-112945902D01*
X121882508Y-112945905D01*
X121944170Y-113135681D01*
X121946165Y-113205522D01*
X121910084Y-113265355D01*
X121873693Y-113288559D01*
X121770740Y-113331205D01*
X121770724Y-113331212D01*
X121483448Y-113484765D01*
X121483420Y-113484782D01*
X121212594Y-113665741D01*
X121212571Y-113665758D01*
X120960755Y-113872418D01*
X120730418Y-114102755D01*
X120523758Y-114354571D01*
X120523741Y-114354594D01*
X120342782Y-114625420D01*
X120342765Y-114625448D01*
X120189212Y-114912724D01*
X120189210Y-114912729D01*
X120064546Y-115213693D01*
X119969980Y-115525437D01*
X119969977Y-115525448D01*
X119906432Y-115844921D01*
X119906429Y-115844938D01*
X119895375Y-115957174D01*
X119874500Y-116169120D01*
X109741500Y-116169120D01*
X109709569Y-115844928D01*
X109683742Y-115715088D01*
X109646022Y-115525448D01*
X109646019Y-115525437D01*
X109646018Y-115525434D01*
X109646017Y-115525428D01*
X109551454Y-115213695D01*
X109426791Y-114912732D01*
X109273228Y-114625437D01*
X109267582Y-114616987D01*
X109092258Y-114354594D01*
X109092251Y-114354584D01*
X109092246Y-114354577D01*
X108885586Y-114102761D01*
X108885585Y-114102760D01*
X108885581Y-114102755D01*
X108655244Y-113872418D01*
X108403428Y-113665758D01*
X108403405Y-113665741D01*
X108132579Y-113484782D01*
X108132551Y-113484765D01*
X107845276Y-113331213D01*
X107845273Y-113331212D01*
X107845268Y-113331209D01*
X107742305Y-113288560D01*
X107739100Y-113285977D01*
X107735047Y-113285276D01*
X107712130Y-113264243D01*
X107687902Y-113244718D01*
X107686602Y-113240813D01*
X107683572Y-113238032D01*
X107675664Y-113207950D01*
X107671240Y-113194657D01*
X117440505Y-113194657D01*
X117475013Y-113412523D01*
X117554051Y-113655781D01*
X117554052Y-113655784D01*
X117670175Y-113883686D01*
X117820521Y-114090619D01*
X118001380Y-114271478D01*
X118208313Y-114421824D01*
X118436215Y-114537947D01*
X118436218Y-114537948D01*
X118679474Y-114616986D01*
X118679478Y-114616987D01*
X118723416Y-114623945D01*
X118772984Y-113708672D01*
X118845609Y-113738754D01*
X118987609Y-113767000D01*
X119132391Y-113767000D01*
X119272064Y-113739216D01*
X119222657Y-114651492D01*
X119222657Y-114651493D01*
X119440523Y-114616986D01*
X119683781Y-114537948D01*
X119683784Y-114537947D01*
X119911686Y-114421824D01*
X120118619Y-114271478D01*
X120299478Y-114090619D01*
X120449824Y-113883686D01*
X120565947Y-113655784D01*
X120565948Y-113655781D01*
X120644984Y-113412529D01*
X120651945Y-113368581D01*
X119736672Y-113319013D01*
X119766754Y-113246391D01*
X119795000Y-113104391D01*
X119795000Y-112959609D01*
X119767216Y-112819932D01*
X120679492Y-112869341D01*
X120679493Y-112869341D01*
X120644986Y-112651476D01*
X120565948Y-112408218D01*
X120565947Y-112408215D01*
X120449824Y-112180313D01*
X120299478Y-111973380D01*
X120118619Y-111792521D01*
X119911686Y-111642175D01*
X119683784Y-111526052D01*
X119683781Y-111526051D01*
X119440518Y-111447012D01*
X119396582Y-111440053D01*
X119347013Y-112355327D01*
X119274391Y-112325246D01*
X119132391Y-112297000D01*
X118987609Y-112297000D01*
X118847932Y-112324783D01*
X118897341Y-111412505D01*
X118679476Y-111447013D01*
X118436218Y-111526051D01*
X118436215Y-111526052D01*
X118208313Y-111642175D01*
X118001380Y-111792521D01*
X117820521Y-111973380D01*
X117670175Y-112180313D01*
X117554052Y-112408215D01*
X117554051Y-112408218D01*
X117475012Y-112651481D01*
X117468053Y-112695416D01*
X118383327Y-112744984D01*
X118353246Y-112817609D01*
X118325000Y-112959609D01*
X118325000Y-113104391D01*
X118352783Y-113244065D01*
X117440505Y-113194657D01*
X107671240Y-113194657D01*
X107665838Y-113178424D01*
X107666556Y-113173297D01*
X107665810Y-113170458D01*
X107671826Y-113135687D01*
X107733492Y-112945901D01*
X107766500Y-112737500D01*
X107766500Y-112526500D01*
X107733492Y-112318099D01*
X107733491Y-112318095D01*
X107733491Y-112318094D01*
X107668291Y-112117429D01*
X107662153Y-112105382D01*
X107572498Y-111929425D01*
X107448476Y-111758723D01*
X107429294Y-111739541D01*
X107395809Y-111678218D01*
X107400793Y-111608526D01*
X107442665Y-111552593D01*
X107444090Y-111551542D01*
X107484942Y-111521862D01*
X107665862Y-111340942D01*
X107816252Y-111133947D01*
X107932410Y-110905975D01*
X108011474Y-110662639D01*
X108051500Y-110409930D01*
X108051500Y-110154070D01*
X108011474Y-109901361D01*
X107939725Y-109680537D01*
X107932411Y-109658027D01*
X107932410Y-109658024D01*
X107885105Y-109565185D01*
X107816252Y-109430053D01*
X107797038Y-109403607D01*
X107665867Y-109223064D01*
X107665863Y-109223059D01*
X107484940Y-109042136D01*
X107484935Y-109042132D01*
X107277950Y-108891750D01*
X107277949Y-108891749D01*
X107277947Y-108891748D01*
X107171270Y-108837393D01*
X107049975Y-108775589D01*
X107049972Y-108775588D01*
X106806640Y-108696526D01*
X106680284Y-108676513D01*
X106553930Y-108656500D01*
X106298070Y-108656500D01*
X106213833Y-108669842D01*
X106045359Y-108696526D01*
X105802027Y-108775588D01*
X105802024Y-108775589D01*
X105574049Y-108891750D01*
X105367064Y-109042132D01*
X105367059Y-109042136D01*
X105186136Y-109223059D01*
X105186132Y-109223064D01*
X105035750Y-109430049D01*
X104919589Y-109658024D01*
X104919588Y-109658027D01*
X104840526Y-109901359D01*
X104800500Y-110154070D01*
X104800500Y-110409929D01*
X104840526Y-110662640D01*
X104919588Y-110905972D01*
X104919589Y-110905975D01*
X104998533Y-111060910D01*
X105025436Y-111113709D01*
X105035750Y-111133950D01*
X105186132Y-111340935D01*
X105186136Y-111340940D01*
X105367063Y-111521867D01*
X105407908Y-111551542D01*
X105450574Y-111606871D01*
X105456553Y-111676485D01*
X105423948Y-111738280D01*
X105422706Y-111739539D01*
X105403526Y-111758719D01*
X105403520Y-111758726D01*
X105279504Y-111929421D01*
X105183708Y-112117429D01*
X105118508Y-112318094D01*
X105118508Y-112318097D01*
X105118508Y-112318099D01*
X105085500Y-112526500D01*
X105085500Y-112737500D01*
X105094263Y-112792826D01*
X105118508Y-112945902D01*
X105118508Y-112945905D01*
X105180170Y-113135681D01*
X105182165Y-113205522D01*
X105146084Y-113265355D01*
X105109693Y-113288559D01*
X105006740Y-113331205D01*
X105006724Y-113331212D01*
X104719448Y-113484765D01*
X104719420Y-113484782D01*
X104448594Y-113665741D01*
X104448571Y-113665758D01*
X104196755Y-113872418D01*
X103966418Y-114102755D01*
X103759758Y-114354571D01*
X103759741Y-114354594D01*
X103578782Y-114625420D01*
X103578765Y-114625448D01*
X103425212Y-114912724D01*
X103425210Y-114912729D01*
X103300546Y-115213693D01*
X103205980Y-115525437D01*
X103205977Y-115525448D01*
X103142432Y-115844921D01*
X103142429Y-115844938D01*
X103131375Y-115957174D01*
X103110500Y-116169120D01*
X97513494Y-116169120D01*
X97513494Y-113194657D01*
X100676505Y-113194657D01*
X100711013Y-113412523D01*
X100790051Y-113655781D01*
X100790052Y-113655784D01*
X100906175Y-113883686D01*
X101056521Y-114090619D01*
X101237380Y-114271478D01*
X101444313Y-114421824D01*
X101672215Y-114537947D01*
X101672218Y-114537948D01*
X101915474Y-114616986D01*
X101915478Y-114616987D01*
X101959416Y-114623946D01*
X102008984Y-113708672D01*
X102081609Y-113738754D01*
X102223609Y-113767000D01*
X102368391Y-113767000D01*
X102508064Y-113739216D01*
X102458657Y-114651492D01*
X102458657Y-114651493D01*
X102676523Y-114616986D01*
X102919781Y-114537948D01*
X102919784Y-114537947D01*
X103147686Y-114421824D01*
X103354619Y-114271478D01*
X103535478Y-114090619D01*
X103685824Y-113883686D01*
X103801947Y-113655784D01*
X103801948Y-113655781D01*
X103880984Y-113412529D01*
X103887945Y-113368581D01*
X102972672Y-113319013D01*
X103002754Y-113246391D01*
X103031000Y-113104391D01*
X103031000Y-112959609D01*
X103003216Y-112819932D01*
X103915492Y-112869341D01*
X103915493Y-112869341D01*
X103880986Y-112651476D01*
X103801948Y-112408218D01*
X103801947Y-112408215D01*
X103685824Y-112180313D01*
X103535478Y-111973380D01*
X103354619Y-111792521D01*
X103147686Y-111642175D01*
X102919784Y-111526052D01*
X102919781Y-111526051D01*
X102676518Y-111447012D01*
X102632582Y-111440053D01*
X102583013Y-112355327D01*
X102510391Y-112325246D01*
X102368391Y-112297000D01*
X102223609Y-112297000D01*
X102083932Y-112324783D01*
X102133341Y-111412505D01*
X101915476Y-111447013D01*
X101672218Y-111526051D01*
X101672215Y-111526052D01*
X101444313Y-111642175D01*
X101237380Y-111792521D01*
X101056521Y-111973380D01*
X100906175Y-112180313D01*
X100790052Y-112408215D01*
X100790051Y-112408218D01*
X100711012Y-112651481D01*
X100704053Y-112695416D01*
X101619327Y-112744984D01*
X101589246Y-112817609D01*
X101561000Y-112959609D01*
X101561000Y-113104391D01*
X101588783Y-113244065D01*
X100676505Y-113194657D01*
X97513494Y-113194657D01*
X97513494Y-101775153D01*
X130771500Y-101775153D01*
X130771500Y-101932846D01*
X130802261Y-102087489D01*
X130802264Y-102087501D01*
X130862602Y-102233172D01*
X130862609Y-102233185D01*
X130950210Y-102364288D01*
X130950213Y-102364292D01*
X131061707Y-102475786D01*
X131061711Y-102475789D01*
X131192814Y-102563390D01*
X131192827Y-102563397D01*
X131338498Y-102623735D01*
X131338503Y-102623737D01*
X131493153Y-102654499D01*
X131493156Y-102654500D01*
X131493158Y-102654500D01*
X131650844Y-102654500D01*
X131650845Y-102654499D01*
X131805497Y-102623737D01*
X131951179Y-102563394D01*
X132082289Y-102475789D01*
X132193789Y-102364289D01*
X132281394Y-102233179D01*
X132284224Y-102226348D01*
X132341735Y-102087501D01*
X132341737Y-102087497D01*
X132372500Y-101932842D01*
X132372500Y-101775158D01*
X132372500Y-101775155D01*
X132372499Y-101775153D01*
X132367416Y-101749600D01*
X132341737Y-101620503D01*
X132287307Y-101489096D01*
X132281397Y-101474827D01*
X132281390Y-101474814D01*
X132193789Y-101343711D01*
X132193786Y-101343707D01*
X132082292Y-101232213D01*
X132082288Y-101232210D01*
X131951185Y-101144609D01*
X131951172Y-101144602D01*
X131805501Y-101084264D01*
X131805489Y-101084261D01*
X131650845Y-101053500D01*
X131650842Y-101053500D01*
X131493158Y-101053500D01*
X131493155Y-101053500D01*
X131338510Y-101084261D01*
X131338498Y-101084264D01*
X131192827Y-101144602D01*
X131192814Y-101144609D01*
X131061711Y-101232210D01*
X131061707Y-101232213D01*
X130950213Y-101343707D01*
X130950210Y-101343711D01*
X130862609Y-101474814D01*
X130862602Y-101474827D01*
X130802264Y-101620498D01*
X130802261Y-101620510D01*
X130771500Y-101775153D01*
X97513494Y-101775153D01*
X97513494Y-98704153D01*
X127192500Y-98704153D01*
X127192500Y-98861846D01*
X127223261Y-99016489D01*
X127223264Y-99016501D01*
X127283602Y-99162172D01*
X127283609Y-99162185D01*
X127371210Y-99293288D01*
X127371213Y-99293292D01*
X127482707Y-99404786D01*
X127482711Y-99404789D01*
X127613814Y-99492390D01*
X127613827Y-99492397D01*
X127759498Y-99552735D01*
X127759503Y-99552737D01*
X127914153Y-99583499D01*
X127914156Y-99583500D01*
X127914158Y-99583500D01*
X128071844Y-99583500D01*
X128071845Y-99583499D01*
X128226497Y-99552737D01*
X128372179Y-99492394D01*
X128426398Y-99456165D01*
X128493073Y-99435287D01*
X128560453Y-99453771D01*
X128564169Y-99456158D01*
X128652821Y-99515394D01*
X128652823Y-99515395D01*
X128652827Y-99515397D01*
X128798498Y-99575735D01*
X128798503Y-99575737D01*
X128953153Y-99606499D01*
X128953156Y-99606500D01*
X128953158Y-99606500D01*
X129110844Y-99606500D01*
X129110845Y-99606499D01*
X129265497Y-99575737D01*
X129411179Y-99515394D01*
X129542289Y-99427789D01*
X129653789Y-99316289D01*
X129705087Y-99239513D01*
X129720497Y-99220737D01*
X129766520Y-99174716D01*
X129766521Y-99174713D01*
X132184506Y-96756728D01*
X132184511Y-96756724D01*
X132194714Y-96746520D01*
X132194716Y-96746520D01*
X132306520Y-96634716D01*
X132385577Y-96497784D01*
X132426500Y-96345057D01*
X132426500Y-88971765D01*
X132446185Y-88904726D01*
X132447398Y-88902874D01*
X132535390Y-88771185D01*
X132535390Y-88771184D01*
X132535394Y-88771179D01*
X132595737Y-88625497D01*
X132626500Y-88470842D01*
X132626500Y-88313158D01*
X132626500Y-88313155D01*
X132626499Y-88313153D01*
X132595738Y-88158510D01*
X132595737Y-88158503D01*
X132595735Y-88158498D01*
X132535397Y-88012827D01*
X132535390Y-88012814D01*
X132447789Y-87881711D01*
X132447786Y-87881707D01*
X132336292Y-87770213D01*
X132336288Y-87770210D01*
X132280752Y-87733102D01*
X132259705Y-87707918D01*
X132237786Y-87683516D01*
X132237419Y-87681251D01*
X132235947Y-87679490D01*
X132231857Y-87646930D01*
X132226610Y-87614546D01*
X132227525Y-87612441D01*
X132227240Y-87610165D01*
X132241404Y-87580558D01*
X132254496Y-87550483D01*
X132256770Y-87548439D01*
X132257394Y-87547137D01*
X132280753Y-87526898D01*
X132336876Y-87489398D01*
X132403553Y-87468520D01*
X132405766Y-87468500D01*
X145583846Y-87468500D01*
X145650885Y-87488185D01*
X145671527Y-87504819D01*
X147433196Y-89266489D01*
X147466681Y-89327812D01*
X147461697Y-89397504D01*
X147448617Y-89423061D01*
X147372609Y-89536814D01*
X147372602Y-89536827D01*
X147312264Y-89682498D01*
X147312261Y-89682508D01*
X147281361Y-89837850D01*
X147248976Y-89899761D01*
X147247425Y-89901339D01*
X136171481Y-100977282D01*
X136171479Y-100977284D01*
X136152425Y-101010288D01*
X136142102Y-101028169D01*
X136092423Y-101114215D01*
X136051499Y-101266943D01*
X136051499Y-101266945D01*
X136051499Y-101435046D01*
X136051500Y-101435059D01*
X136051500Y-103331902D01*
X136031815Y-103398941D01*
X136015181Y-103419583D01*
X134661584Y-104773181D01*
X134600261Y-104806666D01*
X134573903Y-104809500D01*
X130881766Y-104809500D01*
X130814727Y-104789815D01*
X130812875Y-104788602D01*
X130681185Y-104700609D01*
X130681172Y-104700602D01*
X130535501Y-104640264D01*
X130535489Y-104640261D01*
X130380845Y-104609500D01*
X130380842Y-104609500D01*
X130223158Y-104609500D01*
X130223155Y-104609500D01*
X130068510Y-104640261D01*
X130068498Y-104640264D01*
X129922827Y-104700602D01*
X129922814Y-104700609D01*
X129791711Y-104788210D01*
X129791707Y-104788213D01*
X129680213Y-104899707D01*
X129680210Y-104899711D01*
X129592609Y-105030814D01*
X129592602Y-105030827D01*
X129532264Y-105176498D01*
X129532261Y-105176510D01*
X129501500Y-105331153D01*
X129501500Y-105488846D01*
X129532261Y-105643489D01*
X129532264Y-105643501D01*
X129592602Y-105789172D01*
X129592609Y-105789185D01*
X129680210Y-105920288D01*
X129680213Y-105920292D01*
X129791707Y-106031786D01*
X129791711Y-106031789D01*
X129922814Y-106119390D01*
X129922827Y-106119397D01*
X130068498Y-106179735D01*
X130068503Y-106179737D01*
X130223153Y-106210499D01*
X130223156Y-106210500D01*
X130223158Y-106210500D01*
X130380844Y-106210500D01*
X130380845Y-106210499D01*
X130535497Y-106179737D01*
X130681179Y-106119394D01*
X130681185Y-106119390D01*
X130812875Y-106031398D01*
X130879553Y-106010520D01*
X130881766Y-106010500D01*
X134787331Y-106010500D01*
X134787347Y-106010501D01*
X134794943Y-106010501D01*
X134953054Y-106010501D01*
X134953057Y-106010501D01*
X135105785Y-105969577D01*
X135155904Y-105940639D01*
X135242716Y-105890520D01*
X135354520Y-105778716D01*
X135354520Y-105778714D01*
X135364728Y-105768507D01*
X135364729Y-105768504D01*
X137132520Y-104000716D01*
X137211577Y-103863784D01*
X137252501Y-103711057D01*
X137252501Y-103552942D01*
X137252501Y-103545347D01*
X137252500Y-103545329D01*
X137252500Y-101646097D01*
X137272185Y-101579058D01*
X137288819Y-101558416D01*
X148031819Y-90815416D01*
X148093142Y-90781931D01*
X148162834Y-90786915D01*
X148218767Y-90828787D01*
X148243184Y-90894251D01*
X148243500Y-90903097D01*
X148243500Y-98719330D01*
X148243499Y-98719348D01*
X148243499Y-98885054D01*
X148243498Y-98885054D01*
X148284423Y-99037785D01*
X148313358Y-99087900D01*
X148313359Y-99087904D01*
X148313360Y-99087904D01*
X148357582Y-99164501D01*
X148363479Y-99174714D01*
X148363481Y-99174717D01*
X148482349Y-99293585D01*
X148482355Y-99293590D01*
X150295425Y-101106660D01*
X150328910Y-101167983D01*
X150329361Y-101170149D01*
X150360261Y-101325491D01*
X150360264Y-101325501D01*
X150420602Y-101471172D01*
X150420609Y-101471185D01*
X150508210Y-101602288D01*
X150508213Y-101602292D01*
X150619707Y-101713786D01*
X150619711Y-101713789D01*
X150750814Y-101801390D01*
X150750827Y-101801397D01*
X150896498Y-101861735D01*
X150896503Y-101861737D01*
X151051153Y-101892499D01*
X151051156Y-101892500D01*
X151051158Y-101892500D01*
X151208844Y-101892500D01*
X151208845Y-101892499D01*
X151363497Y-101861737D01*
X151509179Y-101801394D01*
X151640289Y-101713789D01*
X151751789Y-101602289D01*
X151839394Y-101471179D01*
X151899737Y-101325497D01*
X151909854Y-101274633D01*
X151942238Y-101212725D01*
X152002953Y-101178150D01*
X152072723Y-101181889D01*
X152100363Y-101195725D01*
X152120812Y-101209389D01*
X152120827Y-101209397D01*
X152259762Y-101266945D01*
X152266503Y-101269737D01*
X152421153Y-101300499D01*
X152421156Y-101300500D01*
X152525500Y-101300500D01*
X152592539Y-101320185D01*
X152638294Y-101372989D01*
X152649500Y-101424500D01*
X152649500Y-110163330D01*
X152649499Y-110163348D01*
X152649499Y-110329054D01*
X152649498Y-110329054D01*
X152690423Y-110481785D01*
X152719358Y-110531900D01*
X152719359Y-110531904D01*
X152719360Y-110531904D01*
X152769479Y-110618714D01*
X152769481Y-110618717D01*
X152888349Y-110737585D01*
X152888355Y-110737590D01*
X155724127Y-113573362D01*
X155757612Y-113634685D01*
X155760446Y-113661043D01*
X155760446Y-115077403D01*
X155740761Y-115144442D01*
X155709332Y-115177721D01*
X155546298Y-115296173D01*
X155407120Y-115435351D01*
X155407120Y-115435352D01*
X155407118Y-115435354D01*
X155357431Y-115503741D01*
X155291422Y-115594594D01*
X155202063Y-115769970D01*
X155141236Y-115957173D01*
X155110446Y-116151577D01*
X155110446Y-116348422D01*
X155141236Y-116542826D01*
X155202063Y-116730029D01*
X155281052Y-116885052D01*
X155291422Y-116905405D01*
X155407118Y-117064646D01*
X155546300Y-117203828D01*
X155705541Y-117319524D01*
X155771919Y-117353345D01*
X155880916Y-117408882D01*
X155880918Y-117408882D01*
X155880921Y-117408884D01*
X155981263Y-117441487D01*
X156068119Y-117469709D01*
X156262524Y-117500500D01*
X156262529Y-117500500D01*
X156459368Y-117500500D01*
X156653772Y-117469709D01*
X156840971Y-117408884D01*
X157016351Y-117319524D01*
X157127727Y-117238604D01*
X161043012Y-117238604D01*
X161043012Y-117238605D01*
X161077997Y-117264023D01*
X161253303Y-117353345D01*
X161440433Y-117414148D01*
X161634757Y-117444927D01*
X161831521Y-117444927D01*
X162025844Y-117414148D01*
X162212974Y-117353345D01*
X162388282Y-117264022D01*
X162423264Y-117238605D01*
X162423265Y-117238605D01*
X161733140Y-116548480D01*
X161733139Y-116548480D01*
X161043012Y-117238604D01*
X157127727Y-117238604D01*
X157175592Y-117203828D01*
X157314774Y-117064646D01*
X157430470Y-116905405D01*
X157519830Y-116730025D01*
X157580655Y-116542826D01*
X157588249Y-116494880D01*
X157611446Y-116348422D01*
X157611446Y-116151577D01*
X157605031Y-116111076D01*
X157602729Y-116096544D01*
X160483139Y-116096544D01*
X160483139Y-116293309D01*
X160513917Y-116487632D01*
X160574720Y-116674762D01*
X160664044Y-116850072D01*
X160689458Y-116885052D01*
X160689459Y-116885052D01*
X161379585Y-116194927D01*
X161379585Y-116194926D01*
X162086692Y-116194926D01*
X162086692Y-116194928D01*
X162776817Y-116885053D01*
X162776817Y-116885052D01*
X162802234Y-116850070D01*
X162891557Y-116674762D01*
X162952360Y-116487632D01*
X162983139Y-116293309D01*
X162983139Y-116096544D01*
X162952360Y-115902221D01*
X162891557Y-115715091D01*
X162802235Y-115539785D01*
X162776817Y-115504800D01*
X162776816Y-115504800D01*
X162086692Y-116194926D01*
X161379585Y-116194926D01*
X160689459Y-115504799D01*
X160689459Y-115504800D01*
X160664041Y-115539786D01*
X160664038Y-115539790D01*
X160574721Y-115715088D01*
X160513917Y-115902221D01*
X160483139Y-116096544D01*
X157602729Y-116096544D01*
X157580655Y-115957173D01*
X157544184Y-115844928D01*
X157519830Y-115769975D01*
X157519828Y-115769972D01*
X157519828Y-115769970D01*
X157430469Y-115594594D01*
X157314774Y-115435354D01*
X157175592Y-115296172D01*
X157175589Y-115296170D01*
X157175587Y-115296168D01*
X157012560Y-115177720D01*
X156992146Y-115151247D01*
X161043011Y-115151247D01*
X161733139Y-115841373D01*
X161733140Y-115841373D01*
X162423264Y-115151247D01*
X162423264Y-115151246D01*
X162388284Y-115125832D01*
X162212974Y-115036508D01*
X162025844Y-114975705D01*
X161831521Y-114944927D01*
X161634757Y-114944927D01*
X161440433Y-114975705D01*
X161253300Y-115036509D01*
X161078002Y-115125826D01*
X161077998Y-115125829D01*
X161043012Y-115151247D01*
X161043011Y-115151247D01*
X156992146Y-115151247D01*
X156969894Y-115122390D01*
X156961446Y-115077403D01*
X156961446Y-113450005D01*
X156961447Y-113449992D01*
X156961447Y-113281891D01*
X156961447Y-113281889D01*
X156920523Y-113129161D01*
X156891585Y-113079041D01*
X156841466Y-112992230D01*
X156729662Y-112880426D01*
X156729661Y-112880425D01*
X156725331Y-112876095D01*
X156725320Y-112876085D01*
X153886819Y-110037584D01*
X153853334Y-109976261D01*
X153850500Y-109949903D01*
X153850500Y-101424500D01*
X153870185Y-101357461D01*
X153922989Y-101311706D01*
X153974500Y-101300500D01*
X154078844Y-101300500D01*
X154078845Y-101300499D01*
X154233497Y-101269737D01*
X154379179Y-101209394D01*
X154510289Y-101121789D01*
X154621789Y-101010289D01*
X154709394Y-100879179D01*
X154769737Y-100733497D01*
X154800500Y-100578842D01*
X154800500Y-100421158D01*
X154800500Y-100421155D01*
X154800499Y-100421153D01*
X154783586Y-100336126D01*
X154769737Y-100266503D01*
X154765977Y-100257425D01*
X154709397Y-100120827D01*
X154709390Y-100120814D01*
X154621789Y-99989711D01*
X154621786Y-99989707D01*
X154510292Y-99878213D01*
X154510288Y-99878210D01*
X154379185Y-99790609D01*
X154379172Y-99790602D01*
X154233501Y-99730264D01*
X154233489Y-99730261D01*
X154078845Y-99699500D01*
X154078842Y-99699500D01*
X153921158Y-99699500D01*
X153921155Y-99699500D01*
X153766510Y-99730261D01*
X153766498Y-99730264D01*
X153672452Y-99769219D01*
X153602982Y-99776688D01*
X153577548Y-99769219D01*
X153483501Y-99730264D01*
X153483489Y-99730261D01*
X153328845Y-99699500D01*
X153328842Y-99699500D01*
X153171158Y-99699500D01*
X153171155Y-99699500D01*
X153016510Y-99730261D01*
X153016498Y-99730264D01*
X152922452Y-99769219D01*
X152852982Y-99776688D01*
X152827548Y-99769219D01*
X152733501Y-99730264D01*
X152733489Y-99730261D01*
X152578845Y-99699500D01*
X152578842Y-99699500D01*
X152421158Y-99699500D01*
X152421155Y-99699500D01*
X152266510Y-99730261D01*
X152266498Y-99730264D01*
X152120827Y-99790602D01*
X152120814Y-99790609D01*
X151989711Y-99878210D01*
X151989707Y-99878213D01*
X151878213Y-99989707D01*
X151878210Y-99989711D01*
X151790609Y-100120814D01*
X151790602Y-100120827D01*
X151730264Y-100266498D01*
X151730261Y-100266508D01*
X151720145Y-100317365D01*
X151687759Y-100379276D01*
X151627043Y-100413850D01*
X151557274Y-100410109D01*
X151529637Y-100396275D01*
X151509185Y-100382609D01*
X151509172Y-100382602D01*
X151363501Y-100322264D01*
X151363491Y-100322261D01*
X151208149Y-100291361D01*
X151146238Y-100258976D01*
X151144660Y-100257425D01*
X149480819Y-98593584D01*
X149447334Y-98532261D01*
X149444500Y-98505903D01*
X149444500Y-94409153D01*
X152615500Y-94409153D01*
X152615500Y-94566846D01*
X152646261Y-94721489D01*
X152646264Y-94721501D01*
X152706602Y-94867172D01*
X152706609Y-94867185D01*
X152794210Y-94998288D01*
X152794213Y-94998292D01*
X152905707Y-95109786D01*
X152905711Y-95109789D01*
X153036814Y-95197390D01*
X153036827Y-95197397D01*
X153182498Y-95257735D01*
X153182503Y-95257737D01*
X153337153Y-95288499D01*
X153337156Y-95288500D01*
X153337158Y-95288500D01*
X153494844Y-95288500D01*
X153494845Y-95288499D01*
X153649497Y-95257737D01*
X153795179Y-95197394D01*
X153795185Y-95197390D01*
X153926875Y-95109398D01*
X153993553Y-95088520D01*
X153995766Y-95088500D01*
X155147903Y-95088500D01*
X155177343Y-95097144D01*
X155207330Y-95103668D01*
X155212345Y-95107422D01*
X155214942Y-95108185D01*
X155235584Y-95124819D01*
X155319181Y-95208416D01*
X155352666Y-95269739D01*
X155355500Y-95296097D01*
X155355500Y-96316227D01*
X155335815Y-96383266D01*
X155283011Y-96429021D01*
X155213853Y-96438965D01*
X155199407Y-96436002D01*
X155164019Y-96426520D01*
X155138145Y-96419587D01*
X154980031Y-96419587D01*
X154972435Y-96419587D01*
X154972419Y-96419588D01*
X154009721Y-96419588D01*
X153942682Y-96399903D01*
X153940830Y-96398690D01*
X153809140Y-96310697D01*
X153809127Y-96310690D01*
X153663456Y-96250352D01*
X153663444Y-96250349D01*
X153508800Y-96219588D01*
X153508797Y-96219588D01*
X153351113Y-96219588D01*
X153351110Y-96219588D01*
X153196465Y-96250349D01*
X153196453Y-96250352D01*
X153050782Y-96310690D01*
X153050769Y-96310697D01*
X152919666Y-96398298D01*
X152919662Y-96398301D01*
X152808168Y-96509795D01*
X152808165Y-96509799D01*
X152720564Y-96640902D01*
X152720557Y-96640915D01*
X152660219Y-96786586D01*
X152660216Y-96786598D01*
X152629455Y-96941241D01*
X152629455Y-97098934D01*
X152660216Y-97253577D01*
X152660219Y-97253589D01*
X152717527Y-97391945D01*
X152724996Y-97461415D01*
X152717528Y-97486848D01*
X152676280Y-97586432D01*
X152676278Y-97586439D01*
X152645517Y-97741082D01*
X152645517Y-97898775D01*
X152676278Y-98053418D01*
X152676281Y-98053430D01*
X152736619Y-98199101D01*
X152736626Y-98199114D01*
X152824227Y-98330217D01*
X152824230Y-98330221D01*
X152935724Y-98441715D01*
X152935728Y-98441718D01*
X153066831Y-98529319D01*
X153066844Y-98529326D01*
X153134296Y-98557265D01*
X153212520Y-98589666D01*
X153367170Y-98620428D01*
X153367173Y-98620429D01*
X153367175Y-98620429D01*
X153524861Y-98620429D01*
X153524862Y-98620428D01*
X153679514Y-98589666D01*
X153825196Y-98529323D01*
X153956306Y-98441718D01*
X153956309Y-98441715D01*
X153971206Y-98426819D01*
X154032529Y-98393334D01*
X154058887Y-98390500D01*
X154737846Y-98390500D01*
X154804885Y-98410185D01*
X154825527Y-98426819D01*
X163904381Y-107505673D01*
X163937866Y-107566996D01*
X163940700Y-107593354D01*
X163940700Y-107964930D01*
X163940699Y-107964948D01*
X163940699Y-108130654D01*
X163940698Y-108130654D01*
X163981623Y-108283385D01*
X164003188Y-108320735D01*
X164003189Y-108320739D01*
X164060675Y-108420309D01*
X164060681Y-108420317D01*
X164179549Y-108539185D01*
X164179555Y-108539190D01*
X165239441Y-109599076D01*
X165272926Y-109660399D01*
X165269692Y-109725073D01*
X165255953Y-109767357D01*
X165222700Y-109977313D01*
X165222700Y-110189886D01*
X165244742Y-110329057D01*
X165255954Y-110399843D01*
X165298863Y-110531904D01*
X165321644Y-110602014D01*
X165418151Y-110791420D01*
X165543090Y-110963386D01*
X165693413Y-111113709D01*
X165865379Y-111238648D01*
X165865381Y-111238649D01*
X165865384Y-111238651D01*
X165874693Y-111243394D01*
X165925490Y-111291366D01*
X165942287Y-111359187D01*
X165919752Y-111425322D01*
X165874705Y-111464360D01*
X165865646Y-111468976D01*
X165865640Y-111468980D01*
X165811482Y-111508327D01*
X165811482Y-111508328D01*
X166443791Y-112140637D01*
X166380207Y-112157675D01*
X166266193Y-112223501D01*
X166173101Y-112316593D01*
X166107275Y-112430607D01*
X166090237Y-112494191D01*
X165457928Y-111861882D01*
X165457927Y-111861882D01*
X165418580Y-111916039D01*
X165322104Y-112105382D01*
X165256442Y-112307469D01*
X165256442Y-112307472D01*
X165223200Y-112517353D01*
X165223200Y-112729846D01*
X165256442Y-112939727D01*
X165256442Y-112939730D01*
X165322104Y-113141817D01*
X165418575Y-113331150D01*
X165457928Y-113385316D01*
X166090237Y-112753008D01*
X166107275Y-112816593D01*
X166173101Y-112930607D01*
X166266193Y-113023699D01*
X166380207Y-113089525D01*
X166443790Y-113106562D01*
X165811482Y-113738869D01*
X165811482Y-113738870D01*
X165865649Y-113778224D01*
X166054982Y-113874695D01*
X166257070Y-113940357D01*
X166466954Y-113973600D01*
X166679446Y-113973600D01*
X166889327Y-113940357D01*
X166889330Y-113940357D01*
X167091417Y-113874695D01*
X167280754Y-113778222D01*
X167334916Y-113738870D01*
X167334917Y-113738870D01*
X166702608Y-113106562D01*
X166766193Y-113089525D01*
X166880207Y-113023699D01*
X166973299Y-112930607D01*
X167039125Y-112816593D01*
X167056162Y-112753009D01*
X167688470Y-113385317D01*
X167688470Y-113385316D01*
X167727822Y-113331154D01*
X167824295Y-113141817D01*
X167889957Y-112939730D01*
X167889957Y-112939727D01*
X167923200Y-112729846D01*
X167923200Y-112517353D01*
X167889957Y-112307472D01*
X167889957Y-112307469D01*
X167824295Y-112105382D01*
X167727824Y-111916049D01*
X167688470Y-111861882D01*
X167688469Y-111861882D01*
X167056162Y-112494190D01*
X167039125Y-112430607D01*
X166973299Y-112316593D01*
X166880207Y-112223501D01*
X166766193Y-112157675D01*
X166702609Y-112140637D01*
X167334916Y-111508328D01*
X167280747Y-111468973D01*
X167280747Y-111468972D01*
X167271700Y-111464363D01*
X167220906Y-111416388D01*
X167204112Y-111348566D01*
X167226651Y-111282432D01*
X167271708Y-111243393D01*
X167281016Y-111238651D01*
X167425130Y-111133947D01*
X167452986Y-111113709D01*
X167452988Y-111113706D01*
X167452992Y-111113704D01*
X167603304Y-110963392D01*
X167603306Y-110963388D01*
X167603309Y-110963386D01*
X167728248Y-110791420D01*
X167728247Y-110791420D01*
X167728251Y-110791416D01*
X167824757Y-110602012D01*
X167890446Y-110399843D01*
X167923700Y-110189887D01*
X167923700Y-109977313D01*
X167890446Y-109767357D01*
X167824757Y-109565188D01*
X167728251Y-109375784D01*
X167728249Y-109375781D01*
X167728248Y-109375779D01*
X167603309Y-109203813D01*
X167489769Y-109090273D01*
X167456284Y-109028950D01*
X167461268Y-108959258D01*
X167503140Y-108903325D01*
X167534115Y-108886410D01*
X167665531Y-108837396D01*
X167780746Y-108751146D01*
X167866996Y-108635931D01*
X167917291Y-108501083D01*
X167923700Y-108441473D01*
X167923699Y-106645728D01*
X167917291Y-106586117D01*
X167866996Y-106451269D01*
X167866995Y-106451268D01*
X167866993Y-106451264D01*
X167780747Y-106336055D01*
X167780744Y-106336052D01*
X167665535Y-106249806D01*
X167665528Y-106249802D01*
X167530682Y-106199508D01*
X167530683Y-106199508D01*
X167471083Y-106193101D01*
X167471081Y-106193100D01*
X167471073Y-106193100D01*
X167471064Y-106193100D01*
X165675329Y-106193100D01*
X165675323Y-106193101D01*
X165615716Y-106199508D01*
X165480871Y-106249802D01*
X165480868Y-106249804D01*
X165370824Y-106332183D01*
X165305359Y-106356600D01*
X165237086Y-106341748D01*
X165208832Y-106320597D01*
X160513916Y-101625681D01*
X160480431Y-101564358D01*
X160485415Y-101494666D01*
X160527287Y-101438733D01*
X160592751Y-101414316D01*
X160601597Y-101414000D01*
X160636344Y-101414000D01*
X160636345Y-101413999D01*
X160790997Y-101383237D01*
X160936679Y-101322894D01*
X161067789Y-101235289D01*
X161171521Y-101131556D01*
X161232842Y-101098073D01*
X161302534Y-101103057D01*
X161358468Y-101144928D01*
X161369965Y-101175753D01*
X161389536Y-101199600D01*
X162192412Y-101199600D01*
X162175195Y-101209540D01*
X162119340Y-101265395D01*
X162079844Y-101333804D01*
X162059400Y-101410104D01*
X162059400Y-101489096D01*
X162079844Y-101565396D01*
X162119340Y-101633805D01*
X162175195Y-101689660D01*
X162192412Y-101699600D01*
X161389538Y-101699600D01*
X161397830Y-101741290D01*
X161397830Y-101741292D01*
X161473207Y-101923271D01*
X161473214Y-101923284D01*
X161582648Y-102087062D01*
X161582651Y-102087066D01*
X161721933Y-102226348D01*
X161721937Y-102226351D01*
X161885715Y-102335785D01*
X161885728Y-102335792D01*
X162067706Y-102411169D01*
X162067718Y-102411172D01*
X162260904Y-102449599D01*
X162260908Y-102449600D01*
X162659400Y-102449600D01*
X162659400Y-101749600D01*
X163159400Y-101749600D01*
X163159400Y-102449600D01*
X163557892Y-102449600D01*
X163557895Y-102449599D01*
X163751081Y-102411172D01*
X163751093Y-102411169D01*
X163933071Y-102335792D01*
X163933084Y-102335785D01*
X164096862Y-102226351D01*
X164096866Y-102226348D01*
X164236148Y-102087066D01*
X164236151Y-102087062D01*
X164345585Y-101923284D01*
X164345592Y-101923271D01*
X164420969Y-101741292D01*
X164420969Y-101741290D01*
X164429262Y-101699600D01*
X163626388Y-101699600D01*
X163643605Y-101689660D01*
X163699460Y-101633805D01*
X163738956Y-101565396D01*
X163759400Y-101489096D01*
X163759400Y-101410104D01*
X163738956Y-101333804D01*
X163699460Y-101265395D01*
X163643605Y-101209540D01*
X163626388Y-101199600D01*
X164429262Y-101199600D01*
X165719538Y-101199600D01*
X166522412Y-101199600D01*
X166505195Y-101209540D01*
X166449340Y-101265395D01*
X166409844Y-101333804D01*
X166389400Y-101410104D01*
X166389400Y-101489096D01*
X166409844Y-101565396D01*
X166449340Y-101633805D01*
X166505195Y-101689660D01*
X166522412Y-101699600D01*
X165719538Y-101699600D01*
X165727830Y-101741290D01*
X165727830Y-101741292D01*
X165803207Y-101923271D01*
X165803214Y-101923284D01*
X165912648Y-102087062D01*
X165912651Y-102087066D01*
X166051933Y-102226348D01*
X166051937Y-102226351D01*
X166215715Y-102335785D01*
X166215728Y-102335792D01*
X166397706Y-102411169D01*
X166397718Y-102411172D01*
X166590904Y-102449599D01*
X166590908Y-102449600D01*
X166839400Y-102449600D01*
X166839400Y-101749600D01*
X167339400Y-101749600D01*
X167339400Y-102449600D01*
X167587892Y-102449600D01*
X167587895Y-102449599D01*
X167781081Y-102411172D01*
X167781093Y-102411169D01*
X167963071Y-102335792D01*
X167963084Y-102335785D01*
X168126862Y-102226351D01*
X168126866Y-102226348D01*
X168266148Y-102087066D01*
X168266151Y-102087062D01*
X168375585Y-101923284D01*
X168375592Y-101923271D01*
X168450969Y-101741292D01*
X168450969Y-101741290D01*
X168459262Y-101699600D01*
X167656388Y-101699600D01*
X167673605Y-101689660D01*
X167729460Y-101633805D01*
X167768956Y-101565396D01*
X167789400Y-101489096D01*
X167789400Y-101410104D01*
X167768956Y-101333804D01*
X167729460Y-101265395D01*
X167673605Y-101209540D01*
X167656388Y-101199600D01*
X168459262Y-101199600D01*
X168450969Y-101157909D01*
X168450969Y-101157907D01*
X168375592Y-100975928D01*
X168375585Y-100975915D01*
X168266151Y-100812137D01*
X168266148Y-100812133D01*
X168126866Y-100672851D01*
X168126862Y-100672848D01*
X167963084Y-100563414D01*
X167963071Y-100563407D01*
X167781093Y-100488030D01*
X167781081Y-100488027D01*
X167587895Y-100449600D01*
X167339400Y-100449600D01*
X167339400Y-101149600D01*
X166839400Y-101149600D01*
X166839400Y-100449600D01*
X166590904Y-100449600D01*
X166397718Y-100488027D01*
X166397706Y-100488030D01*
X166215728Y-100563407D01*
X166215715Y-100563414D01*
X166051937Y-100672848D01*
X166051933Y-100672851D01*
X165912651Y-100812133D01*
X165912648Y-100812137D01*
X165803214Y-100975915D01*
X165803207Y-100975928D01*
X165727830Y-101157907D01*
X165727830Y-101157909D01*
X165719538Y-101199600D01*
X164429262Y-101199600D01*
X164420969Y-101157909D01*
X164420969Y-101157907D01*
X164345592Y-100975928D01*
X164345585Y-100975915D01*
X164236151Y-100812137D01*
X164236148Y-100812133D01*
X164096866Y-100672851D01*
X164096862Y-100672848D01*
X163933084Y-100563414D01*
X163933075Y-100563409D01*
X163865200Y-100535295D01*
X163810797Y-100491454D01*
X163788732Y-100425160D01*
X163806011Y-100357461D01*
X163817346Y-100342870D01*
X163816955Y-100342570D01*
X163821897Y-100336128D01*
X163821902Y-100336124D01*
X163889769Y-100218575D01*
X163924900Y-100087467D01*
X163924900Y-99951733D01*
X163889769Y-99820625D01*
X163872439Y-99790609D01*
X163821904Y-99703079D01*
X163821899Y-99703073D01*
X163725926Y-99607100D01*
X163725920Y-99607095D01*
X163608378Y-99539232D01*
X163608379Y-99539232D01*
X163592884Y-99535080D01*
X163477267Y-99504100D01*
X163341533Y-99504100D01*
X163225915Y-99535080D01*
X163210421Y-99539232D01*
X163092879Y-99607095D01*
X163092873Y-99607100D01*
X162996900Y-99703073D01*
X162996895Y-99703079D01*
X162929032Y-99820621D01*
X162929031Y-99820625D01*
X162893900Y-99951733D01*
X162893900Y-100087467D01*
X162902839Y-100120827D01*
X162929032Y-100218578D01*
X162996895Y-100336120D01*
X162996897Y-100336122D01*
X162996898Y-100336124D01*
X163092876Y-100432102D01*
X163092877Y-100432103D01*
X163092879Y-100432104D01*
X163097398Y-100434713D01*
X163145614Y-100485279D01*
X163159400Y-100542101D01*
X163159400Y-101149600D01*
X162659400Y-101149600D01*
X162659400Y-100449600D01*
X162260904Y-100449600D01*
X162067718Y-100488027D01*
X162067706Y-100488030D01*
X161885728Y-100563407D01*
X161885715Y-100563414D01*
X161721937Y-100672848D01*
X161721933Y-100672851D01*
X161582651Y-100812133D01*
X161582646Y-100812139D01*
X161575179Y-100823314D01*
X161521564Y-100868116D01*
X161452238Y-100876819D01*
X161389213Y-100846661D01*
X161352497Y-100787215D01*
X161350464Y-100730227D01*
X161358000Y-100692342D01*
X161358000Y-100534658D01*
X161358000Y-100534655D01*
X161357999Y-100534653D01*
X161348178Y-100485279D01*
X161327237Y-100380003D01*
X161303321Y-100322264D01*
X161266897Y-100234327D01*
X161266890Y-100234314D01*
X161179289Y-100103211D01*
X161179286Y-100103207D01*
X161067792Y-99991713D01*
X161067788Y-99991710D01*
X160936685Y-99904109D01*
X160936672Y-99904102D01*
X160791001Y-99843764D01*
X160790989Y-99843761D01*
X160636345Y-99813000D01*
X160636342Y-99813000D01*
X160478658Y-99813000D01*
X160478655Y-99813000D01*
X160324010Y-99843761D01*
X160323998Y-99843764D01*
X160178327Y-99904102D01*
X160178314Y-99904109D01*
X160046625Y-99992102D01*
X160028578Y-99997752D01*
X160012669Y-100007977D01*
X159981707Y-100012428D01*
X159979947Y-100012980D01*
X159977734Y-100013000D01*
X159841598Y-100013000D01*
X159774559Y-99993315D01*
X159753917Y-99976681D01*
X156592819Y-96815583D01*
X156559334Y-96754260D01*
X156556500Y-96727902D01*
X156556500Y-94916945D01*
X156556500Y-94916943D01*
X156515577Y-94764216D01*
X156490916Y-94721501D01*
X156436524Y-94627290D01*
X156436521Y-94627286D01*
X156436520Y-94627284D01*
X156324716Y-94515480D01*
X156324715Y-94515479D01*
X156320385Y-94511149D01*
X156320374Y-94511139D01*
X155935590Y-94126355D01*
X155935588Y-94126352D01*
X155816717Y-94007481D01*
X155816716Y-94007480D01*
X155729904Y-93957360D01*
X155729904Y-93957359D01*
X155729900Y-93957358D01*
X155679785Y-93928423D01*
X155527057Y-93887499D01*
X155368943Y-93887499D01*
X155361347Y-93887499D01*
X155361331Y-93887500D01*
X153995766Y-93887500D01*
X153928727Y-93867815D01*
X153926875Y-93866602D01*
X153795185Y-93778609D01*
X153795172Y-93778602D01*
X153649501Y-93718264D01*
X153649489Y-93718261D01*
X153494845Y-93687500D01*
X153494842Y-93687500D01*
X153337158Y-93687500D01*
X153337155Y-93687500D01*
X153182510Y-93718261D01*
X153182498Y-93718264D01*
X153036827Y-93778602D01*
X153036814Y-93778609D01*
X152905711Y-93866210D01*
X152905707Y-93866213D01*
X152794213Y-93977707D01*
X152794210Y-93977711D01*
X152706609Y-94108814D01*
X152706602Y-94108827D01*
X152646264Y-94254498D01*
X152646261Y-94254510D01*
X152615500Y-94409153D01*
X149444500Y-94409153D01*
X149444500Y-92559600D01*
X161389538Y-92559600D01*
X162192412Y-92559600D01*
X162175195Y-92569540D01*
X162119340Y-92625395D01*
X162079844Y-92693804D01*
X162059400Y-92770104D01*
X162059400Y-92849096D01*
X162079844Y-92925396D01*
X162119340Y-92993805D01*
X162175195Y-93049660D01*
X162192412Y-93059600D01*
X161389538Y-93059600D01*
X161397830Y-93101290D01*
X161397830Y-93101292D01*
X161473207Y-93283271D01*
X161473214Y-93283284D01*
X161582648Y-93447062D01*
X161582651Y-93447066D01*
X161721933Y-93586348D01*
X161721937Y-93586351D01*
X161885715Y-93695785D01*
X161885728Y-93695792D01*
X162067706Y-93771169D01*
X162067718Y-93771172D01*
X162260904Y-93809599D01*
X162260908Y-93809600D01*
X162659400Y-93809600D01*
X162659400Y-93109600D01*
X163159400Y-93109600D01*
X163159400Y-93717099D01*
X163139715Y-93784138D01*
X163097402Y-93824484D01*
X163092876Y-93827098D01*
X163092873Y-93827100D01*
X162996900Y-93923073D01*
X162996895Y-93923079D01*
X162929032Y-94040621D01*
X162929031Y-94040625D01*
X162893900Y-94171733D01*
X162893900Y-94307467D01*
X162921149Y-94409158D01*
X162929032Y-94438578D01*
X162996895Y-94556120D01*
X162996897Y-94556122D01*
X162996898Y-94556124D01*
X163092876Y-94652102D01*
X163092877Y-94652103D01*
X163092879Y-94652104D01*
X163210421Y-94719967D01*
X163210422Y-94719967D01*
X163210425Y-94719969D01*
X163341533Y-94755100D01*
X163341535Y-94755100D01*
X163477265Y-94755100D01*
X163477267Y-94755100D01*
X163608375Y-94719969D01*
X163725924Y-94652102D01*
X163821902Y-94556124D01*
X163889769Y-94438575D01*
X163924900Y-94307467D01*
X163924900Y-94171733D01*
X163889769Y-94040625D01*
X163870633Y-94007481D01*
X163821904Y-93923079D01*
X163816955Y-93916630D01*
X163818942Y-93915104D01*
X163791487Y-93864823D01*
X163796471Y-93795131D01*
X163838343Y-93739198D01*
X163865202Y-93723903D01*
X163933077Y-93695789D01*
X163933084Y-93695785D01*
X164096862Y-93586351D01*
X164096866Y-93586348D01*
X164236148Y-93447066D01*
X164236151Y-93447062D01*
X164345585Y-93283284D01*
X164345592Y-93283271D01*
X164420969Y-93101292D01*
X164420969Y-93101290D01*
X164429262Y-93059600D01*
X163626388Y-93059600D01*
X163643605Y-93049660D01*
X163699460Y-92993805D01*
X163738956Y-92925396D01*
X163759400Y-92849096D01*
X163759400Y-92770104D01*
X163738956Y-92693804D01*
X163699460Y-92625395D01*
X163643605Y-92569540D01*
X163626388Y-92559600D01*
X164429262Y-92559600D01*
X165719538Y-92559600D01*
X166522412Y-92559600D01*
X166505195Y-92569540D01*
X166449340Y-92625395D01*
X166409844Y-92693804D01*
X166389400Y-92770104D01*
X166389400Y-92849096D01*
X166409844Y-92925396D01*
X166449340Y-92993805D01*
X166505195Y-93049660D01*
X166522412Y-93059600D01*
X165719538Y-93059600D01*
X165727830Y-93101290D01*
X165727830Y-93101292D01*
X165803207Y-93283271D01*
X165803214Y-93283284D01*
X165912648Y-93447062D01*
X165912651Y-93447066D01*
X166051933Y-93586348D01*
X166051937Y-93586351D01*
X166215715Y-93695785D01*
X166215728Y-93695792D01*
X166397706Y-93771169D01*
X166397718Y-93771172D01*
X166590904Y-93809599D01*
X166590908Y-93809600D01*
X166839400Y-93809600D01*
X166839400Y-93109600D01*
X167339400Y-93109600D01*
X167339400Y-93809600D01*
X167587892Y-93809600D01*
X167587895Y-93809599D01*
X167781081Y-93771172D01*
X167781093Y-93771169D01*
X167963071Y-93695792D01*
X167963084Y-93695785D01*
X168126862Y-93586351D01*
X168126866Y-93586348D01*
X168266148Y-93447066D01*
X168266151Y-93447062D01*
X168375585Y-93283284D01*
X168375592Y-93283271D01*
X168450969Y-93101292D01*
X168450969Y-93101290D01*
X168459262Y-93059600D01*
X167656388Y-93059600D01*
X167673605Y-93049660D01*
X167729460Y-92993805D01*
X167768956Y-92925396D01*
X167789400Y-92849096D01*
X167789400Y-92770104D01*
X167768956Y-92693804D01*
X167729460Y-92625395D01*
X167673605Y-92569540D01*
X167656388Y-92559600D01*
X168459262Y-92559600D01*
X168450969Y-92517909D01*
X168450969Y-92517907D01*
X168375592Y-92335928D01*
X168375585Y-92335915D01*
X168266151Y-92172137D01*
X168266148Y-92172133D01*
X168126866Y-92032851D01*
X168126862Y-92032848D01*
X167963084Y-91923414D01*
X167963071Y-91923407D01*
X167781093Y-91848030D01*
X167781081Y-91848027D01*
X167587895Y-91809600D01*
X167339400Y-91809600D01*
X167339400Y-92509600D01*
X166839400Y-92509600D01*
X166839400Y-91809600D01*
X166590904Y-91809600D01*
X166397718Y-91848027D01*
X166397706Y-91848030D01*
X166215728Y-91923407D01*
X166215715Y-91923414D01*
X166051937Y-92032848D01*
X166051933Y-92032851D01*
X165912651Y-92172133D01*
X165912648Y-92172137D01*
X165803214Y-92335915D01*
X165803207Y-92335928D01*
X165727830Y-92517907D01*
X165727830Y-92517909D01*
X165719538Y-92559600D01*
X164429262Y-92559600D01*
X164420969Y-92517909D01*
X164420969Y-92517907D01*
X164345592Y-92335928D01*
X164345585Y-92335915D01*
X164236151Y-92172137D01*
X164236148Y-92172133D01*
X164096866Y-92032851D01*
X164096862Y-92032848D01*
X163933084Y-91923414D01*
X163933071Y-91923407D01*
X163751093Y-91848030D01*
X163751081Y-91848027D01*
X163557895Y-91809600D01*
X163159400Y-91809600D01*
X163159400Y-92509600D01*
X162659400Y-92509600D01*
X162659400Y-91809600D01*
X162260904Y-91809600D01*
X162067718Y-91848027D01*
X162067706Y-91848030D01*
X161885728Y-91923407D01*
X161885715Y-91923414D01*
X161721937Y-92032848D01*
X161721933Y-92032851D01*
X161582651Y-92172133D01*
X161582648Y-92172137D01*
X161473214Y-92335915D01*
X161473207Y-92335928D01*
X161397830Y-92517907D01*
X161397830Y-92517909D01*
X161389538Y-92559600D01*
X149444500Y-92559600D01*
X149444500Y-89917117D01*
X149444501Y-89917104D01*
X149444501Y-89749001D01*
X149444501Y-89749000D01*
X149403577Y-89596273D01*
X149369249Y-89536814D01*
X149324524Y-89459347D01*
X149324518Y-89459339D01*
X146371533Y-86506355D01*
X146371531Y-86506352D01*
X146252660Y-86387481D01*
X146252652Y-86387475D01*
X146119331Y-86310503D01*
X146119326Y-86310498D01*
X146119326Y-86310500D01*
X146115731Y-86308424D01*
X146115728Y-86308423D01*
X146111664Y-86307334D01*
X145963000Y-86267499D01*
X145804886Y-86267499D01*
X145797290Y-86267499D01*
X145797274Y-86267500D01*
X132614823Y-86267500D01*
X132547784Y-86247815D01*
X132502029Y-86195011D01*
X132492085Y-86125853D01*
X132511721Y-86074609D01*
X132535390Y-86039185D01*
X132535390Y-86039184D01*
X132535394Y-86039179D01*
X132595737Y-85893497D01*
X132626500Y-85738842D01*
X132626500Y-85581158D01*
X132626500Y-85581155D01*
X132626499Y-85581153D01*
X132595738Y-85426510D01*
X132595737Y-85426503D01*
X132595735Y-85426498D01*
X132535397Y-85280827D01*
X132535390Y-85280814D01*
X132447789Y-85149711D01*
X132447786Y-85149707D01*
X132336292Y-85038213D01*
X132336288Y-85038210D01*
X132205185Y-84950609D01*
X132205172Y-84950602D01*
X132059501Y-84890264D01*
X132059489Y-84890261D01*
X131904845Y-84859500D01*
X131904842Y-84859500D01*
X131747158Y-84859500D01*
X131747155Y-84859500D01*
X131592510Y-84890261D01*
X131592498Y-84890264D01*
X131446827Y-84950602D01*
X131446814Y-84950609D01*
X131315711Y-85038210D01*
X131315707Y-85038213D01*
X131204213Y-85149707D01*
X131204210Y-85149711D01*
X131116609Y-85280814D01*
X131116602Y-85280827D01*
X131056264Y-85426498D01*
X131056261Y-85426510D01*
X131025500Y-85581153D01*
X131025500Y-85738846D01*
X131056261Y-85893489D01*
X131056264Y-85893501D01*
X131116602Y-86039172D01*
X131116609Y-86039185D01*
X131204210Y-86170288D01*
X131204213Y-86170292D01*
X131210240Y-86176319D01*
X131243725Y-86237642D01*
X131238741Y-86307334D01*
X131210240Y-86351681D01*
X131204213Y-86357707D01*
X131204210Y-86357711D01*
X131116609Y-86488814D01*
X131116602Y-86488827D01*
X131056264Y-86634498D01*
X131056261Y-86634510D01*
X131025500Y-86789153D01*
X131025500Y-86946846D01*
X131056261Y-87101489D01*
X131056264Y-87101501D01*
X131116602Y-87247172D01*
X131116609Y-87247185D01*
X131204210Y-87378288D01*
X131204213Y-87378292D01*
X131315707Y-87489786D01*
X131371248Y-87526898D01*
X131416052Y-87580511D01*
X131424759Y-87649836D01*
X131394604Y-87712863D01*
X131371248Y-87733102D01*
X131315707Y-87770213D01*
X131204213Y-87881707D01*
X131204210Y-87881711D01*
X131116609Y-88012814D01*
X131116602Y-88012827D01*
X131056264Y-88158498D01*
X131056261Y-88158510D01*
X131025500Y-88313153D01*
X131025500Y-88470846D01*
X131056261Y-88625489D01*
X131056264Y-88625501D01*
X131116602Y-88771172D01*
X131116609Y-88771185D01*
X131204602Y-88902874D01*
X131210252Y-88920920D01*
X131220477Y-88936830D01*
X131224928Y-88967789D01*
X131225480Y-88969551D01*
X131225500Y-88971765D01*
X131225500Y-89036072D01*
X131205815Y-89103111D01*
X131153011Y-89148866D01*
X131083853Y-89158810D01*
X131054048Y-89150633D01*
X131043501Y-89146264D01*
X131043489Y-89146261D01*
X130888845Y-89115500D01*
X130888842Y-89115500D01*
X130731158Y-89115500D01*
X130731155Y-89115500D01*
X130576510Y-89146261D01*
X130576498Y-89146264D01*
X130430827Y-89206602D01*
X130430814Y-89206609D01*
X130299711Y-89294210D01*
X130299707Y-89294213D01*
X130188213Y-89405707D01*
X130188210Y-89405711D01*
X130100609Y-89536814D01*
X130100602Y-89536827D01*
X130040264Y-89682498D01*
X130040261Y-89682510D01*
X130009500Y-89837153D01*
X130009500Y-89994846D01*
X130040261Y-90149489D01*
X130040264Y-90149501D01*
X130100602Y-90295172D01*
X130100609Y-90295185D01*
X130188602Y-90426874D01*
X130209480Y-90493551D01*
X130209500Y-90495765D01*
X130209500Y-95665902D01*
X130189815Y-95732941D01*
X130173181Y-95753583D01*
X127978339Y-97948425D01*
X127917016Y-97981910D01*
X127914850Y-97982361D01*
X127759508Y-98013261D01*
X127759498Y-98013264D01*
X127613827Y-98073602D01*
X127613814Y-98073609D01*
X127482711Y-98161210D01*
X127482707Y-98161213D01*
X127371213Y-98272707D01*
X127371210Y-98272711D01*
X127283609Y-98403814D01*
X127283602Y-98403827D01*
X127223264Y-98549498D01*
X127223261Y-98549510D01*
X127192500Y-98704153D01*
X97513494Y-98704153D01*
X97513494Y-91361153D01*
X127215500Y-91361153D01*
X127215500Y-91518846D01*
X127246261Y-91673489D01*
X127246264Y-91673501D01*
X127306602Y-91819172D01*
X127306609Y-91819185D01*
X127394210Y-91950288D01*
X127394213Y-91950292D01*
X127505710Y-92061789D01*
X127636815Y-92149390D01*
X127636821Y-92149394D01*
X127660475Y-92159191D01*
X127700703Y-92186071D01*
X128191181Y-92676548D01*
X128224666Y-92737871D01*
X128227500Y-92764229D01*
X128227500Y-94437396D01*
X128218062Y-94484844D01*
X128208263Y-94508503D01*
X128208262Y-94508506D01*
X128208260Y-94508511D01*
X128177500Y-94663153D01*
X128177500Y-94820846D01*
X128208261Y-94975489D01*
X128208264Y-94975501D01*
X128268602Y-95121172D01*
X128268609Y-95121185D01*
X128356210Y-95252288D01*
X128356213Y-95252292D01*
X128467707Y-95363786D01*
X128467711Y-95363789D01*
X128598814Y-95451390D01*
X128598827Y-95451397D01*
X128744498Y-95511735D01*
X128744503Y-95511737D01*
X128899153Y-95542499D01*
X128899156Y-95542500D01*
X128899158Y-95542500D01*
X129056844Y-95542500D01*
X129056845Y-95542499D01*
X129211497Y-95511737D01*
X129357179Y-95451394D01*
X129488289Y-95363789D01*
X129599789Y-95252289D01*
X129687394Y-95121179D01*
X129747737Y-94975497D01*
X129778500Y-94820842D01*
X129778500Y-94663158D01*
X129778500Y-94663155D01*
X129778499Y-94663153D01*
X129747739Y-94508511D01*
X129747738Y-94508508D01*
X129747737Y-94508503D01*
X129737937Y-94484844D01*
X129728500Y-94437396D01*
X129728500Y-92328079D01*
X129699659Y-92183092D01*
X129699658Y-92183091D01*
X129699658Y-92183087D01*
X129649415Y-92061789D01*
X129643087Y-92046511D01*
X129643080Y-92046498D01*
X129560952Y-91923585D01*
X129560774Y-91923407D01*
X129456416Y-91819049D01*
X128762071Y-91124703D01*
X128735191Y-91084475D01*
X128725394Y-91060821D01*
X128725389Y-91060814D01*
X128637789Y-90929710D01*
X128526292Y-90818213D01*
X128526288Y-90818210D01*
X128395185Y-90730609D01*
X128395172Y-90730602D01*
X128249501Y-90670264D01*
X128249489Y-90670261D01*
X128094845Y-90639500D01*
X128094842Y-90639500D01*
X127937158Y-90639500D01*
X127937155Y-90639500D01*
X127782510Y-90670261D01*
X127782498Y-90670264D01*
X127636827Y-90730602D01*
X127636814Y-90730609D01*
X127505711Y-90818210D01*
X127505707Y-90818213D01*
X127394213Y-90929707D01*
X127394210Y-90929711D01*
X127306609Y-91060814D01*
X127306602Y-91060827D01*
X127246264Y-91206498D01*
X127246261Y-91206510D01*
X127215500Y-91361153D01*
X97513494Y-91361153D01*
X97513494Y-83671153D01*
X108199500Y-83671153D01*
X108199500Y-83828846D01*
X108230261Y-83983489D01*
X108230264Y-83983501D01*
X108290602Y-84129172D01*
X108290609Y-84129185D01*
X108378210Y-84260288D01*
X108378213Y-84260292D01*
X108489707Y-84371786D01*
X108489711Y-84371789D01*
X108620814Y-84459390D01*
X108620827Y-84459397D01*
X108731907Y-84505407D01*
X108766503Y-84519737D01*
X108921153Y-84550499D01*
X108921156Y-84550500D01*
X108921158Y-84550500D01*
X109078844Y-84550500D01*
X109078845Y-84550499D01*
X109233497Y-84519737D01*
X109379179Y-84459394D01*
X109510289Y-84371789D01*
X109621789Y-84260289D01*
X109709394Y-84129179D01*
X109769737Y-83983497D01*
X109800500Y-83828842D01*
X109800500Y-83671158D01*
X109800500Y-83671155D01*
X109800499Y-83671153D01*
X109769738Y-83516510D01*
X109769737Y-83516503D01*
X109769735Y-83516498D01*
X109709397Y-83370827D01*
X109709390Y-83370814D01*
X109621789Y-83239711D01*
X109621786Y-83239707D01*
X109510292Y-83128213D01*
X109510288Y-83128210D01*
X109379185Y-83040609D01*
X109379172Y-83040602D01*
X109233501Y-82980264D01*
X109233489Y-82980261D01*
X109078845Y-82949500D01*
X109078842Y-82949500D01*
X108921158Y-82949500D01*
X108921155Y-82949500D01*
X108766510Y-82980261D01*
X108766498Y-82980264D01*
X108620827Y-83040602D01*
X108620814Y-83040609D01*
X108489711Y-83128210D01*
X108489707Y-83128213D01*
X108378213Y-83239707D01*
X108378210Y-83239711D01*
X108290609Y-83370814D01*
X108290602Y-83370827D01*
X108230264Y-83516498D01*
X108230261Y-83516510D01*
X108199500Y-83671153D01*
X97513494Y-83671153D01*
X97513494Y-81169778D01*
X107565500Y-81169778D01*
X107565500Y-81390221D01*
X107599985Y-81607952D01*
X107668103Y-81817603D01*
X107668104Y-81817606D01*
X107736122Y-81951096D01*
X107763129Y-82004100D01*
X107768187Y-82014025D01*
X107897752Y-82192358D01*
X107897756Y-82192363D01*
X108053636Y-82348243D01*
X108053641Y-82348247D01*
X108167632Y-82431065D01*
X108231978Y-82477815D01*
X108360375Y-82543237D01*
X108428393Y-82577895D01*
X108428396Y-82577896D01*
X108533221Y-82611955D01*
X108638049Y-82646015D01*
X108855778Y-82680500D01*
X108855779Y-82680500D01*
X109076221Y-82680500D01*
X109076222Y-82680500D01*
X109293951Y-82646015D01*
X109503606Y-82577895D01*
X109700022Y-82477815D01*
X109878365Y-82348242D01*
X110034242Y-82192365D01*
X110135991Y-82052317D01*
X110191320Y-82009653D01*
X110260933Y-82003674D01*
X110322729Y-82036279D01*
X110336628Y-82052319D01*
X110354932Y-82077513D01*
X111002630Y-81429815D01*
X111016785Y-81482640D01*
X111085901Y-81602353D01*
X111183647Y-81700099D01*
X111303360Y-81769215D01*
X111356183Y-81783369D01*
X110708485Y-82431065D01*
X110708485Y-82431066D01*
X110772243Y-82477388D01*
X110968589Y-82577432D01*
X111178164Y-82645526D01*
X111395819Y-82680000D01*
X111616181Y-82680000D01*
X111833835Y-82645526D01*
X112043410Y-82577432D01*
X112239760Y-82477386D01*
X112303513Y-82431066D01*
X112303514Y-82431066D01*
X111655816Y-81783369D01*
X111708640Y-81769215D01*
X111828353Y-81700099D01*
X111926099Y-81602353D01*
X111995215Y-81482640D01*
X112009369Y-81429817D01*
X112657066Y-82077514D01*
X112657066Y-82077513D01*
X112675372Y-82052319D01*
X112730701Y-82009653D01*
X112800315Y-82003674D01*
X112862110Y-82036279D01*
X112876008Y-82052319D01*
X112977752Y-82192358D01*
X112977756Y-82192363D01*
X113133636Y-82348243D01*
X113133641Y-82348247D01*
X113247632Y-82431065D01*
X113311978Y-82477815D01*
X113440375Y-82543237D01*
X113508393Y-82577895D01*
X113508396Y-82577896D01*
X113613221Y-82611955D01*
X113718049Y-82646015D01*
X113935778Y-82680500D01*
X113935779Y-82680500D01*
X114156221Y-82680500D01*
X114156222Y-82680500D01*
X114373951Y-82646015D01*
X114583606Y-82577895D01*
X114780022Y-82477815D01*
X114958365Y-82348242D01*
X115114242Y-82192365D01*
X115124804Y-82177826D01*
X115215682Y-82052745D01*
X115271011Y-82010079D01*
X115340625Y-82004100D01*
X115402420Y-82036705D01*
X115416318Y-82052745D01*
X115517752Y-82192358D01*
X115517756Y-82192363D01*
X115673636Y-82348243D01*
X115673641Y-82348247D01*
X115787632Y-82431065D01*
X115851978Y-82477815D01*
X115980375Y-82543237D01*
X116048393Y-82577895D01*
X116048396Y-82577896D01*
X116153221Y-82611955D01*
X116258049Y-82646015D01*
X116475778Y-82680500D01*
X116475779Y-82680500D01*
X116696221Y-82680500D01*
X116696222Y-82680500D01*
X116913951Y-82646015D01*
X117123606Y-82577895D01*
X117320022Y-82477815D01*
X117498365Y-82348242D01*
X117654242Y-82192365D01*
X117783815Y-82014022D01*
X117883895Y-81817606D01*
X117952015Y-81607951D01*
X117986500Y-81390222D01*
X117986500Y-81169778D01*
X117952015Y-80952049D01*
X117883895Y-80742394D01*
X117883895Y-80742393D01*
X117849237Y-80674375D01*
X117783815Y-80545978D01*
X117737685Y-80482485D01*
X117654247Y-80367641D01*
X117654243Y-80367636D01*
X117498363Y-80211756D01*
X117498358Y-80211752D01*
X117320025Y-80082187D01*
X117320024Y-80082186D01*
X117320022Y-80082185D01*
X117257096Y-80050122D01*
X117123606Y-79982104D01*
X117123603Y-79982103D01*
X116913952Y-79913985D01*
X116805086Y-79896742D01*
X116696222Y-79879500D01*
X116475778Y-79879500D01*
X116403201Y-79890995D01*
X116258047Y-79913985D01*
X116048396Y-79982103D01*
X116048393Y-79982104D01*
X115851974Y-80082187D01*
X115673641Y-80211752D01*
X115673636Y-80211756D01*
X115517756Y-80367636D01*
X115517752Y-80367641D01*
X115416318Y-80507254D01*
X115360988Y-80549920D01*
X115291375Y-80555899D01*
X115229580Y-80523293D01*
X115215682Y-80507254D01*
X115114247Y-80367641D01*
X115114243Y-80367636D01*
X114958363Y-80211756D01*
X114958358Y-80211752D01*
X114780025Y-80082187D01*
X114780024Y-80082186D01*
X114780022Y-80082185D01*
X114717096Y-80050122D01*
X114583606Y-79982104D01*
X114583603Y-79982103D01*
X114373952Y-79913985D01*
X114265086Y-79896742D01*
X114156222Y-79879500D01*
X113935778Y-79879500D01*
X113863201Y-79890995D01*
X113718047Y-79913985D01*
X113508396Y-79982103D01*
X113508393Y-79982104D01*
X113311974Y-80082187D01*
X113133641Y-80211752D01*
X113133636Y-80211756D01*
X112977756Y-80367636D01*
X112876008Y-80507681D01*
X112820678Y-80550346D01*
X112751065Y-80556325D01*
X112689270Y-80523719D01*
X112675371Y-80507680D01*
X112657066Y-80482485D01*
X112657065Y-80482485D01*
X112009369Y-81130182D01*
X111995215Y-81077360D01*
X111926099Y-80957647D01*
X111828353Y-80859901D01*
X111708640Y-80790785D01*
X111655814Y-80776630D01*
X112303513Y-80128932D01*
X112239756Y-80082611D01*
X112043410Y-79982567D01*
X111833835Y-79914473D01*
X111616181Y-79880000D01*
X111395819Y-79880000D01*
X111178164Y-79914473D01*
X110968589Y-79982567D01*
X110772233Y-80082616D01*
X110708485Y-80128931D01*
X110708485Y-80128932D01*
X111356183Y-80776630D01*
X111303360Y-80790785D01*
X111183647Y-80859901D01*
X111085901Y-80957647D01*
X111016785Y-81077360D01*
X111002630Y-81130183D01*
X110354932Y-80482485D01*
X110354930Y-80482485D01*
X110336626Y-80507679D01*
X110281296Y-80550345D01*
X110211683Y-80556324D01*
X110149888Y-80523718D01*
X110135990Y-80507679D01*
X110034247Y-80367640D01*
X109878363Y-80211756D01*
X109878358Y-80211752D01*
X109700025Y-80082187D01*
X109700024Y-80082186D01*
X109700022Y-80082185D01*
X109637096Y-80050122D01*
X109503606Y-79982104D01*
X109503603Y-79982103D01*
X109293952Y-79913985D01*
X109185086Y-79896742D01*
X109076222Y-79879500D01*
X108855778Y-79879500D01*
X108783201Y-79890995D01*
X108638047Y-79913985D01*
X108428396Y-79982103D01*
X108428393Y-79982104D01*
X108231974Y-80082187D01*
X108053641Y-80211752D01*
X108053636Y-80211756D01*
X107897756Y-80367636D01*
X107897752Y-80367641D01*
X107768187Y-80545974D01*
X107668104Y-80742393D01*
X107668103Y-80742396D01*
X107599985Y-80952047D01*
X107565500Y-81169778D01*
X97513494Y-81169778D01*
X97513494Y-79241757D01*
X97515019Y-79222370D01*
X97525082Y-79158836D01*
X97537066Y-79121954D01*
X97561780Y-79073449D01*
X97584580Y-79042069D01*
X97623069Y-79003579D01*
X97654447Y-78980781D01*
X97702950Y-78956067D01*
X97739842Y-78944080D01*
X97787479Y-78936535D01*
X97803320Y-78934027D01*
X97822717Y-78932500D01*
X127784071Y-78932500D01*
X127853243Y-78932500D01*
X127872626Y-78934024D01*
G37*
%TD.AperFunction*%
%TD*%
M02*
