%TF.GenerationSoftware,KiCad,Pcbnew,9.0.6*%
%TF.CreationDate,2026-03-20T21:22:46-04:00*%
%TF.ProjectId,spotifyPlayerPcb,73706f74-6966-4795-906c-617965725063,rev?*%
%TF.SameCoordinates,Original*%
%TF.FileFunction,Copper,L1,Top*%
%TF.FilePolarity,Positive*%
%FSLAX46Y46*%
G04 Gerber Fmt 4.6, Leading zero omitted, Abs format (unit mm)*
G04 Created by KiCad (PCBNEW 9.0.6) date 2026-03-20 21:22:46*
%MOMM*%
%LPD*%
G01*
G04 APERTURE LIST*
G04 Aperture macros list*
%AMRoundRect*
0 Rectangle with rounded corners*
0 $1 Rounding radius*
0 $2 $3 $4 $5 $6 $7 $8 $9 X,Y pos of 4 corners*
0 Add a 4 corners polygon primitive as box body*
4,1,4,$2,$3,$4,$5,$6,$7,$8,$9,$2,$3,0*
0 Add four circle primitives for the rounded corners*
1,1,$1+$1,$2,$3*
1,1,$1+$1,$4,$5*
1,1,$1+$1,$6,$7*
1,1,$1+$1,$8,$9*
0 Add four rect primitives between the rounded corners*
20,1,$1+$1,$2,$3,$4,$5,0*
20,1,$1+$1,$4,$5,$6,$7,0*
20,1,$1+$1,$6,$7,$8,$9,0*
20,1,$1+$1,$8,$9,$2,$3,0*%
G04 Aperture macros list end*
%TA.AperFunction,Conductor*%
%ADD10C,0.200000*%
%TD*%
%TA.AperFunction,SMDPad,CuDef*%
%ADD11RoundRect,0.140000X0.140000X0.170000X-0.140000X0.170000X-0.140000X-0.170000X0.140000X-0.170000X0*%
%TD*%
%TA.AperFunction,ComponentPad*%
%ADD12C,2.250000*%
%TD*%
%TA.AperFunction,SMDPad,CuDef*%
%ADD13RoundRect,0.150000X0.512500X0.150000X-0.512500X0.150000X-0.512500X-0.150000X0.512500X-0.150000X0*%
%TD*%
%TA.AperFunction,SMDPad,CuDef*%
%ADD14RoundRect,0.140000X0.170000X-0.140000X0.170000X0.140000X-0.170000X0.140000X-0.170000X-0.140000X0*%
%TD*%
%TA.AperFunction,SMDPad,CuDef*%
%ADD15RoundRect,0.140000X-0.170000X0.140000X-0.170000X-0.140000X0.170000X-0.140000X0.170000X0.140000X0*%
%TD*%
%TA.AperFunction,SMDPad,CuDef*%
%ADD16RoundRect,0.140000X-0.140000X-0.170000X0.140000X-0.170000X0.140000X0.170000X-0.140000X0.170000X0*%
%TD*%
%TA.AperFunction,SMDPad,CuDef*%
%ADD17RoundRect,0.150000X0.425000X-0.150000X0.425000X0.150000X-0.425000X0.150000X-0.425000X-0.150000X0*%
%TD*%
%TA.AperFunction,SMDPad,CuDef*%
%ADD18RoundRect,0.075000X0.500000X-0.075000X0.500000X0.075000X-0.500000X0.075000X-0.500000X-0.075000X0*%
%TD*%
%TA.AperFunction,HeatsinkPad*%
%ADD19O,2.100000X1.000000*%
%TD*%
%TA.AperFunction,HeatsinkPad*%
%ADD20O,1.800000X1.000000*%
%TD*%
%TA.AperFunction,ComponentPad*%
%ADD21R,1.700000X1.700000*%
%TD*%
%TA.AperFunction,ComponentPad*%
%ADD22C,1.700000*%
%TD*%
%TA.AperFunction,SMDPad,CuDef*%
%ADD23R,0.900000X1.000000*%
%TD*%
%TA.AperFunction,SMDPad,CuDef*%
%ADD24RoundRect,0.375000X0.625000X0.375000X-0.625000X0.375000X-0.625000X-0.375000X0.625000X-0.375000X0*%
%TD*%
%TA.AperFunction,SMDPad,CuDef*%
%ADD25RoundRect,0.500000X0.500000X1.400000X-0.500000X1.400000X-0.500000X-1.400000X0.500000X-1.400000X0*%
%TD*%
%TA.AperFunction,SMDPad,CuDef*%
%ADD26RoundRect,0.220000X-0.220000X-0.255000X0.220000X-0.255000X0.220000X0.255000X-0.220000X0.255000X0*%
%TD*%
%TA.AperFunction,ComponentPad*%
%ADD27C,1.800000*%
%TD*%
%TA.AperFunction,SMDPad,CuDef*%
%ADD28R,1.500000X0.900000*%
%TD*%
%TA.AperFunction,HeatsinkPad*%
%ADD29C,0.600000*%
%TD*%
%TA.AperFunction,HeatsinkPad*%
%ADD30R,2.900000X2.900000*%
%TD*%
%TA.AperFunction,ViaPad*%
%ADD31C,0.600000*%
%TD*%
%TA.AperFunction,Conductor*%
%ADD32C,0.250000*%
%TD*%
%TA.AperFunction,Conductor*%
%ADD33C,0.500000*%
%TD*%
G04 APERTURE END LIST*
D10*
%TO.N,+3V3*%
X154500000Y-100500000D02*
X154500000Y-101000000D01*
X154000000Y-101250000D01*
X154000000Y-102500000D01*
X154000000Y-106000000D01*
X153500000Y-106500000D01*
X152500000Y-106500000D01*
X152000000Y-106000000D01*
X152000000Y-101200400D01*
X152000000Y-100500000D01*
X152500000Y-100000000D01*
X154000000Y-100000000D01*
X154500000Y-100500000D01*
%TA.AperFunction,Conductor*%
G36*
X154500000Y-100500000D02*
G01*
X154500000Y-101000000D01*
X154000000Y-101250000D01*
X154000000Y-102500000D01*
X154000000Y-106000000D01*
X153500000Y-106500000D01*
X152500000Y-106500000D01*
X152000000Y-106000000D01*
X152000000Y-101200400D01*
X152000000Y-100500000D01*
X152500000Y-100000000D01*
X154000000Y-100000000D01*
X154500000Y-100500000D01*
G37*
%TD.AperFunction*%
%TD*%
D11*
%TO.P,R4,1*%
%TO.N,+3V3*%
X129986000Y-99830000D03*
%TO.P,R4,2*%
%TO.N,STATE_BTN*%
X128986000Y-99830000D03*
%TD*%
D12*
%TO.P,SW1,1,1*%
%TO.N,PREV_BTN*%
X106426000Y-110282000D03*
%TO.P,SW1,2,2*%
%TO.N,GND*%
X102296000Y-113032000D03*
%TD*%
D11*
%TO.P,C3,1*%
%TO.N,+5V*%
X159250000Y-100584000D03*
%TO.P,C3,2*%
%TO.N,GND*%
X158250000Y-100584000D03*
%TD*%
D12*
%TO.P,SW5,1,1*%
%TO.N,NEXT_BTN*%
X139954000Y-110282000D03*
%TO.P,SW5,2,2*%
%TO.N,GND*%
X135824000Y-113032000D03*
%TD*%
%TO.P,SW3,1,1*%
%TO.N,STATE_BTN*%
X123190000Y-110282000D03*
%TO.P,SW3,2,2*%
%TO.N,GND*%
X119060000Y-113032000D03*
%TD*%
D13*
%TO.P,U1,1,I/O1*%
%TO.N,D-*%
X157093500Y-95438000D03*
%TO.P,U1,2,GND*%
%TO.N,GND*%
X157093500Y-94488000D03*
%TO.P,U1,3,I/O2*%
%TO.N,D+*%
X157093500Y-93538000D03*
%TO.P,U1,4,I/O2*%
%TO.N,USB+*%
X154818500Y-93538000D03*
%TO.P,U1,5,VBUS*%
%TO.N,+5V*%
X154818500Y-94488000D03*
%TO.P,U1,6,I/O1*%
%TO.N,USB-*%
X154818500Y-95438000D03*
%TD*%
D14*
%TO.P,R2,1*%
%TO.N,+3V3*%
X151130000Y-103154000D03*
%TO.P,R2,2*%
%TO.N,ESP_EN*%
X151130000Y-102154000D03*
%TD*%
D15*
%TO.P,R5,1*%
%TO.N,Net-(J1-CC1)*%
X160020000Y-98306000D03*
%TO.P,R5,2*%
%TO.N,GND*%
X160020000Y-99306000D03*
%TD*%
D14*
%TO.P,R3,1*%
%TO.N,Net-(J1-CC2)*%
X160020000Y-94226000D03*
%TO.P,R3,2*%
%TO.N,GND*%
X160020000Y-93226000D03*
%TD*%
D16*
%TO.P,R8,1*%
%TO.N,+3V3*%
X164752400Y-82702400D03*
%TO.P,R8,2*%
%TO.N,Net-(D1-Pad2)*%
X165752400Y-82702400D03*
%TD*%
D15*
%TO.P,C2,1*%
%TO.N,ESP_BOOT*%
X141178000Y-102154000D03*
%TO.P,C2,2*%
%TO.N,GND*%
X141178000Y-103154000D03*
%TD*%
D16*
%TO.P,R11,1*%
%TO.N,+3V3*%
X128978000Y-93726000D03*
%TO.P,R11,2*%
%TO.N,SCL*%
X129978000Y-93726000D03*
%TD*%
D11*
%TO.P,R7,1*%
%TO.N,+3V3*%
X129986000Y-101854000D03*
%TO.P,R7,2*%
%TO.N,NEXT_BTN*%
X128986000Y-101854000D03*
%TD*%
D16*
%TO.P,R10,1*%
%TO.N,+3V3*%
X128986000Y-91520000D03*
%TO.P,R10,2*%
%TO.N,SDA*%
X129986000Y-91520000D03*
%TD*%
D14*
%TO.P,R6,1*%
%TO.N,+3V3*%
X133604000Y-103154000D03*
%TO.P,R6,2*%
%TO.N,ESP_BOOT*%
X133604000Y-102154000D03*
%TD*%
D15*
%TO.P,C1,1*%
%TO.N,ESP_EN*%
X143464000Y-102154000D03*
%TO.P,C1,2*%
%TO.N,GND*%
X143464000Y-103154000D03*
%TD*%
D11*
%TO.P,R1,1*%
%TO.N,+3V3*%
X129986000Y-97790000D03*
%TO.P,R1,2*%
%TO.N,PREV_BTN*%
X128986000Y-97790000D03*
%TD*%
D17*
%TO.P,J1,A1,GND*%
%TO.N,GND*%
X162334400Y-100329600D03*
%TO.P,J1,A4,VBUS*%
%TO.N,+5V*%
X162334400Y-99529600D03*
D18*
%TO.P,J1,A5,CC1*%
%TO.N,Net-(J1-CC1)*%
X162334400Y-98379600D03*
%TO.P,J1,A6,D+*%
%TO.N,D+*%
X162334400Y-97379600D03*
%TO.P,J1,A7,D-*%
%TO.N,D-*%
X162334400Y-96879600D03*
%TO.P,J1,A8,SBU1*%
%TO.N,unconnected-(J1-SBU1-PadA8)*%
X162334400Y-95879600D03*
D17*
%TO.P,J1,A9,VBUS*%
%TO.N,+5V*%
X162334400Y-94729600D03*
%TO.P,J1,A12,GND*%
%TO.N,GND*%
X162334400Y-93929600D03*
%TO.P,J1,B1,GND*%
X162334400Y-93929600D03*
%TO.P,J1,B4,VBUS*%
%TO.N,+5V*%
X162334400Y-94729600D03*
D18*
%TO.P,J1,B5,CC2*%
%TO.N,Net-(J1-CC2)*%
X162334400Y-95379600D03*
%TO.P,J1,B6,D+*%
%TO.N,D+*%
X162334400Y-96379600D03*
%TO.P,J1,B7,D-*%
%TO.N,D-*%
X162334400Y-97879600D03*
%TO.P,J1,B8,SBU2*%
%TO.N,unconnected-(J1-SBU2-PadB8)*%
X162334400Y-98879600D03*
D17*
%TO.P,J1,B9,VBUS*%
%TO.N,+5V*%
X162334400Y-99529600D03*
%TO.P,J1,B12,GND*%
%TO.N,GND*%
X162334400Y-100329600D03*
D19*
%TO.P,J1,S1,SHIELD*%
X162909400Y-101449600D03*
D20*
X167089400Y-101449600D03*
D19*
X162909400Y-92809600D03*
D20*
X167089400Y-92809600D03*
%TD*%
D16*
%TO.P,R9,1*%
%TO.N,+3V3*%
X128978000Y-95758000D03*
%TO.P,R9,2*%
%TO.N,Net-(U3-IO8)*%
X129978000Y-95758000D03*
%TD*%
D21*
%TO.P,J2,1,Pin_1*%
%TO.N,RX*%
X166573200Y-107543600D03*
D22*
%TO.P,J2,2,Pin_2*%
%TO.N,TX*%
X166573200Y-110083600D03*
%TO.P,J2,3,Pin_3*%
%TO.N,GND*%
X166573200Y-112623600D03*
%TD*%
D23*
%TO.P,SW2,1,1*%
%TO.N,ESP_EN*%
X145242000Y-102070000D03*
X149342000Y-102070000D03*
%TO.P,SW2,2,2*%
%TO.N,GND*%
X145242000Y-103670000D03*
X149342000Y-103670000D03*
%TD*%
D15*
%TO.P,C5,1*%
%TO.N,+3V3*%
X128750000Y-85750000D03*
%TO.P,C5,2*%
%TO.N,GND*%
X128750000Y-86750000D03*
%TD*%
D24*
%TO.P,U2,1,GND*%
%TO.N,GND*%
X159309200Y-107100400D03*
%TO.P,U2,2,VO*%
%TO.N,+3V3*%
X159309200Y-104800400D03*
D25*
X153009200Y-104800400D03*
D24*
%TO.P,U2,3,VI*%
%TO.N,+5V*%
X159309200Y-102500400D03*
%TD*%
D15*
%TO.P,C4,1*%
%TO.N,+3V3*%
X130000000Y-85750000D03*
%TO.P,C4,2*%
%TO.N,GND*%
X130000000Y-86750000D03*
%TD*%
D23*
%TO.P,SW4,1,1*%
%TO.N,ESP_BOOT*%
X135336000Y-102070000D03*
X139436000Y-102070000D03*
%TO.P,SW4,2,2*%
%TO.N,GND*%
X135336000Y-103670000D03*
X139436000Y-103670000D03*
%TD*%
D26*
%TO.P,D1,1*%
%TO.N,GND*%
X164157600Y-81026000D03*
%TO.P,D1,2*%
%TO.N,Net-(D1-Pad2)*%
X165737600Y-81026000D03*
%TD*%
D27*
%TO.P,U4,1,VCC*%
%TO.N,+3V3*%
X108966000Y-81280000D03*
%TO.P,U4,2,GND*%
%TO.N,GND*%
X111506000Y-81280000D03*
%TO.P,U4,3,SCL*%
%TO.N,SCL*%
X114046000Y-81280000D03*
%TO.P,U4,4,SDA*%
%TO.N,SDA*%
X116586000Y-81280000D03*
%TD*%
D28*
%TO.P,U3,1,3V3*%
%TO.N,+3V3*%
X133744000Y-85452000D03*
%TO.P,U3,2,EN*%
%TO.N,ESP_EN*%
X133744000Y-86952000D03*
%TO.P,U3,3,IO4*%
%TO.N,STATE_BTN*%
X133744000Y-88452000D03*
%TO.P,U3,4,IO5*%
%TO.N,PREV_BTN*%
X133744000Y-89952000D03*
%TO.P,U3,5,IO6*%
%TO.N,SDA*%
X133744000Y-91452000D03*
%TO.P,U3,6,IO7*%
%TO.N,SCL*%
X133744000Y-92952000D03*
%TO.P,U3,7,IO8*%
%TO.N,Net-(U3-IO8)*%
X133744000Y-94452000D03*
%TO.P,U3,8,IO9*%
%TO.N,ESP_BOOT*%
X133744000Y-95952000D03*
%TO.P,U3,9,GND*%
%TO.N,GND*%
X133744000Y-97452000D03*
%TO.P,U3,10,IO10*%
%TO.N,unconnected-(U3-IO10-Pad10)*%
X151244000Y-97452000D03*
%TO.P,U3,11,IO20/RXD*%
%TO.N,TX*%
X151244000Y-95952000D03*
%TO.P,U3,12,IO21/TXD*%
%TO.N,RX*%
X151244000Y-94452000D03*
%TO.P,U3,13,IO18*%
%TO.N,USB-*%
X151244000Y-92952000D03*
%TO.P,U3,14,IO19*%
%TO.N,USB+*%
X151244000Y-91452000D03*
%TO.P,U3,15,IO3*%
%TO.N,NEXT_BTN*%
X151244000Y-89952000D03*
%TO.P,U3,16,IO2*%
%TO.N,unconnected-(U3-IO2-Pad16)*%
X151244000Y-88452000D03*
%TO.P,U3,17,IO1*%
%TO.N,unconnected-(U3-IO1-Pad17)*%
X151244000Y-86952000D03*
%TO.P,U3,18,IO0*%
%TO.N,unconnected-(U3-IO0-Pad18)*%
X151244000Y-85452000D03*
D29*
%TO.P,U3,19,GND*%
%TO.N,GND*%
X142354000Y-91102000D03*
X142354000Y-92202000D03*
X142904000Y-90552000D03*
X142904000Y-91652000D03*
X142904000Y-92752000D03*
X143454000Y-91102000D03*
D30*
X143454000Y-91652000D03*
D29*
X143454000Y-92202000D03*
X144004000Y-90552000D03*
X144004000Y-91652000D03*
X144004000Y-92752000D03*
X144554000Y-91102000D03*
X144554000Y-92202000D03*
%TD*%
D31*
%TO.N,GND*%
X161290000Y-106375200D03*
X156750000Y-100500000D03*
X151000000Y-104597200D03*
X158750000Y-97332800D03*
X158800800Y-94335600D03*
X119684800Y-94538800D03*
X142290800Y-100584000D03*
X155956000Y-92303600D03*
X155683200Y-100500000D03*
X143408400Y-100584000D03*
X105511600Y-94640400D03*
X155041600Y-92303600D03*
X161290000Y-107442000D03*
X120751600Y-94538800D03*
X160172400Y-95605600D03*
X156000000Y-102750000D03*
X143459200Y-104800400D03*
X158140400Y-96723200D03*
X142341600Y-104800400D03*
X141274800Y-104800400D03*
X156819600Y-92303600D03*
X156000000Y-106750000D03*
X151000000Y-106750000D03*
X151000000Y-105664000D03*
X104444800Y-94640400D03*
X141224000Y-100584000D03*
%TO.N,+3V3*%
X109000000Y-83750000D03*
X163779200Y-82702400D03*
X152500000Y-100500000D03*
X131826000Y-85660000D03*
X153250000Y-100500000D03*
X128978000Y-94742000D03*
X154000000Y-100500000D03*
X131572000Y-101854000D03*
X128016000Y-91440000D03*
%TO.N,ESP_EN*%
X131826000Y-86868000D03*
X151130000Y-101092000D03*
%TO.N,PREV_BTN*%
X130810000Y-89916000D03*
X127993000Y-98783000D03*
%TO.N,STATE_BTN*%
X129032000Y-98806000D03*
X131826000Y-88392000D03*
%TO.N,NEXT_BTN*%
X130302000Y-105410000D03*
X148082000Y-89916000D03*
%TO.N,+5V*%
X153416000Y-94488000D03*
X160557500Y-100613500D03*
%TO.N,TX*%
X153446017Y-97819929D03*
%TO.N,RX*%
X153429955Y-97020088D03*
%TD*%
D32*
%TO.N,GND*%
X157093500Y-94488000D02*
X156431001Y-94488000D01*
X156431001Y-94488000D02*
X155956000Y-94012999D01*
X155956000Y-94012999D02*
X155956000Y-92456000D01*
D10*
%TO.N,+3V3*%
X129986000Y-97790000D02*
X129986000Y-99830000D01*
X129986000Y-99830000D02*
X129986000Y-101854000D01*
X128096000Y-91520000D02*
X128986000Y-91520000D01*
X128978000Y-94742000D02*
X128978000Y-95758000D01*
X128750000Y-85750000D02*
X130000000Y-85750000D01*
X131572000Y-101854000D02*
X132872000Y-103154000D01*
X130000000Y-85750000D02*
X131736000Y-85750000D01*
D33*
X133536000Y-85660000D02*
X133744000Y-85452000D01*
D10*
X131736000Y-85750000D02*
X131826000Y-85660000D01*
X129986000Y-101854000D02*
X131572000Y-101854000D01*
D33*
X159309200Y-104800400D02*
X153009200Y-104800400D01*
X108966000Y-83716000D02*
X109000000Y-83750000D01*
X131826000Y-85660000D02*
X133536000Y-85660000D01*
D10*
X132872000Y-103154000D02*
X133604000Y-103154000D01*
X128978000Y-95758000D02*
X128978000Y-96782000D01*
D32*
X133296000Y-85660000D02*
X133462000Y-85494000D01*
D10*
X128016000Y-91440000D02*
X128096000Y-91520000D01*
D33*
X108966000Y-81280000D02*
X108966000Y-83716000D01*
D10*
X151130000Y-103154000D02*
X151362800Y-103154000D01*
D32*
X164752400Y-82702400D02*
X163779200Y-82702400D01*
D10*
X151362800Y-103154000D02*
X153009200Y-104800400D01*
X128978000Y-96782000D02*
X129986000Y-97790000D01*
X128978000Y-93726000D02*
X128978000Y-94742000D01*
D32*
%TO.N,ESP_EN*%
X143464000Y-102154000D02*
X145158000Y-102154000D01*
D10*
X151130000Y-101092000D02*
X151130000Y-102154000D01*
D32*
X149342000Y-102070000D02*
X151046000Y-102070000D01*
X145158000Y-102154000D02*
X145242000Y-102070000D01*
X145242000Y-102070000D02*
X149342000Y-102070000D01*
X151046000Y-102070000D02*
X151130000Y-102154000D01*
D10*
X131910000Y-86952000D02*
X131826000Y-86868000D01*
X133744000Y-86952000D02*
X131910000Y-86952000D01*
D32*
%TO.N,ESP_BOOT*%
X133462000Y-95994000D02*
X133162000Y-95994000D01*
X135252000Y-102154000D02*
X135336000Y-102070000D01*
X135336000Y-102070000D02*
X139436000Y-102070000D01*
X133604000Y-102154000D02*
X135252000Y-102154000D01*
X133396000Y-102154000D02*
X133604000Y-102154000D01*
X133162000Y-95994000D02*
X131572000Y-97584000D01*
X139436000Y-102070000D02*
X141094000Y-102070000D01*
X131572000Y-100330000D02*
X133396000Y-102154000D01*
X141094000Y-102070000D02*
X141178000Y-102154000D01*
X131572000Y-97584000D02*
X131572000Y-100330000D01*
%TO.N,Net-(J1-CC2)*%
X162390000Y-95358000D02*
X161652000Y-95358000D01*
X160528000Y-94996000D02*
X160020000Y-94488000D01*
X161290000Y-94996000D02*
X160528000Y-94996000D01*
X160020000Y-94488000D02*
X160020000Y-94226000D01*
X161652000Y-95358000D02*
X161290000Y-94996000D01*
D10*
%TO.N,Net-(J1-CC1)*%
X160020000Y-98306000D02*
X160072000Y-98358000D01*
X160072000Y-98358000D02*
X162390000Y-98358000D01*
D32*
%TO.N,PREV_BTN*%
X128986000Y-97790000D02*
X127000000Y-99776000D01*
X108758000Y-107950000D02*
X106426000Y-110282000D01*
X127000000Y-107442000D02*
X126492000Y-107950000D01*
D10*
X130846000Y-89952000D02*
X130810000Y-89916000D01*
X133744000Y-89952000D02*
X130846000Y-89952000D01*
D32*
X126492000Y-107950000D02*
X108758000Y-107950000D01*
X127000000Y-99776000D02*
X127000000Y-107442000D01*
D10*
%TO.N,STATE_BTN*%
X133744000Y-88452000D02*
X131886000Y-88452000D01*
X129032000Y-99784000D02*
X128986000Y-99830000D01*
X131886000Y-88452000D02*
X131826000Y-88392000D01*
D32*
X128986000Y-99830000D02*
X127762000Y-101054000D01*
X127762000Y-101054000D02*
X127762000Y-107696000D01*
X124760000Y-108712000D02*
X123190000Y-110282000D01*
X126746000Y-108712000D02*
X124760000Y-108712000D01*
D10*
X129032000Y-98806000D02*
X129032000Y-99784000D01*
D32*
X127762000Y-107696000D02*
X126746000Y-108712000D01*
%TO.N,NEXT_BTN*%
X128986000Y-104094000D02*
X130302000Y-105410000D01*
D10*
X130302000Y-105410000D02*
X135174000Y-110282000D01*
X135174000Y-110282000D02*
X139954000Y-110282000D01*
X151244000Y-89952000D02*
X148118000Y-89952000D01*
D32*
X128986000Y-101854000D02*
X128986000Y-104094000D01*
D10*
X148118000Y-89952000D02*
X148082000Y-89916000D01*
D32*
%TO.N,SCL*%
X129978000Y-93726000D02*
X130710000Y-92994000D01*
X129286000Y-92964000D02*
X129286000Y-93034000D01*
X130710000Y-92994000D02*
X133462000Y-92994000D01*
X129286000Y-92964000D02*
X127184000Y-92964000D01*
D10*
X117278000Y-83058000D02*
X127184000Y-92964000D01*
X114046000Y-81534000D02*
X115570000Y-83058000D01*
X114046000Y-81280000D02*
X114046000Y-81534000D01*
D32*
X129286000Y-93034000D02*
X129978000Y-93726000D01*
D10*
X115570000Y-83058000D02*
X117278000Y-83058000D01*
%TO.N,SDA*%
X116586000Y-81280000D02*
X119746000Y-81280000D01*
D32*
X133436000Y-91520000D02*
X133462000Y-91494000D01*
D10*
X119746000Y-81280000D02*
X129986000Y-91520000D01*
D32*
X129986000Y-91520000D02*
X133436000Y-91520000D01*
D10*
%TO.N,USB-*%
X154818500Y-95438000D02*
X154469500Y-95089000D01*
X152815000Y-94736943D02*
X152815000Y-94239057D01*
X154469500Y-95089000D02*
X153167057Y-95089000D01*
X153167057Y-95089000D02*
X152815000Y-94736943D01*
X153104830Y-93949227D02*
X152107603Y-92952000D01*
X152815000Y-94239057D02*
X153104830Y-93949227D01*
X152107603Y-92952000D02*
X151244000Y-92952000D01*
%TO.N,USB+*%
X151993000Y-92201000D02*
X151244000Y-91452000D01*
X154818500Y-93538000D02*
X154469500Y-93887000D01*
X153679000Y-93887000D02*
X152295000Y-92503000D01*
X154469500Y-93887000D02*
X153679000Y-93887000D01*
X152295000Y-92503000D02*
X152295000Y-92201000D01*
X152295000Y-92201000D02*
X151993000Y-92201000D01*
D33*
%TO.N,+5V*%
X159309200Y-100643200D02*
X159250000Y-100584000D01*
D32*
X163576000Y-99060000D02*
X163412999Y-99060000D01*
D10*
X154818500Y-94488000D02*
X153416000Y-94488000D01*
D33*
X159309200Y-101861800D02*
X160557500Y-100613500D01*
X163867000Y-95541000D02*
X163867000Y-98769000D01*
X159309200Y-102500400D02*
X159309200Y-101861800D01*
X163576000Y-95250000D02*
X163867000Y-95541000D01*
D32*
X162390000Y-94708000D02*
X162830800Y-94708000D01*
D33*
X161663000Y-99508000D02*
X160557500Y-100613500D01*
X163867000Y-98769000D02*
X163576000Y-99060000D01*
X162390000Y-99508000D02*
X161663000Y-99508000D01*
D32*
X162964999Y-99508000D02*
X162390000Y-99508000D01*
X163412999Y-99060000D02*
X162964999Y-99508000D01*
D33*
X159309200Y-102500400D02*
X159309200Y-100643200D01*
D32*
X162830800Y-94708000D02*
X163169600Y-95046800D01*
X163169600Y-95046800D02*
X163372800Y-95046800D01*
X163372800Y-95046800D02*
X163576000Y-95250000D01*
%TO.N,D-*%
X161690222Y-97879600D02*
X161433400Y-97622778D01*
X161745822Y-96858000D02*
X162390000Y-96858000D01*
X161690222Y-96879600D02*
X162334400Y-96879600D01*
X159706393Y-96858000D02*
X158286393Y-95438000D01*
X161433400Y-97622778D02*
X161433400Y-97136422D01*
X162390000Y-96858000D02*
X159706393Y-96858000D01*
X162334400Y-97879600D02*
X161690222Y-97879600D01*
X161433400Y-97136422D02*
X161690222Y-96879600D01*
X158286393Y-95438000D02*
X157093500Y-95438000D01*
%TO.N,D+*%
X162390000Y-96358000D02*
X159913500Y-96358000D01*
X159913500Y-96358000D02*
X158082000Y-94526500D01*
X163291000Y-96614822D02*
X163291000Y-97101178D01*
X163034178Y-96358000D02*
X163291000Y-96614822D01*
X162390000Y-96358000D02*
X163034178Y-96358000D01*
X158082000Y-94526500D02*
X158082000Y-94136678D01*
X157807322Y-93862000D02*
X157417500Y-93862000D01*
X163034178Y-97358000D02*
X162390000Y-97358000D01*
X163291000Y-97101178D02*
X163034178Y-97358000D01*
X158082000Y-94136678D02*
X157807322Y-93862000D01*
X157417500Y-93862000D02*
X157093500Y-93538000D01*
%TO.N,Net-(D1-Pad2)*%
X165737600Y-81026000D02*
X165737600Y-82484400D01*
%TO.N,Net-(U3-IO8)*%
X129978000Y-95758000D02*
X131242000Y-94494000D01*
X131242000Y-94494000D02*
X133462000Y-94494000D01*
D10*
%TO.N,TX*%
X153379853Y-97819929D02*
X153446017Y-97819929D01*
X151544000Y-95952000D02*
X151244000Y-95952000D01*
X151511924Y-95952000D02*
X153379853Y-97819929D01*
X151244000Y-95952000D02*
X151511924Y-95952000D01*
%TO.N,RX*%
X151244000Y-94452000D02*
X151546000Y-94452000D01*
X151546000Y-94452000D02*
X153429955Y-96335955D01*
X153429955Y-96335955D02*
X153429955Y-97020088D01*
%TD*%
%TA.AperFunction,Conductor*%
%TO.N,GND*%
G36*
X127872626Y-78934024D02*
G01*
X127936155Y-78944086D01*
X127973045Y-78956073D01*
X128021542Y-78980783D01*
X128023450Y-78982169D01*
X128024675Y-78982436D01*
X128052929Y-79003587D01*
X128091411Y-79042069D01*
X128114215Y-79073455D01*
X128138925Y-79121951D01*
X128150913Y-79158846D01*
X128160967Y-79222319D01*
X128162494Y-79241719D01*
X128162494Y-82741825D01*
X128162492Y-82741834D01*
X128162492Y-82761027D01*
X128162492Y-82769378D01*
X128162465Y-82769469D01*
X128162465Y-82820761D01*
X128162465Y-82942326D01*
X128181774Y-83076661D01*
X128197056Y-83182978D01*
X128265528Y-83416264D01*
X128265529Y-83416267D01*
X128265530Y-83416269D01*
X128274221Y-83435308D01*
X128366488Y-83637440D01*
X128366490Y-83637443D01*
X128366491Y-83637445D01*
X128445309Y-83760155D01*
X128474332Y-83805339D01*
X128494000Y-83872353D01*
X128494000Y-84352000D01*
X129095526Y-84352000D01*
X129147097Y-84363233D01*
X129266300Y-84417748D01*
X129266312Y-84417752D01*
X129499539Y-84486385D01*
X129499541Y-84486385D01*
X129499543Y-84486386D01*
X129740174Y-84521149D01*
X129861738Y-84521235D01*
X129940666Y-84521293D01*
X129940666Y-84521292D01*
X132479622Y-84523161D01*
X132546647Y-84542895D01*
X132592363Y-84595733D01*
X132602256Y-84664898D01*
X132578798Y-84721472D01*
X132550204Y-84759668D01*
X132550202Y-84759671D01*
X132524407Y-84828833D01*
X132482536Y-84884767D01*
X132417071Y-84909184D01*
X132408225Y-84909500D01*
X132130604Y-84909500D01*
X132083155Y-84900062D01*
X132059497Y-84890263D01*
X132059493Y-84890262D01*
X132059488Y-84890260D01*
X131904845Y-84859500D01*
X131904842Y-84859500D01*
X131747158Y-84859500D01*
X131747155Y-84859500D01*
X131592510Y-84890261D01*
X131592498Y-84890264D01*
X131446827Y-84950602D01*
X131446814Y-84950609D01*
X131315712Y-85038209D01*
X131278227Y-85075695D01*
X131240739Y-85113182D01*
X131179419Y-85146666D01*
X131153060Y-85149500D01*
X130666667Y-85149500D01*
X130599628Y-85129815D01*
X130578986Y-85113181D01*
X130565692Y-85099887D01*
X130565684Y-85099881D01*
X130461402Y-85038209D01*
X130426395Y-85017506D01*
X130426394Y-85017505D01*
X130426393Y-85017505D01*
X130426390Y-85017504D01*
X130270997Y-84972357D01*
X130270991Y-84972356D01*
X130234697Y-84969500D01*
X130234690Y-84969500D01*
X129765310Y-84969500D01*
X129765302Y-84969500D01*
X129729008Y-84972356D01*
X129729002Y-84972357D01*
X129573609Y-85017504D01*
X129573602Y-85017507D01*
X129438120Y-85097630D01*
X129370396Y-85114813D01*
X129311880Y-85097630D01*
X129176397Y-85017507D01*
X129176390Y-85017504D01*
X129020997Y-84972357D01*
X129020991Y-84972356D01*
X128984697Y-84969500D01*
X128984690Y-84969500D01*
X128515310Y-84969500D01*
X128515302Y-84969500D01*
X128479008Y-84972356D01*
X128479002Y-84972357D01*
X128323609Y-85017504D01*
X128323606Y-85017505D01*
X128184315Y-85099881D01*
X128184307Y-85099887D01*
X128069887Y-85214307D01*
X128069881Y-85214315D01*
X127987505Y-85353606D01*
X127987504Y-85353609D01*
X127942357Y-85509002D01*
X127942356Y-85509008D01*
X127939500Y-85545302D01*
X127939500Y-85954697D01*
X127942356Y-85990991D01*
X127942357Y-85990997D01*
X127987504Y-86146390D01*
X127987505Y-86146393D01*
X128011738Y-86187369D01*
X128028921Y-86255093D01*
X128011739Y-86313610D01*
X127987968Y-86353805D01*
X127945496Y-86500000D01*
X128366213Y-86500000D01*
X128400808Y-86504923D01*
X128479007Y-86527643D01*
X128515310Y-86530500D01*
X128515318Y-86530500D01*
X128984682Y-86530500D01*
X128984690Y-86530500D01*
X129020993Y-86527643D01*
X129099191Y-86504923D01*
X129133787Y-86500000D01*
X129616213Y-86500000D01*
X129650808Y-86504923D01*
X129729007Y-86527643D01*
X129765310Y-86530500D01*
X129765318Y-86530500D01*
X129876000Y-86530500D01*
X129943039Y-86550185D01*
X129988794Y-86602989D01*
X130000000Y-86654500D01*
X130000000Y-86750000D01*
X130126000Y-86750000D01*
X130193039Y-86769685D01*
X130238794Y-86822489D01*
X130250000Y-86874000D01*
X130250000Y-87528789D01*
X130270910Y-87527145D01*
X130426195Y-87482031D01*
X130565374Y-87399721D01*
X130565383Y-87399714D01*
X130679714Y-87285383D01*
X130679721Y-87285374D01*
X130762031Y-87146195D01*
X130800316Y-87014416D01*
X130837922Y-86955530D01*
X130901395Y-86926323D01*
X130970581Y-86936069D01*
X131023516Y-86981672D01*
X131041010Y-87024818D01*
X131056261Y-87101491D01*
X131056264Y-87101501D01*
X131116602Y-87247172D01*
X131116609Y-87247185D01*
X131204210Y-87378288D01*
X131204213Y-87378292D01*
X131315707Y-87489786D01*
X131371248Y-87526898D01*
X131416052Y-87580511D01*
X131424759Y-87649836D01*
X131394604Y-87712863D01*
X131371248Y-87733102D01*
X131315707Y-87770213D01*
X131204213Y-87881707D01*
X131204210Y-87881711D01*
X131116609Y-88012814D01*
X131116602Y-88012827D01*
X131056264Y-88158498D01*
X131056261Y-88158510D01*
X131025500Y-88313153D01*
X131025500Y-88470846D01*
X131056261Y-88625489D01*
X131056264Y-88625501D01*
X131116602Y-88771172D01*
X131116609Y-88771185D01*
X131204210Y-88902288D01*
X131204213Y-88902292D01*
X131293537Y-88991616D01*
X131327022Y-89052939D01*
X131322038Y-89122631D01*
X131280166Y-89178564D01*
X131214702Y-89202981D01*
X131158404Y-89193858D01*
X131043501Y-89146264D01*
X131043489Y-89146261D01*
X130888845Y-89115500D01*
X130888842Y-89115500D01*
X130731158Y-89115500D01*
X130731155Y-89115500D01*
X130576510Y-89146261D01*
X130576498Y-89146264D01*
X130430827Y-89206602D01*
X130430814Y-89206609D01*
X130299711Y-89294210D01*
X130299707Y-89294213D01*
X130188213Y-89405707D01*
X130188210Y-89405711D01*
X130100609Y-89536814D01*
X130100602Y-89536827D01*
X130040264Y-89682498D01*
X130040261Y-89682510D01*
X130009500Y-89837153D01*
X130009500Y-89994846D01*
X130040261Y-90149489D01*
X130040264Y-90149501D01*
X130100602Y-90295172D01*
X130100609Y-90295185D01*
X130188210Y-90426288D01*
X130188213Y-90426292D01*
X130259740Y-90497819D01*
X130270352Y-90517255D01*
X130284853Y-90533989D01*
X130286769Y-90547320D01*
X130293225Y-90559142D01*
X130291645Y-90581228D01*
X130294797Y-90603147D01*
X130289201Y-90615398D01*
X130288241Y-90628834D01*
X130274970Y-90646560D01*
X130265772Y-90666703D01*
X130254440Y-90673985D01*
X130246369Y-90684767D01*
X130225623Y-90692504D01*
X130206994Y-90704477D01*
X130185075Y-90707628D01*
X130180905Y-90709184D01*
X130172059Y-90709500D01*
X130076097Y-90709500D01*
X130009058Y-90689815D01*
X129988416Y-90673181D01*
X126315235Y-87000000D01*
X127945496Y-87000000D01*
X127987968Y-87146195D01*
X128070278Y-87285374D01*
X128070285Y-87285383D01*
X128184616Y-87399714D01*
X128184625Y-87399721D01*
X128323804Y-87482031D01*
X128479089Y-87527145D01*
X128500000Y-87528789D01*
X129000000Y-87528789D01*
X129020910Y-87527145D01*
X129176195Y-87482031D01*
X129311879Y-87401788D01*
X129379603Y-87384605D01*
X129438121Y-87401788D01*
X129573804Y-87482031D01*
X129729089Y-87527145D01*
X129750000Y-87528789D01*
X129750000Y-87000000D01*
X129000000Y-87000000D01*
X129000000Y-87528789D01*
X128500000Y-87528789D01*
X128500000Y-87000000D01*
X127945496Y-87000000D01*
X126315235Y-87000000D01*
X120233590Y-80918355D01*
X120233588Y-80918352D01*
X120114717Y-80799481D01*
X120114709Y-80799475D01*
X119993878Y-80729714D01*
X119993878Y-80729713D01*
X119993874Y-80729712D01*
X119977785Y-80720423D01*
X119825057Y-80679499D01*
X119666943Y-80679499D01*
X119659347Y-80679499D01*
X119659331Y-80679500D01*
X117927836Y-80679500D01*
X117860797Y-80659815D01*
X117817352Y-80611796D01*
X117783814Y-80545976D01*
X117654247Y-80367641D01*
X117654243Y-80367636D01*
X117498363Y-80211756D01*
X117498358Y-80211752D01*
X117320025Y-80082187D01*
X117320024Y-80082186D01*
X117320022Y-80082185D01*
X117257096Y-80050122D01*
X117123606Y-79982104D01*
X117123603Y-79982103D01*
X116913952Y-79913985D01*
X116805086Y-79896742D01*
X116696222Y-79879500D01*
X116475778Y-79879500D01*
X116403201Y-79890995D01*
X116258047Y-79913985D01*
X116048396Y-79982103D01*
X116048393Y-79982104D01*
X115851974Y-80082187D01*
X115673641Y-80211752D01*
X115673636Y-80211756D01*
X115517756Y-80367636D01*
X115517752Y-80367641D01*
X115416318Y-80507254D01*
X115360988Y-80549920D01*
X115291375Y-80555899D01*
X115229580Y-80523293D01*
X115215682Y-80507254D01*
X115114247Y-80367641D01*
X115114243Y-80367636D01*
X114958363Y-80211756D01*
X114958358Y-80211752D01*
X114780025Y-80082187D01*
X114780024Y-80082186D01*
X114780022Y-80082185D01*
X114717096Y-80050122D01*
X114583606Y-79982104D01*
X114583603Y-79982103D01*
X114373952Y-79913985D01*
X114265086Y-79896742D01*
X114156222Y-79879500D01*
X113935778Y-79879500D01*
X113863201Y-79890995D01*
X113718047Y-79913985D01*
X113508396Y-79982103D01*
X113508393Y-79982104D01*
X113311974Y-80082187D01*
X113133641Y-80211752D01*
X113133636Y-80211756D01*
X112977756Y-80367636D01*
X112876008Y-80507681D01*
X112820678Y-80550346D01*
X112751065Y-80556325D01*
X112689270Y-80523719D01*
X112675371Y-80507680D01*
X112657066Y-80482485D01*
X112657065Y-80482485D01*
X112009369Y-81130182D01*
X111995215Y-81077360D01*
X111926099Y-80957647D01*
X111828353Y-80859901D01*
X111708640Y-80790785D01*
X111655814Y-80776630D01*
X112303513Y-80128932D01*
X112239756Y-80082611D01*
X112043410Y-79982567D01*
X111833835Y-79914473D01*
X111616181Y-79880000D01*
X111395819Y-79880000D01*
X111178164Y-79914473D01*
X110968589Y-79982567D01*
X110772233Y-80082616D01*
X110708485Y-80128931D01*
X110708485Y-80128932D01*
X111356183Y-80776630D01*
X111303360Y-80790785D01*
X111183647Y-80859901D01*
X111085901Y-80957647D01*
X111016785Y-81077360D01*
X111002630Y-81130183D01*
X110354932Y-80482485D01*
X110354930Y-80482485D01*
X110336626Y-80507679D01*
X110281296Y-80550345D01*
X110211683Y-80556324D01*
X110149888Y-80523718D01*
X110135990Y-80507679D01*
X110034247Y-80367640D01*
X109878363Y-80211756D01*
X109878358Y-80211752D01*
X109700025Y-80082187D01*
X109700024Y-80082186D01*
X109700022Y-80082185D01*
X109637096Y-80050122D01*
X109503606Y-79982104D01*
X109503603Y-79982103D01*
X109293952Y-79913985D01*
X109185086Y-79896742D01*
X109076222Y-79879500D01*
X108855778Y-79879500D01*
X108783201Y-79890995D01*
X108638047Y-79913985D01*
X108428396Y-79982103D01*
X108428393Y-79982104D01*
X108231974Y-80082187D01*
X108053641Y-80211752D01*
X108053636Y-80211756D01*
X107897756Y-80367636D01*
X107897752Y-80367641D01*
X107768187Y-80545974D01*
X107668104Y-80742393D01*
X107668103Y-80742396D01*
X107599985Y-80952047D01*
X107565500Y-81169778D01*
X107565500Y-81390221D01*
X107599985Y-81607952D01*
X107668103Y-81817603D01*
X107668104Y-81817606D01*
X107724988Y-81929244D01*
X107762912Y-82003674D01*
X107768187Y-82014025D01*
X107897752Y-82192358D01*
X107897756Y-82192363D01*
X108053638Y-82348245D01*
X108164384Y-82428705D01*
X108207051Y-82484035D01*
X108215500Y-82529024D01*
X108215500Y-83578509D01*
X108213117Y-83602701D01*
X108199500Y-83671155D01*
X108199500Y-83828846D01*
X108230261Y-83983489D01*
X108230264Y-83983501D01*
X108290602Y-84129172D01*
X108290609Y-84129185D01*
X108378210Y-84260288D01*
X108378213Y-84260292D01*
X108489707Y-84371786D01*
X108489711Y-84371789D01*
X108620814Y-84459390D01*
X108620827Y-84459397D01*
X108731907Y-84505407D01*
X108766503Y-84519737D01*
X108921153Y-84550499D01*
X108921156Y-84550500D01*
X108921158Y-84550500D01*
X109078844Y-84550500D01*
X109078845Y-84550499D01*
X109233497Y-84519737D01*
X109379179Y-84459394D01*
X109510289Y-84371789D01*
X109621789Y-84260289D01*
X109709394Y-84129179D01*
X109769737Y-83983497D01*
X109800500Y-83828842D01*
X109800500Y-83671158D01*
X109800500Y-83671155D01*
X109800499Y-83671153D01*
X109769739Y-83516511D01*
X109769736Y-83516501D01*
X109768244Y-83512900D01*
X109725939Y-83410764D01*
X109716500Y-83363312D01*
X109716500Y-82529024D01*
X109717021Y-82527249D01*
X109716551Y-82525459D01*
X109726827Y-82493852D01*
X109736185Y-82461985D01*
X109737764Y-82460213D01*
X109738155Y-82459014D01*
X109746410Y-82450520D01*
X109762025Y-82433015D01*
X109764750Y-82430787D01*
X109878365Y-82348242D01*
X110034242Y-82192365D01*
X110135991Y-82052317D01*
X110191320Y-82009653D01*
X110260933Y-82003674D01*
X110322729Y-82036279D01*
X110336628Y-82052319D01*
X110354932Y-82077513D01*
X111002630Y-81429815D01*
X111016785Y-81482640D01*
X111085901Y-81602353D01*
X111183647Y-81700099D01*
X111303360Y-81769215D01*
X111356183Y-81783369D01*
X110708485Y-82431065D01*
X110708485Y-82431066D01*
X110772243Y-82477388D01*
X110968589Y-82577432D01*
X111178164Y-82645526D01*
X111395819Y-82680000D01*
X111616181Y-82680000D01*
X111833835Y-82645526D01*
X112043410Y-82577432D01*
X112239760Y-82477386D01*
X112303513Y-82431066D01*
X112303514Y-82431066D01*
X111655816Y-81783369D01*
X111708640Y-81769215D01*
X111828353Y-81700099D01*
X111926099Y-81602353D01*
X111995215Y-81482640D01*
X112009369Y-81429817D01*
X112657066Y-82077514D01*
X112657066Y-82077513D01*
X112675372Y-82052319D01*
X112730701Y-82009653D01*
X112800315Y-82003674D01*
X112862110Y-82036279D01*
X112876008Y-82052319D01*
X112977752Y-82192358D01*
X112977756Y-82192363D01*
X113133636Y-82348243D01*
X113133641Y-82348247D01*
X113248102Y-82431407D01*
X113311978Y-82477815D01*
X113440375Y-82543237D01*
X113508393Y-82577895D01*
X113508396Y-82577896D01*
X113613221Y-82611955D01*
X113718049Y-82646015D01*
X113935778Y-82680500D01*
X113935779Y-82680500D01*
X114156221Y-82680500D01*
X114156222Y-82680500D01*
X114255287Y-82664809D01*
X114324580Y-82673763D01*
X114362366Y-82699601D01*
X115085139Y-83422374D01*
X115085149Y-83422385D01*
X115089479Y-83426715D01*
X115089480Y-83426716D01*
X115201284Y-83538520D01*
X115201286Y-83538521D01*
X115201290Y-83538524D01*
X115312450Y-83602701D01*
X115338216Y-83617577D01*
X115412365Y-83637445D01*
X115490942Y-83658500D01*
X115490943Y-83658500D01*
X116977903Y-83658500D01*
X117044942Y-83678185D01*
X117065583Y-83694818D01*
X121996253Y-88625489D01*
X126618312Y-93247548D01*
X126633733Y-93266339D01*
X126698138Y-93362728D01*
X126698144Y-93362736D01*
X126785263Y-93449855D01*
X126785267Y-93449858D01*
X126887707Y-93518307D01*
X126887713Y-93518310D01*
X126887714Y-93518311D01*
X127001548Y-93565463D01*
X127122389Y-93589499D01*
X127122393Y-93589500D01*
X127122394Y-93589500D01*
X128073500Y-93589500D01*
X128140539Y-93609185D01*
X128186294Y-93661989D01*
X128197500Y-93713500D01*
X128197500Y-93960697D01*
X128200357Y-93996990D01*
X128200357Y-93996995D01*
X128245504Y-94152390D01*
X128245507Y-94152397D01*
X128282656Y-94215214D01*
X128299839Y-94282938D01*
X128279028Y-94347222D01*
X128268610Y-94362814D01*
X128268602Y-94362828D01*
X128208264Y-94508498D01*
X128208261Y-94508510D01*
X128177500Y-94663153D01*
X128177500Y-94820846D01*
X128208261Y-94975489D01*
X128208264Y-94975501D01*
X128268602Y-95121172D01*
X128268610Y-95121186D01*
X128279025Y-95136773D01*
X128299904Y-95203450D01*
X128282657Y-95268785D01*
X128245504Y-95331608D01*
X128245504Y-95331609D01*
X128200357Y-95487002D01*
X128200356Y-95487008D01*
X128197500Y-95523302D01*
X128197500Y-95992697D01*
X128200356Y-96028991D01*
X128200357Y-96028997D01*
X128245504Y-96184390D01*
X128245505Y-96184393D01*
X128245506Y-96184395D01*
X128327883Y-96323687D01*
X128341180Y-96336984D01*
X128374666Y-96398305D01*
X128377500Y-96424666D01*
X128377500Y-96695330D01*
X128377499Y-96695348D01*
X128377499Y-96861054D01*
X128377498Y-96861054D01*
X128394794Y-96925602D01*
X128410001Y-96982356D01*
X128418423Y-97013784D01*
X128421532Y-97021289D01*
X128419978Y-97021932D01*
X128434167Y-97080430D01*
X128411312Y-97146456D01*
X128397990Y-97162205D01*
X128335884Y-97224311D01*
X128335883Y-97224313D01*
X128253505Y-97363606D01*
X128253504Y-97363609D01*
X128208357Y-97519002D01*
X128208356Y-97519008D01*
X128205500Y-97555302D01*
X128205500Y-97634547D01*
X128185815Y-97701586D01*
X128169181Y-97722228D01*
X127934203Y-97957205D01*
X127872880Y-97990690D01*
X127870714Y-97991141D01*
X127759508Y-98013261D01*
X127759498Y-98013264D01*
X127613827Y-98073602D01*
X127613814Y-98073609D01*
X127482711Y-98161210D01*
X127482707Y-98161213D01*
X127371213Y-98272707D01*
X127371210Y-98272711D01*
X127283609Y-98403814D01*
X127283602Y-98403827D01*
X127223264Y-98549498D01*
X127223261Y-98549508D01*
X127201141Y-98660714D01*
X127168756Y-98722625D01*
X127167205Y-98724203D01*
X126852915Y-99038494D01*
X126601270Y-99290139D01*
X126601267Y-99290142D01*
X126514142Y-99377267D01*
X126480384Y-99427789D01*
X126445688Y-99479714D01*
X126421036Y-99539231D01*
X126403355Y-99581918D01*
X126401601Y-99586151D01*
X126401594Y-99586166D01*
X126398539Y-99593541D01*
X126398537Y-99593547D01*
X126377464Y-99699496D01*
X126377463Y-99699497D01*
X126374500Y-99714392D01*
X126374500Y-107131546D01*
X126365856Y-107160982D01*
X126359333Y-107190972D01*
X126355577Y-107195989D01*
X126354815Y-107198585D01*
X126338182Y-107219227D01*
X126269229Y-107288181D01*
X126207906Y-107321666D01*
X126181547Y-107324500D01*
X108696389Y-107324500D01*
X108635971Y-107336518D01*
X108598259Y-107344019D01*
X108575550Y-107348536D01*
X108575548Y-107348537D01*
X108542207Y-107362347D01*
X108461719Y-107395684D01*
X108461705Y-107395692D01*
X108359272Y-107464138D01*
X108359264Y-107464144D01*
X108272139Y-107551270D01*
X107102079Y-108721329D01*
X107040756Y-108754814D01*
X106976081Y-108751579D01*
X106806641Y-108696526D01*
X106806642Y-108696526D01*
X106617107Y-108666506D01*
X106553930Y-108656500D01*
X106298070Y-108656500D01*
X106213833Y-108669842D01*
X106045359Y-108696526D01*
X105802027Y-108775588D01*
X105802024Y-108775589D01*
X105574049Y-108891750D01*
X105367064Y-109042132D01*
X105367059Y-109042136D01*
X105186136Y-109223059D01*
X105186132Y-109223064D01*
X105035750Y-109430049D01*
X104919589Y-109658024D01*
X104919588Y-109658027D01*
X104840526Y-109901359D01*
X104800500Y-110154070D01*
X104800500Y-110409929D01*
X104840526Y-110662640D01*
X104919588Y-110905972D01*
X104919589Y-110905975D01*
X104998533Y-111060910D01*
X105025436Y-111113709D01*
X105035750Y-111133950D01*
X105186132Y-111340935D01*
X105186136Y-111340940D01*
X105367063Y-111521867D01*
X105407908Y-111551542D01*
X105450574Y-111606871D01*
X105456553Y-111676485D01*
X105423948Y-111738280D01*
X105422706Y-111739539D01*
X105403526Y-111758719D01*
X105403520Y-111758726D01*
X105279504Y-111929421D01*
X105183708Y-112117429D01*
X105118508Y-112318094D01*
X105118508Y-112318097D01*
X105118508Y-112318099D01*
X105085500Y-112526500D01*
X105085500Y-112737500D01*
X105094747Y-112795883D01*
X105118508Y-112945902D01*
X105118508Y-112945905D01*
X105180170Y-113135681D01*
X105182165Y-113205522D01*
X105146084Y-113265355D01*
X105109693Y-113288559D01*
X105006740Y-113331205D01*
X105006724Y-113331212D01*
X104719448Y-113484765D01*
X104719420Y-113484782D01*
X104448594Y-113665741D01*
X104448571Y-113665758D01*
X104196755Y-113872418D01*
X103966418Y-114102755D01*
X103759758Y-114354571D01*
X103759741Y-114354594D01*
X103578782Y-114625420D01*
X103578765Y-114625448D01*
X103425212Y-114912724D01*
X103425210Y-114912729D01*
X103300546Y-115213693D01*
X103205980Y-115525437D01*
X103205977Y-115525448D01*
X103142432Y-115844921D01*
X103142429Y-115844938D01*
X103110500Y-116169123D01*
X103110500Y-116494876D01*
X103142429Y-116819061D01*
X103142432Y-116819078D01*
X103205977Y-117138551D01*
X103205980Y-117138562D01*
X103300546Y-117450306D01*
X103425210Y-117751270D01*
X103425212Y-117751275D01*
X103578765Y-118038551D01*
X103578782Y-118038579D01*
X103759741Y-118309405D01*
X103759758Y-118309428D01*
X103966418Y-118561244D01*
X104196755Y-118791581D01*
X104196760Y-118791585D01*
X104196761Y-118791586D01*
X104448577Y-118998246D01*
X104448584Y-118998251D01*
X104448594Y-118998258D01*
X104719420Y-119179217D01*
X104719425Y-119179220D01*
X104719437Y-119179228D01*
X104719446Y-119179232D01*
X104719448Y-119179234D01*
X105006724Y-119332787D01*
X105006726Y-119332787D01*
X105006732Y-119332791D01*
X105307695Y-119457454D01*
X105619428Y-119552017D01*
X105619434Y-119552018D01*
X105619437Y-119552019D01*
X105619448Y-119552022D01*
X105819785Y-119591870D01*
X105938928Y-119615569D01*
X106263120Y-119647500D01*
X106263123Y-119647500D01*
X106588877Y-119647500D01*
X106588880Y-119647500D01*
X106913072Y-119615569D01*
X107071212Y-119584113D01*
X107232551Y-119552022D01*
X107232562Y-119552019D01*
X107232562Y-119552018D01*
X107232572Y-119552017D01*
X107544305Y-119457454D01*
X107845268Y-119332791D01*
X108132563Y-119179228D01*
X108403423Y-118998246D01*
X108655239Y-118791586D01*
X108885586Y-118561239D01*
X109092246Y-118309423D01*
X109273228Y-118038563D01*
X109426791Y-117751268D01*
X109551454Y-117450305D01*
X109646017Y-117138572D01*
X109646019Y-117138562D01*
X109646022Y-117138551D01*
X109678113Y-116977212D01*
X109709569Y-116819072D01*
X109741500Y-116494880D01*
X109741500Y-116169120D01*
X109709569Y-115844928D01*
X109685870Y-115725785D01*
X109646022Y-115525448D01*
X109646019Y-115525437D01*
X109646018Y-115525434D01*
X109646017Y-115525428D01*
X109551454Y-115213695D01*
X109426791Y-114912732D01*
X109273228Y-114625437D01*
X109267582Y-114616987D01*
X109092258Y-114354594D01*
X109092251Y-114354584D01*
X109092246Y-114354577D01*
X108885586Y-114102761D01*
X108885585Y-114102760D01*
X108885581Y-114102755D01*
X108655244Y-113872418D01*
X108403428Y-113665758D01*
X108403405Y-113665741D01*
X108132579Y-113484782D01*
X108132551Y-113484765D01*
X107845276Y-113331213D01*
X107845273Y-113331212D01*
X107845268Y-113331209D01*
X107742305Y-113288560D01*
X107739100Y-113285977D01*
X107735047Y-113285276D01*
X107712130Y-113264243D01*
X107687902Y-113244718D01*
X107686602Y-113240813D01*
X107683572Y-113238032D01*
X107675664Y-113207950D01*
X107671240Y-113194657D01*
X117440505Y-113194657D01*
X117475013Y-113412523D01*
X117554051Y-113655781D01*
X117554052Y-113655784D01*
X117670175Y-113883686D01*
X117820521Y-114090619D01*
X118001380Y-114271478D01*
X118208313Y-114421824D01*
X118436215Y-114537947D01*
X118436218Y-114537948D01*
X118679474Y-114616986D01*
X118679478Y-114616987D01*
X118723416Y-114623945D01*
X118772984Y-113708672D01*
X118845609Y-113738754D01*
X118987609Y-113767000D01*
X119132391Y-113767000D01*
X119272064Y-113739216D01*
X119222657Y-114651492D01*
X119222657Y-114651493D01*
X119440523Y-114616986D01*
X119683781Y-114537948D01*
X119683784Y-114537947D01*
X119911686Y-114421824D01*
X120118619Y-114271478D01*
X120299478Y-114090619D01*
X120449824Y-113883686D01*
X120565947Y-113655784D01*
X120565948Y-113655781D01*
X120644984Y-113412529D01*
X120651945Y-113368581D01*
X119736672Y-113319013D01*
X119766754Y-113246391D01*
X119795000Y-113104391D01*
X119795000Y-112959609D01*
X119767216Y-112819932D01*
X120679492Y-112869341D01*
X120679493Y-112869341D01*
X120644986Y-112651476D01*
X120565948Y-112408218D01*
X120565947Y-112408215D01*
X120449824Y-112180313D01*
X120299478Y-111973380D01*
X120118619Y-111792521D01*
X119911686Y-111642175D01*
X119683784Y-111526052D01*
X119683781Y-111526051D01*
X119440518Y-111447012D01*
X119396582Y-111440053D01*
X119347013Y-112355327D01*
X119274391Y-112325246D01*
X119132391Y-112297000D01*
X118987609Y-112297000D01*
X118847932Y-112324783D01*
X118897341Y-111412505D01*
X118679476Y-111447013D01*
X118436218Y-111526051D01*
X118436215Y-111526052D01*
X118208313Y-111642175D01*
X118001380Y-111792521D01*
X117820521Y-111973380D01*
X117670175Y-112180313D01*
X117554052Y-112408215D01*
X117554051Y-112408218D01*
X117475012Y-112651481D01*
X117468053Y-112695416D01*
X118383327Y-112744984D01*
X118353246Y-112817609D01*
X118325000Y-112959609D01*
X118325000Y-113104391D01*
X118352783Y-113244065D01*
X117440505Y-113194657D01*
X107671240Y-113194657D01*
X107665838Y-113178424D01*
X107666556Y-113173297D01*
X107665810Y-113170458D01*
X107671826Y-113135687D01*
X107733492Y-112945901D01*
X107766500Y-112737500D01*
X107766500Y-112526500D01*
X107733492Y-112318099D01*
X107733491Y-112318095D01*
X107733491Y-112318094D01*
X107668291Y-112117429D01*
X107572497Y-111929424D01*
X107572495Y-111929421D01*
X107448476Y-111758723D01*
X107429294Y-111739541D01*
X107395809Y-111678218D01*
X107400793Y-111608526D01*
X107442665Y-111552593D01*
X107444090Y-111551542D01*
X107484942Y-111521862D01*
X107665862Y-111340942D01*
X107816252Y-111133947D01*
X107932410Y-110905975D01*
X108011474Y-110662639D01*
X108051500Y-110409930D01*
X108051500Y-110154070D01*
X108011474Y-109901361D01*
X108011473Y-109901357D01*
X108011473Y-109901356D01*
X107956419Y-109731918D01*
X107954424Y-109662077D01*
X107986667Y-109605921D01*
X108980771Y-108611819D01*
X109042094Y-108578334D01*
X109068452Y-108575500D01*
X122442226Y-108575500D01*
X122509265Y-108595185D01*
X122555020Y-108647989D01*
X122564964Y-108717147D01*
X122535939Y-108780703D01*
X122498521Y-108809985D01*
X122338049Y-108891750D01*
X122131064Y-109042132D01*
X122131059Y-109042136D01*
X121950136Y-109223059D01*
X121950132Y-109223064D01*
X121799750Y-109430049D01*
X121683589Y-109658024D01*
X121683588Y-109658027D01*
X121604526Y-109901359D01*
X121564500Y-110154070D01*
X121564500Y-110409929D01*
X121604526Y-110662640D01*
X121683588Y-110905972D01*
X121683589Y-110905975D01*
X121762533Y-111060910D01*
X121789436Y-111113709D01*
X121799750Y-111133950D01*
X121950132Y-111340935D01*
X121950136Y-111340940D01*
X122131063Y-111521867D01*
X122171908Y-111551542D01*
X122214574Y-111606871D01*
X122220553Y-111676485D01*
X122187948Y-111738280D01*
X122186706Y-111739539D01*
X122167526Y-111758719D01*
X122167520Y-111758726D01*
X122043504Y-111929421D01*
X121947708Y-112117429D01*
X121882508Y-112318094D01*
X121882508Y-112318097D01*
X121882508Y-112318099D01*
X121849500Y-112526500D01*
X121849500Y-112737500D01*
X121858747Y-112795883D01*
X121882508Y-112945902D01*
X121882508Y-112945905D01*
X121944170Y-113135681D01*
X121946165Y-113205522D01*
X121910084Y-113265355D01*
X121873693Y-113288559D01*
X121770740Y-113331205D01*
X121770724Y-113331212D01*
X121483448Y-113484765D01*
X121483420Y-113484782D01*
X121212594Y-113665741D01*
X121212571Y-113665758D01*
X120960755Y-113872418D01*
X120730418Y-114102755D01*
X120523758Y-114354571D01*
X120523741Y-114354594D01*
X120342782Y-114625420D01*
X120342765Y-114625448D01*
X120189212Y-114912724D01*
X120189210Y-114912729D01*
X120064546Y-115213693D01*
X119969980Y-115525437D01*
X119969977Y-115525448D01*
X119906432Y-115844921D01*
X119906429Y-115844938D01*
X119874500Y-116169123D01*
X119874500Y-116494876D01*
X119906429Y-116819061D01*
X119906432Y-116819078D01*
X119969977Y-117138551D01*
X119969980Y-117138562D01*
X120064546Y-117450306D01*
X120189210Y-117751270D01*
X120189212Y-117751275D01*
X120342765Y-118038551D01*
X120342782Y-118038579D01*
X120523741Y-118309405D01*
X120523758Y-118309428D01*
X120730418Y-118561244D01*
X120960755Y-118791581D01*
X120960760Y-118791585D01*
X120960761Y-118791586D01*
X121212577Y-118998246D01*
X121212584Y-118998251D01*
X121212594Y-118998258D01*
X121483420Y-119179217D01*
X121483425Y-119179220D01*
X121483437Y-119179228D01*
X121483446Y-119179232D01*
X121483448Y-119179234D01*
X121770724Y-119332787D01*
X121770726Y-119332787D01*
X121770732Y-119332791D01*
X122071695Y-119457454D01*
X122383428Y-119552017D01*
X122383434Y-119552018D01*
X122383437Y-119552019D01*
X122383448Y-119552022D01*
X122583785Y-119591870D01*
X122702928Y-119615569D01*
X123027120Y-119647500D01*
X123027123Y-119647500D01*
X123352877Y-119647500D01*
X123352880Y-119647500D01*
X123677072Y-119615569D01*
X123835212Y-119584113D01*
X123996551Y-119552022D01*
X123996562Y-119552019D01*
X123996562Y-119552018D01*
X123996572Y-119552017D01*
X124308305Y-119457454D01*
X124609268Y-119332791D01*
X124896563Y-119179228D01*
X125167423Y-118998246D01*
X125419239Y-118791586D01*
X125649586Y-118561239D01*
X125856246Y-118309423D01*
X126037228Y-118038563D01*
X126190791Y-117751268D01*
X126315454Y-117450305D01*
X126410017Y-117138572D01*
X126410019Y-117138562D01*
X126410022Y-117138551D01*
X126442113Y-116977212D01*
X126473569Y-116819072D01*
X126505500Y-116494880D01*
X126505500Y-116169120D01*
X126473569Y-115844928D01*
X126449870Y-115725785D01*
X126410022Y-115525448D01*
X126410019Y-115525437D01*
X126410018Y-115525434D01*
X126410017Y-115525428D01*
X126315454Y-115213695D01*
X126190791Y-114912732D01*
X126037228Y-114625437D01*
X126031582Y-114616987D01*
X125856258Y-114354594D01*
X125856251Y-114354584D01*
X125856246Y-114354577D01*
X125649586Y-114102761D01*
X125649585Y-114102760D01*
X125649581Y-114102755D01*
X125419244Y-113872418D01*
X125167428Y-113665758D01*
X125167405Y-113665741D01*
X124896579Y-113484782D01*
X124896551Y-113484765D01*
X124609276Y-113331213D01*
X124609273Y-113331212D01*
X124609268Y-113331209D01*
X124506305Y-113288560D01*
X124503100Y-113285977D01*
X124499047Y-113285276D01*
X124476130Y-113264243D01*
X124451902Y-113244718D01*
X124450602Y-113240813D01*
X124447572Y-113238032D01*
X124439664Y-113207950D01*
X124435240Y-113194657D01*
X134204505Y-113194657D01*
X134239013Y-113412523D01*
X134318051Y-113655781D01*
X134318052Y-113655784D01*
X134434175Y-113883686D01*
X134584521Y-114090619D01*
X134765380Y-114271478D01*
X134972313Y-114421824D01*
X135200215Y-114537947D01*
X135200218Y-114537948D01*
X135443474Y-114616986D01*
X135443478Y-114616987D01*
X135487416Y-114623946D01*
X135536984Y-113708672D01*
X135609609Y-113738754D01*
X135751609Y-113767000D01*
X135896391Y-113767000D01*
X136036064Y-113739216D01*
X135986657Y-114651492D01*
X135986657Y-114651493D01*
X136204523Y-114616986D01*
X136447781Y-114537948D01*
X136447784Y-114537947D01*
X136675686Y-114421824D01*
X136882619Y-114271478D01*
X137063478Y-114090619D01*
X137213824Y-113883686D01*
X137329947Y-113655784D01*
X137329948Y-113655781D01*
X137408984Y-113412529D01*
X137415945Y-113368581D01*
X136500672Y-113319013D01*
X136530754Y-113246391D01*
X136559000Y-113104391D01*
X136559000Y-112959609D01*
X136531216Y-112819932D01*
X137443492Y-112869341D01*
X137443493Y-112869341D01*
X137408986Y-112651476D01*
X137329948Y-112408218D01*
X137329947Y-112408215D01*
X137213824Y-112180313D01*
X137063478Y-111973380D01*
X136882619Y-111792521D01*
X136675686Y-111642175D01*
X136447784Y-111526052D01*
X136447781Y-111526051D01*
X136204518Y-111447012D01*
X136160582Y-111440053D01*
X136111013Y-112355327D01*
X136038391Y-112325246D01*
X135896391Y-112297000D01*
X135751609Y-112297000D01*
X135611932Y-112324783D01*
X135661341Y-111412505D01*
X135443476Y-111447013D01*
X135200218Y-111526051D01*
X135200215Y-111526052D01*
X134972313Y-111642175D01*
X134765380Y-111792521D01*
X134584521Y-111973380D01*
X134434175Y-112180313D01*
X134318052Y-112408215D01*
X134318051Y-112408218D01*
X134239012Y-112651481D01*
X134232053Y-112695416D01*
X135147327Y-112744984D01*
X135117246Y-112817609D01*
X135089000Y-112959609D01*
X135089000Y-113104391D01*
X135116783Y-113244065D01*
X134204505Y-113194657D01*
X124435240Y-113194657D01*
X124429838Y-113178424D01*
X124430556Y-113173297D01*
X124429810Y-113170458D01*
X124435826Y-113135687D01*
X124497492Y-112945901D01*
X124530500Y-112737500D01*
X124530500Y-112526500D01*
X124497492Y-112318099D01*
X124497491Y-112318095D01*
X124497491Y-112318094D01*
X124432291Y-112117429D01*
X124336497Y-111929424D01*
X124336495Y-111929421D01*
X124212476Y-111758723D01*
X124193294Y-111739541D01*
X124159809Y-111678218D01*
X124164793Y-111608526D01*
X124206665Y-111552593D01*
X124208090Y-111551542D01*
X124248942Y-111521862D01*
X124429862Y-111340942D01*
X124580252Y-111133947D01*
X124696410Y-110905975D01*
X124775474Y-110662639D01*
X124815500Y-110409930D01*
X124815500Y-110154070D01*
X124775474Y-109901361D01*
X124775473Y-109901357D01*
X124775473Y-109901356D01*
X124720419Y-109731918D01*
X124718424Y-109662077D01*
X124750666Y-109605923D01*
X124982772Y-109373816D01*
X125044094Y-109340334D01*
X125070452Y-109337500D01*
X126807607Y-109337500D01*
X126868029Y-109325481D01*
X126928452Y-109313463D01*
X126961792Y-109299652D01*
X127042286Y-109266312D01*
X127103654Y-109225306D01*
X127144733Y-109197858D01*
X127231858Y-109110733D01*
X127231859Y-109110731D01*
X127238925Y-109103665D01*
X127238928Y-109103661D01*
X128160729Y-108181860D01*
X128160733Y-108181858D01*
X128247858Y-108094733D01*
X128282116Y-108043463D01*
X128316312Y-107992286D01*
X128363463Y-107878451D01*
X128370966Y-107840733D01*
X128385522Y-107767549D01*
X128385522Y-107767548D01*
X128385524Y-107767548D01*
X128385524Y-107767538D01*
X128387500Y-107757607D01*
X128387500Y-107634393D01*
X128387500Y-104679452D01*
X128407185Y-104612413D01*
X128459989Y-104566658D01*
X128529147Y-104556714D01*
X128592703Y-104585739D01*
X128599181Y-104591771D01*
X129476205Y-105468795D01*
X129509690Y-105530118D01*
X129510141Y-105532285D01*
X129532261Y-105643489D01*
X129532264Y-105643501D01*
X129592602Y-105789172D01*
X129592609Y-105789185D01*
X129680210Y-105920288D01*
X129680213Y-105920292D01*
X129791707Y-106031786D01*
X129791711Y-106031789D01*
X129922814Y-106119390D01*
X129922827Y-106119397D01*
X130068498Y-106179735D01*
X130068503Y-106179737D01*
X130133147Y-106192595D01*
X130223849Y-106210638D01*
X130285760Y-106243023D01*
X130287339Y-106244574D01*
X134689139Y-110646374D01*
X134689149Y-110646385D01*
X134693479Y-110650715D01*
X134693480Y-110650716D01*
X134805284Y-110762520D01*
X134805286Y-110762521D01*
X134805290Y-110762524D01*
X134942209Y-110841573D01*
X134942216Y-110841577D01*
X135054019Y-110871534D01*
X135094942Y-110882500D01*
X135094943Y-110882500D01*
X138359642Y-110882500D01*
X138426681Y-110902185D01*
X138470125Y-110950203D01*
X138563748Y-111133947D01*
X138563750Y-111133950D01*
X138714132Y-111340935D01*
X138714136Y-111340940D01*
X138895063Y-111521867D01*
X138935908Y-111551542D01*
X138978574Y-111606871D01*
X138984553Y-111676485D01*
X138951948Y-111738280D01*
X138950706Y-111739539D01*
X138931526Y-111758719D01*
X138931520Y-111758726D01*
X138807504Y-111929421D01*
X138711708Y-112117429D01*
X138646508Y-112318094D01*
X138646508Y-112318097D01*
X138646508Y-112318099D01*
X138613500Y-112526500D01*
X138613500Y-112737500D01*
X138622747Y-112795883D01*
X138646508Y-112945902D01*
X138646508Y-112945905D01*
X138708170Y-113135681D01*
X138710165Y-113205522D01*
X138674084Y-113265355D01*
X138637693Y-113288559D01*
X138534740Y-113331205D01*
X138534724Y-113331212D01*
X138247448Y-113484765D01*
X138247420Y-113484782D01*
X137976594Y-113665741D01*
X137976571Y-113665758D01*
X137724755Y-113872418D01*
X137494418Y-114102755D01*
X137287758Y-114354571D01*
X137287741Y-114354594D01*
X137106782Y-114625420D01*
X137106765Y-114625448D01*
X136953212Y-114912724D01*
X136953210Y-114912729D01*
X136828546Y-115213693D01*
X136733980Y-115525437D01*
X136733977Y-115525448D01*
X136670432Y-115844921D01*
X136670429Y-115844938D01*
X136638500Y-116169123D01*
X136638500Y-116494876D01*
X136670429Y-116819061D01*
X136670432Y-116819078D01*
X136733977Y-117138551D01*
X136733980Y-117138562D01*
X136828546Y-117450306D01*
X136953210Y-117751270D01*
X136953212Y-117751275D01*
X137106765Y-118038551D01*
X137106782Y-118038579D01*
X137287741Y-118309405D01*
X137287758Y-118309428D01*
X137494418Y-118561244D01*
X137724755Y-118791581D01*
X137724760Y-118791585D01*
X137724761Y-118791586D01*
X137976577Y-118998246D01*
X137976584Y-118998251D01*
X137976594Y-118998258D01*
X138247420Y-119179217D01*
X138247425Y-119179220D01*
X138247437Y-119179228D01*
X138247446Y-119179232D01*
X138247448Y-119179234D01*
X138534724Y-119332787D01*
X138534726Y-119332787D01*
X138534732Y-119332791D01*
X138835695Y-119457454D01*
X139147428Y-119552017D01*
X139147434Y-119552018D01*
X139147437Y-119552019D01*
X139147448Y-119552022D01*
X139347785Y-119591870D01*
X139466928Y-119615569D01*
X139791120Y-119647500D01*
X139791123Y-119647500D01*
X140116877Y-119647500D01*
X140116880Y-119647500D01*
X140441072Y-119615569D01*
X140599212Y-119584113D01*
X140760551Y-119552022D01*
X140760562Y-119552019D01*
X140760562Y-119552018D01*
X140760572Y-119552017D01*
X141072305Y-119457454D01*
X141373268Y-119332791D01*
X141660563Y-119179228D01*
X141931423Y-118998246D01*
X142183239Y-118791586D01*
X142413586Y-118561239D01*
X142620246Y-118309423D01*
X142801228Y-118038563D01*
X142954791Y-117751268D01*
X143079454Y-117450305D01*
X143174017Y-117138572D01*
X143174019Y-117138562D01*
X143174022Y-117138551D01*
X143206113Y-116977212D01*
X143237569Y-116819072D01*
X143269500Y-116494880D01*
X143269500Y-116169120D01*
X143237569Y-115844928D01*
X143213870Y-115725785D01*
X143174022Y-115525448D01*
X143174019Y-115525437D01*
X143174018Y-115525434D01*
X143174017Y-115525428D01*
X143079454Y-115213695D01*
X142954791Y-114912732D01*
X142801228Y-114625437D01*
X142795582Y-114616987D01*
X142620258Y-114354594D01*
X142620251Y-114354584D01*
X142620246Y-114354577D01*
X142413586Y-114102761D01*
X142413585Y-114102760D01*
X142413581Y-114102755D01*
X142183244Y-113872418D01*
X142079727Y-113787464D01*
X141931428Y-113665758D01*
X141931405Y-113665741D01*
X141660579Y-113484782D01*
X141660551Y-113484765D01*
X141373276Y-113331213D01*
X141373273Y-113331212D01*
X141373268Y-113331209D01*
X141270305Y-113288560D01*
X141215902Y-113244718D01*
X141193838Y-113178424D01*
X141199826Y-113135687D01*
X141261492Y-112945901D01*
X141294500Y-112737500D01*
X141294500Y-112526500D01*
X141261492Y-112318099D01*
X141261491Y-112318095D01*
X141261491Y-112318094D01*
X141196291Y-112117429D01*
X141100497Y-111929424D01*
X141100495Y-111929421D01*
X140976476Y-111758723D01*
X140957294Y-111739541D01*
X140923809Y-111678218D01*
X140928793Y-111608526D01*
X140970665Y-111552593D01*
X140972090Y-111551542D01*
X141012942Y-111521862D01*
X141193862Y-111340942D01*
X141344252Y-111133947D01*
X141460410Y-110905975D01*
X141539474Y-110662639D01*
X141579500Y-110409930D01*
X141579500Y-110154070D01*
X141539474Y-109901361D01*
X141484419Y-109731918D01*
X141460411Y-109658027D01*
X141460410Y-109658024D01*
X141413105Y-109565185D01*
X141344252Y-109430053D01*
X141325038Y-109403607D01*
X141193867Y-109223064D01*
X141193863Y-109223059D01*
X141012940Y-109042136D01*
X141012935Y-109042132D01*
X140805950Y-108891750D01*
X140805949Y-108891749D01*
X140805947Y-108891748D01*
X140699270Y-108837393D01*
X140577975Y-108775589D01*
X140577972Y-108775588D01*
X140334640Y-108696526D01*
X140208284Y-108676513D01*
X140081930Y-108656500D01*
X139826070Y-108656500D01*
X139741833Y-108669842D01*
X139573359Y-108696526D01*
X139330027Y-108775588D01*
X139330024Y-108775589D01*
X139102049Y-108891750D01*
X138895064Y-109042132D01*
X138895059Y-109042136D01*
X138714136Y-109223059D01*
X138714132Y-109223064D01*
X138563750Y-109430049D01*
X138563748Y-109430053D01*
X138470125Y-109613796D01*
X138422152Y-109664591D01*
X138359642Y-109681500D01*
X135474097Y-109681500D01*
X135407058Y-109661815D01*
X135386416Y-109645181D01*
X133292731Y-107551496D01*
X157809200Y-107551496D01*
X157812097Y-107594224D01*
X157858031Y-107778923D01*
X157942590Y-107949422D01*
X157942592Y-107949425D01*
X158061832Y-108097766D01*
X158061833Y-108097767D01*
X158210174Y-108217007D01*
X158210177Y-108217009D01*
X158380676Y-108301568D01*
X158565375Y-108347502D01*
X158608103Y-108350400D01*
X159059200Y-108350400D01*
X159559200Y-108350400D01*
X160010297Y-108350400D01*
X160053024Y-108347502D01*
X160237723Y-108301568D01*
X160408222Y-108217009D01*
X160408225Y-108217007D01*
X160556566Y-108097767D01*
X160556567Y-108097766D01*
X160675807Y-107949425D01*
X160675809Y-107949422D01*
X160760368Y-107778923D01*
X160806302Y-107594224D01*
X160809200Y-107551496D01*
X160809200Y-107350400D01*
X159559200Y-107350400D01*
X159559200Y-108350400D01*
X159059200Y-108350400D01*
X159059200Y-107350400D01*
X157809200Y-107350400D01*
X157809200Y-107551496D01*
X133292731Y-107551496D01*
X131136574Y-105395339D01*
X131103089Y-105334016D01*
X131102638Y-105331849D01*
X131071738Y-105176510D01*
X131071737Y-105176503D01*
X131071735Y-105176498D01*
X131011397Y-105030827D01*
X131011390Y-105030814D01*
X130923789Y-104899711D01*
X130923786Y-104899707D01*
X130812292Y-104788213D01*
X130812288Y-104788210D01*
X130681185Y-104700609D01*
X130681172Y-104700602D01*
X130535501Y-104640264D01*
X130535489Y-104640261D01*
X130424285Y-104618141D01*
X130362374Y-104585756D01*
X130360795Y-104584205D01*
X129647819Y-103871229D01*
X129614334Y-103809906D01*
X129611500Y-103783548D01*
X129611500Y-102785278D01*
X129631185Y-102718239D01*
X129683989Y-102672484D01*
X129745227Y-102661660D01*
X129781310Y-102664500D01*
X129781318Y-102664500D01*
X130190682Y-102664500D01*
X130190690Y-102664500D01*
X130226993Y-102661643D01*
X130226995Y-102661642D01*
X130226997Y-102661642D01*
X130267975Y-102649736D01*
X130382395Y-102616494D01*
X130521687Y-102534117D01*
X130564984Y-102490820D01*
X130626307Y-102457334D01*
X130652666Y-102454500D01*
X130992234Y-102454500D01*
X131059273Y-102474185D01*
X131061125Y-102475398D01*
X131192814Y-102563390D01*
X131192827Y-102563397D01*
X131338498Y-102623735D01*
X131338503Y-102623737D01*
X131403147Y-102636595D01*
X131493849Y-102654638D01*
X131555760Y-102687023D01*
X131557337Y-102688572D01*
X132503284Y-103634520D01*
X132503286Y-103634521D01*
X132503290Y-103634524D01*
X132598310Y-103689383D01*
X132640216Y-103713577D01*
X132792943Y-103754501D01*
X132792945Y-103754501D01*
X132937334Y-103754501D01*
X133004373Y-103774186D01*
X133025015Y-103790820D01*
X133038307Y-103804112D01*
X133038311Y-103804115D01*
X133038313Y-103804117D01*
X133177605Y-103886494D01*
X133218587Y-103898400D01*
X133333002Y-103931642D01*
X133333005Y-103931642D01*
X133333007Y-103931643D01*
X133369310Y-103934500D01*
X133369318Y-103934500D01*
X133838682Y-103934500D01*
X133838690Y-103934500D01*
X133874993Y-103931643D01*
X133874995Y-103931642D01*
X133874997Y-103931642D01*
X133915975Y-103919736D01*
X134030395Y-103886494D01*
X134169687Y-103804117D01*
X134171127Y-103802677D01*
X134174319Y-103799486D01*
X134235642Y-103766001D01*
X134305334Y-103770985D01*
X134361267Y-103812857D01*
X134385684Y-103878321D01*
X134386000Y-103887167D01*
X134386000Y-104217844D01*
X134392401Y-104277372D01*
X134392403Y-104277379D01*
X134442645Y-104412086D01*
X134442649Y-104412093D01*
X134528809Y-104527187D01*
X134528812Y-104527190D01*
X134643906Y-104613350D01*
X134643913Y-104613354D01*
X134778620Y-104663596D01*
X134778627Y-104663598D01*
X134838155Y-104669999D01*
X134838172Y-104670000D01*
X135086000Y-104670000D01*
X135586000Y-104670000D01*
X135833828Y-104670000D01*
X135833844Y-104669999D01*
X135893372Y-104663598D01*
X135893379Y-104663596D01*
X136028086Y-104613354D01*
X136028093Y-104613350D01*
X136143187Y-104527190D01*
X136143190Y-104527187D01*
X136229350Y-104412093D01*
X136229354Y-104412086D01*
X136279596Y-104277379D01*
X136279598Y-104277372D01*
X136285999Y-104217844D01*
X138486000Y-104217844D01*
X138492401Y-104277372D01*
X138492403Y-104277379D01*
X138542645Y-104412086D01*
X138542649Y-104412093D01*
X138628809Y-104527187D01*
X138628812Y-104527190D01*
X138743906Y-104613350D01*
X138743913Y-104613354D01*
X138878620Y-104663596D01*
X138878627Y-104663598D01*
X138938155Y-104669999D01*
X138938172Y-104670000D01*
X139186000Y-104670000D01*
X139186000Y-103920000D01*
X138486000Y-103920000D01*
X138486000Y-104217844D01*
X136285999Y-104217844D01*
X136286000Y-104217827D01*
X136286000Y-103920000D01*
X135586000Y-103920000D01*
X135586000Y-104670000D01*
X135086000Y-104670000D01*
X135086000Y-103794000D01*
X135105685Y-103726961D01*
X135158489Y-103681206D01*
X135210000Y-103670000D01*
X135336000Y-103670000D01*
X135336000Y-103544000D01*
X135355685Y-103476961D01*
X135408489Y-103431206D01*
X135460000Y-103420000D01*
X136286000Y-103420000D01*
X136286000Y-103122172D01*
X136285999Y-103122155D01*
X136279598Y-103062627D01*
X136279597Y-103062623D01*
X136226253Y-102919602D01*
X136227612Y-102919094D01*
X136222793Y-102894674D01*
X136215616Y-102861674D01*
X136215972Y-102860108D01*
X136215810Y-102859286D01*
X136217201Y-102854712D01*
X136223979Y-102824950D01*
X136228038Y-102814679D01*
X136229796Y-102812331D01*
X136243715Y-102775010D01*
X136244145Y-102773924D01*
X136264921Y-102747262D01*
X136285156Y-102720233D01*
X136286324Y-102719797D01*
X136287092Y-102718812D01*
X136318979Y-102707617D01*
X136350620Y-102695816D01*
X136352819Y-102695737D01*
X136353017Y-102695668D01*
X136353244Y-102695722D01*
X136359466Y-102695500D01*
X138412533Y-102695500D01*
X138479572Y-102715185D01*
X138525327Y-102767989D01*
X138528715Y-102776166D01*
X138545303Y-102820640D01*
X138543733Y-102821225D01*
X138556383Y-102879367D01*
X138544687Y-102919206D01*
X138545746Y-102919601D01*
X138492403Y-103062620D01*
X138492401Y-103062627D01*
X138486000Y-103122155D01*
X138486000Y-103420000D01*
X139312000Y-103420000D01*
X139379039Y-103439685D01*
X139424794Y-103492489D01*
X139436000Y-103544000D01*
X139436000Y-103670000D01*
X139562000Y-103670000D01*
X139629039Y-103689685D01*
X139674794Y-103742489D01*
X139686000Y-103794000D01*
X139686000Y-104670000D01*
X139933828Y-104670000D01*
X139933844Y-104669999D01*
X139993372Y-104663598D01*
X139993379Y-104663596D01*
X140128086Y-104613354D01*
X140128093Y-104613350D01*
X140243187Y-104527190D01*
X140243190Y-104527187D01*
X140329350Y-104412093D01*
X140329354Y-104412086D01*
X140379596Y-104277379D01*
X140379598Y-104277372D01*
X140385999Y-104217844D01*
X140386000Y-104217827D01*
X140386000Y-103876460D01*
X140405685Y-103809421D01*
X140458489Y-103763666D01*
X140527647Y-103753722D01*
X140591203Y-103782747D01*
X140597681Y-103788779D01*
X140612616Y-103803714D01*
X140612625Y-103803721D01*
X140751804Y-103886031D01*
X140907089Y-103931145D01*
X140928000Y-103932789D01*
X141428000Y-103932789D01*
X141448910Y-103931145D01*
X141604195Y-103886031D01*
X141743374Y-103803721D01*
X141743383Y-103803714D01*
X141857714Y-103689383D01*
X141857721Y-103689374D01*
X141940031Y-103550195D01*
X141982504Y-103404000D01*
X142659496Y-103404000D01*
X142701968Y-103550195D01*
X142784278Y-103689374D01*
X142784285Y-103689383D01*
X142898616Y-103803714D01*
X142898625Y-103803721D01*
X143037804Y-103886031D01*
X143193089Y-103931145D01*
X143214000Y-103932789D01*
X143214000Y-103404000D01*
X142659496Y-103404000D01*
X141982504Y-103404000D01*
X141428000Y-103404000D01*
X141428000Y-103932789D01*
X140928000Y-103932789D01*
X140928000Y-103278000D01*
X140947685Y-103210961D01*
X141000489Y-103165206D01*
X141052000Y-103154000D01*
X141178000Y-103154000D01*
X141178000Y-103058500D01*
X141197685Y-102991461D01*
X141250489Y-102945706D01*
X141302000Y-102934500D01*
X141412682Y-102934500D01*
X141412690Y-102934500D01*
X141448993Y-102931643D01*
X141527191Y-102908923D01*
X141561787Y-102904000D01*
X141982504Y-102904000D01*
X141940031Y-102757804D01*
X141916261Y-102717611D01*
X141899078Y-102649887D01*
X141916260Y-102591371D01*
X141940494Y-102550395D01*
X141985643Y-102394993D01*
X141988500Y-102358690D01*
X141988500Y-101949310D01*
X141985643Y-101913007D01*
X141940494Y-101757605D01*
X141858117Y-101618313D01*
X141858115Y-101618311D01*
X141858112Y-101618307D01*
X141743692Y-101503887D01*
X141743684Y-101503881D01*
X141666707Y-101458357D01*
X141604395Y-101421506D01*
X141604394Y-101421505D01*
X141604393Y-101421505D01*
X141604390Y-101421504D01*
X141448997Y-101376357D01*
X141448991Y-101376356D01*
X141412697Y-101373500D01*
X141412690Y-101373500D01*
X140943310Y-101373500D01*
X140943302Y-101373500D01*
X140907008Y-101376356D01*
X140907002Y-101376357D01*
X140751609Y-101421504D01*
X140751602Y-101421507D01*
X140741922Y-101427232D01*
X140726022Y-101431581D01*
X140713737Y-101439477D01*
X140678802Y-101444500D01*
X140459467Y-101444500D01*
X140392428Y-101424815D01*
X140346673Y-101372011D01*
X140343285Y-101363834D01*
X140329796Y-101327669D01*
X140329793Y-101327664D01*
X140243547Y-101212455D01*
X140243544Y-101212452D01*
X140128335Y-101126206D01*
X140128328Y-101126202D01*
X139993482Y-101075908D01*
X139993483Y-101075908D01*
X139933883Y-101069501D01*
X139933881Y-101069500D01*
X139933873Y-101069500D01*
X139933864Y-101069500D01*
X138938129Y-101069500D01*
X138938123Y-101069501D01*
X138878516Y-101075908D01*
X138743671Y-101126202D01*
X138743664Y-101126206D01*
X138628455Y-101212452D01*
X138628452Y-101212455D01*
X138542206Y-101327664D01*
X138542203Y-101327669D01*
X138528715Y-101363834D01*
X138486843Y-101419767D01*
X138421379Y-101444184D01*
X138412533Y-101444500D01*
X136359467Y-101444500D01*
X136292428Y-101424815D01*
X136246673Y-101372011D01*
X136243285Y-101363834D01*
X136229796Y-101327669D01*
X136229793Y-101327664D01*
X136143547Y-101212455D01*
X136143544Y-101212452D01*
X136028335Y-101126206D01*
X136028328Y-101126202D01*
X135893482Y-101075908D01*
X135893483Y-101075908D01*
X135833883Y-101069501D01*
X135833881Y-101069500D01*
X135833873Y-101069500D01*
X135833864Y-101069500D01*
X134838129Y-101069500D01*
X134838123Y-101069501D01*
X134778516Y-101075908D01*
X134643671Y-101126202D01*
X134643664Y-101126206D01*
X134528455Y-101212452D01*
X134528452Y-101212455D01*
X134442206Y-101327664D01*
X134442202Y-101327671D01*
X134397386Y-101447833D01*
X134384116Y-101465559D01*
X134374917Y-101485703D01*
X134363585Y-101492985D01*
X134355515Y-101503766D01*
X134334769Y-101511504D01*
X134316139Y-101523477D01*
X134294221Y-101526628D01*
X134290051Y-101528184D01*
X134281204Y-101528500D01*
X134243878Y-101528500D01*
X134176839Y-101508815D01*
X134170763Y-101504519D01*
X134035990Y-101424815D01*
X134030395Y-101421506D01*
X134030394Y-101421505D01*
X134030393Y-101421505D01*
X134030390Y-101421504D01*
X133874997Y-101376357D01*
X133874991Y-101376356D01*
X133838697Y-101373500D01*
X133838690Y-101373500D01*
X133551453Y-101373500D01*
X133484414Y-101353815D01*
X133463772Y-101337181D01*
X132233819Y-100107228D01*
X132200334Y-100045905D01*
X132197500Y-100019547D01*
X132197500Y-97894451D01*
X132206144Y-97865010D01*
X132212668Y-97835024D01*
X132216422Y-97830008D01*
X132217185Y-97827412D01*
X132233815Y-97806774D01*
X132282321Y-97758268D01*
X132343642Y-97724785D01*
X132413334Y-97729769D01*
X132469267Y-97771641D01*
X132493684Y-97837105D01*
X132494000Y-97845951D01*
X132494000Y-97949844D01*
X132500401Y-98009372D01*
X132500403Y-98009379D01*
X132550645Y-98144086D01*
X132550649Y-98144093D01*
X132636809Y-98259187D01*
X132636812Y-98259190D01*
X132751906Y-98345350D01*
X132751913Y-98345354D01*
X132886620Y-98395596D01*
X132886627Y-98395598D01*
X132946155Y-98401999D01*
X132946172Y-98402000D01*
X133494000Y-98402000D01*
X133994000Y-98402000D01*
X134541828Y-98402000D01*
X134541844Y-98401999D01*
X134601372Y-98395598D01*
X134601379Y-98395596D01*
X134736086Y-98345354D01*
X134736093Y-98345350D01*
X134851187Y-98259190D01*
X134851190Y-98259187D01*
X134937350Y-98144093D01*
X134937354Y-98144086D01*
X134987596Y-98009379D01*
X134987598Y-98009372D01*
X134993999Y-97949844D01*
X134994000Y-97949827D01*
X134994000Y-97702000D01*
X133994000Y-97702000D01*
X133994000Y-98402000D01*
X133494000Y-98402000D01*
X133494000Y-97576000D01*
X133513685Y-97508961D01*
X133566489Y-97463206D01*
X133618000Y-97452000D01*
X133744000Y-97452000D01*
X133744000Y-97326000D01*
X133763685Y-97258961D01*
X133816489Y-97213206D01*
X133868000Y-97202000D01*
X134994000Y-97202000D01*
X134994000Y-96954172D01*
X134993999Y-96954155D01*
X134987598Y-96894627D01*
X134987597Y-96894623D01*
X134934253Y-96751602D01*
X134936067Y-96750925D01*
X134923616Y-96693674D01*
X134935570Y-96652966D01*
X134934696Y-96652640D01*
X134937794Y-96644333D01*
X134937796Y-96644331D01*
X134988091Y-96509483D01*
X134994500Y-96449873D01*
X134994499Y-95454128D01*
X134988091Y-95394517D01*
X134937796Y-95259669D01*
X134937794Y-95259666D01*
X134934696Y-95251360D01*
X134936426Y-95250714D01*
X134923902Y-95193163D01*
X134935691Y-95153011D01*
X134934696Y-95152640D01*
X134937794Y-95144333D01*
X134937796Y-95144331D01*
X134988091Y-95009483D01*
X134994500Y-94949873D01*
X134994499Y-93954128D01*
X134988091Y-93894517D01*
X134937796Y-93759669D01*
X134937794Y-93759666D01*
X134934696Y-93751360D01*
X134936426Y-93750714D01*
X134923902Y-93693163D01*
X134935691Y-93653011D01*
X134934696Y-93652640D01*
X134937794Y-93644333D01*
X134937796Y-93644331D01*
X134988091Y-93509483D01*
X134994500Y-93449873D01*
X134994499Y-92454128D01*
X134988091Y-92394517D01*
X134937796Y-92259669D01*
X134937794Y-92259666D01*
X134934696Y-92251360D01*
X134936426Y-92250714D01*
X134923902Y-92193163D01*
X134935691Y-92153011D01*
X134934696Y-92152640D01*
X134937794Y-92144333D01*
X134937796Y-92144331D01*
X134988091Y-92009483D01*
X134994500Y-91949873D01*
X134994499Y-90954128D01*
X134988091Y-90894517D01*
X134937796Y-90759669D01*
X134937794Y-90759666D01*
X134934696Y-90751360D01*
X134936426Y-90750714D01*
X134923902Y-90693163D01*
X134935691Y-90653011D01*
X134934696Y-90652640D01*
X134937794Y-90644333D01*
X134937796Y-90644331D01*
X134988091Y-90509483D01*
X134994500Y-90449873D01*
X134994499Y-89454128D01*
X134988091Y-89394517D01*
X134937796Y-89259669D01*
X134937794Y-89259666D01*
X134934696Y-89251360D01*
X134936426Y-89250714D01*
X134923902Y-89193163D01*
X134935691Y-89153011D01*
X134934696Y-89152640D01*
X134937794Y-89144333D01*
X134937796Y-89144331D01*
X134988091Y-89009483D01*
X134994500Y-88949873D01*
X134994499Y-87954128D01*
X134988091Y-87894517D01*
X134937796Y-87759669D01*
X134937794Y-87759666D01*
X134934696Y-87751360D01*
X134936426Y-87750714D01*
X134923902Y-87693163D01*
X134935691Y-87653011D01*
X134934696Y-87652640D01*
X134937794Y-87644333D01*
X134937796Y-87644331D01*
X134988091Y-87509483D01*
X134994500Y-87449873D01*
X134994499Y-86454128D01*
X134988091Y-86394517D01*
X134937796Y-86259669D01*
X134937794Y-86259666D01*
X134934696Y-86251360D01*
X134936426Y-86250714D01*
X134923902Y-86193163D01*
X134935691Y-86153011D01*
X134934696Y-86152640D01*
X134937794Y-86144333D01*
X134937796Y-86144331D01*
X134988091Y-86009483D01*
X134994500Y-85949873D01*
X134994499Y-84954128D01*
X134988091Y-84894517D01*
X134986504Y-84890263D01*
X134937797Y-84759671D01*
X134937795Y-84759668D01*
X134910595Y-84723334D01*
X134886178Y-84657871D01*
X134901029Y-84589598D01*
X134950434Y-84540192D01*
X135009951Y-84525023D01*
X149969987Y-84536032D01*
X150037011Y-84555766D01*
X150082727Y-84608604D01*
X150092620Y-84677769D01*
X150069163Y-84734341D01*
X150050206Y-84759665D01*
X150050202Y-84759671D01*
X149999908Y-84894517D01*
X149993878Y-84950609D01*
X149993501Y-84954123D01*
X149993500Y-84954135D01*
X149993500Y-85949870D01*
X149993501Y-85949876D01*
X149999908Y-86009483D01*
X150053303Y-86152641D01*
X150051575Y-86153285D01*
X150064095Y-86210853D01*
X150052310Y-86250988D01*
X150053303Y-86251359D01*
X149999908Y-86394517D01*
X149993501Y-86454116D01*
X149993501Y-86454123D01*
X149993500Y-86454135D01*
X149993500Y-87449870D01*
X149993501Y-87449876D01*
X149999908Y-87509483D01*
X150053303Y-87652641D01*
X150051575Y-87653285D01*
X150064095Y-87710853D01*
X150052310Y-87750988D01*
X150053303Y-87751359D01*
X149999908Y-87894517D01*
X149993501Y-87954116D01*
X149993501Y-87954123D01*
X149993500Y-87954135D01*
X149993500Y-88949870D01*
X149993501Y-88949876D01*
X149999908Y-89009483D01*
X150050809Y-89145956D01*
X150051276Y-89146457D01*
X150051538Y-89147911D01*
X150053303Y-89152641D01*
X150052451Y-89152958D01*
X150057115Y-89178759D01*
X150064095Y-89210853D01*
X150063427Y-89213678D01*
X150063705Y-89215212D01*
X150061096Y-89223550D01*
X150054989Y-89249413D01*
X150051413Y-89258053D01*
X150050204Y-89259669D01*
X150045261Y-89272921D01*
X150044437Y-89274913D01*
X150023841Y-89300488D01*
X150004171Y-89326766D01*
X150002040Y-89327560D01*
X150000615Y-89329331D01*
X149969479Y-89339705D01*
X149938707Y-89351184D01*
X149934592Y-89351330D01*
X149934328Y-89351419D01*
X149934057Y-89351350D01*
X149929859Y-89351500D01*
X148700941Y-89351500D01*
X148633902Y-89331815D01*
X148613260Y-89315181D01*
X148592292Y-89294213D01*
X148592288Y-89294210D01*
X148461185Y-89206609D01*
X148461172Y-89206602D01*
X148315501Y-89146264D01*
X148315489Y-89146261D01*
X148160845Y-89115500D01*
X148160842Y-89115500D01*
X148003158Y-89115500D01*
X148003155Y-89115500D01*
X147848510Y-89146261D01*
X147848498Y-89146264D01*
X147702827Y-89206602D01*
X147702814Y-89206609D01*
X147571711Y-89294210D01*
X147571707Y-89294213D01*
X147460213Y-89405707D01*
X147460210Y-89405711D01*
X147372609Y-89536814D01*
X147372602Y-89536827D01*
X147312264Y-89682498D01*
X147312261Y-89682510D01*
X147281500Y-89837153D01*
X147281500Y-89994846D01*
X147312261Y-90149489D01*
X147312264Y-90149501D01*
X147372602Y-90295172D01*
X147372609Y-90295185D01*
X147460210Y-90426288D01*
X147460213Y-90426292D01*
X147571707Y-90537786D01*
X147571711Y-90537789D01*
X147702814Y-90625390D01*
X147702827Y-90625397D01*
X147848498Y-90685735D01*
X147848503Y-90685737D01*
X147967967Y-90709500D01*
X148003153Y-90716499D01*
X148003156Y-90716500D01*
X148003158Y-90716500D01*
X148160844Y-90716500D01*
X148160845Y-90716499D01*
X148315497Y-90685737D01*
X148461179Y-90625394D01*
X148538997Y-90573397D01*
X148605673Y-90552520D01*
X148607887Y-90552500D01*
X149929859Y-90552500D01*
X149949059Y-90558137D01*
X149969058Y-90558859D01*
X149981898Y-90567780D01*
X149996898Y-90572185D01*
X150010000Y-90587305D01*
X150026437Y-90598726D01*
X150038960Y-90620727D01*
X150042653Y-90624989D01*
X150044436Y-90629086D01*
X150045266Y-90631092D01*
X150050204Y-90644331D01*
X150051413Y-90645946D01*
X150054988Y-90654585D01*
X150058029Y-90682965D01*
X150064094Y-90710859D01*
X150061840Y-90718532D01*
X150062433Y-90724057D01*
X150057083Y-90734734D01*
X150052311Y-90750989D01*
X150053303Y-90751359D01*
X149999908Y-90894517D01*
X149996125Y-90929711D01*
X149993501Y-90954123D01*
X149993500Y-90954135D01*
X149993500Y-91949870D01*
X149993501Y-91949876D01*
X149999908Y-92009483D01*
X150053303Y-92152641D01*
X150051575Y-92153285D01*
X150064095Y-92210853D01*
X150052310Y-92250988D01*
X150053303Y-92251359D01*
X149999908Y-92394517D01*
X149994067Y-92448854D01*
X149993501Y-92454123D01*
X149993500Y-92454135D01*
X149993500Y-93449870D01*
X149993501Y-93449876D01*
X149999908Y-93509483D01*
X150053303Y-93652641D01*
X150051575Y-93653285D01*
X150064095Y-93710853D01*
X150052310Y-93750988D01*
X150053303Y-93751359D01*
X149999908Y-93894517D01*
X149995052Y-93939688D01*
X149993501Y-93954123D01*
X149993500Y-93954135D01*
X149993500Y-94949870D01*
X149993501Y-94949876D01*
X149999908Y-95009483D01*
X150053303Y-95152641D01*
X150051575Y-95153285D01*
X150064095Y-95210853D01*
X150052310Y-95250988D01*
X150053303Y-95251359D01*
X149999908Y-95394517D01*
X149993501Y-95454116D01*
X149993501Y-95454123D01*
X149993500Y-95454135D01*
X149993500Y-96449870D01*
X149993501Y-96449876D01*
X149999908Y-96509483D01*
X150053303Y-96652641D01*
X150051575Y-96653285D01*
X150064095Y-96710853D01*
X150052310Y-96750988D01*
X150053303Y-96751359D01*
X149999908Y-96894517D01*
X149993501Y-96954116D01*
X149993500Y-96954135D01*
X149993500Y-97949870D01*
X149993501Y-97949876D01*
X149999908Y-98009483D01*
X150050202Y-98144328D01*
X150050206Y-98144335D01*
X150136452Y-98259544D01*
X150136455Y-98259547D01*
X150251664Y-98345793D01*
X150251671Y-98345797D01*
X150386517Y-98396091D01*
X150386516Y-98396091D01*
X150393444Y-98396835D01*
X150446127Y-98402500D01*
X152041872Y-98402499D01*
X152101483Y-98396091D01*
X152236331Y-98345796D01*
X152351546Y-98259546D01*
X152437796Y-98144331D01*
X152458496Y-98088832D01*
X152500367Y-98032898D01*
X152565831Y-98008481D01*
X152634104Y-98023332D01*
X152683510Y-98072737D01*
X152689239Y-98084713D01*
X152736619Y-98199101D01*
X152736626Y-98199114D01*
X152824227Y-98330217D01*
X152824230Y-98330221D01*
X152935724Y-98441715D01*
X152935728Y-98441718D01*
X153066831Y-98529319D01*
X153066844Y-98529326D01*
X153212515Y-98589664D01*
X153212520Y-98589666D01*
X153367170Y-98620428D01*
X153367173Y-98620429D01*
X153367175Y-98620429D01*
X153524861Y-98620429D01*
X153524862Y-98620428D01*
X153679514Y-98589666D01*
X153825196Y-98529323D01*
X153956306Y-98441718D01*
X154067806Y-98330218D01*
X154155411Y-98199108D01*
X154215754Y-98053426D01*
X154246517Y-97898771D01*
X154246517Y-97741087D01*
X154246517Y-97741084D01*
X154246516Y-97741082D01*
X154238660Y-97701586D01*
X154215754Y-97586432D01*
X154202860Y-97555302D01*
X154158444Y-97448071D01*
X154150975Y-97378602D01*
X154158442Y-97353170D01*
X154199692Y-97253585D01*
X154230455Y-97098930D01*
X154230455Y-96941246D01*
X154230455Y-96941243D01*
X154230454Y-96941241D01*
X154214504Y-96861054D01*
X154199692Y-96786591D01*
X154184919Y-96750925D01*
X154139352Y-96640915D01*
X154139345Y-96640902D01*
X154051353Y-96509213D01*
X154045702Y-96491166D01*
X154035478Y-96475257D01*
X154031026Y-96444295D01*
X154030475Y-96442535D01*
X154030455Y-96440322D01*
X154030455Y-96425015D01*
X154030456Y-96425002D01*
X154030456Y-96350496D01*
X154050141Y-96283457D01*
X154102945Y-96237702D01*
X154172103Y-96227758D01*
X154189054Y-96231421D01*
X154203427Y-96235597D01*
X154203428Y-96235597D01*
X154203431Y-96235598D01*
X154240306Y-96238500D01*
X154240314Y-96238500D01*
X155396686Y-96238500D01*
X155396694Y-96238500D01*
X155433569Y-96235598D01*
X155433571Y-96235597D01*
X155433573Y-96235597D01*
X155475191Y-96223505D01*
X155591398Y-96189744D01*
X155732865Y-96106081D01*
X155849081Y-95989865D01*
X155849267Y-95989549D01*
X155849477Y-95989353D01*
X155853861Y-95983702D01*
X155854772Y-95984409D01*
X155900336Y-95941866D01*
X155969077Y-95929362D01*
X156033667Y-95956006D01*
X156057855Y-95983921D01*
X156058139Y-95983702D01*
X156062179Y-95988911D01*
X156062732Y-95989548D01*
X156062919Y-95989865D01*
X156062921Y-95989867D01*
X156062923Y-95989870D01*
X156179129Y-96106076D01*
X156179133Y-96106079D01*
X156179135Y-96106081D01*
X156320602Y-96189744D01*
X156320609Y-96189746D01*
X156478426Y-96235597D01*
X156478429Y-96235597D01*
X156478431Y-96235598D01*
X156515306Y-96238500D01*
X156515314Y-96238500D01*
X157671686Y-96238500D01*
X157671694Y-96238500D01*
X157708569Y-96235598D01*
X157708571Y-96235597D01*
X157708573Y-96235597D01*
X157866392Y-96189746D01*
X157866392Y-96189745D01*
X157866398Y-96189744D01*
X157964050Y-96131992D01*
X158031769Y-96114811D01*
X158098032Y-96136970D01*
X158114848Y-96151045D01*
X159217409Y-97253606D01*
X159217438Y-97253637D01*
X159307658Y-97343857D01*
X159410100Y-97412307D01*
X159410112Y-97412314D01*
X159449043Y-97428439D01*
X159503447Y-97472279D01*
X159525512Y-97538573D01*
X159508233Y-97606273D01*
X159464716Y-97649730D01*
X159454315Y-97655881D01*
X159454307Y-97655887D01*
X159339887Y-97770307D01*
X159339881Y-97770315D01*
X159257505Y-97909606D01*
X159257504Y-97909609D01*
X159212357Y-98065002D01*
X159212356Y-98065008D01*
X159209500Y-98101302D01*
X159209500Y-98510697D01*
X159212356Y-98546991D01*
X159212357Y-98546997D01*
X159257504Y-98702390D01*
X159257505Y-98702393D01*
X159281738Y-98743369D01*
X159298921Y-98811093D01*
X159281739Y-98869610D01*
X159257968Y-98909805D01*
X159215496Y-99056000D01*
X159636213Y-99056000D01*
X159670808Y-99060923D01*
X159749007Y-99083643D01*
X159785310Y-99086500D01*
X159785318Y-99086500D01*
X159896000Y-99086500D01*
X159904685Y-99089050D01*
X159913647Y-99087762D01*
X159937687Y-99098740D01*
X159963039Y-99106185D01*
X159968966Y-99113025D01*
X159977203Y-99116787D01*
X159991492Y-99139021D01*
X160008794Y-99158989D01*
X160011081Y-99169503D01*
X160014977Y-99175565D01*
X160020000Y-99210500D01*
X160020000Y-99432000D01*
X160000315Y-99499039D01*
X159947511Y-99544794D01*
X159896000Y-99556000D01*
X159215496Y-99556000D01*
X159232609Y-99614906D01*
X159232409Y-99684775D01*
X159194466Y-99743445D01*
X159130828Y-99772288D01*
X159113532Y-99773500D01*
X159045302Y-99773500D01*
X159009008Y-99776356D01*
X159009002Y-99776357D01*
X158853609Y-99821504D01*
X158853608Y-99821504D01*
X158812629Y-99845739D01*
X158744905Y-99862920D01*
X158686388Y-99845738D01*
X158646193Y-99821967D01*
X158646190Y-99821965D01*
X158500001Y-99779493D01*
X158500000Y-99779494D01*
X158500000Y-100200213D01*
X158495076Y-100234809D01*
X158472357Y-100313005D01*
X158472356Y-100313008D01*
X158469500Y-100349302D01*
X158469500Y-100460000D01*
X158449815Y-100527039D01*
X158397011Y-100572794D01*
X158345500Y-100584000D01*
X158250000Y-100584000D01*
X158250000Y-100710000D01*
X158230315Y-100777039D01*
X158177511Y-100822794D01*
X158126000Y-100834000D01*
X157471210Y-100834000D01*
X157472854Y-100854910D01*
X157517968Y-101010195D01*
X157600278Y-101149374D01*
X157600285Y-101149383D01*
X157714616Y-101263714D01*
X157714625Y-101263721D01*
X157853804Y-101346031D01*
X157945714Y-101372733D01*
X158004600Y-101410339D01*
X158033807Y-101473812D01*
X158024061Y-101542998D01*
X158007769Y-101569494D01*
X157984490Y-101598456D01*
X157942166Y-101651109D01*
X157857560Y-101821702D01*
X157811600Y-102006507D01*
X157808700Y-102049279D01*
X157808700Y-102951522D01*
X157808701Y-102951525D01*
X157811599Y-102994286D01*
X157811599Y-102994287D01*
X157828593Y-103062620D01*
X157854105Y-103165206D01*
X157857560Y-103179096D01*
X157942167Y-103349692D01*
X157942169Y-103349695D01*
X158061477Y-103498121D01*
X158061478Y-103498122D01*
X158130686Y-103553753D01*
X158170605Y-103611096D01*
X158173185Y-103680918D01*
X158137606Y-103741051D01*
X158130686Y-103747047D01*
X158061478Y-103802677D01*
X158061477Y-103802678D01*
X157942169Y-103951104D01*
X157927346Y-103980994D01*
X157879925Y-104032307D01*
X157816258Y-104049900D01*
X154729500Y-104049900D01*
X154662461Y-104030215D01*
X154616706Y-103977411D01*
X154605500Y-103925900D01*
X154605500Y-101700856D01*
X154625185Y-101633817D01*
X154674046Y-101589947D01*
X154770788Y-101541576D01*
X154802750Y-101524378D01*
X154928153Y-101428153D01*
X155024378Y-101302750D01*
X155084868Y-101156715D01*
X155105500Y-101000000D01*
X155105500Y-100500000D01*
X155084868Y-100343285D01*
X155081022Y-100333999D01*
X157471209Y-100333999D01*
X157471210Y-100334000D01*
X158000000Y-100334000D01*
X158000000Y-99779494D01*
X157999998Y-99779493D01*
X157853809Y-99821965D01*
X157853806Y-99821967D01*
X157714625Y-99904278D01*
X157714616Y-99904285D01*
X157600285Y-100018616D01*
X157600278Y-100018625D01*
X157517968Y-100157804D01*
X157517966Y-100157809D01*
X157472855Y-100313081D01*
X157472854Y-100313087D01*
X157471209Y-100333999D01*
X155081022Y-100333999D01*
X155024378Y-100197250D01*
X154955302Y-100107228D01*
X154928154Y-100071848D01*
X154928148Y-100071841D01*
X154428158Y-99571851D01*
X154428151Y-99571845D01*
X154302750Y-99475622D01*
X154302747Y-99475620D01*
X154191612Y-99429587D01*
X154156715Y-99415132D01*
X154137125Y-99412553D01*
X154000007Y-99394500D01*
X154000000Y-99394500D01*
X152500000Y-99394500D01*
X152499992Y-99394500D01*
X152343285Y-99415132D01*
X152343284Y-99415132D01*
X152197252Y-99475620D01*
X152197249Y-99475622D01*
X152071848Y-99571845D01*
X152071841Y-99571851D01*
X151571851Y-100071841D01*
X151571845Y-100071848D01*
X151475622Y-100197249D01*
X151475619Y-100197254D01*
X151458188Y-100239336D01*
X151414346Y-100293738D01*
X151348052Y-100315802D01*
X151319437Y-100313498D01*
X151208846Y-100291500D01*
X151208842Y-100291500D01*
X151051158Y-100291500D01*
X151051155Y-100291500D01*
X150896510Y-100322261D01*
X150896498Y-100322264D01*
X150750827Y-100382602D01*
X150750814Y-100382609D01*
X150619711Y-100470210D01*
X150619707Y-100470213D01*
X150508213Y-100581707D01*
X150508210Y-100581711D01*
X150420609Y-100712814D01*
X150420602Y-100712827D01*
X150360264Y-100858498D01*
X150360261Y-100858510D01*
X150329500Y-101013153D01*
X150329500Y-101099445D01*
X150309815Y-101166484D01*
X150257011Y-101212239D01*
X150187853Y-101222183D01*
X150131189Y-101198712D01*
X150034331Y-101126204D01*
X150034329Y-101126203D01*
X150034328Y-101126202D01*
X149899482Y-101075908D01*
X149899483Y-101075908D01*
X149839883Y-101069501D01*
X149839881Y-101069500D01*
X149839873Y-101069500D01*
X149839864Y-101069500D01*
X148844129Y-101069500D01*
X148844123Y-101069501D01*
X148784516Y-101075908D01*
X148649671Y-101126202D01*
X148649664Y-101126206D01*
X148534455Y-101212452D01*
X148534452Y-101212455D01*
X148448206Y-101327664D01*
X148448203Y-101327669D01*
X148434715Y-101363834D01*
X148392843Y-101419767D01*
X148327379Y-101444184D01*
X148318533Y-101444500D01*
X146265467Y-101444500D01*
X146198428Y-101424815D01*
X146152673Y-101372011D01*
X146149285Y-101363834D01*
X146135796Y-101327669D01*
X146135793Y-101327664D01*
X146049547Y-101212455D01*
X146049544Y-101212452D01*
X145934335Y-101126206D01*
X145934328Y-101126202D01*
X145799482Y-101075908D01*
X145799483Y-101075908D01*
X145739883Y-101069501D01*
X145739881Y-101069500D01*
X145739873Y-101069500D01*
X145739864Y-101069500D01*
X144744129Y-101069500D01*
X144744123Y-101069501D01*
X144684516Y-101075908D01*
X144549671Y-101126202D01*
X144549664Y-101126206D01*
X144434455Y-101212452D01*
X144434452Y-101212455D01*
X144348206Y-101327664D01*
X144348202Y-101327671D01*
X144303386Y-101447833D01*
X144290116Y-101465559D01*
X144280917Y-101485703D01*
X144269585Y-101492985D01*
X144261515Y-101503766D01*
X144240769Y-101511504D01*
X144222139Y-101523477D01*
X144200221Y-101526628D01*
X144196051Y-101528184D01*
X144187204Y-101528500D01*
X144103878Y-101528500D01*
X144036839Y-101508815D01*
X144030763Y-101504519D01*
X143895990Y-101424815D01*
X143890395Y-101421506D01*
X143890394Y-101421505D01*
X143890393Y-101421505D01*
X143890390Y-101421504D01*
X143734997Y-101376357D01*
X143734991Y-101376356D01*
X143698697Y-101373500D01*
X143698690Y-101373500D01*
X143229310Y-101373500D01*
X143229302Y-101373500D01*
X143193008Y-101376356D01*
X143193002Y-101376357D01*
X143037609Y-101421504D01*
X143037606Y-101421505D01*
X142898315Y-101503881D01*
X142898307Y-101503887D01*
X142783887Y-101618307D01*
X142783881Y-101618315D01*
X142701505Y-101757606D01*
X142701504Y-101757609D01*
X142656357Y-101913002D01*
X142656356Y-101913008D01*
X142653500Y-101949302D01*
X142653500Y-102358697D01*
X142656356Y-102394991D01*
X142656357Y-102394997D01*
X142701504Y-102550390D01*
X142701505Y-102550393D01*
X142701506Y-102550395D01*
X142725737Y-102591367D01*
X142725738Y-102591369D01*
X142742921Y-102659093D01*
X142725739Y-102717610D01*
X142701968Y-102757805D01*
X142659496Y-102904000D01*
X143080213Y-102904000D01*
X143114808Y-102908923D01*
X143193007Y-102931643D01*
X143229310Y-102934500D01*
X143229318Y-102934500D01*
X143340000Y-102934500D01*
X143407039Y-102954185D01*
X143452794Y-103006989D01*
X143464000Y-103058500D01*
X143464000Y-103154000D01*
X143590000Y-103154000D01*
X143657039Y-103173685D01*
X143702794Y-103226489D01*
X143714000Y-103278000D01*
X143714000Y-103932789D01*
X143734910Y-103931145D01*
X143890195Y-103886031D01*
X144029374Y-103803721D01*
X144029383Y-103803714D01*
X144080319Y-103752779D01*
X144141642Y-103719294D01*
X144211334Y-103724278D01*
X144267267Y-103766150D01*
X144291684Y-103831614D01*
X144292000Y-103840460D01*
X144292000Y-104217844D01*
X144298401Y-104277372D01*
X144298403Y-104277379D01*
X144348645Y-104412086D01*
X144348649Y-104412093D01*
X144434809Y-104527187D01*
X144434812Y-104527190D01*
X144549906Y-104613350D01*
X144549913Y-104613354D01*
X144684620Y-104663596D01*
X144684627Y-104663598D01*
X144744155Y-104669999D01*
X144744172Y-104670000D01*
X144992000Y-104670000D01*
X145492000Y-104670000D01*
X145739828Y-104670000D01*
X145739844Y-104669999D01*
X145799372Y-104663598D01*
X145799379Y-104663596D01*
X145934086Y-104613354D01*
X145934093Y-104613350D01*
X146049187Y-104527190D01*
X146049190Y-104527187D01*
X146135350Y-104412093D01*
X146135354Y-104412086D01*
X146185596Y-104277379D01*
X146185598Y-104277372D01*
X146191999Y-104217844D01*
X148392000Y-104217844D01*
X148398401Y-104277372D01*
X148398403Y-104277379D01*
X148448645Y-104412086D01*
X148448649Y-104412093D01*
X148534809Y-104527187D01*
X148534812Y-104527190D01*
X148649906Y-104613350D01*
X148649913Y-104613354D01*
X148784620Y-104663596D01*
X148784627Y-104663598D01*
X148844155Y-104669999D01*
X148844172Y-104670000D01*
X149092000Y-104670000D01*
X149092000Y-103920000D01*
X148392000Y-103920000D01*
X148392000Y-104217844D01*
X146191999Y-104217844D01*
X146192000Y-104217827D01*
X146192000Y-103920000D01*
X145492000Y-103920000D01*
X145492000Y-104670000D01*
X144992000Y-104670000D01*
X144992000Y-103794000D01*
X145011685Y-103726961D01*
X145064489Y-103681206D01*
X145116000Y-103670000D01*
X145242000Y-103670000D01*
X145242000Y-103544000D01*
X145261685Y-103476961D01*
X145314489Y-103431206D01*
X145366000Y-103420000D01*
X146192000Y-103420000D01*
X146192000Y-103122172D01*
X146191999Y-103122155D01*
X146185598Y-103062627D01*
X146185597Y-103062623D01*
X146132253Y-102919602D01*
X146133612Y-102919094D01*
X146128793Y-102894674D01*
X146121616Y-102861674D01*
X146121972Y-102860108D01*
X146121810Y-102859286D01*
X146123201Y-102854712D01*
X146129979Y-102824950D01*
X146134038Y-102814679D01*
X146135796Y-102812331D01*
X146149715Y-102775010D01*
X146150145Y-102773924D01*
X146170921Y-102747262D01*
X146191156Y-102720233D01*
X146192324Y-102719797D01*
X146193092Y-102718812D01*
X146224979Y-102707617D01*
X146256620Y-102695816D01*
X146258819Y-102695737D01*
X146259017Y-102695668D01*
X146259244Y-102695722D01*
X146265466Y-102695500D01*
X148318533Y-102695500D01*
X148385572Y-102715185D01*
X148431327Y-102767989D01*
X148434715Y-102776166D01*
X148451303Y-102820640D01*
X148449733Y-102821225D01*
X148462383Y-102879367D01*
X148450687Y-102919206D01*
X148451746Y-102919601D01*
X148398403Y-103062620D01*
X148398401Y-103062627D01*
X148392000Y-103122155D01*
X148392000Y-103420000D01*
X149218000Y-103420000D01*
X149285039Y-103439685D01*
X149330794Y-103492489D01*
X149342000Y-103544000D01*
X149342000Y-103670000D01*
X149468000Y-103670000D01*
X149535039Y-103689685D01*
X149580794Y-103742489D01*
X149592000Y-103794000D01*
X149592000Y-104670000D01*
X149839828Y-104670000D01*
X149839844Y-104669999D01*
X149899372Y-104663598D01*
X149899379Y-104663596D01*
X150034086Y-104613354D01*
X150034093Y-104613350D01*
X150149187Y-104527190D01*
X150149190Y-104527187D01*
X150235350Y-104412093D01*
X150235354Y-104412086D01*
X150285596Y-104277379D01*
X150285598Y-104277372D01*
X150291999Y-104217844D01*
X150292000Y-104217827D01*
X150292000Y-103831167D01*
X150311685Y-103764128D01*
X150364489Y-103718373D01*
X150433647Y-103708429D01*
X150497203Y-103737454D01*
X150503681Y-103743486D01*
X150564307Y-103804112D01*
X150564311Y-103804115D01*
X150564313Y-103804117D01*
X150703605Y-103886494D01*
X150744587Y-103898400D01*
X150859002Y-103931642D01*
X150859005Y-103931642D01*
X150859007Y-103931643D01*
X150895310Y-103934500D01*
X151242703Y-103934500D01*
X151272143Y-103943144D01*
X151302130Y-103949668D01*
X151307145Y-103953422D01*
X151309742Y-103954185D01*
X151330384Y-103970819D01*
X151358181Y-103998616D01*
X151391666Y-104059939D01*
X151394500Y-104086297D01*
X151394500Y-106000007D01*
X151415132Y-106156714D01*
X151415132Y-106156715D01*
X151475621Y-106302750D01*
X151496764Y-106330303D01*
X151515671Y-106372729D01*
X151517693Y-106372151D01*
X151519313Y-106377815D01*
X151519314Y-106377818D01*
X151575291Y-106573449D01*
X151669502Y-106753807D01*
X151669504Y-106753809D01*
X151798090Y-106911509D01*
X151892003Y-106988084D01*
X151955793Y-107040098D01*
X152136151Y-107134309D01*
X152331782Y-107190286D01*
X152451163Y-107200900D01*
X153567236Y-107200899D01*
X153686618Y-107190286D01*
X153882249Y-107134309D01*
X154062607Y-107040098D01*
X154220309Y-106911509D01*
X154348898Y-106753807D01*
X154443109Y-106573449D01*
X154499086Y-106377818D01*
X154500127Y-106366104D01*
X154521752Y-106310621D01*
X154520313Y-106309790D01*
X154524372Y-106302757D01*
X154524378Y-106302750D01*
X154584868Y-106156715D01*
X154605500Y-106000000D01*
X154605500Y-105674900D01*
X154625185Y-105607861D01*
X154677989Y-105562106D01*
X154729500Y-105550900D01*
X157816258Y-105550900D01*
X157883297Y-105570585D01*
X157927346Y-105619806D01*
X157942169Y-105649695D01*
X158061477Y-105798121D01*
X158061478Y-105798122D01*
X158131084Y-105854073D01*
X158171003Y-105911416D01*
X158173583Y-105981238D01*
X158138004Y-106041371D01*
X158131085Y-106047367D01*
X158061831Y-106103035D01*
X157942592Y-106251374D01*
X157942590Y-106251377D01*
X157858031Y-106421876D01*
X157812097Y-106606575D01*
X157809200Y-106649303D01*
X157809200Y-106850400D01*
X160809200Y-106850400D01*
X160809200Y-106649306D01*
X160808958Y-106645735D01*
X165222700Y-106645735D01*
X165222700Y-108441470D01*
X165222701Y-108441476D01*
X165229108Y-108501083D01*
X165279402Y-108635928D01*
X165279406Y-108635935D01*
X165365652Y-108751144D01*
X165365655Y-108751147D01*
X165480864Y-108837393D01*
X165480871Y-108837397D01*
X165612282Y-108886410D01*
X165668216Y-108928281D01*
X165692633Y-108993745D01*
X165677782Y-109062018D01*
X165656631Y-109090273D01*
X165543089Y-109203815D01*
X165418151Y-109375779D01*
X165321644Y-109565185D01*
X165255953Y-109767360D01*
X165234730Y-109901356D01*
X165222700Y-109977313D01*
X165222700Y-110189887D01*
X165255954Y-110399843D01*
X165259231Y-110409930D01*
X165321644Y-110602014D01*
X165418151Y-110791420D01*
X165543090Y-110963386D01*
X165693413Y-111113709D01*
X165865379Y-111238648D01*
X165865381Y-111238649D01*
X165865384Y-111238651D01*
X165874693Y-111243394D01*
X165925490Y-111291366D01*
X165942287Y-111359187D01*
X165919752Y-111425322D01*
X165874705Y-111464360D01*
X165865646Y-111468976D01*
X165865640Y-111468980D01*
X165811482Y-111508327D01*
X165811482Y-111508328D01*
X166443791Y-112140637D01*
X166380207Y-112157675D01*
X166266193Y-112223501D01*
X166173101Y-112316593D01*
X166107275Y-112430607D01*
X166090237Y-112494191D01*
X165457928Y-111861882D01*
X165457927Y-111861882D01*
X165418580Y-111916039D01*
X165322104Y-112105382D01*
X165256442Y-112307469D01*
X165256442Y-112307472D01*
X165223200Y-112517353D01*
X165223200Y-112729846D01*
X165256442Y-112939727D01*
X165256442Y-112939730D01*
X165322104Y-113141817D01*
X165418575Y-113331150D01*
X165457928Y-113385316D01*
X166090237Y-112753008D01*
X166107275Y-112816593D01*
X166173101Y-112930607D01*
X166266193Y-113023699D01*
X166380207Y-113089525D01*
X166443790Y-113106562D01*
X165811482Y-113738869D01*
X165811482Y-113738870D01*
X165865649Y-113778224D01*
X166054982Y-113874695D01*
X166257070Y-113940357D01*
X166466954Y-113973600D01*
X166679446Y-113973600D01*
X166889327Y-113940357D01*
X166889330Y-113940357D01*
X167091417Y-113874695D01*
X167280754Y-113778222D01*
X167334916Y-113738870D01*
X167334917Y-113738870D01*
X166702608Y-113106562D01*
X166766193Y-113089525D01*
X166880207Y-113023699D01*
X166973299Y-112930607D01*
X167039125Y-112816593D01*
X167056162Y-112753009D01*
X167688470Y-113385317D01*
X167688470Y-113385316D01*
X167727822Y-113331154D01*
X167824295Y-113141817D01*
X167889957Y-112939730D01*
X167889957Y-112939727D01*
X167923200Y-112729846D01*
X167923200Y-112517353D01*
X167889957Y-112307472D01*
X167889957Y-112307469D01*
X167824295Y-112105382D01*
X167727824Y-111916049D01*
X167688470Y-111861882D01*
X167688469Y-111861882D01*
X167056162Y-112494190D01*
X167039125Y-112430607D01*
X166973299Y-112316593D01*
X166880207Y-112223501D01*
X166766193Y-112157675D01*
X166702609Y-112140637D01*
X167334916Y-111508328D01*
X167280747Y-111468973D01*
X167280747Y-111468972D01*
X167271700Y-111464363D01*
X167220906Y-111416388D01*
X167204112Y-111348566D01*
X167226651Y-111282432D01*
X167271708Y-111243393D01*
X167281016Y-111238651D01*
X167425130Y-111133947D01*
X167452986Y-111113709D01*
X167452988Y-111113706D01*
X167452992Y-111113704D01*
X167603304Y-110963392D01*
X167603306Y-110963388D01*
X167603309Y-110963386D01*
X167728248Y-110791420D01*
X167728247Y-110791420D01*
X167728251Y-110791416D01*
X167824757Y-110602012D01*
X167890446Y-110399843D01*
X167923700Y-110189887D01*
X167923700Y-109977313D01*
X167890446Y-109767357D01*
X167824757Y-109565188D01*
X167728251Y-109375784D01*
X167728249Y-109375781D01*
X167728248Y-109375779D01*
X167603309Y-109203813D01*
X167489769Y-109090273D01*
X167456284Y-109028950D01*
X167461268Y-108959258D01*
X167503140Y-108903325D01*
X167534115Y-108886410D01*
X167665531Y-108837396D01*
X167780746Y-108751146D01*
X167866996Y-108635931D01*
X167917291Y-108501083D01*
X167923700Y-108441473D01*
X167923699Y-106645728D01*
X167917291Y-106586117D01*
X167912566Y-106573449D01*
X167866997Y-106451271D01*
X167866993Y-106451264D01*
X167780747Y-106336055D01*
X167780744Y-106336052D01*
X167665535Y-106249806D01*
X167665528Y-106249802D01*
X167530682Y-106199508D01*
X167530683Y-106199508D01*
X167471083Y-106193101D01*
X167471081Y-106193100D01*
X167471073Y-106193100D01*
X167471064Y-106193100D01*
X165675329Y-106193100D01*
X165675323Y-106193101D01*
X165615716Y-106199508D01*
X165480871Y-106249802D01*
X165480864Y-106249806D01*
X165365655Y-106336052D01*
X165365652Y-106336055D01*
X165279406Y-106451264D01*
X165279402Y-106451271D01*
X165229108Y-106586117D01*
X165226909Y-106606575D01*
X165222701Y-106645723D01*
X165222700Y-106645735D01*
X160808958Y-106645735D01*
X160806302Y-106606575D01*
X160760368Y-106421876D01*
X160675809Y-106251377D01*
X160675807Y-106251374D01*
X160556567Y-106103033D01*
X160556566Y-106103032D01*
X160487315Y-106047367D01*
X160447396Y-105990024D01*
X160444816Y-105920202D01*
X160480394Y-105860069D01*
X160487289Y-105854094D01*
X160556922Y-105798122D01*
X160676230Y-105649696D01*
X160760841Y-105479093D01*
X160806800Y-105294289D01*
X160809700Y-105251523D01*
X160809699Y-104349278D01*
X160806800Y-104306511D01*
X160760841Y-104121707D01*
X160716503Y-104032307D01*
X160676232Y-103951107D01*
X160676230Y-103951104D01*
X160556922Y-103802678D01*
X160556921Y-103802677D01*
X160487714Y-103747047D01*
X160447795Y-103689704D01*
X160445215Y-103619882D01*
X160480794Y-103559749D01*
X160487714Y-103553753D01*
X160499847Y-103544000D01*
X160556922Y-103498122D01*
X160676230Y-103349696D01*
X160760841Y-103179093D01*
X160806800Y-102994289D01*
X160809700Y-102951523D01*
X160809699Y-102049278D01*
X160806800Y-102006511D01*
X160760841Y-101821707D01*
X160684318Y-101667412D01*
X160672167Y-101598611D01*
X160699143Y-101534159D01*
X160707716Y-101524650D01*
X160872797Y-101359569D01*
X160913024Y-101332691D01*
X160936679Y-101322894D01*
X161067789Y-101235289D01*
X161171521Y-101131556D01*
X161232842Y-101098073D01*
X161302534Y-101103057D01*
X161358468Y-101144928D01*
X161369965Y-101175753D01*
X161389536Y-101199600D01*
X162084400Y-101199600D01*
X162084400Y-100579600D01*
X161952129Y-100579600D01*
X161930883Y-100573361D01*
X161908795Y-100571782D01*
X161898011Y-100563709D01*
X161885090Y-100559915D01*
X161870590Y-100543181D01*
X161852862Y-100529910D01*
X161848154Y-100517289D01*
X161839335Y-100507111D01*
X161836183Y-100485193D01*
X161828445Y-100464446D01*
X161831307Y-100451285D01*
X161829391Y-100437953D01*
X161838590Y-100417809D01*
X161843297Y-100396173D01*
X161856565Y-100378447D01*
X161858416Y-100374397D01*
X161864448Y-100367919D01*
X161865948Y-100366419D01*
X161927271Y-100332934D01*
X161953629Y-100330100D01*
X162460400Y-100330100D01*
X162527439Y-100349785D01*
X162573194Y-100402589D01*
X162584400Y-100454100D01*
X162584400Y-101149600D01*
X162319904Y-101149600D01*
X162243604Y-101170044D01*
X162175195Y-101209540D01*
X162119340Y-101265395D01*
X162079844Y-101333804D01*
X162059400Y-101410104D01*
X162059400Y-101489096D01*
X162079844Y-101565396D01*
X162119340Y-101633805D01*
X162175195Y-101689660D01*
X162192412Y-101699600D01*
X161389538Y-101699600D01*
X161397830Y-101741290D01*
X161397830Y-101741292D01*
X161473207Y-101923271D01*
X161473214Y-101923284D01*
X161582648Y-102087062D01*
X161582651Y-102087066D01*
X161721933Y-102226348D01*
X161721937Y-102226351D01*
X161885715Y-102335785D01*
X161885728Y-102335792D01*
X162067706Y-102411169D01*
X162067718Y-102411172D01*
X162260904Y-102449599D01*
X162260908Y-102449600D01*
X162659400Y-102449600D01*
X162659400Y-101749600D01*
X163159400Y-101749600D01*
X163159400Y-102449600D01*
X163557892Y-102449600D01*
X163557895Y-102449599D01*
X163751081Y-102411172D01*
X163751093Y-102411169D01*
X163933071Y-102335792D01*
X163933084Y-102335785D01*
X164096862Y-102226351D01*
X164096866Y-102226348D01*
X164236148Y-102087066D01*
X164236151Y-102087062D01*
X164345585Y-101923284D01*
X164345592Y-101923271D01*
X164420969Y-101741292D01*
X164420969Y-101741290D01*
X164429262Y-101699600D01*
X163626388Y-101699600D01*
X163643605Y-101689660D01*
X163699460Y-101633805D01*
X163738956Y-101565396D01*
X163759400Y-101489096D01*
X163759400Y-101410104D01*
X163738956Y-101333804D01*
X163699460Y-101265395D01*
X163643605Y-101209540D01*
X163626388Y-101199600D01*
X164429262Y-101199600D01*
X165719538Y-101199600D01*
X166522412Y-101199600D01*
X166505195Y-101209540D01*
X166449340Y-101265395D01*
X166409844Y-101333804D01*
X166389400Y-101410104D01*
X166389400Y-101489096D01*
X166409844Y-101565396D01*
X166449340Y-101633805D01*
X166505195Y-101689660D01*
X166522412Y-101699600D01*
X165719538Y-101699600D01*
X165727830Y-101741290D01*
X165727830Y-101741292D01*
X165803207Y-101923271D01*
X165803214Y-101923284D01*
X165912648Y-102087062D01*
X165912651Y-102087066D01*
X166051933Y-102226348D01*
X166051937Y-102226351D01*
X166215715Y-102335785D01*
X166215728Y-102335792D01*
X166397706Y-102411169D01*
X166397718Y-102411172D01*
X166590904Y-102449599D01*
X166590908Y-102449600D01*
X166839400Y-102449600D01*
X166839400Y-101749600D01*
X167339400Y-101749600D01*
X167339400Y-102449600D01*
X167587892Y-102449600D01*
X167587895Y-102449599D01*
X167781081Y-102411172D01*
X167781093Y-102411169D01*
X167963071Y-102335792D01*
X167963084Y-102335785D01*
X168126862Y-102226351D01*
X168126866Y-102226348D01*
X168266148Y-102087066D01*
X168266151Y-102087062D01*
X168375585Y-101923284D01*
X168375592Y-101923271D01*
X168450969Y-101741292D01*
X168450969Y-101741290D01*
X168459262Y-101699600D01*
X167656388Y-101699600D01*
X167673605Y-101689660D01*
X167729460Y-101633805D01*
X167768956Y-101565396D01*
X167789400Y-101489096D01*
X167789400Y-101410104D01*
X167768956Y-101333804D01*
X167729460Y-101265395D01*
X167673605Y-101209540D01*
X167656388Y-101199600D01*
X168459262Y-101199600D01*
X168450969Y-101157909D01*
X168450969Y-101157907D01*
X168375592Y-100975928D01*
X168375585Y-100975915D01*
X168266151Y-100812137D01*
X168266148Y-100812133D01*
X168126866Y-100672851D01*
X168126862Y-100672848D01*
X167963084Y-100563414D01*
X167963071Y-100563407D01*
X167781093Y-100488030D01*
X167781081Y-100488027D01*
X167587895Y-100449600D01*
X167339400Y-100449600D01*
X167339400Y-101149600D01*
X166839400Y-101149600D01*
X166839400Y-100449600D01*
X166590904Y-100449600D01*
X166397718Y-100488027D01*
X166397706Y-100488030D01*
X166215728Y-100563407D01*
X166215715Y-100563414D01*
X166051937Y-100672848D01*
X166051933Y-100672851D01*
X165912651Y-100812133D01*
X165912648Y-100812137D01*
X165803214Y-100975915D01*
X165803207Y-100975928D01*
X165727830Y-101157907D01*
X165727830Y-101157909D01*
X165719538Y-101199600D01*
X164429262Y-101199600D01*
X164420969Y-101157909D01*
X164420969Y-101157907D01*
X164345592Y-100975928D01*
X164345585Y-100975915D01*
X164236151Y-100812137D01*
X164236148Y-100812133D01*
X164096866Y-100672851D01*
X164096862Y-100672848D01*
X163933084Y-100563414D01*
X163933075Y-100563409D01*
X163865200Y-100535295D01*
X163810797Y-100491454D01*
X163788732Y-100425160D01*
X163806011Y-100357461D01*
X163817346Y-100342870D01*
X163816955Y-100342570D01*
X163821897Y-100336128D01*
X163821902Y-100336124D01*
X163889769Y-100218575D01*
X163924900Y-100087467D01*
X163924900Y-99951733D01*
X163897390Y-99849066D01*
X163899053Y-99779218D01*
X163938215Y-99721356D01*
X163948267Y-99713876D01*
X164054416Y-99642952D01*
X164449951Y-99247416D01*
X164532084Y-99124495D01*
X164588658Y-98987913D01*
X164617500Y-98842918D01*
X164617500Y-98695083D01*
X164617500Y-95467082D01*
X164617500Y-95467079D01*
X164588659Y-95322092D01*
X164588658Y-95322091D01*
X164588658Y-95322087D01*
X164588656Y-95322082D01*
X164532087Y-95185511D01*
X164532080Y-95185498D01*
X164449952Y-95062585D01*
X164414969Y-95027602D01*
X164345416Y-94958049D01*
X164054416Y-94667048D01*
X163935951Y-94587894D01*
X163891145Y-94534282D01*
X163882438Y-94464957D01*
X163887698Y-94446435D01*
X163887665Y-94446426D01*
X163889769Y-94438575D01*
X163924900Y-94307467D01*
X163924900Y-94171733D01*
X163889769Y-94040625D01*
X163878617Y-94021310D01*
X163821904Y-93923079D01*
X163816955Y-93916630D01*
X163818942Y-93915104D01*
X163791487Y-93864823D01*
X163796471Y-93795131D01*
X163838343Y-93739198D01*
X163865202Y-93723903D01*
X163933077Y-93695789D01*
X163933084Y-93695785D01*
X164096862Y-93586351D01*
X164096866Y-93586348D01*
X164236148Y-93447066D01*
X164236151Y-93447062D01*
X164345585Y-93283284D01*
X164345592Y-93283271D01*
X164420969Y-93101292D01*
X164420969Y-93101290D01*
X164429262Y-93059600D01*
X163626388Y-93059600D01*
X163643605Y-93049660D01*
X163699460Y-92993805D01*
X163738956Y-92925396D01*
X163759400Y-92849096D01*
X163759400Y-92770104D01*
X163738956Y-92693804D01*
X163699460Y-92625395D01*
X163643605Y-92569540D01*
X163626388Y-92559600D01*
X164429262Y-92559600D01*
X165719538Y-92559600D01*
X166522412Y-92559600D01*
X166505195Y-92569540D01*
X166449340Y-92625395D01*
X166409844Y-92693804D01*
X166389400Y-92770104D01*
X166389400Y-92849096D01*
X166409844Y-92925396D01*
X166449340Y-92993805D01*
X166505195Y-93049660D01*
X166522412Y-93059600D01*
X165719538Y-93059600D01*
X165727830Y-93101290D01*
X165727830Y-93101292D01*
X165803207Y-93283271D01*
X165803214Y-93283284D01*
X165912648Y-93447062D01*
X165912651Y-93447066D01*
X166051933Y-93586348D01*
X166051937Y-93586351D01*
X166215715Y-93695785D01*
X166215728Y-93695792D01*
X166397706Y-93771169D01*
X166397718Y-93771172D01*
X166590904Y-93809599D01*
X166590908Y-93809600D01*
X166839400Y-93809600D01*
X166839400Y-93109600D01*
X167339400Y-93109600D01*
X167339400Y-93809600D01*
X167587892Y-93809600D01*
X167587895Y-93809599D01*
X167781081Y-93771172D01*
X167781093Y-93771169D01*
X167963071Y-93695792D01*
X167963084Y-93695785D01*
X168126862Y-93586351D01*
X168126866Y-93586348D01*
X168266148Y-93447066D01*
X168266151Y-93447062D01*
X168375585Y-93283284D01*
X168375592Y-93283271D01*
X168450969Y-93101292D01*
X168450969Y-93101290D01*
X168459262Y-93059600D01*
X167656388Y-93059600D01*
X167673605Y-93049660D01*
X167729460Y-92993805D01*
X167768956Y-92925396D01*
X167789400Y-92849096D01*
X167789400Y-92770104D01*
X167768956Y-92693804D01*
X167729460Y-92625395D01*
X167673605Y-92569540D01*
X167656388Y-92559600D01*
X168459262Y-92559600D01*
X168450969Y-92517909D01*
X168450969Y-92517907D01*
X168375592Y-92335928D01*
X168375585Y-92335915D01*
X168266151Y-92172137D01*
X168266148Y-92172133D01*
X168126866Y-92032851D01*
X168126862Y-92032848D01*
X167963084Y-91923414D01*
X167963071Y-91923407D01*
X167781093Y-91848030D01*
X167781081Y-91848027D01*
X167587895Y-91809600D01*
X167339400Y-91809600D01*
X167339400Y-92509600D01*
X166839400Y-92509600D01*
X166839400Y-91809600D01*
X166590904Y-91809600D01*
X166397718Y-91848027D01*
X166397706Y-91848030D01*
X166215728Y-91923407D01*
X166215715Y-91923414D01*
X166051937Y-92032848D01*
X166051933Y-92032851D01*
X165912651Y-92172133D01*
X165912648Y-92172137D01*
X165803214Y-92335915D01*
X165803207Y-92335928D01*
X165727830Y-92517907D01*
X165727830Y-92517909D01*
X165719538Y-92559600D01*
X164429262Y-92559600D01*
X164420969Y-92517909D01*
X164420969Y-92517907D01*
X164345592Y-92335928D01*
X164345585Y-92335915D01*
X164236151Y-92172137D01*
X164236148Y-92172133D01*
X164096866Y-92032851D01*
X164096862Y-92032848D01*
X163933084Y-91923414D01*
X163933071Y-91923407D01*
X163751093Y-91848030D01*
X163751081Y-91848027D01*
X163557895Y-91809600D01*
X163159400Y-91809600D01*
X163159400Y-92509600D01*
X162659400Y-92509600D01*
X162659400Y-91809600D01*
X162260904Y-91809600D01*
X162067718Y-91848027D01*
X162067706Y-91848030D01*
X161885728Y-91923407D01*
X161885715Y-91923414D01*
X161721937Y-92032848D01*
X161721933Y-92032851D01*
X161582651Y-92172133D01*
X161582648Y-92172137D01*
X161473214Y-92335915D01*
X161473207Y-92335928D01*
X161397830Y-92517907D01*
X161397830Y-92517909D01*
X161389538Y-92559600D01*
X162192412Y-92559600D01*
X162175195Y-92569540D01*
X162119340Y-92625395D01*
X162079844Y-92693804D01*
X162059400Y-92770104D01*
X162059400Y-92849096D01*
X162079844Y-92925396D01*
X162119340Y-92993805D01*
X162175195Y-93049660D01*
X162192412Y-93059600D01*
X161389538Y-93059600D01*
X161397830Y-93101290D01*
X161397830Y-93101292D01*
X161445391Y-93216115D01*
X161452860Y-93285584D01*
X161421585Y-93348063D01*
X161418514Y-93351246D01*
X161391718Y-93378043D01*
X161391713Y-93378049D01*
X161308118Y-93519401D01*
X161262299Y-93677113D01*
X161262104Y-93679598D01*
X161262105Y-93679600D01*
X162210400Y-93679600D01*
X162219085Y-93682150D01*
X162228047Y-93680862D01*
X162252087Y-93691840D01*
X162277439Y-93699285D01*
X162283366Y-93706125D01*
X162291603Y-93709887D01*
X162305892Y-93732121D01*
X162323194Y-93752089D01*
X162325481Y-93762603D01*
X162329377Y-93768665D01*
X162334400Y-93803600D01*
X162334400Y-93805100D01*
X162314715Y-93872139D01*
X162261911Y-93917894D01*
X162210400Y-93929100D01*
X161843698Y-93929100D01*
X161806832Y-93932001D01*
X161806826Y-93932002D01*
X161649006Y-93977854D01*
X161649003Y-93977855D01*
X161507537Y-94061517D01*
X161507533Y-94061520D01*
X161479189Y-94089865D01*
X161425771Y-94143282D01*
X161364451Y-94176766D01*
X161338092Y-94179600D01*
X161262105Y-94179600D01*
X161262104Y-94179601D01*
X161262299Y-94182088D01*
X161262300Y-94182091D01*
X161270962Y-94211904D01*
X161270887Y-94238158D01*
X161274624Y-94264147D01*
X161270789Y-94272543D01*
X161270763Y-94281773D01*
X161256506Y-94303818D01*
X161245599Y-94327703D01*
X161237834Y-94332692D01*
X161232822Y-94340444D01*
X161208905Y-94351283D01*
X161186821Y-94365477D01*
X161173304Y-94367420D01*
X161169184Y-94369288D01*
X161151886Y-94370500D01*
X160954500Y-94370500D01*
X160887461Y-94350815D01*
X160841706Y-94298011D01*
X160830500Y-94246500D01*
X160830500Y-94021317D01*
X160830499Y-94021302D01*
X160829463Y-94008142D01*
X160827643Y-93985007D01*
X160825565Y-93977856D01*
X160786609Y-93843768D01*
X160782494Y-93829605D01*
X160781011Y-93827098D01*
X160758261Y-93788629D01*
X160741078Y-93720906D01*
X160758263Y-93662384D01*
X160782031Y-93622196D01*
X160824504Y-93476000D01*
X160403787Y-93476000D01*
X160369191Y-93471076D01*
X160366630Y-93470332D01*
X160301605Y-93451440D01*
X160290994Y-93448357D01*
X160290991Y-93448356D01*
X160254697Y-93445500D01*
X160254690Y-93445500D01*
X159785310Y-93445500D01*
X159785302Y-93445500D01*
X159749008Y-93448356D01*
X159749005Y-93448357D01*
X159698950Y-93462900D01*
X159673370Y-93470332D01*
X159670809Y-93471076D01*
X159636213Y-93476000D01*
X159215496Y-93476000D01*
X159257968Y-93622195D01*
X159257968Y-93622196D01*
X159281738Y-93662388D01*
X159298921Y-93730112D01*
X159281739Y-93788629D01*
X159257504Y-93829608D01*
X159257504Y-93829609D01*
X159212357Y-93985002D01*
X159212356Y-93985008D01*
X159209500Y-94021302D01*
X159209500Y-94430702D01*
X159212063Y-94463267D01*
X159197698Y-94531644D01*
X159148645Y-94581399D01*
X159080480Y-94596737D01*
X159014843Y-94572787D01*
X159000764Y-94560674D01*
X158743819Y-94303729D01*
X158730350Y-94279064D01*
X158714145Y-94256095D01*
X158712545Y-94246456D01*
X158710334Y-94242406D01*
X158707616Y-94221410D01*
X158707500Y-94218729D01*
X158707500Y-94075072D01*
X158701409Y-94044452D01*
X158696808Y-94021317D01*
X158691970Y-93996990D01*
X158691970Y-93996989D01*
X158683464Y-93954231D01*
X158683463Y-93954230D01*
X158683463Y-93954226D01*
X158646431Y-93864823D01*
X158636312Y-93840394D01*
X158636307Y-93840385D01*
X158567859Y-93737946D01*
X158525698Y-93695785D01*
X158480733Y-93650820D01*
X158480732Y-93650819D01*
X158299974Y-93470062D01*
X158292813Y-93462900D01*
X158286076Y-93450560D01*
X158286074Y-93450557D01*
X158272914Y-93426452D01*
X158259334Y-93401583D01*
X158259333Y-93401577D01*
X158259332Y-93401575D01*
X158259332Y-93401568D01*
X158256500Y-93375225D01*
X158256500Y-93322313D01*
X158256499Y-93322298D01*
X158253598Y-93285432D01*
X158253597Y-93285426D01*
X158207745Y-93127606D01*
X158207744Y-93127603D01*
X158207744Y-93127602D01*
X158139503Y-93012212D01*
X158124085Y-92986140D01*
X158124076Y-92986129D01*
X158113947Y-92976000D01*
X159215496Y-92976000D01*
X159770000Y-92976000D01*
X160270000Y-92976000D01*
X160824504Y-92976000D01*
X160782031Y-92829804D01*
X160699721Y-92690625D01*
X160699714Y-92690616D01*
X160585383Y-92576285D01*
X160585374Y-92576278D01*
X160446195Y-92493968D01*
X160446190Y-92493966D01*
X160290918Y-92448855D01*
X160290912Y-92448854D01*
X160270000Y-92447209D01*
X160270000Y-92976000D01*
X159770000Y-92976000D01*
X159770000Y-92447210D01*
X159769999Y-92447209D01*
X159749087Y-92448854D01*
X159749081Y-92448855D01*
X159593809Y-92493966D01*
X159593804Y-92493968D01*
X159454625Y-92576278D01*
X159454616Y-92576285D01*
X159340285Y-92690616D01*
X159340278Y-92690625D01*
X159257968Y-92829804D01*
X159215496Y-92976000D01*
X158113947Y-92976000D01*
X158007870Y-92869923D01*
X158007862Y-92869917D01*
X157866396Y-92786255D01*
X157866393Y-92786254D01*
X157708573Y-92740402D01*
X157708567Y-92740401D01*
X157671701Y-92737500D01*
X157671694Y-92737500D01*
X156515306Y-92737500D01*
X156515298Y-92737500D01*
X156478432Y-92740401D01*
X156478426Y-92740402D01*
X156320606Y-92786254D01*
X156320603Y-92786255D01*
X156179137Y-92869917D01*
X156179129Y-92869923D01*
X156062923Y-92986129D01*
X156062914Y-92986140D01*
X156062729Y-92986455D01*
X156062519Y-92986650D01*
X156058139Y-92992298D01*
X156057227Y-92991591D01*
X156011657Y-93034136D01*
X155942915Y-93046637D01*
X155878327Y-93019988D01*
X155854143Y-92992078D01*
X155853861Y-92992298D01*
X155849823Y-92987092D01*
X155849271Y-92986455D01*
X155849085Y-92986140D01*
X155849076Y-92986129D01*
X155732870Y-92869923D01*
X155732862Y-92869917D01*
X155591396Y-92786255D01*
X155591393Y-92786254D01*
X155433573Y-92740402D01*
X155433567Y-92740401D01*
X155396701Y-92737500D01*
X155396694Y-92737500D01*
X154240306Y-92737500D01*
X154240298Y-92737500D01*
X154203432Y-92740401D01*
X154203426Y-92740402D01*
X154045606Y-92786254D01*
X154045603Y-92786255D01*
X153904137Y-92869917D01*
X153904133Y-92869920D01*
X153795325Y-92978728D01*
X153734002Y-93012212D01*
X153664310Y-93007228D01*
X153619963Y-92978727D01*
X152931819Y-92290583D01*
X152898334Y-92229260D01*
X152895500Y-92202902D01*
X152895500Y-92121945D01*
X152895500Y-92121943D01*
X152854577Y-91969216D01*
X152843411Y-91949876D01*
X152775524Y-91832290D01*
X152775518Y-91832282D01*
X152663717Y-91720481D01*
X152663712Y-91720477D01*
X152556499Y-91658578D01*
X152508283Y-91608011D01*
X152494499Y-91551191D01*
X152494499Y-90954129D01*
X152494498Y-90954123D01*
X152494497Y-90954116D01*
X152488091Y-90894517D01*
X152437796Y-90759669D01*
X152437794Y-90759666D01*
X152434696Y-90751360D01*
X152436426Y-90750714D01*
X152423902Y-90693163D01*
X152435691Y-90653011D01*
X152434696Y-90652640D01*
X152437794Y-90644333D01*
X152437796Y-90644331D01*
X152488091Y-90509483D01*
X152494500Y-90449873D01*
X152494499Y-89454128D01*
X152488091Y-89394517D01*
X152437796Y-89259669D01*
X152437794Y-89259666D01*
X152434696Y-89251360D01*
X152436426Y-89250714D01*
X152423902Y-89193163D01*
X152435691Y-89153011D01*
X152434696Y-89152640D01*
X152437794Y-89144333D01*
X152437796Y-89144331D01*
X152488091Y-89009483D01*
X152494500Y-88949873D01*
X152494499Y-87954128D01*
X152488091Y-87894517D01*
X152437796Y-87759669D01*
X152437794Y-87759666D01*
X152434696Y-87751360D01*
X152436426Y-87750714D01*
X152423902Y-87693163D01*
X152435691Y-87653011D01*
X152434696Y-87652640D01*
X152437794Y-87644333D01*
X152437796Y-87644331D01*
X152488091Y-87509483D01*
X152494500Y-87449873D01*
X152494499Y-86454128D01*
X152488091Y-86394517D01*
X152437796Y-86259669D01*
X152437794Y-86259666D01*
X152434696Y-86251360D01*
X152436426Y-86250714D01*
X152423902Y-86193163D01*
X152435691Y-86153011D01*
X152434696Y-86152640D01*
X152437794Y-86144333D01*
X152437796Y-86144331D01*
X152488091Y-86009483D01*
X152494500Y-85949873D01*
X152494499Y-84954128D01*
X152488091Y-84894517D01*
X152486504Y-84890263D01*
X152437797Y-84759671D01*
X152437795Y-84759667D01*
X152429582Y-84748697D01*
X152420242Y-84736220D01*
X152395824Y-84670758D01*
X152410674Y-84602485D01*
X152460078Y-84553078D01*
X152519598Y-84537909D01*
X154988373Y-84539726D01*
X154988481Y-84539758D01*
X155039738Y-84539793D01*
X155039738Y-84539794D01*
X155161420Y-84539880D01*
X155402330Y-84505407D01*
X155635877Y-84436984D01*
X155768850Y-84376342D01*
X155797717Y-84363178D01*
X155849168Y-84352000D01*
X156494000Y-84352000D01*
X156494000Y-83760155D01*
X156513685Y-83693116D01*
X156513702Y-83693089D01*
X156537128Y-83656658D01*
X156621435Y-83472138D01*
X156638262Y-83435310D01*
X156638262Y-83435309D01*
X156638264Y-83435305D01*
X156706852Y-83201806D01*
X156706852Y-83201799D01*
X156706854Y-83201796D01*
X156726580Y-83064621D01*
X156741494Y-82960921D01*
X156741494Y-82839239D01*
X156741494Y-82826215D01*
X156741494Y-82623553D01*
X162978700Y-82623553D01*
X162978700Y-82781246D01*
X163009461Y-82935889D01*
X163009464Y-82935901D01*
X163069802Y-83081572D01*
X163069809Y-83081585D01*
X163157410Y-83212688D01*
X163157413Y-83212692D01*
X163268907Y-83324186D01*
X163268911Y-83324189D01*
X163400014Y-83411790D01*
X163400027Y-83411797D01*
X163545698Y-83472135D01*
X163545703Y-83472137D01*
X163700353Y-83502899D01*
X163700356Y-83502900D01*
X163700358Y-83502900D01*
X163858044Y-83502900D01*
X163858045Y-83502899D01*
X164012697Y-83472137D01*
X164101618Y-83435305D01*
X164164008Y-83409463D01*
X164165072Y-83412033D01*
X164221686Y-83400144D01*
X164275066Y-83417027D01*
X164356005Y-83464894D01*
X164356008Y-83464894D01*
X164356010Y-83464896D01*
X164511402Y-83510042D01*
X164511405Y-83510042D01*
X164511407Y-83510043D01*
X164547710Y-83512900D01*
X164547718Y-83512900D01*
X164957082Y-83512900D01*
X164957090Y-83512900D01*
X164993393Y-83510043D01*
X164993395Y-83510042D01*
X164993397Y-83510042D01*
X165034375Y-83498136D01*
X165148795Y-83464894D01*
X165189279Y-83440951D01*
X165257002Y-83423768D01*
X165315520Y-83440951D01*
X165356005Y-83464894D01*
X165380935Y-83472137D01*
X165511402Y-83510042D01*
X165511405Y-83510042D01*
X165511407Y-83510043D01*
X165547710Y-83512900D01*
X165547718Y-83512900D01*
X165957082Y-83512900D01*
X165957090Y-83512900D01*
X165993393Y-83510043D01*
X165993395Y-83510042D01*
X165993397Y-83510042D01*
X166034375Y-83498136D01*
X166148795Y-83464894D01*
X166288087Y-83382517D01*
X166402517Y-83268087D01*
X166484894Y-83128795D01*
X166530043Y-82973393D01*
X166532900Y-82937090D01*
X166532900Y-82467710D01*
X166530043Y-82431407D01*
X166521179Y-82400898D01*
X166484895Y-82276009D01*
X166484894Y-82276006D01*
X166484894Y-82276005D01*
X166402517Y-82136713D01*
X166402515Y-82136711D01*
X166402512Y-82136707D01*
X166399419Y-82133614D01*
X166397768Y-82130591D01*
X166397734Y-82130547D01*
X166397741Y-82130541D01*
X166384715Y-82106686D01*
X166368123Y-82080868D01*
X166367231Y-82074667D01*
X166365934Y-82072291D01*
X166363100Y-82045933D01*
X166363100Y-81945176D01*
X166382785Y-81878137D01*
X166403061Y-81855772D01*
X166402415Y-81855126D01*
X166463346Y-81794195D01*
X166526619Y-81730922D01*
X166615040Y-81587569D01*
X166668019Y-81427690D01*
X166678100Y-81329012D01*
X166678100Y-80722988D01*
X166668019Y-80624310D01*
X166615040Y-80464431D01*
X166526619Y-80321078D01*
X166407522Y-80201981D01*
X166264169Y-80113560D01*
X166264168Y-80113559D01*
X166264167Y-80113559D01*
X166210246Y-80095691D01*
X166104290Y-80060581D01*
X166104288Y-80060580D01*
X166005619Y-80050500D01*
X166005612Y-80050500D01*
X165469588Y-80050500D01*
X165469580Y-80050500D01*
X165370911Y-80060580D01*
X165370910Y-80060581D01*
X165317932Y-80078136D01*
X165211032Y-80113559D01*
X165067676Y-80201982D01*
X165034926Y-80234732D01*
X164973602Y-80268217D01*
X164903911Y-80263231D01*
X164859565Y-80234731D01*
X164827210Y-80202376D01*
X164827206Y-80202373D01*
X164683965Y-80114020D01*
X164683954Y-80114015D01*
X164524183Y-80061073D01*
X164524186Y-80061073D01*
X164425589Y-80051000D01*
X164407600Y-80051000D01*
X164407600Y-80902000D01*
X164387915Y-80969039D01*
X164335111Y-81014794D01*
X164283600Y-81026000D01*
X164157600Y-81026000D01*
X164157600Y-81152000D01*
X164137915Y-81219039D01*
X164085111Y-81264794D01*
X164033600Y-81276000D01*
X163217600Y-81276000D01*
X163217600Y-81328989D01*
X163227673Y-81427584D01*
X163280615Y-81587354D01*
X163280620Y-81587365D01*
X163368973Y-81730606D01*
X163368976Y-81730610D01*
X163432561Y-81794195D01*
X163466046Y-81855518D01*
X163461062Y-81925210D01*
X163419190Y-81981143D01*
X163403341Y-81991230D01*
X163400024Y-81993002D01*
X163268911Y-82080610D01*
X163268907Y-82080613D01*
X163157413Y-82192107D01*
X163157410Y-82192111D01*
X163069809Y-82323214D01*
X163069802Y-82323227D01*
X163009464Y-82468898D01*
X163009461Y-82468910D01*
X162978700Y-82623553D01*
X156741494Y-82623553D01*
X156741494Y-80723010D01*
X163217600Y-80723010D01*
X163217600Y-80776000D01*
X163907600Y-80776000D01*
X163907600Y-80051000D01*
X163889610Y-80051000D01*
X163791015Y-80061073D01*
X163631245Y-80114015D01*
X163631234Y-80114020D01*
X163487993Y-80202373D01*
X163487989Y-80202376D01*
X163368976Y-80321389D01*
X163368973Y-80321393D01*
X163280620Y-80464634D01*
X163280615Y-80464645D01*
X163227673Y-80624415D01*
X163217600Y-80723010D01*
X156741494Y-80723010D01*
X156741494Y-79241757D01*
X156743019Y-79222370D01*
X156753082Y-79158836D01*
X156765066Y-79121954D01*
X156789780Y-79073449D01*
X156812580Y-79042069D01*
X156851069Y-79003579D01*
X156882447Y-78980781D01*
X156930950Y-78956067D01*
X156967842Y-78944080D01*
X157015479Y-78936535D01*
X157031320Y-78934027D01*
X157050717Y-78932500D01*
X168559071Y-78932500D01*
X168628243Y-78932500D01*
X168647626Y-78934024D01*
X168711155Y-78944086D01*
X168748045Y-78956073D01*
X168796542Y-78980783D01*
X168827929Y-79003587D01*
X168866411Y-79042069D01*
X168889215Y-79073455D01*
X168913925Y-79121951D01*
X168925913Y-79158846D01*
X168935967Y-79222319D01*
X168937494Y-79241719D01*
X168937494Y-124809244D01*
X168935967Y-124828642D01*
X168925908Y-124892150D01*
X168913919Y-124929049D01*
X168889211Y-124977539D01*
X168866409Y-125008922D01*
X168827925Y-125047407D01*
X168796536Y-125070213D01*
X168748042Y-125094921D01*
X168711148Y-125106908D01*
X168670835Y-125113293D01*
X168647599Y-125116973D01*
X168628204Y-125118500D01*
X97822756Y-125118500D01*
X97803357Y-125116973D01*
X97739846Y-125106913D01*
X97702950Y-125094925D01*
X97654456Y-125070216D01*
X97623069Y-125047411D01*
X97584585Y-125008926D01*
X97561782Y-124977541D01*
X97537073Y-124929047D01*
X97525086Y-124892156D01*
X97515019Y-124828591D01*
X97513494Y-124809206D01*
X97513494Y-113194657D01*
X100676505Y-113194657D01*
X100711013Y-113412523D01*
X100790051Y-113655781D01*
X100790052Y-113655784D01*
X100906175Y-113883686D01*
X101056521Y-114090619D01*
X101237380Y-114271478D01*
X101444313Y-114421824D01*
X101672215Y-114537947D01*
X101672218Y-114537948D01*
X101915474Y-114616986D01*
X101915478Y-114616987D01*
X101959416Y-114623946D01*
X102008984Y-113708672D01*
X102081609Y-113738754D01*
X102223609Y-113767000D01*
X102368391Y-113767000D01*
X102508064Y-113739216D01*
X102458657Y-114651492D01*
X102458657Y-114651493D01*
X102676523Y-114616986D01*
X102919781Y-114537948D01*
X102919784Y-114537947D01*
X103147686Y-114421824D01*
X103354619Y-114271478D01*
X103535478Y-114090619D01*
X103685824Y-113883686D01*
X103801947Y-113655784D01*
X103801948Y-113655781D01*
X103880984Y-113412529D01*
X103887945Y-113368581D01*
X102972672Y-113319013D01*
X103002754Y-113246391D01*
X103031000Y-113104391D01*
X103031000Y-112959609D01*
X103003216Y-112819932D01*
X103915492Y-112869341D01*
X103915493Y-112869341D01*
X103880986Y-112651476D01*
X103801948Y-112408218D01*
X103801947Y-112408215D01*
X103685824Y-112180313D01*
X103535478Y-111973380D01*
X103354619Y-111792521D01*
X103147686Y-111642175D01*
X102919784Y-111526052D01*
X102919781Y-111526051D01*
X102676518Y-111447012D01*
X102632582Y-111440053D01*
X102583013Y-112355327D01*
X102510391Y-112325246D01*
X102368391Y-112297000D01*
X102223609Y-112297000D01*
X102083932Y-112324783D01*
X102133341Y-111412505D01*
X101915476Y-111447013D01*
X101672218Y-111526051D01*
X101672215Y-111526052D01*
X101444313Y-111642175D01*
X101237380Y-111792521D01*
X101056521Y-111973380D01*
X100906175Y-112180313D01*
X100790052Y-112408215D01*
X100790051Y-112408218D01*
X100711012Y-112651481D01*
X100704053Y-112695416D01*
X101619327Y-112744984D01*
X101589246Y-112817609D01*
X101561000Y-112959609D01*
X101561000Y-113104391D01*
X101588783Y-113244065D01*
X100676505Y-113194657D01*
X97513494Y-113194657D01*
X97513494Y-79241757D01*
X97515019Y-79222370D01*
X97525082Y-79158836D01*
X97537066Y-79121954D01*
X97561780Y-79073449D01*
X97584580Y-79042069D01*
X97623069Y-79003579D01*
X97654447Y-78980781D01*
X97702950Y-78956067D01*
X97739842Y-78944080D01*
X97787479Y-78936535D01*
X97803320Y-78934027D01*
X97822717Y-78932500D01*
X127784071Y-78932500D01*
X127853243Y-78932500D01*
X127872626Y-78934024D01*
G37*
%TD.AperFunction*%
%TD*%
M02*
