%TF.GenerationSoftware,KiCad,Pcbnew,9.0.6*%
%TF.CreationDate,2026-03-20T21:22:47-04:00*%
%TF.ProjectId,spotifyPlayerPcb,73706f74-6966-4795-906c-617965725063,rev?*%
%TF.SameCoordinates,Original*%
%TF.FileFunction,Soldermask,Top*%
%TF.FilePolarity,Negative*%
%FSLAX46Y46*%
G04 Gerber Fmt 4.6, Leading zero omitted, Abs format (unit mm)*
G04 Created by KiCad (PCBNEW 9.0.6) date 2026-03-20 21:22:47*
%MOMM*%
%LPD*%
G01*
G04 APERTURE LIST*
G04 Aperture macros list*
%AMRoundRect*
0 Rectangle with rounded corners*
0 $1 Rounding radius*
0 $2 $3 $4 $5 $6 $7 $8 $9 X,Y pos of 4 corners*
0 Add a 4 corners polygon primitive as box body*
4,1,4,$2,$3,$4,$5,$6,$7,$8,$9,$2,$3,0*
0 Add four circle primitives for the rounded corners*
1,1,$1+$1,$2,$3*
1,1,$1+$1,$4,$5*
1,1,$1+$1,$6,$7*
1,1,$1+$1,$8,$9*
0 Add four rect primitives between the rounded corners*
20,1,$1+$1,$2,$3,$4,$5,0*
20,1,$1+$1,$4,$5,$6,$7,0*
20,1,$1+$1,$6,$7,$8,$9,0*
20,1,$1+$1,$8,$9,$2,$3,0*%
G04 Aperture macros list end*
%ADD10RoundRect,0.159000X0.159000X0.189000X-0.159000X0.189000X-0.159000X-0.189000X0.159000X-0.189000X0*%
%ADD11C,6.250000*%
%ADD12C,2.300000*%
%ADD13C,2.250000*%
%ADD14RoundRect,0.150000X0.512500X0.150000X-0.512500X0.150000X-0.512500X-0.150000X0.512500X-0.150000X0*%
%ADD15RoundRect,0.159000X0.189000X-0.159000X0.189000X0.159000X-0.189000X0.159000X-0.189000X-0.159000X0*%
%ADD16RoundRect,0.159000X-0.189000X0.159000X-0.189000X-0.159000X0.189000X-0.159000X0.189000X0.159000X0*%
%ADD17RoundRect,0.159000X-0.159000X-0.189000X0.159000X-0.189000X0.159000X0.189000X-0.159000X0.189000X0*%
%ADD18C,0.650000*%
%ADD19RoundRect,0.150000X0.425000X-0.150000X0.425000X0.150000X-0.425000X0.150000X-0.425000X-0.150000X0*%
%ADD20RoundRect,0.075000X0.500000X-0.075000X0.500000X0.075000X-0.500000X0.075000X-0.500000X-0.075000X0*%
%ADD21O,2.100000X1.000000*%
%ADD22O,1.800000X1.000000*%
%ADD23R,1.700000X1.700000*%
%ADD24C,1.700000*%
%ADD25R,0.900000X1.000000*%
%ADD26RoundRect,0.375000X0.625000X0.375000X-0.625000X0.375000X-0.625000X-0.375000X0.625000X-0.375000X0*%
%ADD27RoundRect,0.500000X0.500000X1.400000X-0.500000X1.400000X-0.500000X-1.400000X0.500000X-1.400000X0*%
%ADD28RoundRect,0.239000X-0.239000X-0.274000X0.239000X-0.274000X0.239000X0.274000X-0.239000X0.274000X0*%
%ADD29C,1.800000*%
%ADD30R,1.500000X0.900000*%
%ADD31C,0.600000*%
%ADD32R,2.900000X2.900000*%
G04 APERTURE END LIST*
D10*
%TO.C,R4*%
X129986000Y-99830000D03*
X128986000Y-99830000D03*
%TD*%
D11*
%TO.C,SW1*%
X106426000Y-116332000D03*
D12*
X106426000Y-112632000D03*
D13*
X106426000Y-110282000D03*
X102296000Y-113032000D03*
%TD*%
D10*
%TO.C,C3*%
X159250000Y-100584000D03*
X158250000Y-100584000D03*
%TD*%
D11*
%TO.C,SW5*%
X139954000Y-116332000D03*
D12*
X139954000Y-112632000D03*
D13*
X139954000Y-110282000D03*
X135824000Y-113032000D03*
%TD*%
D11*
%TO.C,SW3*%
X123190000Y-116332000D03*
D12*
X123190000Y-112632000D03*
D13*
X123190000Y-110282000D03*
X119060000Y-113032000D03*
%TD*%
D14*
%TO.C,U1*%
X157093500Y-95438000D03*
X157093500Y-94488000D03*
X157093500Y-93538000D03*
X154818500Y-93538000D03*
X154818500Y-94488000D03*
X154818500Y-95438000D03*
%TD*%
D15*
%TO.C,R2*%
X151130000Y-103154000D03*
X151130000Y-102154000D03*
%TD*%
D16*
%TO.C,R5*%
X160020000Y-98306000D03*
X160020000Y-99306000D03*
%TD*%
D15*
%TO.C,R3*%
X160020000Y-94226000D03*
X160020000Y-93226000D03*
%TD*%
D17*
%TO.C,R8*%
X164752400Y-82702400D03*
X165752400Y-82702400D03*
%TD*%
D16*
%TO.C,C2*%
X141178000Y-102154000D03*
X141178000Y-103154000D03*
%TD*%
D17*
%TO.C,R11*%
X128978000Y-93726000D03*
X129978000Y-93726000D03*
%TD*%
D10*
%TO.C,R7*%
X129986000Y-101854000D03*
X128986000Y-101854000D03*
%TD*%
D17*
%TO.C,R10*%
X128986000Y-91520000D03*
X129986000Y-91520000D03*
%TD*%
D15*
%TO.C,R6*%
X133604000Y-103154000D03*
X133604000Y-102154000D03*
%TD*%
D16*
%TO.C,C1*%
X143464000Y-102154000D03*
X143464000Y-103154000D03*
%TD*%
D10*
%TO.C,R1*%
X129986000Y-97790000D03*
X128986000Y-97790000D03*
%TD*%
D18*
%TO.C,J1*%
X163409400Y-100019600D03*
X163409400Y-94239600D03*
D19*
X162334400Y-100329600D03*
X162334400Y-99529600D03*
D20*
X162334400Y-98379600D03*
X162334400Y-97379600D03*
X162334400Y-96879600D03*
X162334400Y-95879600D03*
D19*
X162334400Y-94729600D03*
X162334400Y-93929600D03*
X162334400Y-93929600D03*
X162334400Y-94729600D03*
D20*
X162334400Y-95379600D03*
X162334400Y-96379600D03*
X162334400Y-97879600D03*
X162334400Y-98879600D03*
D19*
X162334400Y-99529600D03*
X162334400Y-100329600D03*
D21*
X162909400Y-101449600D03*
D22*
X167089400Y-101449600D03*
D21*
X162909400Y-92809600D03*
D22*
X167089400Y-92809600D03*
%TD*%
D17*
%TO.C,R9*%
X128978000Y-95758000D03*
X129978000Y-95758000D03*
%TD*%
D23*
%TO.C,J2*%
X166573200Y-107543600D03*
D24*
X166573200Y-110083600D03*
X166573200Y-112623600D03*
%TD*%
D25*
%TO.C,SW2*%
X145242000Y-102070000D03*
X149342000Y-102070000D03*
X145242000Y-103670000D03*
X149342000Y-103670000D03*
%TD*%
D16*
%TO.C,C5*%
X128750000Y-85750000D03*
X128750000Y-86750000D03*
%TD*%
D26*
%TO.C,U2*%
X159309200Y-107100400D03*
X159309200Y-104800400D03*
D27*
X153009200Y-104800400D03*
D26*
X159309200Y-102500400D03*
%TD*%
D16*
%TO.C,C4*%
X130000000Y-85750000D03*
X130000000Y-86750000D03*
%TD*%
D25*
%TO.C,SW4*%
X135336000Y-102070000D03*
X139436000Y-102070000D03*
X135336000Y-103670000D03*
X139436000Y-103670000D03*
%TD*%
D28*
%TO.C,D1*%
X164157600Y-81026000D03*
X165737600Y-81026000D03*
%TD*%
D29*
%TO.C,U4*%
X108966000Y-81280000D03*
X111506000Y-81280000D03*
X114046000Y-81280000D03*
X116586000Y-81280000D03*
%TD*%
D30*
%TO.C,U3*%
X133744000Y-85452000D03*
X133744000Y-86952000D03*
X133744000Y-88452000D03*
X133744000Y-89952000D03*
X133744000Y-91452000D03*
X133744000Y-92952000D03*
X133744000Y-94452000D03*
X133744000Y-95952000D03*
X133744000Y-97452000D03*
X151244000Y-97452000D03*
X151244000Y-95952000D03*
X151244000Y-94452000D03*
X151244000Y-92952000D03*
X151244000Y-91452000D03*
X151244000Y-89952000D03*
X151244000Y-88452000D03*
X151244000Y-86952000D03*
X151244000Y-85452000D03*
D31*
X142354000Y-91102000D03*
X142354000Y-92202000D03*
X142904000Y-90552000D03*
X142904000Y-91652000D03*
X142904000Y-92752000D03*
X143454000Y-91102000D03*
D32*
X143454000Y-91652000D03*
D31*
X143454000Y-92202000D03*
X144004000Y-90552000D03*
X144004000Y-91652000D03*
X144004000Y-92752000D03*
X144554000Y-91102000D03*
X144554000Y-92202000D03*
%TD*%
M02*
